<?xml version="1.0" encoding="UTF-8" standalone="no"?>
<!DOCTYPE svg PUBLIC "-//W3C//DTD SVG 1.1//EN"
 "http://www.w3.org/Graphics/SVG/1.1/DTD/svg11.dtd">
<!-- Generated by graphviz version 2.38.0 (20140413.2041)
 -->
<!-- Title: %3 Pages: 1 -->
<svg width="508pt" height="399pt"
 viewBox="0.00 0.00 507.85 399.00" xmlns="http://www.w3.org/2000/svg" xmlns:xlink="http://www.w3.org/1999/xlink">
<g id="graph0" class="graph" transform="scale(1 1) rotate(0) translate(4 395)">
<title>%3</title>
<polygon fill="white" stroke="none" points="-4,4 -4,-395 503.853,-395 503.853,4 -4,4"/>
<!-- c_{k&#45;2} -->
<g id="node1" class="node"><title>c_{k&#45;2}</title>
<polygon fill="#b4eeb4" stroke="black" stroke-width="2" points="170.353,-391 85.3529,-391 85.3529,-355 170.353,-355 170.353,-391"/>
<text text-anchor="middle" x="127.853" y="-368" font-family="times" font-size="20.00">c_{k&#45;2}</text>
</g>
<!-- 0 -->
<g id="node3" class="node"><title>0</title>
<polygon fill="lightblue" stroke="black" stroke-width="2" points="278.853,-297 242.853,-297 242.853,-261 278.853,-261 278.853,-297"/>
<text text-anchor="middle" x="260.853" y="-274" font-family="times" font-size="20.00">0</text>
</g>
<!-- c_{k&#45;2}&#45;&gt;0 -->
<g id="edge1" class="edge"><title>c_{k&#45;2}&#45;&gt;0</title>
<path fill="none" stroke="black" d="M128.799,-354.862C130.435,-342.078 134.733,-325.138 145.853,-315 173.747,-289.569 193.407,-309.977 228.853,-297 230.293,-296.473 231.749,-295.892 233.204,-295.272"/>
<polygon fill="gray" stroke="black" points="235.114,-298.24 242.638,-290.78 232.104,-291.92 235.114,-298.24"/>
<text text-anchor="middle" x="166.853" y="-321" font-family="times" font-size="20.00">conv</text>
</g>
<!-- 1 -->
<g id="node4" class="node"><title>1</title>
<polygon fill="lightblue" stroke="black" stroke-width="2" points="332.853,-297 296.853,-297 296.853,-261 332.853,-261 332.853,-297"/>
<text text-anchor="middle" x="314.853" y="-274" font-family="times" font-size="20.00">1</text>
</g>
<!-- c_{k&#45;2}&#45;&gt;1 -->
<g id="edge3" class="edge"><title>c_{k&#45;2}&#45;&gt;1</title>
<path fill="none" stroke="black" d="M161.535,-354.964C170.487,-349.752 179.876,-343.628 187.853,-337 197.79,-328.744 195.762,-321.626 206.853,-315 236.038,-297.563 251.267,-308.902 287.131,-296.328"/>
<polygon fill="gray" stroke="black" points="288.674,-299.483 296.715,-292.584 286.127,-292.963 288.674,-299.483"/>
<text text-anchor="middle" x="263.353" y="-321" font-family="times" font-size="20.00">shuffle_conv</text>
</g>
<!-- 2 -->
<g id="node5" class="node"><title>2</title>
<polygon fill="lightblue" stroke="black" stroke-width="2" points="150.853,-203 114.853,-203 114.853,-167 150.853,-167 150.853,-203"/>
<text text-anchor="middle" x="132.853" y="-180" font-family="times" font-size="20.00">2</text>
</g>
<!-- c_{k&#45;2}&#45;&gt;2 -->
<g id="edge5" class="edge"><title>c_{k&#45;2}&#45;&gt;2</title>
<path fill="none" stroke="black" d="M125.236,-354.684C122.286,-332.834 118.221,-294.107 120.853,-261 122.119,-245.078 124.873,-227.433 127.424,-213.26"/>
<polygon fill="gray" stroke="black" points="130.91,-213.657 129.307,-203.184 124.029,-212.371 130.91,-213.657"/>
<text text-anchor="middle" x="177.353" y="-274" font-family="times" font-size="20.00">shuffle_conv</text>
</g>
<!-- 3 -->
<g id="node6" class="node"><title>3</title>
<polygon fill="lightblue" stroke="black" stroke-width="2" points="112.853,-109 76.8529,-109 76.8529,-73 112.853,-73 112.853,-109"/>
<text text-anchor="middle" x="94.8529" y="-86" font-family="times" font-size="20.00">3</text>
</g>
<!-- c_{k&#45;2}&#45;&gt;3 -->
<g id="edge8" class="edge"><title>c_{k&#45;2}&#45;&gt;3</title>
<path fill="none" stroke="black" d="M102.419,-354.834C72.5111,-332.939 24.4619,-291.981 4.85288,-243 -15.2234,-192.852 35.4859,-139.865 68.6949,-111.937"/>
<polygon fill="gray" stroke="black" points="71.1756,-114.43 76.7071,-105.394 66.7478,-109.009 71.1756,-114.43"/>
<text text-anchor="middle" x="61.3529" y="-227" font-family="times" font-size="20.00">shuffle_conv</text>
</g>
<!-- c_{k&#45;1} -->
<g id="node2" class="node"><title>c_{k&#45;1}</title>
<polygon fill="#b4eeb4" stroke="black" stroke-width="2" points="432.353,-391 347.353,-391 347.353,-355 432.353,-355 432.353,-391"/>
<text text-anchor="middle" x="389.853" y="-368" font-family="times" font-size="20.00">c_{k&#45;1}</text>
</g>
<!-- c_{k&#45;1}&#45;&gt;0 -->
<g id="edge2" class="edge"><title>c_{k&#45;1}&#45;&gt;0</title>
<path fill="none" stroke="black" d="M364.652,-354.803C357.356,-349.414 349.557,-343.236 342.853,-337 333.393,-328.201 334.051,-322.932 323.853,-315 309.733,-304.017 303.441,-305.776 287.853,-297 287.762,-296.949 287.672,-296.898 287.581,-296.847"/>
<polygon fill="gray" stroke="black" points="289.394,-293.852 279.006,-291.769 285.827,-299.876 289.394,-293.852"/>
<text text-anchor="middle" x="375.853" y="-321" font-family="times" font-size="20.00">identity</text>
</g>
<!-- c_{k&#45;1}&#45;&gt;1 -->
<g id="edge4" class="edge"><title>c_{k&#45;1}&#45;&gt;1</title>
<path fill="none" stroke="black" d="M405.228,-354.762C413.882,-342.887 421.397,-327.125 412.853,-315 397.22,-292.817 366.193,-284.616 343.218,-281.627"/>
<polygon fill="gray" stroke="black" points="343.311,-278.117 333.002,-280.563 342.586,-285.08 343.311,-278.117"/>
<text text-anchor="middle" x="457.853" y="-321" font-family="times" font-size="20.00">sep_conv</text>
</g>
<!-- 0&#45;&gt;2 -->
<g id="edge6" class="edge"><title>0&#45;&gt;2</title>
<path fill="none" stroke="black" d="M242.571,-267.395C238.167,-265.092 233.415,-262.808 228.853,-261 200.587,-249.799 186.566,-262.03 162.853,-243 153.171,-235.23 146.244,-223.479 141.504,-212.662"/>
<polygon fill="gray" stroke="black" points="144.671,-211.153 137.75,-203.132 138.159,-213.718 144.671,-211.153"/>
<text text-anchor="middle" x="204.853" y="-227" font-family="times" font-size="20.00">sep_conv</text>
</g>
<!-- c_{k} -->
<g id="node7" class="node"><title>c_{k}</title>
<polygon fill="palegoldenrod" stroke="black" stroke-width="2" points="274.853,-36 208.853,-36 208.853,-0 274.853,-0 274.853,-36"/>
<text text-anchor="middle" x="241.853" y="-13" font-family="times" font-size="20.00">c_{k}</text>
</g>
<!-- 0&#45;&gt;c_{k} -->
<g id="edge9" class="edge"><title>0&#45;&gt;c_{k}</title>
<path fill="none" stroke="black" d="M260.245,-260.819C258.813,-223.239 254.741,-130.942 246.853,-54 246.59,-51.4354 246.279,-48.7703 245.942,-46.1066"/>
<polygon fill="gray" stroke="black" points="249.39,-45.4895 244.567,-36.0564 242.455,-46.4387 249.39,-45.4895"/>
</g>
<!-- 1&#45;&gt;c_{k} -->
<g id="edge10" class="edge"><title>1&#45;&gt;c_{k}</title>
<path fill="none" stroke="black" d="M312.307,-260.969C306.286,-222.918 289.485,-128.493 260.853,-54 259.723,-51.0615 258.395,-48.0612 256.973,-45.1139"/>
<polygon fill="gray" stroke="black" points="259.965,-43.28 252.248,-36.0207 253.754,-46.508 259.965,-43.28"/>
</g>
<!-- 2&#45;&gt;3 -->
<g id="edge7" class="edge"><title>2&#45;&gt;3</title>
<path fill="none" stroke="black" d="M114.695,-171.837C107.431,-165.893 99.849,-158.061 95.8529,-149 91.8055,-139.822 90.8059,-128.978 91.0753,-119.226"/>
<polygon fill="gray" stroke="black" points="94.57,-119.423 91.7815,-109.201 87.5873,-118.931 94.57,-119.423"/>
<text text-anchor="middle" x="152.353" y="-133" font-family="times" font-size="20.00">shuffle_conv</text>
</g>
<!-- 2&#45;&gt;c_{k} -->
<g id="edge11" class="edge"><title>2&#45;&gt;c_{k}</title>
<path fill="none" stroke="black" d="M150.956,-180.381C168.341,-175.957 194.081,-166.756 208.853,-149 233.15,-119.794 239.881,-75.0112 241.567,-46.3698"/>
<polygon fill="gray" stroke="black" points="245.069,-46.3874 241.993,-36.2492 238.076,-46.0933 245.069,-46.3874"/>
</g>
<!-- 3&#45;&gt;c_{k} -->
<g id="edge12" class="edge"><title>3&#45;&gt;c_{k}</title>
<path fill="none" stroke="black" d="M112.878,-81.294C134.393,-70.9025 171.069,-53.188 199.824,-39.2999"/>
<polygon fill="gray" stroke="black" points="201.369,-42.4402 208.852,-34.9393 198.325,-36.1369 201.369,-42.4402"/>
</g>
</g>
</svg>
