<?xml version="1.0" encoding="UTF-8" standalone="no"?>
<!DOCTYPE svg PUBLIC "-//W3C//DTD SVG 1.1//EN"
 "http://www.w3.org/Graphics/SVG/1.1/DTD/svg11.dtd">
<!-- Generated by graphviz version 2.38.0 (20140413.2041)
 -->
<!-- Title: %3 Pages: 1 -->
<svg width="910pt" height="305pt"
 viewBox="0.00 0.00 910.39 305.00" xmlns="http://www.w3.org/2000/svg" xmlns:xlink="http://www.w3.org/1999/xlink">
<g id="graph0" class="graph" transform="scale(1 1) rotate(0) translate(4 301)">
<title>%3</title>
<polygon fill="white" stroke="none" points="-4,4 -4,-301 906.392,-301 906.392,4 -4,4"/>
<!-- c_{k&#45;2} -->
<g id="node1" class="node"><title>c_{k&#45;2}</title>
<polygon fill="#b4eeb4" stroke="black" stroke-width="2" points="110.892,-297 25.8916,-297 25.8916,-261 110.892,-261 110.892,-297"/>
<text text-anchor="middle" x="68.3916" y="-274" font-family="times" font-size="20.00">c_{k&#45;2}</text>
</g>
<!-- 0 -->
<g id="node3" class="node"><title>0</title>
<polygon fill="lightblue" stroke="black" stroke-width="2" points="222.392,-203 186.392,-203 186.392,-167 222.392,-167 222.392,-203"/>
<text text-anchor="middle" x="204.392" y="-180" font-family="times" font-size="20.00">0</text>
</g>
<!-- c_{k&#45;2}&#45;&gt;0 -->
<g id="edge2" class="edge"><title>c_{k&#45;2}&#45;&gt;0</title>
<path fill="none" stroke="black" d="M25.5728,-262.897C17.1362,-257.896 9.36471,-251.388 4.39158,-243 -0.595029,-234.589 -1.89828,-228.486 4.39158,-221 25.9924,-195.291 126.215,-188.463 176.071,-186.652"/>
<polygon fill="gray" stroke="black" points="176.298,-190.147 186.181,-186.329 176.074,-183.15 176.298,-190.147"/>
<text text-anchor="middle" x="25.3916" y="-227" font-family="times" font-size="20.00">conv</text>
</g>
<!-- 1 -->
<g id="node4" class="node"><title>1</title>
<polygon fill="lightblue" stroke="black" stroke-width="2" points="440.392,-203 404.392,-203 404.392,-167 440.392,-167 440.392,-203"/>
<text text-anchor="middle" x="422.392" y="-180" font-family="times" font-size="20.00">1</text>
</g>
<!-- c_{k&#45;2}&#45;&gt;1 -->
<g id="edge3" class="edge"><title>c_{k&#45;2}&#45;&gt;1</title>
<path fill="none" stroke="black" d="M63.2514,-260.833C60.6227,-248.204 59.7316,-231.479 69.3916,-221 72.1471,-218.011 310.708,-196.124 394.045,-188.562"/>
<polygon fill="gray" stroke="black" points="394.432,-192.041 404.076,-187.652 393.801,-185.069 394.432,-192.041"/>
<text text-anchor="middle" x="125.892" y="-227" font-family="times" font-size="20.00">shuffle_conv</text>
</g>
<!-- 2 -->
<g id="node5" class="node"><title>2</title>
<polygon fill="lightblue" stroke="black" stroke-width="2" points="506.392,-203 470.392,-203 470.392,-167 506.392,-167 506.392,-203"/>
<text text-anchor="middle" x="488.392" y="-180" font-family="times" font-size="20.00">2</text>
</g>
<!-- c_{k&#45;2}&#45;&gt;2 -->
<g id="edge5" class="edge"><title>c_{k&#45;2}&#45;&gt;2</title>
<path fill="none" stroke="black" d="M111.12,-276.914C184.219,-274.435 329.716,-266.61 374.392,-243 385.814,-236.964 382.618,-228.131 393.392,-221 415.191,-206.57 424.934,-212.235 449.392,-203 453.17,-201.573 457.115,-199.98 460.981,-198.357"/>
<polygon fill="gray" stroke="black" points="462.499,-201.514 470.293,-194.338 459.725,-195.087 462.499,-201.514"/>
<text text-anchor="middle" x="449.892" y="-227" font-family="times" font-size="20.00">shuffle_conv</text>
</g>
<!-- c_{k&#45;1} -->
<g id="node2" class="node"><title>c_{k&#45;1}</title>
<polygon fill="#b4eeb4" stroke="black" stroke-width="2" points="654.892,-297 569.892,-297 569.892,-261 654.892,-261 654.892,-297"/>
<text text-anchor="middle" x="612.392" y="-274" font-family="times" font-size="20.00">c_{k&#45;1}</text>
</g>
<!-- c_{k&#45;1}&#45;&gt;0 -->
<g id="edge1" class="edge"><title>c_{k&#45;1}&#45;&gt;0</title>
<path fill="none" stroke="black" d="M569.706,-277.491C470.297,-275.867 229.898,-269.239 205.392,-243 198.095,-235.188 196.777,-223.823 197.692,-213.293"/>
<polygon fill="gray" stroke="black" points="201.183,-213.613 199.212,-203.203 194.261,-212.57 201.183,-213.613"/>
<text text-anchor="middle" x="289.892" y="-227" font-family="times" font-size="20.00">donw_atrous_conv</text>
</g>
<!-- c_{k&#45;1}&#45;&gt;1 -->
<g id="edge4" class="edge"><title>c_{k&#45;1}&#45;&gt;1</title>
<path fill="none" stroke="black" d="M569.882,-264.421C556.241,-258.959 541.534,-251.83 529.392,-243 518.943,-235.402 521.016,-228.351 510.392,-221 491.312,-207.8 482.924,-211.639 461.392,-203 457.643,-201.496 453.716,-199.859 449.858,-198.214"/>
<polygon fill="gray" stroke="black" points="451.119,-194.946 440.551,-194.181 448.335,-201.368 451.119,-194.946"/>
<text text-anchor="middle" x="597.892" y="-227" font-family="times" font-size="20.00">down_att_conv</text>
</g>
<!-- c_{k&#45;1}&#45;&gt;2 -->
<g id="edge6" class="edge"><title>c_{k&#45;1}&#45;&gt;2</title>
<path fill="none" stroke="black" d="M653.051,-260.975C659.997,-256.202 666.287,-250.272 670.392,-243 675.198,-234.485 676.619,-228.539 670.392,-221 651.231,-197.804 562.944,-189.82 516.748,-187.202"/>
<polygon fill="gray" stroke="black" points="516.675,-183.693 506.507,-186.67 516.312,-190.684 516.675,-183.693"/>
<text text-anchor="middle" x="742.892" y="-227" font-family="times" font-size="20.00">down_att_conv</text>
</g>
<!-- 3 -->
<g id="node6" class="node"><title>3</title>
<polygon fill="lightblue" stroke="black" stroke-width="2" points="524.392,-109 488.392,-109 488.392,-73 524.392,-73 524.392,-109"/>
<text text-anchor="middle" x="506.392" y="-86" font-family="times" font-size="20.00">3</text>
</g>
<!-- c_{k&#45;1}&#45;&gt;3 -->
<g id="edge7" class="edge"><title>c_{k&#45;1}&#45;&gt;3</title>
<path fill="none" stroke="black" d="M654.903,-276.873C708.271,-274.457 795.289,-266.865 815.392,-243 821.691,-235.522 820.625,-229.26 815.392,-221 752.892,-122.356 598.217,-99.0917 534.507,-93.6466"/>
<polygon fill="gray" stroke="black" points="534.637,-90.1464 524.398,-92.8693 534.1,-97.1258 534.637,-90.1464"/>
<text text-anchor="middle" x="851.392" y="-180" font-family="times" font-size="20.00">down_conv</text>
</g>
<!-- c_{k} -->
<g id="node7" class="node"><title>c_{k}</title>
<polygon fill="palegoldenrod" stroke="black" stroke-width="2" points="474.392,-36 408.392,-36 408.392,-0 474.392,-0 474.392,-36"/>
<text text-anchor="middle" x="441.392" y="-13" font-family="times" font-size="20.00">c_{k}</text>
</g>
<!-- 0&#45;&gt;c_{k} -->
<g id="edge9" class="edge"><title>0&#45;&gt;c_{k}</title>
<path fill="none" stroke="black" d="M222.595,-171.327C262.454,-143.577 357.921,-77.1126 408.558,-41.8587"/>
<polygon fill="gray" stroke="black" points="410.67,-44.6533 416.877,-36.0672 406.67,-38.9085 410.67,-44.6533"/>
</g>
<!-- 1&#45;&gt;c_{k} -->
<g id="edge10" class="edge"><title>1&#45;&gt;c_{k}</title>
<path fill="none" stroke="black" d="M424.353,-166.964C427.639,-138.433 434.281,-80.7517 438.232,-46.4425"/>
<polygon fill="gray" stroke="black" points="441.745,-46.5257 439.412,-36.1909 434.791,-45.7249 441.745,-46.5257"/>
</g>
<!-- 2&#45;&gt;3 -->
<g id="edge8" class="edge"><title>2&#45;&gt;3</title>
<path fill="none" stroke="black" d="M491.777,-166.696C494.392,-153.331 498.059,-134.587 501.066,-119.219"/>
<polygon fill="gray" stroke="black" points="504.536,-119.713 503.021,-109.227 497.666,-118.369 504.536,-119.713"/>
<text text-anchor="middle" x="555.892" y="-133" font-family="times" font-size="20.00">shuffle_conv</text>
</g>
<!-- 2&#45;&gt;c_{k} -->
<g id="edge11" class="edge"><title>2&#45;&gt;c_{k}</title>
<path fill="none" stroke="black" d="M483.539,-166.964C475.377,-138.31 458.839,-80.2518 449.082,-45.9982"/>
<polygon fill="gray" stroke="black" points="452.394,-44.8495 446.288,-36.1909 445.662,-46.7672 452.394,-44.8495"/>
</g>
<!-- 3&#45;&gt;c_{k} -->
<g id="edge12" class="edge"><title>3&#45;&gt;c_{k}</title>
<path fill="none" stroke="black" d="M491.193,-72.6951C485.912,-66.7367 479.925,-60.0444 474.392,-54 471.327,-50.6525 468.076,-47.1491 464.857,-43.7067"/>
<polygon fill="gray" stroke="black" points="467.343,-41.2409 457.943,-36.3526 462.243,-46.0357 467.343,-41.2409"/>
</g>
</g>
</svg>
