<?xml version="1.0" encoding="UTF-8" standalone="no"?>
<!DOCTYPE svg PUBLIC "-//W3C//DTD SVG 1.1//EN"
 "http://www.w3.org/Graphics/SVG/1.1/DTD/svg11.dtd">
<!-- Generated by graphviz version 2.38.0 (20140413.2041)
 -->
<!-- Title: %3 Pages: 1 -->
<svg width="552pt" height="399pt"
 viewBox="0.00 0.00 551.50 399.00" xmlns="http://www.w3.org/2000/svg" xmlns:xlink="http://www.w3.org/1999/xlink">
<g id="graph0" class="graph" transform="scale(1 1) rotate(0) translate(4 395)">
<title>%3</title>
<polygon fill="white" stroke="none" points="-4,4 -4,-395 547.5,-395 547.5,4 -4,4"/>
<!-- c_{k&#45;2} -->
<g id="node1" class="node"><title>c_{k&#45;2}</title>
<polygon fill="#b4eeb4" stroke="black" stroke-width="2" points="85,-391 0,-391 0,-355 85,-355 85,-391"/>
<text text-anchor="middle" x="42.5" y="-368" font-family="times" font-size="20.00">c_{k&#45;2}</text>
</g>
<!-- 0 -->
<g id="node3" class="node"><title>0</title>
<polygon fill="lightblue" stroke="black" stroke-width="2" points="176.5,-297 140.5,-297 140.5,-261 176.5,-261 176.5,-297"/>
<text text-anchor="middle" x="158.5" y="-274" font-family="times" font-size="20.00">0</text>
</g>
<!-- c_{k&#45;2}&#45;&gt;0 -->
<g id="edge1" class="edge"><title>c_{k&#45;2}&#45;&gt;0</title>
<path fill="none" stroke="black" d="M37.6632,-354.881C35.2599,-342.443 34.5195,-325.939 43.5,-315 67.4509,-285.826 91.0543,-309.977 126.5,-297 127.94,-296.473 129.396,-295.892 130.851,-295.272"/>
<polygon fill="gray" stroke="black" points="132.761,-298.24 140.285,-290.78 129.751,-291.92 132.761,-298.24"/>
<text text-anchor="middle" x="64.5" y="-321" font-family="times" font-size="20.00">conv</text>
</g>
<!-- 1 -->
<g id="node4" class="node"><title>1</title>
<polygon fill="lightblue" stroke="black" stroke-width="2" points="434.5,-297 398.5,-297 398.5,-261 434.5,-261 434.5,-297"/>
<text text-anchor="middle" x="416.5" y="-274" font-family="times" font-size="20.00">1</text>
</g>
<!-- c_{k&#45;2}&#45;&gt;1 -->
<g id="edge3" class="edge"><title>c_{k&#45;2}&#45;&gt;1</title>
<path fill="none" stroke="black" d="M85.2425,-366.855C123.006,-361.609 179.258,-352.074 226.5,-337 248.857,-329.866 252.343,-322.731 274.5,-315 313.146,-301.516 359.427,-291.135 388.404,-285.297"/>
<polygon fill="gray" stroke="black" points="389.117,-288.723 398.25,-283.354 387.762,-281.856 389.117,-288.723"/>
<text text-anchor="middle" x="331" y="-321" font-family="times" font-size="20.00">shuffle_conv</text>
</g>
<!-- 2 -->
<g id="node5" class="node"><title>2</title>
<polygon fill="lightblue" stroke="black" stroke-width="2" points="176.5,-203 140.5,-203 140.5,-167 176.5,-167 176.5,-203"/>
<text text-anchor="middle" x="158.5" y="-180" font-family="times" font-size="20.00">2</text>
</g>
<!-- c_{k&#45;2}&#45;&gt;2 -->
<g id="edge5" class="edge"><title>c_{k&#45;2}&#45;&gt;2</title>
<path fill="none" stroke="black" d="M31.7112,-354.978C18.7027,-332.072 0.674348,-290.772 18.5,-261 42.6567,-220.654 96.7599,-200.779 130.189,-192.005"/>
<polygon fill="gray" stroke="black" points="131.375,-195.318 140.252,-189.535 129.706,-188.52 131.375,-195.318"/>
<text text-anchor="middle" x="75" y="-274" font-family="times" font-size="20.00">shuffle_conv</text>
</g>
<!-- c_{k&#45;1} -->
<g id="node2" class="node"><title>c_{k&#45;1}</title>
<polygon fill="#b4eeb4" stroke="black" stroke-width="2" points="419,-391 334,-391 334,-355 419,-355 419,-391"/>
<text text-anchor="middle" x="376.5" y="-368" font-family="times" font-size="20.00">c_{k&#45;1}</text>
</g>
<!-- c_{k&#45;1}&#45;&gt;0 -->
<g id="edge2" class="edge"><title>c_{k&#45;1}&#45;&gt;0</title>
<path fill="none" stroke="black" d="M333.802,-372.936C265.72,-373.411 137.29,-369.794 108.5,-337 95.8125,-322.548 113.89,-306.027 131.75,-294.506"/>
<polygon fill="gray" stroke="black" points="133.628,-297.46 140.365,-289.282 129.999,-291.474 133.628,-297.46"/>
<text text-anchor="middle" x="167.5" y="-321" font-family="times" font-size="20.00">up_sep_conv</text>
</g>
<!-- c_{k&#45;1}&#45;&gt;1 -->
<g id="edge4" class="edge"><title>c_{k&#45;1}&#45;&gt;1</title>
<path fill="none" stroke="black" d="M384.024,-354.696C389.89,-341.203 398.141,-322.226 404.858,-306.777"/>
<polygon fill="gray" stroke="black" points="408.232,-307.793 409.01,-297.227 401.813,-305.002 408.232,-307.793"/>
<text text-anchor="middle" x="472" y="-321" font-family="times" font-size="20.00">up_atrous_conv</text>
</g>
<!-- 3 -->
<g id="node6" class="node"><title>3</title>
<polygon fill="lightblue" stroke="black" stroke-width="2" points="383.5,-109 347.5,-109 347.5,-73 383.5,-73 383.5,-109"/>
<text text-anchor="middle" x="365.5" y="-86" font-family="times" font-size="20.00">3</text>
</g>
<!-- c_{k&#45;1}&#45;&gt;3 -->
<g id="edge7" class="edge"><title>c_{k&#45;1}&#45;&gt;3</title>
<path fill="none" stroke="black" d="M375.828,-354.906C373.984,-307.946 368.826,-176.654 366.574,-119.343"/>
<polygon fill="gray" stroke="black" points="370.067,-119.081 366.177,-109.226 363.072,-119.356 370.067,-119.081"/>
<text text-anchor="middle" x="442" y="-227" font-family="times" font-size="20.00">up_atrous_conv</text>
</g>
<!-- 0&#45;&gt;2 -->
<g id="edge6" class="edge"><title>0&#45;&gt;2</title>
<path fill="none" stroke="black" d="M158.5,-260.696C158.5,-247.46 158.5,-228.947 158.5,-213.663"/>
<polygon fill="gray" stroke="black" points="162,-213.227 158.5,-203.227 155,-213.227 162,-213.227"/>
<text text-anchor="middle" x="200.5" y="-227" font-family="times" font-size="20.00">sep_conv</text>
</g>
<!-- c_{k} -->
<g id="node7" class="node"><title>c_{k}</title>
<polygon fill="palegoldenrod" stroke="black" stroke-width="2" points="370.5,-36 304.5,-36 304.5,-0 370.5,-0 370.5,-36"/>
<text text-anchor="middle" x="337.5" y="-13" font-family="times" font-size="20.00">c_{k}</text>
</g>
<!-- 0&#45;&gt;c_{k} -->
<g id="edge9" class="edge"><title>0&#45;&gt;c_{k}</title>
<path fill="none" stroke="black" d="M176.749,-274.289C195.861,-269.65 225.906,-260.15 246.5,-243 307.545,-192.162 328.066,-94.0654 334.617,-46.3709"/>
<polygon fill="gray" stroke="black" points="338.122,-46.5495 335.906,-36.1891 331.178,-45.6703 338.122,-46.5495"/>
</g>
<!-- 1&#45;&gt;c_{k} -->
<g id="edge10" class="edge"><title>1&#45;&gt;c_{k}</title>
<path fill="none" stroke="black" d="M434.649,-277.437C457.626,-275.631 496.392,-268.696 514.5,-243 520.132,-235.007 517.804,-230.203 514.5,-221 486.582,-143.241 412.517,-76.3529 369.56,-42.5381"/>
<polygon fill="gray" stroke="black" points="371.455,-39.579 361.406,-36.2227 367.169,-45.1132 371.455,-39.579"/>
</g>
<!-- 2&#45;&gt;3 -->
<g id="edge8" class="edge"><title>2&#45;&gt;3</title>
<path fill="none" stroke="black" d="M176.735,-169.307C193.301,-156.579 218.848,-138.457 243.5,-127 274.098,-112.78 311.741,-103.049 337.053,-97.5244"/>
<polygon fill="gray" stroke="black" points="338.025,-100.897 347.09,-95.4135 336.584,-94.0466 338.025,-100.897"/>
<text text-anchor="middle" x="300" y="-133" font-family="times" font-size="20.00">shuffle_conv</text>
</g>
<!-- 2&#45;&gt;c_{k} -->
<g id="edge11" class="edge"><title>2&#45;&gt;c_{k}</title>
<path fill="none" stroke="black" d="M170.039,-166.931C178.395,-155.133 190.32,-139.393 202.5,-127 234.341,-94.602 275.716,-62.7644 304.225,-42.1477"/>
<polygon fill="gray" stroke="black" points="306.545,-44.7912 312.635,-36.1214 302.467,-39.1013 306.545,-44.7912"/>
</g>
<!-- 3&#45;&gt;c_{k} -->
<g id="edge12" class="edge"><title>3&#45;&gt;c_{k}</title>
<path fill="none" stroke="black" d="M358.722,-72.8129C355.489,-64.6151 351.549,-54.6231 347.945,-45.4847"/>
<polygon fill="gray" stroke="black" points="351.14,-44.0475 344.216,-36.0288 344.628,-46.6156 351.14,-44.0475"/>
</g>
</g>
</svg>
