<?xml version="1.0" encoding="UTF-8" standalone="no"?>
<!DOCTYPE svg PUBLIC "-//W3C//DTD SVG 1.1//EN"
 "http://www.w3.org/Graphics/SVG/1.1/DTD/svg11.dtd">
<!-- Generated by graphviz version 2.38.0 (20140413.2041)
 -->
<!-- Title: %3 Pages: 1 -->
<svg width="413pt" height="399pt"
 viewBox="0.00 0.00 412.84 399.00" xmlns="http://www.w3.org/2000/svg" xmlns:xlink="http://www.w3.org/1999/xlink">
<g id="graph0" class="graph" transform="scale(1 1) rotate(0) translate(4 395)">
<title>%3</title>
<polygon fill="white" stroke="none" points="-4,4 -4,-395 408.839,-395 408.839,4 -4,4"/>
<!-- c_{k&#45;2} -->
<g id="node1" class="node"><title>c_{k&#45;2}</title>
<polygon fill="#b4eeb4" stroke="black" stroke-width="2" points="167.339,-391 82.3393,-391 82.3393,-355 167.339,-355 167.339,-391"/>
<text text-anchor="middle" x="124.839" y="-368" font-family="times" font-size="20.00">c_{k&#45;2}</text>
</g>
<!-- 0 -->
<g id="node3" class="node"><title>0</title>
<polygon fill="lightblue" stroke="black" stroke-width="2" points="54.8393,-297 18.8393,-297 18.8393,-261 54.8393,-261 54.8393,-297"/>
<text text-anchor="middle" x="36.8393" y="-274" font-family="times" font-size="20.00">0</text>
</g>
<!-- c_{k&#45;2}&#45;&gt;0 -->
<g id="edge2" class="edge"><title>c_{k&#45;2}&#45;&gt;0</title>
<path fill="none" stroke="black" d="M108.287,-354.696C94.7666,-340.56 75.4889,-320.406 60.3647,-304.595"/>
<polygon fill="gray" stroke="black" points="62.7587,-302.034 53.3172,-297.227 57.7002,-306.873 62.7587,-302.034"/>
<text text-anchor="middle" x="112.839" y="-321" font-family="times" font-size="20.00">conv</text>
</g>
<!-- 1 -->
<g id="node4" class="node"><title>1</title>
<polygon fill="lightblue" stroke="black" stroke-width="2" points="170.839,-203 134.839,-203 134.839,-167 170.839,-167 170.839,-203"/>
<text text-anchor="middle" x="152.839" y="-180" font-family="times" font-size="20.00">1</text>
</g>
<!-- c_{k&#45;2}&#45;&gt;1 -->
<g id="edge4" class="edge"><title>c_{k&#45;2}&#45;&gt;1</title>
<path fill="none" stroke="black" d="M132.082,-354.79C134.205,-349.197 136.352,-342.909 137.839,-337 148.49,-294.679 151.637,-243.901 152.533,-213.332"/>
<polygon fill="gray" stroke="black" points="156.039,-213.115 152.77,-203.037 149.04,-212.954 156.039,-213.115"/>
<text text-anchor="middle" x="205.339" y="-274" font-family="times" font-size="20.00">shuffle_conv</text>
</g>
<!-- c_{k&#45;1} -->
<g id="node2" class="node"><title>c_{k&#45;1}</title>
<polygon fill="#b4eeb4" stroke="black" stroke-width="2" points="282.339,-391 197.339,-391 197.339,-355 282.339,-355 282.339,-391"/>
<text text-anchor="middle" x="239.839" y="-368" font-family="times" font-size="20.00">c_{k&#45;1}</text>
</g>
<!-- c_{k&#45;1}&#45;&gt;0 -->
<g id="edge1" class="edge"><title>c_{k&#45;1}&#45;&gt;0</title>
<path fill="none" stroke="black" d="M212.382,-354.913C192.23,-342.807 163.938,-326.705 137.839,-315 113.793,-304.216 85.346,-294.626 64.7794,-288.224"/>
<polygon fill="gray" stroke="black" points="65.6758,-284.838 55.0894,-285.262 63.6293,-291.532 65.6758,-284.838"/>
<text text-anchor="middle" x="200.839" y="-321" font-family="times" font-size="20.00">conv</text>
</g>
<!-- 2 -->
<g id="node5" class="node"><title>2</title>
<polygon fill="lightblue" stroke="black" stroke-width="2" points="194.839,-109 158.839,-109 158.839,-73 194.839,-73 194.839,-109"/>
<text text-anchor="middle" x="176.839" y="-86" font-family="times" font-size="20.00">2</text>
</g>
<!-- c_{k&#45;1}&#45;&gt;2 -->
<g id="edge5" class="edge"><title>c_{k&#45;1}&#45;&gt;2</title>
<path fill="none" stroke="black" d="M249.295,-354.98C271.607,-312.292 322.014,-198.957 271.839,-127 256.979,-105.689 227.608,-97.319 205.437,-94.0509"/>
<polygon fill="gray" stroke="black" points="205.573,-90.5421 195.227,-92.8221 204.737,-97.492 205.573,-90.5421"/>
<text text-anchor="middle" x="348.339" y="-227" font-family="times" font-size="20.00">shuffle_conv</text>
</g>
<!-- 0&#45;&gt;1 -->
<g id="edge3" class="edge"><title>0&#45;&gt;1</title>
<path fill="none" stroke="black" d="M32.0025,-260.881C29.5992,-248.443 28.8588,-231.939 37.8393,-221 61.7902,-191.826 85.3937,-215.977 120.839,-203 122.279,-202.473 123.735,-201.892 125.191,-201.272"/>
<polygon fill="gray" stroke="black" points="127.1,-204.24 134.624,-196.78 124.091,-197.92 127.1,-204.24"/>
<text text-anchor="middle" x="94.3393" y="-227" font-family="times" font-size="20.00">shuffle_conv</text>
</g>
<!-- 3 -->
<g id="node6" class="node"><title>3</title>
<polygon fill="lightblue" stroke="black" stroke-width="2" points="91.8393,-109 55.8393,-109 55.8393,-73 91.8393,-73 91.8393,-109"/>
<text text-anchor="middle" x="73.8393" y="-86" font-family="times" font-size="20.00">3</text>
</g>
<!-- 0&#45;&gt;3 -->
<g id="edge8" class="edge"><title>0&#45;&gt;3</title>
<path fill="none" stroke="black" d="M27.3053,-260.697C16.3944,-238.532 1.41913,-199.14 12.8393,-167 19.9989,-146.851 35.1409,-128.181 48.5467,-114.508"/>
<polygon fill="gray" stroke="black" points="51.059,-116.947 55.754,-107.449 46.1608,-111.946 51.059,-116.947"/>
<text text-anchor="middle" x="69.3393" y="-180" font-family="times" font-size="20.00">shuffle_conv</text>
</g>
<!-- c_{k} -->
<g id="node7" class="node"><title>c_{k}</title>
<polygon fill="palegoldenrod" stroke="black" stroke-width="2" points="142.839,-36 76.8393,-36 76.8393,-0 142.839,-0 142.839,-36"/>
<text text-anchor="middle" x="109.839" y="-13" font-family="times" font-size="20.00">c_{k}</text>
</g>
<!-- 0&#45;&gt;c_{k} -->
<g id="edge9" class="edge"><title>0&#45;&gt;c_{k}</title>
<path fill="none" stroke="black" d="M19.8312,-260.756C15.5417,-255.458 11.4251,-249.341 8.83932,-243 -3.93288,-211.68 -0.453218,-200.408 4.83932,-167 11.9991,-121.805 18.1557,-108.652 46.8393,-73 55.7622,-61.9093 67.1829,-51.3352 77.8439,-42.5311"/>
<polygon fill="gray" stroke="black" points="80.1764,-45.1472 85.7943,-36.1644 75.8009,-39.6832 80.1764,-45.1472"/>
</g>
<!-- 1&#45;&gt;2 -->
<g id="edge6" class="edge"><title>1&#45;&gt;2</title>
<path fill="none" stroke="black" d="M157.354,-166.696C160.84,-153.331 165.73,-134.587 169.739,-119.219"/>
<polygon fill="gray" stroke="black" points="173.208,-119.787 172.345,-109.227 166.434,-118.02 173.208,-119.787"/>
<text text-anchor="middle" x="217.339" y="-133" font-family="times" font-size="20.00">att_identity</text>
</g>
<!-- 1&#45;&gt;3 -->
<g id="edge7" class="edge"><title>1&#45;&gt;3</title>
<path fill="none" stroke="black" d="M134.746,-173.922C130.252,-171.549 125.412,-169.101 120.839,-167 100.89,-157.835 87.3741,-167.024 74.8393,-149 68.9256,-140.497 67.6797,-129.421 68.2735,-119.296"/>
<polygon fill="gray" stroke="black" points="71.7646,-119.574 69.4397,-109.237 64.8112,-118.768 71.7646,-119.574"/>
<text text-anchor="middle" x="95.8393" y="-133" font-family="times" font-size="20.00">conv</text>
</g>
<!-- 1&#45;&gt;c_{k} -->
<g id="edge10" class="edge"><title>1&#45;&gt;c_{k}</title>
<path fill="none" stroke="black" d="M148.4,-166.964C140.932,-138.31 125.802,-80.2518 116.875,-45.9982"/>
<polygon fill="gray" stroke="black" points="120.228,-44.9851 114.319,-36.1909 113.454,-46.7504 120.228,-44.9851"/>
</g>
<!-- 2&#45;&gt;c_{k} -->
<g id="edge11" class="edge"><title>2&#45;&gt;c_{k}</title>
<path fill="none" stroke="black" d="M162.064,-72.9657C156.714,-66.9082 150.576,-60.0841 144.839,-54 141.636,-50.6023 138.215,-47.0699 134.814,-43.6132"/>
<polygon fill="gray" stroke="black" points="137.023,-40.8717 127.491,-36.2482 132.059,-45.8072 137.023,-40.8717"/>
</g>
<!-- 3&#45;&gt;c_{k} -->
<g id="edge12" class="edge"><title>3&#45;&gt;c_{k}</title>
<path fill="none" stroke="black" d="M82.5539,-72.8129C86.7548,-64.5279 91.8848,-54.4103 96.5582,-45.1933"/>
<polygon fill="gray" stroke="black" points="99.8043,-46.5307 101.205,-36.0288 93.561,-43.365 99.8043,-46.5307"/>
</g>
</g>
</svg>
