<?xml version="1.0" encoding="UTF-8" standalone="no"?>
<!DOCTYPE svg PUBLIC "-//W3C//DTD SVG 1.1//EN"
 "http://www.w3.org/Graphics/SVG/1.1/DTD/svg11.dtd">
<!-- Generated by graphviz version 2.38.0 (20140413.2041)
 -->
<!-- Title: %3 Pages: 1 -->
<svg width="657pt" height="399pt"
 viewBox="0.00 0.00 656.50 399.00" xmlns="http://www.w3.org/2000/svg" xmlns:xlink="http://www.w3.org/1999/xlink">
<g id="graph0" class="graph" transform="scale(1 1) rotate(0) translate(4 395)">
<title>%3</title>
<polygon fill="white" stroke="none" points="-4,4 -4,-395 652.5,-395 652.5,4 -4,4"/>
<!-- c_{k&#45;2} -->
<g id="node1" class="node"><title>c_{k&#45;2}</title>
<polygon fill="#b4eeb4" stroke="black" stroke-width="2" points="85,-391 0,-391 0,-355 85,-355 85,-391"/>
<text text-anchor="middle" x="42.5" y="-368" font-family="times" font-size="20.00">c_{k&#45;2}</text>
</g>
<!-- 0 -->
<g id="node3" class="node"><title>0</title>
<polygon fill="lightblue" stroke="black" stroke-width="2" points="124.5,-297 88.5,-297 88.5,-261 124.5,-261 124.5,-297"/>
<text text-anchor="middle" x="106.5" y="-274" font-family="times" font-size="20.00">0</text>
</g>
<!-- c_{k&#45;2}&#45;&gt;0 -->
<g id="edge2" class="edge"><title>c_{k&#45;2}&#45;&gt;0</title>
<path fill="none" stroke="black" d="M38.5372,-354.814C36.7381,-342.814 36.3686,-326.88 43.5,-315 51.2486,-302.092 65.6316,-293.585 78.7003,-288.195"/>
<polygon fill="gray" stroke="black" points="80.131,-291.398 88.3063,-284.659 77.7128,-284.829 80.131,-291.398"/>
<text text-anchor="middle" x="64.5" y="-321" font-family="times" font-size="20.00">conv</text>
</g>
<!-- c_{k&#45;1} -->
<g id="node2" class="node"><title>c_{k&#45;1}</title>
<polygon fill="#b4eeb4" stroke="black" stroke-width="2" points="374,-391 289,-391 289,-355 374,-355 374,-391"/>
<text text-anchor="middle" x="331.5" y="-368" font-family="times" font-size="20.00">c_{k&#45;1}</text>
</g>
<!-- c_{k&#45;1}&#45;&gt;0 -->
<g id="edge1" class="edge"><title>c_{k&#45;1}&#45;&gt;0</title>
<path fill="none" stroke="black" d="M288.939,-371.516C230.963,-369.866 131.697,-363.178 108.5,-337 101.408,-328.996 99.9435,-317.601 100.621,-307.1"/>
<polygon fill="gray" stroke="black" points="104.109,-307.415 101.883,-297.056 97.1636,-306.542 104.109,-307.415"/>
<text text-anchor="middle" x="180.5" y="-321" font-family="times" font-size="20.00">down_sep_conv</text>
</g>
<!-- 1 -->
<g id="node4" class="node"><title>1</title>
<polygon fill="lightblue" stroke="black" stroke-width="2" points="284.5,-203 248.5,-203 248.5,-167 284.5,-167 284.5,-203"/>
<text text-anchor="middle" x="266.5" y="-180" font-family="times" font-size="20.00">1</text>
</g>
<!-- c_{k&#45;1}&#45;&gt;1 -->
<g id="edge4" class="edge"><title>c_{k&#45;1}&#45;&gt;1</title>
<path fill="none" stroke="black" d="M316.327,-354.857C304.497,-340.46 288.738,-318.799 280.5,-297 270.186,-269.708 267.156,-236.227 266.412,-213.217"/>
<polygon fill="gray" stroke="black" points="269.91,-213.067 266.212,-203.139 262.912,-213.207 269.91,-213.067"/>
<text text-anchor="middle" x="331.5" y="-274" font-family="times" font-size="20.00">down_conv</text>
</g>
<!-- 2 -->
<g id="node5" class="node"><title>2</title>
<polygon fill="lightblue" stroke="black" stroke-width="2" points="311.5,-109 275.5,-109 275.5,-73 311.5,-73 311.5,-109"/>
<text text-anchor="middle" x="293.5" y="-86" font-family="times" font-size="20.00">2</text>
</g>
<!-- c_{k&#45;1}&#45;&gt;2 -->
<g id="edge5" class="edge"><title>c_{k&#45;1}&#45;&gt;2</title>
<path fill="none" stroke="black" d="M347.661,-354.82C359.886,-340.568 375.691,-319.123 382.5,-297 393.613,-260.894 403.77,-158.221 382.5,-127 368.967,-107.136 342.279,-98.5456 321.642,-94.8306"/>
<polygon fill="gray" stroke="black" points="321.914,-91.332 311.503,-93.2984 320.868,-98.2534 321.914,-91.332"/>
<text text-anchor="middle" x="444.5" y="-227" font-family="times" font-size="20.00">down_conv</text>
</g>
<!-- 3 -->
<g id="node6" class="node"><title>3</title>
<polygon fill="lightblue" stroke="black" stroke-width="2" points="447.5,-109 411.5,-109 411.5,-73 447.5,-73 447.5,-109"/>
<text text-anchor="middle" x="429.5" y="-86" font-family="times" font-size="20.00">3</text>
</g>
<!-- c_{k&#45;1}&#45;&gt;3 -->
<g id="edge7" class="edge"><title>c_{k&#45;1}&#45;&gt;3</title>
<path fill="none" stroke="black" d="M371.228,-354.859C412.11,-334.761 473.399,-297.163 499.5,-243 520.918,-198.555 482.627,-146.226 454.747,-116.3"/>
<polygon fill="gray" stroke="black" points="457.026,-113.62 447.573,-108.836 451.979,-118.471 457.026,-113.62"/>
<text text-anchor="middle" x="576.5" y="-227" font-family="times" font-size="20.00">down_sep_conv</text>
</g>
<!-- 0&#45;&gt;1 -->
<g id="edge3" class="edge"><title>0&#45;&gt;1</title>
<path fill="none" stroke="black" d="M112.33,-260.859C117.532,-248.073 126.376,-231.132 139.5,-221 168.267,-198.791 210.255,-190.668 237.966,-187.701"/>
<polygon fill="gray" stroke="black" points="238.541,-191.163 248.182,-186.771 237.906,-184.192 238.541,-191.163"/>
<text text-anchor="middle" x="196" y="-227" font-family="times" font-size="20.00">shuffle_conv</text>
</g>
<!-- c_{k} -->
<g id="node7" class="node"><title>c_{k}</title>
<polygon fill="palegoldenrod" stroke="black" stroke-width="2" points="297.5,-36 231.5,-36 231.5,-0 297.5,-0 297.5,-36"/>
<text text-anchor="middle" x="264.5" y="-13" font-family="times" font-size="20.00">c_{k}</text>
</g>
<!-- 0&#45;&gt;c_{k} -->
<g id="edge9" class="edge"><title>0&#45;&gt;c_{k}</title>
<path fill="none" stroke="black" d="M108.572,-260.973C110.417,-249.336 113.745,-233.77 119.5,-221 151.243,-150.565 209.468,-79.8891 241.635,-43.7319"/>
<polygon fill="gray" stroke="black" points="244.381,-45.9122 248.464,-36.1355 239.176,-41.2325 244.381,-45.9122"/>
</g>
<!-- 1&#45;&gt;2 -->
<g id="edge6" class="edge"><title>1&#45;&gt;2</title>
<path fill="none" stroke="black" d="M270.641,-166.949C273.488,-155.575 277.47,-140.32 281.5,-127 282.337,-124.233 283.251,-121.358 284.188,-118.497"/>
<polygon fill="gray" stroke="black" points="287.509,-119.603 287.39,-109.009 280.876,-117.365 287.509,-119.603"/>
<text text-anchor="middle" x="332" y="-133" font-family="times" font-size="20.00">att_identity</text>
</g>
<!-- 1&#45;&gt;3 -->
<g id="edge8" class="edge"><title>1&#45;&gt;3</title>
<path fill="none" stroke="black" d="M284.699,-182.292C309.624,-179.198 354.888,-170.82 386.5,-149 398.172,-140.943 408,-128.703 415.301,-117.627"/>
<polygon fill="gray" stroke="black" points="418.296,-119.438 420.601,-109.097 412.351,-115.744 418.296,-119.438"/>
<text text-anchor="middle" x="428.5" y="-133" font-family="times" font-size="20.00">conv</text>
</g>
<!-- 1&#45;&gt;c_{k} -->
<g id="edge10" class="edge"><title>1&#45;&gt;c_{k}</title>
<path fill="none" stroke="black" d="M266.293,-166.964C265.948,-138.433 265.249,-80.7517 264.833,-46.4425"/>
<polygon fill="gray" stroke="black" points="268.329,-46.1478 264.708,-36.1909 261.33,-46.2327 268.329,-46.1478"/>
</g>
<!-- 2&#45;&gt;c_{k} -->
<g id="edge11" class="edge"><title>2&#45;&gt;c_{k}</title>
<path fill="none" stroke="black" d="M286.48,-72.8129C283.132,-64.6151 279.05,-54.6231 275.318,-45.4847"/>
<polygon fill="gray" stroke="black" points="278.477,-43.9629 271.455,-36.0288 271.997,-46.6099 278.477,-43.9629"/>
</g>
<!-- 3&#45;&gt;c_{k} -->
<g id="edge12" class="edge"><title>3&#45;&gt;c_{k}</title>
<path fill="none" stroke="black" d="M411.212,-82.1305C386.316,-71.4178 341.004,-51.9199 307.3,-37.4168"/>
<polygon fill="gray" stroke="black" points="308.258,-34.0189 297.689,-33.2812 305.491,-40.4488 308.258,-34.0189"/>
</g>
</g>
</svg>
