<?xml version="1.0" encoding="UTF-8" standalone="no"?>
<!DOCTYPE svg PUBLIC "-//W3C//DTD SVG 1.1//EN"
 "http://www.w3.org/Graphics/SVG/1.1/DTD/svg11.dtd">
<!-- Generated by graphviz version 2.38.0 (20140413.2041)
 -->
<!-- Title: %3 Pages: 1 -->
<svg width="465pt" height="399pt"
 viewBox="0.00 0.00 465.03 399.00" xmlns="http://www.w3.org/2000/svg" xmlns:xlink="http://www.w3.org/1999/xlink">
<g id="graph0" class="graph" transform="scale(1 1) rotate(0) translate(4 395)">
<title>%3</title>
<polygon fill="white" stroke="none" points="-4,4 -4,-395 461.027,-395 461.027,4 -4,4"/>
<!-- c_{k&#45;2} -->
<g id="node1" class="node"><title>c_{k&#45;2}</title>
<polygon fill="#b4eeb4" stroke="black" stroke-width="2" points="175.527,-391 90.5266,-391 90.5266,-355 175.527,-355 175.527,-391"/>
<text text-anchor="middle" x="133.027" y="-368" font-family="times" font-size="20.00">c_{k&#45;2}</text>
</g>
<!-- 0 -->
<g id="node3" class="node"><title>0</title>
<polygon fill="lightblue" stroke="black" stroke-width="2" points="55.0266,-297 19.0266,-297 19.0266,-261 55.0266,-261 55.0266,-297"/>
<text text-anchor="middle" x="37.0266" y="-274" font-family="times" font-size="20.00">0</text>
</g>
<!-- c_{k&#45;2}&#45;&gt;0 -->
<g id="edge1" class="edge"><title>c_{k&#45;2}&#45;&gt;0</title>
<path fill="none" stroke="black" d="M114.97,-354.696C100.086,-340.432 78.8069,-320.039 62.2418,-304.165"/>
<polygon fill="gray" stroke="black" points="64.6441,-301.619 55.0025,-297.227 59.8007,-306.673 64.6441,-301.619"/>
<text text-anchor="middle" x="118.027" y="-321" font-family="times" font-size="20.00">conv</text>
</g>
<!-- 1 -->
<g id="node4" class="node"><title>1</title>
<polygon fill="lightblue" stroke="black" stroke-width="2" points="171.027,-203 135.027,-203 135.027,-167 171.027,-167 171.027,-203"/>
<text text-anchor="middle" x="153.027" y="-180" font-family="times" font-size="20.00">1</text>
</g>
<!-- c_{k&#45;2}&#45;&gt;1 -->
<g id="edge4" class="edge"><title>c_{k&#45;2}&#45;&gt;1</title>
<path fill="none" stroke="black" d="M138.683,-354.71C140.32,-349.114 141.954,-342.843 143.027,-337 150.845,-294.423 152.741,-244.102 153.1,-213.643"/>
<polygon fill="gray" stroke="black" points="156.602,-213.394 153.171,-203.37 149.602,-213.346 156.602,-213.394"/>
<text text-anchor="middle" x="207.527" y="-274" font-family="times" font-size="20.00">shuffle_conv</text>
</g>
<!-- c_{k&#45;1} -->
<g id="node2" class="node"><title>c_{k&#45;1}</title>
<polygon fill="#b4eeb4" stroke="black" stroke-width="2" points="325.527,-391 240.527,-391 240.527,-355 325.527,-355 325.527,-391"/>
<text text-anchor="middle" x="283.027" y="-368" font-family="times" font-size="20.00">c_{k&#45;1}</text>
</g>
<!-- c_{k&#45;1}&#45;&gt;0 -->
<g id="edge2" class="edge"><title>c_{k&#45;1}&#45;&gt;0</title>
<path fill="none" stroke="black" d="M242.087,-354.973C207.891,-340.818 161.804,-321.914 143.027,-315 116.77,-305.333 86.4149,-295.437 64.9353,-288.646"/>
<polygon fill="gray" stroke="black" points="65.7499,-285.233 55.1607,-285.576 63.6524,-291.912 65.7499,-285.233"/>
<text text-anchor="middle" x="257.027" y="-321" font-family="times" font-size="20.00">up_sep_conv</text>
</g>
<!-- 2 -->
<g id="node5" class="node"><title>2</title>
<polygon fill="lightblue" stroke="black" stroke-width="2" points="200.027,-109 164.027,-109 164.027,-73 200.027,-73 200.027,-109"/>
<text text-anchor="middle" x="182.027" y="-86" font-family="times" font-size="20.00">2</text>
</g>
<!-- c_{k&#45;1}&#45;&gt;2 -->
<g id="edge5" class="edge"><title>c_{k&#45;1}&#45;&gt;2</title>
<path fill="none" stroke="black" d="M304.824,-354.762C309.771,-349.629 314.351,-343.594 317.027,-337 320.703,-327.94 318.099,-324.719 317.027,-315 307.637,-229.901 331.178,-191.629 275.027,-127 258.669,-108.172 231.126,-99.4476 210.248,-95.4194"/>
<polygon fill="gray" stroke="black" points="210.765,-91.9572 200.324,-93.7538 209.606,-98.8607 210.765,-91.9572"/>
<text text-anchor="middle" x="385.527" y="-227" font-family="times" font-size="20.00">up_atrous_conv</text>
</g>
<!-- 0&#45;&gt;1 -->
<g id="edge3" class="edge"><title>0&#45;&gt;1</title>
<path fill="none" stroke="black" d="M32.1898,-260.881C29.7864,-248.443 29.0461,-231.939 38.0266,-221 61.9775,-191.826 85.5809,-215.977 121.027,-203 122.467,-202.473 123.922,-201.892 125.378,-201.272"/>
<polygon fill="gray" stroke="black" points="127.287,-204.24 134.811,-196.78 124.278,-197.92 127.287,-204.24"/>
<text text-anchor="middle" x="94.5266" y="-227" font-family="times" font-size="20.00">shuffle_conv</text>
</g>
<!-- 3 -->
<g id="node6" class="node"><title>3</title>
<polygon fill="lightblue" stroke="black" stroke-width="2" points="97.0266,-109 61.0266,-109 61.0266,-73 97.0266,-73 97.0266,-109"/>
<text text-anchor="middle" x="79.0266" y="-86" font-family="times" font-size="20.00">3</text>
</g>
<!-- 0&#45;&gt;3 -->
<g id="edge8" class="edge"><title>0&#45;&gt;3</title>
<path fill="none" stroke="black" d="M27.2965,-260.625C16.1784,-238.385 0.984486,-198.912 13.0266,-167 21.035,-145.777 38.0858,-126.665 52.8501,-113.045"/>
<polygon fill="gray" stroke="black" points="55.5714,-115.311 60.7453,-106.065 50.935,-110.066 55.5714,-115.311"/>
<text text-anchor="middle" x="69.5266" y="-180" font-family="times" font-size="20.00">shuffle_conv</text>
</g>
<!-- c_{k} -->
<g id="node7" class="node"><title>c_{k}</title>
<polygon fill="palegoldenrod" stroke="black" stroke-width="2" points="148.027,-36 82.0266,-36 82.0266,-0 148.027,-0 148.027,-36"/>
<text text-anchor="middle" x="115.027" y="-13" font-family="times" font-size="20.00">c_{k}</text>
</g>
<!-- 0&#45;&gt;c_{k} -->
<g id="edge9" class="edge"><title>0&#45;&gt;c_{k}</title>
<path fill="none" stroke="black" d="M20.0185,-260.756C15.729,-255.458 11.6123,-249.341 9.02659,-243 -3.74561,-211.68 -0.640491,-200.346 5.02659,-167 12.8524,-120.951 21.7448,-108.563 52.0266,-73 61.3293,-62.0748 72.9308,-51.476 83.6337,-42.6038"/>
<polygon fill="gray" stroke="black" points="86.0089,-45.1844 91.5901,-36.1788 81.6111,-39.7384 86.0089,-45.1844"/>
</g>
<!-- 1&#45;&gt;2 -->
<g id="edge6" class="edge"><title>1&#45;&gt;2</title>
<path fill="none" stroke="black" d="M158.481,-166.696C162.734,-153.203 168.716,-134.226 173.586,-118.777"/>
<polygon fill="gray" stroke="black" points="176.928,-119.817 176.596,-109.227 170.252,-117.712 176.928,-119.817"/>
<text text-anchor="middle" x="220.527" y="-133" font-family="times" font-size="20.00">att_identity</text>
</g>
<!-- 1&#45;&gt;3 -->
<g id="edge7" class="edge"><title>1&#45;&gt;3</title>
<path fill="none" stroke="black" d="M134.871,-174.053C130.38,-171.676 125.556,-169.194 121.027,-167 103.116,-158.326 91.0544,-165.566 80.0266,-149 74.2872,-140.378 73.073,-129.28 73.6435,-119.172"/>
<polygon fill="gray" stroke="black" points="77.132,-119.468 74.7691,-109.14 70.1757,-118.688 77.132,-119.468"/>
<text text-anchor="middle" x="101.027" y="-133" font-family="times" font-size="20.00">conv</text>
</g>
<!-- 1&#45;&gt;c_{k} -->
<g id="edge10" class="edge"><title>1&#45;&gt;c_{k}</title>
<path fill="none" stroke="black" d="M149.103,-166.964C142.504,-138.31 129.133,-80.2518 121.244,-45.9982"/>
<polygon fill="gray" stroke="black" points="124.641,-45.1503 118.986,-36.1909 117.819,-46.7214 124.641,-45.1503"/>
</g>
<!-- 2&#45;&gt;c_{k} -->
<g id="edge11" class="edge"><title>2&#45;&gt;c_{k}</title>
<path fill="none" stroke="black" d="M167.251,-72.9657C161.901,-66.9082 155.763,-60.0841 150.027,-54 146.823,-50.6023 143.402,-47.0699 140.001,-43.6132"/>
<polygon fill="gray" stroke="black" points="142.211,-40.8717 132.678,-36.2482 137.247,-45.8072 142.211,-40.8717"/>
</g>
<!-- 3&#45;&gt;c_{k} -->
<g id="edge12" class="edge"><title>3&#45;&gt;c_{k}</title>
<path fill="none" stroke="black" d="M87.7412,-72.8129C91.942,-64.5279 97.0721,-54.4103 101.745,-45.1933"/>
<polygon fill="gray" stroke="black" points="104.992,-46.5307 106.392,-36.0288 98.7482,-43.365 104.992,-46.5307"/>
</g>
</g>
</svg>
