<?xml version="1.0" encoding="UTF-8" standalone="no"?>
<!DOCTYPE svg PUBLIC "-//W3C//DTD SVG 1.1//EN"
 "http://www.w3.org/Graphics/SVG/1.1/DTD/svg11.dtd">
<!-- Generated by graphviz version 2.38.0 (20140413.2041)
 -->
<!-- Title: %3 Pages: 1 -->
<svg width="438pt" height="399pt"
 viewBox="0.00 0.00 437.50 399.00" xmlns="http://www.w3.org/2000/svg" xmlns:xlink="http://www.w3.org/1999/xlink">
<g id="graph0" class="graph" transform="scale(1 1) rotate(0) translate(4 395)">
<title>%3</title>
<polygon fill="white" stroke="none" points="-4,4 -4,-395 433.5,-395 433.5,4 -4,4"/>
<!-- c_{k&#45;2} -->
<g id="node1" class="node"><title>c_{k&#45;2}</title>
<polygon fill="#b4eeb4" stroke="black" stroke-width="2" points="300,-391 215,-391 215,-355 300,-355 300,-391"/>
<text text-anchor="middle" x="257.5" y="-368" font-family="times" font-size="20.00">c_{k&#45;2}</text>
</g>
<!-- 0 -->
<g id="node3" class="node"><title>0</title>
<polygon fill="lightblue" stroke="black" stroke-width="2" points="131.5,-297 95.5,-297 95.5,-261 131.5,-261 131.5,-297"/>
<text text-anchor="middle" x="113.5" y="-274" font-family="times" font-size="20.00">0</text>
</g>
<!-- c_{k&#45;2}&#45;&gt;0 -->
<g id="edge1" class="edge"><title>c_{k&#45;2}&#45;&gt;0</title>
<path fill="none" stroke="black" d="M214.835,-368.106C190.335,-363.898 160.384,-355.155 139.5,-337 130.48,-329.159 124.413,-317.548 120.426,-306.847"/>
<polygon fill="gray" stroke="black" points="123.647,-305.437 117.212,-297.02 116.994,-307.612 123.647,-305.437"/>
<text text-anchor="middle" x="174" y="-321" font-family="times" font-size="20.00">cweight</text>
</g>
<!-- 1 -->
<g id="node4" class="node"><title>1</title>
<polygon fill="lightblue" stroke="black" stroke-width="2" points="182.5,-203 146.5,-203 146.5,-167 182.5,-167 182.5,-203"/>
<text text-anchor="middle" x="164.5" y="-180" font-family="times" font-size="20.00">1</text>
</g>
<!-- c_{k&#45;2}&#45;&gt;1 -->
<g id="edge3" class="edge"><title>c_{k&#45;2}&#45;&gt;1</title>
<path fill="none" stroke="black" d="M252.538,-354.832C241.715,-317.689 216.333,-232.296 208.5,-221 203.807,-214.232 197.428,-208.124 190.984,-202.975"/>
<polygon fill="gray" stroke="black" points="193.026,-200.132 182.909,-196.989 188.858,-205.756 193.026,-200.132"/>
<text text-anchor="middle" x="255.5" y="-274" font-family="times" font-size="20.00">conv</text>
</g>
<!-- 2 -->
<g id="node5" class="node"><title>2</title>
<polygon fill="lightblue" stroke="black" stroke-width="2" points="195.5,-109 159.5,-109 159.5,-73 195.5,-73 195.5,-109"/>
<text text-anchor="middle" x="177.5" y="-86" font-family="times" font-size="20.00">2</text>
</g>
<!-- c_{k&#45;2}&#45;&gt;2 -->
<g id="edge6" class="edge"><title>c_{k&#45;2}&#45;&gt;2</title>
<path fill="none" stroke="black" d="M263.798,-354.707C268.915,-339.687 275.722,-317.228 278.5,-297 283.641,-259.574 300.407,-157.777 278.5,-127 262.168,-104.056 229.707,-96.0151 205.978,-93.2709"/>
<polygon fill="gray" stroke="black" points="206.054,-89.7635 195.779,-92.3482 205.423,-96.7351 206.054,-89.7635"/>
<text text-anchor="middle" x="320.5" y="-227" font-family="times" font-size="20.00">identity</text>
</g>
<!-- 3 -->
<g id="node6" class="node"><title>3</title>
<polygon fill="lightblue" stroke="black" stroke-width="2" points="343.5,-109 307.5,-109 307.5,-73 343.5,-73 343.5,-109"/>
<text text-anchor="middle" x="325.5" y="-86" font-family="times" font-size="20.00">3</text>
</g>
<!-- c_{k&#45;2}&#45;&gt;3 -->
<g id="edge8" class="edge"><title>c_{k&#45;2}&#45;&gt;3</title>
<path fill="none" stroke="black" d="M285.896,-354.829C293.129,-349.657 300.535,-343.586 306.5,-337 338.845,-301.29 348.08,-289.552 360.5,-243 368.263,-213.901 367.093,-173.914 349.5,-127 348.336,-123.896 346.839,-120.801 345.163,-117.809"/>
<polygon fill="gray" stroke="black" points="348.047,-115.82 339.75,-109.232 342.128,-119.557 348.047,-115.82"/>
<text text-anchor="middle" x="396.5" y="-227" font-family="times" font-size="20.00">identity</text>
</g>
<!-- c_{k&#45;1} -->
<g id="node2" class="node"><title>c_{k&#45;1}</title>
<polygon fill="#b4eeb4" stroke="black" stroke-width="2" points="85,-391 0,-391 0,-355 85,-355 85,-391"/>
<text text-anchor="middle" x="42.5" y="-368" font-family="times" font-size="20.00">c_{k&#45;1}</text>
</g>
<!-- c_{k&#45;1}&#45;&gt;0 -->
<g id="edge2" class="edge"><title>c_{k&#45;1}&#45;&gt;0</title>
<path fill="none" stroke="black" d="M38.4196,-354.974C36.5118,-342.899 36.0594,-326.806 43.5,-315 52.741,-300.337 70.1532,-291.596 85.2988,-286.517"/>
<polygon fill="gray" stroke="black" points="86.699,-289.753 95.2938,-283.558 84.7116,-283.041 86.699,-289.753"/>
<text text-anchor="middle" x="80" y="-321" font-family="times" font-size="20.00">dil_conv</text>
</g>
<!-- 0&#45;&gt;1 -->
<g id="edge4" class="edge"><title>0&#45;&gt;1</title>
<path fill="none" stroke="black" d="M118.496,-260.883C122.284,-249.206 128.098,-233.629 135.5,-221 137.408,-217.745 139.615,-214.485 141.942,-211.335"/>
<polygon fill="gray" stroke="black" points="144.81,-213.351 148.263,-203.335 139.317,-209.012 144.81,-213.351"/>
<text text-anchor="middle" x="172" y="-227" font-family="times" font-size="20.00">dil_conv</text>
</g>
<!-- c_{k} -->
<g id="node7" class="node"><title>c_{k}</title>
<polygon fill="palegoldenrod" stroke="black" stroke-width="2" points="181.5,-36 115.5,-36 115.5,-0 181.5,-0 181.5,-36"/>
<text text-anchor="middle" x="148.5" y="-13" font-family="times" font-size="20.00">c_{k}</text>
</g>
<!-- 0&#45;&gt;c_{k} -->
<g id="edge9" class="edge"><title>0&#45;&gt;c_{k}</title>
<path fill="none" stroke="black" d="M115.548,-260.781C116.91,-249.468 118.761,-234.347 120.5,-221 128.672,-158.262 139.079,-84.6842 144.618,-45.9699"/>
<polygon fill="gray" stroke="black" points="148.091,-46.4085 146.046,-36.013 141.162,-45.4151 148.091,-46.4085"/>
</g>
<!-- 1&#45;&gt;2 -->
<g id="edge5" class="edge"><title>1&#45;&gt;2</title>
<path fill="none" stroke="black" d="M163.418,-166.907C163.034,-155.516 163.171,-140.257 165.5,-127 165.973,-124.305 166.622,-121.538 167.373,-118.798"/>
<polygon fill="gray" stroke="black" points="170.741,-119.754 170.421,-109.164 164.067,-117.643 170.741,-119.754"/>
<text text-anchor="middle" x="222" y="-133" font-family="times" font-size="20.00">shuffle_conv</text>
</g>
<!-- 1&#45;&gt;3 -->
<g id="edge7" class="edge"><title>1&#45;&gt;3</title>
<path fill="none" stroke="black" d="M182.815,-182.162C207.413,-178.939 251.598,-170.434 282.5,-149 294.154,-140.917 303.98,-128.673 311.284,-117.603"/>
<polygon fill="gray" stroke="black" points="314.277,-119.418 316.588,-109.078 308.333,-115.72 314.277,-119.418"/>
<text text-anchor="middle" x="324.5" y="-133" font-family="times" font-size="20.00">conv</text>
</g>
<!-- 1&#45;&gt;c_{k} -->
<g id="edge10" class="edge"><title>1&#45;&gt;c_{k}</title>
<path fill="none" stroke="black" d="M160.474,-166.839C157.124,-151.712 152.578,-129.026 150.5,-109 148.326,-88.0465 147.887,-64.2078 147.958,-46.3309"/>
<polygon fill="gray" stroke="black" points="151.458,-46.3387 148.054,-36.3057 144.459,-46.2719 151.458,-46.3387"/>
</g>
<!-- 2&#45;&gt;c_{k} -->
<g id="edge11" class="edge"><title>2&#45;&gt;c_{k}</title>
<path fill="none" stroke="black" d="M170.48,-72.8129C167.132,-64.6151 163.05,-54.6231 159.318,-45.4847"/>
<polygon fill="gray" stroke="black" points="162.477,-43.9629 155.455,-36.0288 155.997,-46.6099 162.477,-43.9629"/>
</g>
<!-- 3&#45;&gt;c_{k} -->
<g id="edge12" class="edge"><title>3&#45;&gt;c_{k}</title>
<path fill="none" stroke="black" d="M307.225,-82.6692C280.062,-71.7736 228.269,-50.9977 191.231,-36.1408"/>
<polygon fill="gray" stroke="black" points="192.268,-32.7855 181.684,-32.3109 189.662,-39.2823 192.268,-32.7855"/>
</g>
</g>
</svg>
