<?xml version="1.0" encoding="UTF-8" standalone="no"?>
<!DOCTYPE svg PUBLIC "-//W3C//DTD SVG 1.1//EN"
 "http://www.w3.org/Graphics/SVG/1.1/DTD/svg11.dtd">
<!-- Generated by graphviz version 2.38.0 (20140413.2041)
 -->
<!-- Title: %3 Pages: 1 -->
<svg width="472pt" height="399pt"
 viewBox="0.00 0.00 471.50 399.00" xmlns="http://www.w3.org/2000/svg" xmlns:xlink="http://www.w3.org/1999/xlink">
<g id="graph0" class="graph" transform="scale(1 1) rotate(0) translate(4 395)">
<title>%3</title>
<polygon fill="white" stroke="none" points="-4,4 -4,-395 467.5,-395 467.5,4 -4,4"/>
<!-- c_{k&#45;2} -->
<g id="node1" class="node"><title>c_{k&#45;2}</title>
<polygon fill="#b4eeb4" stroke="black" stroke-width="2" points="334,-391 249,-391 249,-355 334,-355 334,-391"/>
<text text-anchor="middle" x="291.5" y="-368" font-family="times" font-size="20.00">c_{k&#45;2}</text>
</g>
<!-- 0 -->
<g id="node3" class="node"><title>0</title>
<polygon fill="lightblue" stroke="black" stroke-width="2" points="165.5,-297 129.5,-297 129.5,-261 165.5,-261 165.5,-297"/>
<text text-anchor="middle" x="147.5" y="-274" font-family="times" font-size="20.00">0</text>
</g>
<!-- c_{k&#45;2}&#45;&gt;0 -->
<g id="edge1" class="edge"><title>c_{k&#45;2}&#45;&gt;0</title>
<path fill="none" stroke="black" d="M248.835,-368.106C224.335,-363.898 194.384,-355.155 173.5,-337 164.48,-329.159 158.413,-317.548 154.426,-306.847"/>
<polygon fill="gray" stroke="black" points="157.647,-305.437 151.212,-297.02 150.994,-307.612 157.647,-305.437"/>
<text text-anchor="middle" x="208" y="-321" font-family="times" font-size="20.00">cweight</text>
</g>
<!-- 1 -->
<g id="node4" class="node"><title>1</title>
<polygon fill="lightblue" stroke="black" stroke-width="2" points="216.5,-203 180.5,-203 180.5,-167 216.5,-167 216.5,-203"/>
<text text-anchor="middle" x="198.5" y="-180" font-family="times" font-size="20.00">1</text>
</g>
<!-- c_{k&#45;2}&#45;&gt;1 -->
<g id="edge3" class="edge"><title>c_{k&#45;2}&#45;&gt;1</title>
<path fill="none" stroke="black" d="M286.538,-354.832C275.715,-317.689 250.333,-232.296 242.5,-221 237.807,-214.232 231.428,-208.124 224.984,-202.975"/>
<polygon fill="gray" stroke="black" points="227.026,-200.132 216.909,-196.989 222.858,-205.756 227.026,-200.132"/>
<text text-anchor="middle" x="289.5" y="-274" font-family="times" font-size="20.00">conv</text>
</g>
<!-- 2 -->
<g id="node5" class="node"><title>2</title>
<polygon fill="lightblue" stroke="black" stroke-width="2" points="229.5,-109 193.5,-109 193.5,-73 229.5,-73 229.5,-109"/>
<text text-anchor="middle" x="211.5" y="-86" font-family="times" font-size="20.00">2</text>
</g>
<!-- c_{k&#45;2}&#45;&gt;2 -->
<g id="edge6" class="edge"><title>c_{k&#45;2}&#45;&gt;2</title>
<path fill="none" stroke="black" d="M297.798,-354.707C302.915,-339.687 309.722,-317.228 312.5,-297 317.641,-259.574 334.407,-157.777 312.5,-127 296.168,-104.056 263.707,-96.0151 239.978,-93.2709"/>
<polygon fill="gray" stroke="black" points="240.054,-89.7635 229.779,-92.3482 239.423,-96.7351 240.054,-89.7635"/>
<text text-anchor="middle" x="354.5" y="-227" font-family="times" font-size="20.00">identity</text>
</g>
<!-- 3 -->
<g id="node6" class="node"><title>3</title>
<polygon fill="lightblue" stroke="black" stroke-width="2" points="377.5,-109 341.5,-109 341.5,-73 377.5,-73 377.5,-109"/>
<text text-anchor="middle" x="359.5" y="-86" font-family="times" font-size="20.00">3</text>
</g>
<!-- c_{k&#45;2}&#45;&gt;3 -->
<g id="edge8" class="edge"><title>c_{k&#45;2}&#45;&gt;3</title>
<path fill="none" stroke="black" d="M319.896,-354.829C327.129,-349.657 334.535,-343.586 340.5,-337 372.845,-301.29 382.08,-289.552 394.5,-243 402.263,-213.901 401.093,-173.914 383.5,-127 382.336,-123.896 380.839,-120.801 379.163,-117.809"/>
<polygon fill="gray" stroke="black" points="382.047,-115.82 373.75,-109.232 376.128,-119.557 382.047,-115.82"/>
<text text-anchor="middle" x="430.5" y="-227" font-family="times" font-size="20.00">identity</text>
</g>
<!-- c_{k&#45;1} -->
<g id="node2" class="node"><title>c_{k&#45;1}</title>
<polygon fill="#b4eeb4" stroke="black" stroke-width="2" points="85,-391 0,-391 0,-355 85,-355 85,-391"/>
<text text-anchor="middle" x="42.5" y="-368" font-family="times" font-size="20.00">c_{k&#45;1}</text>
</g>
<!-- c_{k&#45;1}&#45;&gt;0 -->
<g id="edge2" class="edge"><title>c_{k&#45;1}&#45;&gt;0</title>
<path fill="none" stroke="black" d="M37.9799,-354.904C35.7992,-342.638 35.199,-326.341 43.5,-315 60.7508,-291.432 94.6394,-283.54 119.051,-281"/>
<polygon fill="gray" stroke="black" points="119.491,-284.476 129.181,-280.191 118.934,-277.499 119.491,-284.476"/>
<text text-anchor="middle" x="97" y="-321" font-family="times" font-size="20.00">up_dil_conv</text>
</g>
<!-- 0&#45;&gt;1 -->
<g id="edge4" class="edge"><title>0&#45;&gt;1</title>
<path fill="none" stroke="black" d="M152.496,-260.883C156.284,-249.206 162.098,-233.629 169.5,-221 171.408,-217.745 173.615,-214.485 175.942,-211.335"/>
<polygon fill="gray" stroke="black" points="178.81,-213.351 182.263,-203.335 173.317,-209.012 178.81,-213.351"/>
<text text-anchor="middle" x="206" y="-227" font-family="times" font-size="20.00">dil_conv</text>
</g>
<!-- c_{k} -->
<g id="node7" class="node"><title>c_{k}</title>
<polygon fill="palegoldenrod" stroke="black" stroke-width="2" points="215.5,-36 149.5,-36 149.5,-0 215.5,-0 215.5,-36"/>
<text text-anchor="middle" x="182.5" y="-13" font-family="times" font-size="20.00">c_{k}</text>
</g>
<!-- 0&#45;&gt;c_{k} -->
<g id="edge9" class="edge"><title>0&#45;&gt;c_{k}</title>
<path fill="none" stroke="black" d="M149.548,-260.781C150.91,-249.468 152.761,-234.347 154.5,-221 162.672,-158.262 173.079,-84.6842 178.618,-45.9699"/>
<polygon fill="gray" stroke="black" points="182.091,-46.4085 180.046,-36.013 175.162,-45.4151 182.091,-46.4085"/>
</g>
<!-- 1&#45;&gt;2 -->
<g id="edge5" class="edge"><title>1&#45;&gt;2</title>
<path fill="none" stroke="black" d="M197.418,-166.907C197.034,-155.516 197.171,-140.257 199.5,-127 199.973,-124.305 200.622,-121.538 201.373,-118.798"/>
<polygon fill="gray" stroke="black" points="204.741,-119.754 204.421,-109.164 198.067,-117.643 204.741,-119.754"/>
<text text-anchor="middle" x="256" y="-133" font-family="times" font-size="20.00">shuffle_conv</text>
</g>
<!-- 1&#45;&gt;3 -->
<g id="edge7" class="edge"><title>1&#45;&gt;3</title>
<path fill="none" stroke="black" d="M216.815,-182.162C241.413,-178.939 285.598,-170.434 316.5,-149 328.154,-140.917 337.98,-128.673 345.284,-117.603"/>
<polygon fill="gray" stroke="black" points="348.277,-119.418 350.588,-109.078 342.333,-115.72 348.277,-119.418"/>
<text text-anchor="middle" x="358.5" y="-133" font-family="times" font-size="20.00">conv</text>
</g>
<!-- 1&#45;&gt;c_{k} -->
<g id="edge10" class="edge"><title>1&#45;&gt;c_{k}</title>
<path fill="none" stroke="black" d="M194.474,-166.839C191.124,-151.712 186.578,-129.026 184.5,-109 182.326,-88.0465 181.887,-64.2078 181.958,-46.3309"/>
<polygon fill="gray" stroke="black" points="185.458,-46.3387 182.054,-36.3057 178.459,-46.2719 185.458,-46.3387"/>
</g>
<!-- 2&#45;&gt;c_{k} -->
<g id="edge11" class="edge"><title>2&#45;&gt;c_{k}</title>
<path fill="none" stroke="black" d="M204.48,-72.8129C201.132,-64.6151 197.05,-54.6231 193.318,-45.4847"/>
<polygon fill="gray" stroke="black" points="196.477,-43.9629 189.455,-36.0288 189.997,-46.6099 196.477,-43.9629"/>
</g>
<!-- 3&#45;&gt;c_{k} -->
<g id="edge12" class="edge"><title>3&#45;&gt;c_{k}</title>
<path fill="none" stroke="black" d="M341.225,-82.6692C314.062,-71.7736 262.269,-50.9977 225.231,-36.1408"/>
<polygon fill="gray" stroke="black" points="226.268,-32.7855 215.684,-32.3109 223.662,-39.2823 226.268,-32.7855"/>
</g>
</g>
</svg>
