<?xml version="1.0" encoding="UTF-8" standalone="no"?>
<!DOCTYPE svg PUBLIC "-//W3C//DTD SVG 1.1//EN"
 "http://www.w3.org/Graphics/SVG/1.1/DTD/svg11.dtd">
<!-- Generated by graphviz version 2.38.0 (20140413.2041)
 -->
<!-- Title: %3 Pages: 1 -->
<svg width="395pt" height="399pt"
 viewBox="0.00 0.00 394.51 399.00" xmlns="http://www.w3.org/2000/svg" xmlns:xlink="http://www.w3.org/1999/xlink">
<g id="graph0" class="graph" transform="scale(1 1) rotate(0) translate(4 395)">
<title>%3</title>
<polygon fill="white" stroke="none" points="-4,4 -4,-395 390.505,-395 390.505,4 -4,4"/>
<!-- c_{k&#45;2} -->
<g id="node1" class="node"><title>c_{k&#45;2}</title>
<polygon fill="#b4eeb4" stroke="black" stroke-width="2" points="111.005,-391 26.0051,-391 26.0051,-355 111.005,-355 111.005,-391"/>
<text text-anchor="middle" x="68.5051" y="-368" font-family="times" font-size="20.00">c_{k&#45;2}</text>
</g>
<!-- 0 -->
<g id="node3" class="node"><title>0</title>
<polygon fill="lightblue" stroke="black" stroke-width="2" points="177.505,-297 141.505,-297 141.505,-261 177.505,-261 177.505,-297"/>
<text text-anchor="middle" x="159.505" y="-274" font-family="times" font-size="20.00">0</text>
</g>
<!-- c_{k&#45;2}&#45;&gt;0 -->
<g id="edge1" class="edge"><title>c_{k&#45;2}&#45;&gt;0</title>
<path fill="none" stroke="black" d="M76.0141,-354.826C81.9359,-342.679 91.0908,-326.562 102.505,-315 111.062,-306.332 122.176,-298.891 132.315,-293.127"/>
<polygon fill="gray" stroke="black" points="134.104,-296.139 141.251,-288.318 130.787,-289.975 134.104,-296.139"/>
<text text-anchor="middle" x="137.005" y="-321" font-family="times" font-size="20.00">cweight</text>
</g>
<!-- 1 -->
<g id="node4" class="node"><title>1</title>
<polygon fill="lightblue" stroke="black" stroke-width="2" points="95.5051,-203 59.5051,-203 59.5051,-167 95.5051,-167 95.5051,-203"/>
<text text-anchor="middle" x="77.5051" y="-180" font-family="times" font-size="20.00">1</text>
</g>
<!-- c_{k&#45;2}&#45;&gt;1 -->
<g id="edge3" class="edge"><title>c_{k&#45;2}&#45;&gt;1</title>
<path fill="none" stroke="black" d="M69.3357,-354.835C70.9029,-322.446 74.3073,-252.087 76.189,-213.2"/>
<polygon fill="gray" stroke="black" points="79.6891,-213.281 76.6766,-203.124 72.6972,-212.943 79.6891,-213.281"/>
<text text-anchor="middle" x="94.5051" y="-274" font-family="times" font-size="20.00">conv</text>
</g>
<!-- 3 -->
<g id="node6" class="node"><title>3</title>
<polygon fill="lightblue" stroke="black" stroke-width="2" points="38.5051,-109 2.50511,-109 2.50511,-73 38.5051,-73 38.5051,-109"/>
<text text-anchor="middle" x="20.5051" y="-86" font-family="times" font-size="20.00">3</text>
</g>
<!-- c_{k&#45;2}&#45;&gt;3 -->
<g id="edge8" class="edge"><title>c_{k&#45;2}&#45;&gt;3</title>
<path fill="none" stroke="black" d="M56.6036,-354.631C41.0319,-330.747 14.548,-285.84 4.50511,-243 -5.45217,-200.525 4.15022,-149.865 12.185,-119.351"/>
<polygon fill="gray" stroke="black" points="15.6325,-120.016 14.927,-109.445 8.88615,-118.149 15.6325,-120.016"/>
<text text-anchor="middle" x="37.5051" y="-227" font-family="times" font-size="20.00">identity</text>
</g>
<!-- c_{k&#45;1} -->
<g id="node2" class="node"><title>c_{k&#45;1}</title>
<polygon fill="#b4eeb4" stroke="black" stroke-width="2" points="294.005,-391 209.005,-391 209.005,-355 294.005,-355 294.005,-391"/>
<text text-anchor="middle" x="251.505" y="-368" font-family="times" font-size="20.00">c_{k&#45;1}</text>
</g>
<!-- c_{k&#45;1}&#45;&gt;0 -->
<g id="edge2" class="edge"><title>c_{k&#45;1}&#45;&gt;0</title>
<path fill="none" stroke="black" d="M217.932,-354.989C209.708,-349.891 201.32,-343.815 194.505,-337 185.641,-328.136 178.029,-316.611 172.189,-306.247"/>
<polygon fill="gray" stroke="black" points="175.137,-304.337 167.339,-297.164 168.962,-307.634 175.137,-304.337"/>
<text text-anchor="middle" x="245.505" y="-321" font-family="times" font-size="20.00">down_conv</text>
</g>
<!-- 2 -->
<g id="node5" class="node"><title>2</title>
<polygon fill="lightblue" stroke="black" stroke-width="2" points="141.505,-109 105.505,-109 105.505,-73 141.505,-73 141.505,-109"/>
<text text-anchor="middle" x="123.505" y="-86" font-family="times" font-size="20.00">2</text>
</g>
<!-- c_{k&#45;1}&#45;&gt;2 -->
<g id="edge6" class="edge"><title>c_{k&#45;1}&#45;&gt;2</title>
<path fill="none" stroke="black" d="M281.599,-354.826C287.611,-349.893 293.113,-343.935 296.505,-337 300.801,-328.216 298.328,-324.606 296.505,-315 279.767,-226.778 287.107,-189.369 222.505,-127 203.232,-108.393 173.464,-99.615 151.6,-95.513"/>
<polygon fill="gray" stroke="black" points="152.02,-92.035 141.583,-93.8524 150.876,-98.9408 152.02,-92.035"/>
<text text-anchor="middle" x="335.505" y="-227" font-family="times" font-size="20.00">down_conv</text>
</g>
<!-- 0&#45;&gt;1 -->
<g id="edge4" class="edge"><title>0&#45;&gt;1</title>
<path fill="none" stroke="black" d="M144.082,-260.696C131.597,-246.689 113.846,-226.772 99.8118,-211.027"/>
<polygon fill="gray" stroke="black" points="102.126,-208.363 92.8595,-203.227 96.9005,-213.021 102.126,-208.363"/>
<text text-anchor="middle" x="164.005" y="-227" font-family="times" font-size="20.00">dil_conv</text>
</g>
<!-- c_{k} -->
<g id="node7" class="node"><title>c_{k}</title>
<polygon fill="palegoldenrod" stroke="black" stroke-width="2" points="128.505,-36 62.5051,-36 62.5051,-0 128.505,-0 128.505,-36"/>
<text text-anchor="middle" x="95.5051" y="-13" font-family="times" font-size="20.00">c_{k}</text>
</g>
<!-- 0&#45;&gt;c_{k} -->
<g id="edge9" class="edge"><title>0&#45;&gt;c_{k}</title>
<path fill="none" stroke="black" d="M177.947,-268.028C187.338,-262.005 198.096,-253.466 204.505,-243 231.752,-198.507 244.398,-174.357 222.505,-127 205.039,-89.2203 167.121,-59.8059 137.24,-41.2799"/>
<polygon fill="gray" stroke="black" points="139.026,-38.2701 128.653,-36.1144 135.418,-44.2684 139.026,-38.2701"/>
</g>
<!-- 1&#45;&gt;2 -->
<g id="edge5" class="edge"><title>1&#45;&gt;2</title>
<path fill="none" stroke="black" d="M86.1574,-166.696C92.9679,-153.074 102.573,-133.864 110.337,-118.336"/>
<polygon fill="gray" stroke="black" points="113.55,-119.736 114.892,-109.227 107.289,-116.606 113.55,-119.736"/>
<text text-anchor="middle" x="162.005" y="-133" font-family="times" font-size="20.00">shuffle_conv</text>
</g>
<!-- 1&#45;&gt;3 -->
<g id="edge7" class="edge"><title>1&#45;&gt;3</title>
<path fill="none" stroke="black" d="M59.3959,-178.015C46.3373,-172.647 29.6347,-163.369 21.5051,-149 16.4944,-140.143 15.3471,-129.207 15.7682,-119.29"/>
<polygon fill="gray" stroke="black" points="19.2771,-119.36 16.7322,-109.075 12.308,-118.702 19.2771,-119.36"/>
<text text-anchor="middle" x="42.5051" y="-133" font-family="times" font-size="20.00">conv</text>
</g>
<!-- 1&#45;&gt;c_{k} -->
<g id="edge10" class="edge"><title>1&#45;&gt;c_{k}</title>
<path fill="none" stroke="black" d="M79.3636,-166.964C82.476,-138.433 88.7686,-80.7517 92.5114,-46.4425"/>
<polygon fill="gray" stroke="black" points="96.0245,-46.5116 93.6297,-36.1909 89.0658,-45.7524 96.0245,-46.5116"/>
</g>
<!-- 2&#45;&gt;c_{k} -->
<g id="edge11" class="edge"><title>2&#45;&gt;c_{k}</title>
<path fill="none" stroke="black" d="M116.727,-72.8129C113.494,-64.6151 109.554,-54.6231 105.95,-45.4847"/>
<polygon fill="gray" stroke="black" points="109.145,-44.0475 102.221,-36.0288 102.633,-46.6156 109.145,-44.0475"/>
</g>
<!-- 3&#45;&gt;c_{k} -->
<g id="edge12" class="edge"><title>3&#45;&gt;c_{k}</title>
<path fill="none" stroke="black" d="M38.6605,-72.8129C48.0572,-63.9174 59.6854,-52.9094 69.9717,-43.1717"/>
<polygon fill="gray" stroke="black" points="72.661,-45.4454 77.5169,-36.0288 67.8486,-40.3619 72.661,-45.4454"/>
</g>
</g>
</svg>
