<?xml version="1.0" encoding="UTF-8" standalone="no"?>
<!DOCTYPE svg PUBLIC "-//W3C//DTD SVG 1.1//EN"
 "http://www.w3.org/Graphics/SVG/1.1/DTD/svg11.dtd">
<!-- Generated by graphviz version 2.38.0 (20140413.2041)
 -->
<!-- Title: %3 Pages: 1 -->
<svg width="603pt" height="399pt"
 viewBox="0.00 0.00 602.50 399.00" xmlns="http://www.w3.org/2000/svg" xmlns:xlink="http://www.w3.org/1999/xlink">
<g id="graph0" class="graph" transform="scale(1 1) rotate(0) translate(4 395)">
<title>%3</title>
<polygon fill="white" stroke="none" points="-4,4 -4,-395 598.5,-395 598.5,4 -4,4"/>
<!-- c_{k&#45;2} -->
<g id="node1" class="node"><title>c_{k&#45;2}</title>
<polygon fill="#b4eeb4" stroke="black" stroke-width="2" points="85,-391 0,-391 0,-355 85,-355 85,-391"/>
<text text-anchor="middle" x="42.5" y="-368" font-family="times" font-size="20.00">c_{k&#45;2}</text>
</g>
<!-- 0 -->
<g id="node3" class="node"><title>0</title>
<polygon fill="lightblue" stroke="black" stroke-width="2" points="144.5,-297 108.5,-297 108.5,-261 144.5,-261 144.5,-297"/>
<text text-anchor="middle" x="126.5" y="-274" font-family="times" font-size="20.00">0</text>
</g>
<!-- c_{k&#45;2}&#45;&gt;0 -->
<g id="edge2" class="edge"><title>c_{k&#45;2}&#45;&gt;0</title>
<path fill="none" stroke="black" d="M38.1912,-354.825C36.1728,-342.677 35.6821,-326.56 43.5,-315 55.7706,-296.856 79.4594,-288.089 98.3991,-283.87"/>
<polygon fill="gray" stroke="black" points="99.1694,-287.286 108.33,-281.963 97.8493,-280.411 99.1694,-287.286"/>
<text text-anchor="middle" x="78" y="-321" font-family="times" font-size="20.00">cweight</text>
</g>
<!-- c_{k&#45;1} -->
<g id="node2" class="node"><title>c_{k&#45;1}</title>
<polygon fill="#b4eeb4" stroke="black" stroke-width="2" points="362,-391 277,-391 277,-355 362,-355 362,-391"/>
<text text-anchor="middle" x="319.5" y="-368" font-family="times" font-size="20.00">c_{k&#45;1}</text>
</g>
<!-- c_{k&#45;1}&#45;&gt;0 -->
<g id="edge1" class="edge"><title>c_{k&#45;1}&#45;&gt;0</title>
<path fill="none" stroke="black" d="M276.817,-369.457C228.685,-365.665 154.622,-356.732 135.5,-337 127.97,-329.23 125.192,-317.871 124.496,-307.335"/>
<polygon fill="gray" stroke="black" points="127.995,-307.2 124.396,-297.235 120.995,-307.27 127.995,-307.2"/>
<text text-anchor="middle" x="187" y="-321" font-family="times" font-size="20.00">up_cweight</text>
</g>
<!-- 1 -->
<g id="node4" class="node"><title>1</title>
<polygon fill="lightblue" stroke="black" stroke-width="2" points="273.5,-203 237.5,-203 237.5,-167 273.5,-167 273.5,-203"/>
<text text-anchor="middle" x="255.5" y="-180" font-family="times" font-size="20.00">1</text>
</g>
<!-- c_{k&#45;1}&#45;&gt;1 -->
<g id="edge4" class="edge"><title>c_{k&#45;1}&#45;&gt;1</title>
<path fill="none" stroke="black" d="M303.311,-354.732C290.95,-340.43 274.69,-318.96 266.5,-297 256.335,-269.745 254.312,-236.258 254.375,-213.237"/>
<polygon fill="gray" stroke="black" points="257.876,-213.208 254.539,-203.152 250.877,-213.094 257.876,-213.208"/>
<text text-anchor="middle" x="320" y="-274" font-family="times" font-size="20.00">up_dil_conv</text>
</g>
<!-- 2 -->
<g id="node5" class="node"><title>2</title>
<polygon fill="lightblue" stroke="black" stroke-width="2" points="319.5,-109 283.5,-109 283.5,-73 319.5,-73 319.5,-109"/>
<text text-anchor="middle" x="301.5" y="-86" font-family="times" font-size="20.00">2</text>
</g>
<!-- c_{k&#45;1}&#45;&gt;2 -->
<g id="edge6" class="edge"><title>c_{k&#45;1}&#45;&gt;2</title>
<path fill="none" stroke="black" d="M336.595,-354.996C349.529,-340.845 366.26,-319.447 373.5,-297 378.412,-281.773 374.273,-276.981 373.5,-261 370.608,-201.235 392.589,-177.503 360.5,-127 353.215,-115.534 340.709,-107.338 329.08,-101.773"/>
<polygon fill="gray" stroke="black" points="330.221,-98.4534 319.653,-97.7039 327.447,-104.88 330.221,-98.4534"/>
<text text-anchor="middle" x="428" y="-227" font-family="times" font-size="20.00">up_dil_conv</text>
</g>
<!-- 3 -->
<g id="node6" class="node"><title>3</title>
<polygon fill="lightblue" stroke="black" stroke-width="2" points="436.5,-109 400.5,-109 400.5,-73 436.5,-73 436.5,-109"/>
<text text-anchor="middle" x="418.5" y="-86" font-family="times" font-size="20.00">3</text>
</g>
<!-- c_{k&#45;1}&#45;&gt;3 -->
<g id="edge8" class="edge"><title>c_{k&#45;1}&#45;&gt;3</title>
<path fill="none" stroke="black" d="M358.562,-354.991C399.108,-334.894 460.088,-297.195 485.5,-243 499.778,-212.55 494.594,-175.529 463.5,-127 458.845,-119.734 452.141,-113.358 445.323,-108.108"/>
<polygon fill="gray" stroke="black" points="446.963,-104.981 436.773,-102.078 442.928,-110.702 446.963,-104.981"/>
<text text-anchor="middle" x="543" y="-227" font-family="times" font-size="20.00">up_cweight</text>
</g>
<!-- 0&#45;&gt;1 -->
<g id="edge3" class="edge"><title>0&#45;&gt;1</title>
<path fill="none" stroke="black" d="M130.405,-260.848C134.109,-248.227 140.883,-231.505 152.5,-221 173.299,-202.19 204.622,-193.426 227.263,-189.382"/>
<polygon fill="gray" stroke="black" points="227.961,-192.815 237.291,-187.794 226.867,-185.901 227.961,-192.815"/>
<text text-anchor="middle" x="195.5" y="-227" font-family="times" font-size="20.00">dep_conv</text>
</g>
<!-- c_{k} -->
<g id="node7" class="node"><title>c_{k}</title>
<polygon fill="palegoldenrod" stroke="black" stroke-width="2" points="305.5,-36 239.5,-36 239.5,-0 305.5,-0 305.5,-36"/>
<text text-anchor="middle" x="272.5" y="-13" font-family="times" font-size="20.00">c_{k}</text>
</g>
<!-- 0&#45;&gt;c_{k} -->
<g id="edge9" class="edge"><title>0&#45;&gt;c_{k}</title>
<path fill="none" stroke="black" d="M126.875,-260.777C127.614,-249.193 129.557,-233.767 134.5,-221 161.943,-150.117 218.459,-79.6197 249.987,-43.6103"/>
<polygon fill="gray" stroke="black" points="252.677,-45.8525 256.689,-36.0466 247.437,-41.2105 252.677,-45.8525"/>
</g>
<!-- 1&#45;&gt;2 -->
<g id="edge5" class="edge"><title>1&#45;&gt;2</title>
<path fill="none" stroke="black" d="M264.152,-166.696C270.963,-153.074 280.568,-133.864 288.332,-118.336"/>
<polygon fill="gray" stroke="black" points="291.545,-119.736 292.887,-109.227 285.284,-116.606 291.545,-119.736"/>
<text text-anchor="middle" x="320" y="-133" font-family="times" font-size="20.00">dil_conv</text>
</g>
<!-- 1&#45;&gt;3 -->
<g id="edge7" class="edge"><title>1&#45;&gt;3</title>
<path fill="none" stroke="black" d="M273.655,-180.577C295.478,-175.891 332.638,-166.053 360.5,-149 374.453,-140.46 387.658,-127.973 397.933,-116.861"/>
<polygon fill="gray" stroke="black" points="400.821,-118.882 404.866,-109.09 395.597,-114.222 400.821,-118.882"/>
<text text-anchor="middle" x="423" y="-133" font-family="times" font-size="20.00">dil_conv</text>
</g>
<!-- 1&#45;&gt;c_{k} -->
<g id="edge10" class="edge"><title>1&#45;&gt;c_{k}</title>
<path fill="none" stroke="black" d="M257.255,-166.964C260.195,-138.433 266.138,-80.7517 269.673,-46.4425"/>
<polygon fill="gray" stroke="black" points="273.185,-46.497 270.729,-36.1909 266.222,-45.7796 273.185,-46.497"/>
</g>
<!-- 2&#45;&gt;c_{k} -->
<g id="edge11" class="edge"><title>2&#45;&gt;c_{k}</title>
<path fill="none" stroke="black" d="M294.48,-72.8129C291.132,-64.6151 287.05,-54.6231 283.318,-45.4847"/>
<polygon fill="gray" stroke="black" points="286.477,-43.9629 279.455,-36.0288 279.997,-46.6099 286.477,-43.9629"/>
</g>
<!-- 3&#45;&gt;c_{k} -->
<g id="edge12" class="edge"><title>3&#45;&gt;c_{k}</title>
<path fill="none" stroke="black" d="M400.304,-81.1514C379.083,-70.8314 343.3,-53.4301 314.986,-39.6609"/>
<polygon fill="gray" stroke="black" points="316.225,-36.3718 305.702,-35.146 313.164,-42.667 316.225,-36.3718"/>
</g>
</g>
</svg>
