<?xml version="1.0" encoding="UTF-8" standalone="no"?>
<!DOCTYPE svg PUBLIC "-//W3C//DTD SVG 1.1//EN"
 "http://www.w3.org/Graphics/SVG/1.1/DTD/svg11.dtd">
<!-- Generated by graphviz version 2.38.0 (20140413.2041)
 -->
<!-- Title: %3 Pages: 1 -->
<svg width="344pt" height="493pt"
 viewBox="0.00 0.00 343.50 493.00" xmlns="http://www.w3.org/2000/svg" xmlns:xlink="http://www.w3.org/1999/xlink">
<g id="graph0" class="graph" transform="scale(1 1) rotate(0) translate(4 489)">
<title>%3</title>
<polygon fill="white" stroke="none" points="-4,4 -4,-489 339.5,-489 339.5,4 -4,4"/>
<!-- c_{k&#45;2} -->
<g id="node1" class="node"><title>c_{k&#45;2}</title>
<polygon fill="#b4eeb4" stroke="black" stroke-width="2" points="85,-485 0,-485 0,-449 85,-449 85,-485"/>
<text text-anchor="middle" x="42.5" y="-462" font-family="times" font-size="20.00">c_{k&#45;2}</text>
</g>
<!-- 0 -->
<g id="node3" class="node"><title>0</title>
<polygon fill="lightblue" stroke="black" stroke-width="2" points="91.5,-391 55.5,-391 55.5,-355 91.5,-355 91.5,-391"/>
<text text-anchor="middle" x="73.5" y="-368" font-family="times" font-size="20.00">0</text>
</g>
<!-- c_{k&#45;2}&#45;&gt;0 -->
<g id="edge2" class="edge"><title>c_{k&#45;2}&#45;&gt;0</title>
<path fill="none" stroke="black" d="M39.8496,-448.971C38.7375,-437.334 38.6491,-421.768 43.5,-409 44.859,-405.423 46.7568,-401.961 48.9448,-398.696"/>
<polygon fill="gray" stroke="black" points="51.8833,-400.619 55.2434,-390.571 46.3507,-396.33 51.8833,-400.619"/>
<text text-anchor="middle" x="78" y="-415" font-family="times" font-size="20.00">cweight</text>
</g>
<!-- c_{k&#45;1} -->
<g id="node2" class="node"><title>c_{k&#45;1}</title>
<polygon fill="#b4eeb4" stroke="black" stroke-width="2" points="226,-485 141,-485 141,-449 226,-449 226,-485"/>
<text text-anchor="middle" x="183.5" y="-462" font-family="times" font-size="20.00">c_{k&#45;1}</text>
</g>
<!-- c_{k&#45;1}&#45;&gt;0 -->
<g id="edge1" class="edge"><title>c_{k&#45;1}&#45;&gt;0</title>
<path fill="none" stroke="black" d="M158.602,-448.807C151.024,-443.32 142.778,-437.088 135.5,-431 124.65,-421.924 122.876,-418.614 112.5,-409 108.329,-405.135 103.87,-401.072 99.5125,-397.136"/>
<polygon fill="gray" stroke="black" points="101.64,-394.343 91.8621,-390.262 96.9613,-399.549 101.64,-394.343"/>
<text text-anchor="middle" x="172" y="-415" font-family="times" font-size="20.00">dil_conv</text>
</g>
<!-- 1 -->
<g id="node4" class="node"><title>1</title>
<polygon fill="lightblue" stroke="black" stroke-width="2" points="240.5,-297 204.5,-297 204.5,-261 240.5,-261 240.5,-297"/>
<text text-anchor="middle" x="222.5" y="-274" font-family="times" font-size="20.00">1</text>
</g>
<!-- c_{k&#45;1}&#45;&gt;1 -->
<g id="edge4" class="edge"><title>c_{k&#45;1}&#45;&gt;1</title>
<path fill="none" stroke="black" d="M198.445,-448.881C202.37,-443.494 206.155,-437.298 208.5,-431 223.782,-389.947 225.113,-338.473 224.172,-307.465"/>
<polygon fill="gray" stroke="black" points="227.667,-307.252 223.764,-297.402 220.672,-307.535 227.667,-307.252"/>
<text text-anchor="middle" x="279" y="-368" font-family="times" font-size="20.00">shuffle_conv</text>
</g>
<!-- 0&#45;&gt;1 -->
<g id="edge3" class="edge"><title>0&#45;&gt;1</title>
<path fill="none" stroke="black" d="M84.1043,-354.811C92.8752,-341.999 106.466,-325.047 122.5,-315 148.992,-298.4 161.393,-308.409 190.5,-297 191.928,-296.44 193.374,-295.833 194.821,-295.193"/>
<polygon fill="gray" stroke="black" points="196.758,-298.143 204.228,-290.63 193.703,-291.845 196.758,-298.143"/>
<text text-anchor="middle" x="165.5" y="-321" font-family="times" font-size="20.00">dep_conv</text>
</g>
<!-- 2 -->
<g id="node5" class="node"><title>2</title>
<polygon fill="lightblue" stroke="black" stroke-width="2" points="108.5,-203 72.5,-203 72.5,-167 108.5,-167 108.5,-203"/>
<text text-anchor="middle" x="90.5" y="-180" font-family="times" font-size="20.00">2</text>
</g>
<!-- 0&#45;&gt;2 -->
<g id="edge6" class="edge"><title>0&#45;&gt;2</title>
<path fill="none" stroke="black" d="M74.7673,-354.684C76.3979,-332.835 79.3924,-294.109 82.5,-261 83.9822,-245.208 85.8527,-227.57 87.4123,-213.368"/>
<polygon fill="gray" stroke="black" points="90.9091,-213.59 88.5327,-203.265 83.9517,-212.818 90.9091,-213.59"/>
<text text-anchor="middle" x="139" y="-274" font-family="times" font-size="20.00">shuffle_conv</text>
</g>
<!-- c_{k} -->
<g id="node7" class="node"><title>c_{k}</title>
<polygon fill="palegoldenrod" stroke="black" stroke-width="2" points="124.5,-36 58.5,-36 58.5,-0 124.5,-0 124.5,-36"/>
<text text-anchor="middle" x="91.5" y="-13" font-family="times" font-size="20.00">c_{k}</text>
</g>
<!-- 0&#45;&gt;c_{k} -->
<g id="edge9" class="edge"><title>0&#45;&gt;c_{k}</title>
<path fill="none" stroke="black" d="M58.9453,-354.944C45.4688,-337.366 27.5,-308.572 27.5,-280 27.5,-280 27.5,-280 27.5,-90 27.5,-70.8171 40.5487,-54.4819 54.8622,-42.3338"/>
<polygon fill="gray" stroke="black" points="57.1812,-44.9625 62.8694,-36.0241 52.8487,-39.4644 57.1812,-44.9625"/>
</g>
<!-- 1&#45;&gt;2 -->
<g id="edge5" class="edge"><title>1&#45;&gt;2</title>
<path fill="none" stroke="black" d="M204.285,-267.22C199.878,-264.924 195.108,-262.687 190.5,-261 155.054,-248.023 135.189,-268.653 107.5,-243 99.262,-235.368 94.9553,-223.934 92.7264,-213.305"/>
<polygon fill="gray" stroke="black" points="96.1349,-212.45 91.1215,-203.116 89.2202,-213.539 96.1349,-212.45"/>
<text text-anchor="middle" x="144" y="-227" font-family="times" font-size="20.00">dil_conv</text>
</g>
<!-- 3 -->
<g id="node6" class="node"><title>3</title>
<polygon fill="lightblue" stroke="black" stroke-width="2" points="137.5,-109 101.5,-109 101.5,-73 137.5,-73 137.5,-109"/>
<text text-anchor="middle" x="119.5" y="-86" font-family="times" font-size="20.00">3</text>
</g>
<!-- 1&#45;&gt;3 -->
<g id="edge7" class="edge"><title>1&#45;&gt;3</title>
<path fill="none" stroke="black" d="M219.407,-260.742C212.871,-225.779 196.904,-148.11 180.5,-127 171.869,-115.893 158.653,-107.695 146.727,-102.037"/>
<polygon fill="gray" stroke="black" points="148.116,-98.8241 137.55,-98.0363 145.319,-105.241 148.116,-98.8241"/>
<text text-anchor="middle" x="243" y="-180" font-family="times" font-size="20.00">dil_conv</text>
</g>
<!-- 1&#45;&gt;c_{k} -->
<g id="edge10" class="edge"><title>1&#45;&gt;c_{k}</title>
<path fill="none" stroke="black" d="M240.733,-262.728C263.762,-241.483 298.459,-201.707 281.5,-167 250.931,-104.44 179.734,-60.6444 133.701,-37.673"/>
<polygon fill="gray" stroke="black" points="135.09,-34.4562 124.567,-33.2224 132.024,-40.749 135.09,-34.4562"/>
</g>
<!-- 2&#45;&gt;3 -->
<g id="edge8" class="edge"><title>2&#45;&gt;3</title>
<path fill="none" stroke="black" d="M95.3794,-166.985C98.6847,-155.625 103.215,-140.374 107.5,-127 108.382,-124.247 109.325,-121.381 110.28,-118.526"/>
<polygon fill="gray" stroke="black" points="113.598,-119.638 113.502,-109.044 106.97,-117.386 113.598,-119.638"/>
<text text-anchor="middle" x="144" y="-133" font-family="times" font-size="20.00">dil_conv</text>
</g>
<!-- 2&#45;&gt;c_{k} -->
<g id="edge11" class="edge"><title>2&#45;&gt;c_{k}</title>
<path fill="none" stroke="black" d="M90.6033,-166.964C90.7762,-138.433 91.1257,-80.7517 91.3337,-46.4425"/>
<polygon fill="gray" stroke="black" points="94.835,-46.212 91.3958,-36.1909 87.8352,-46.1695 94.835,-46.212"/>
</g>
<!-- 3&#45;&gt;c_{k} -->
<g id="edge12" class="edge"><title>3&#45;&gt;c_{k}</title>
<path fill="none" stroke="black" d="M112.722,-72.8129C109.489,-64.6151 105.549,-54.6231 101.945,-45.4847"/>
<polygon fill="gray" stroke="black" points="105.14,-44.0475 98.2156,-36.0288 98.6284,-46.6156 105.14,-44.0475"/>
</g>
</g>
</svg>
