<?xml version="1.0" encoding="UTF-8" standalone="no"?>
<!DOCTYPE svg PUBLIC "-//W3C//DTD SVG 1.1//EN"
 "http://www.w3.org/Graphics/SVG/1.1/DTD/svg11.dtd">
<!-- Generated by graphviz version 2.38.0 (20140413.2041)
 -->
<!-- Title: %3 Pages: 1 -->
<svg width="537pt" height="493pt"
 viewBox="0.00 0.00 536.50 493.00" xmlns="http://www.w3.org/2000/svg" xmlns:xlink="http://www.w3.org/1999/xlink">
<g id="graph0" class="graph" transform="scale(1 1) rotate(0) translate(4 489)">
<title>%3</title>
<polygon fill="white" stroke="none" points="-4,4 -4,-489 532.5,-489 532.5,4 -4,4"/>
<!-- c_{k&#45;2} -->
<g id="node1" class="node"><title>c_{k&#45;2}</title>
<polygon fill="#b4eeb4" stroke="black" stroke-width="2" points="85,-485 0,-485 0,-449 85,-449 85,-485"/>
<text text-anchor="middle" x="42.5" y="-462" font-family="times" font-size="20.00">c_{k&#45;2}</text>
</g>
<!-- 0 -->
<g id="node3" class="node"><title>0</title>
<polygon fill="lightblue" stroke="black" stroke-width="2" points="143.5,-391 107.5,-391 107.5,-355 143.5,-355 143.5,-391"/>
<text text-anchor="middle" x="125.5" y="-368" font-family="times" font-size="20.00">0</text>
</g>
<!-- c_{k&#45;2}&#45;&gt;0 -->
<g id="edge2" class="edge"><title>c_{k&#45;2}&#45;&gt;0</title>
<path fill="none" stroke="black" d="M38.2065,-448.835C36.1954,-436.693 35.7073,-420.577 43.5,-409 55.4774,-391.206 78.5149,-382.421 97.1292,-378.105"/>
<polygon fill="gray" stroke="black" points="98.0696,-381.486 107.188,-376.092 96.696,-374.622 98.0696,-381.486"/>
<text text-anchor="middle" x="78" y="-415" font-family="times" font-size="20.00">cweight</text>
</g>
<!-- c_{k&#45;1} -->
<g id="node2" class="node"><title>c_{k&#45;1}</title>
<polygon fill="#b4eeb4" stroke="black" stroke-width="2" points="294,-485 209,-485 209,-449 294,-449 294,-485"/>
<text text-anchor="middle" x="251.5" y="-462" font-family="times" font-size="20.00">c_{k&#45;1}</text>
</g>
<!-- c_{k&#45;1}&#45;&gt;0 -->
<g id="edge1" class="edge"><title>c_{k&#45;1}&#45;&gt;0</title>
<path fill="none" stroke="black" d="M208.904,-463.899C183.964,-460.361 153.858,-451.692 135.5,-431 128.423,-423.024 125.495,-411.864 124.493,-401.531"/>
<polygon fill="gray" stroke="black" points="127.976,-401.072 124.052,-391.231 120.983,-401.372 127.976,-401.072"/>
<text text-anchor="middle" x="186.5" y="-415" font-family="times" font-size="20.00">down_conv</text>
</g>
<!-- 1 -->
<g id="node4" class="node"><title>1</title>
<polygon fill="lightblue" stroke="black" stroke-width="2" points="221.5,-297 185.5,-297 185.5,-261 221.5,-261 221.5,-297"/>
<text text-anchor="middle" x="203.5" y="-274" font-family="times" font-size="20.00">1</text>
</g>
<!-- c_{k&#45;1}&#45;&gt;1 -->
<g id="edge4" class="edge"><title>c_{k&#45;1}&#45;&gt;1</title>
<path fill="none" stroke="black" d="M253.486,-448.75C256.074,-419.676 258.099,-359.716 237.5,-315 235.297,-310.218 232.159,-305.694 228.671,-301.586"/>
<polygon fill="gray" stroke="black" points="231.111,-299.073 221.684,-294.238 226.039,-303.897 231.111,-299.073"/>
<text text-anchor="middle" x="318" y="-368" font-family="times" font-size="20.00">down_cweight</text>
</g>
<!-- 2 -->
<g id="node5" class="node"><title>2</title>
<polygon fill="lightblue" stroke="black" stroke-width="2" points="337.5,-203 301.5,-203 301.5,-167 337.5,-167 337.5,-203"/>
<text text-anchor="middle" x="319.5" y="-180" font-family="times" font-size="20.00">2</text>
</g>
<!-- c_{k&#45;1}&#45;&gt;2 -->
<g id="edge6" class="edge"><title>c_{k&#45;1}&#45;&gt;2</title>
<path fill="none" stroke="black" d="M294.186,-454.935C325.812,-444.253 366.717,-424.622 386.5,-391 410.049,-350.978 391.386,-294.347 351.5,-221 349.465,-217.257 346.944,-213.597 344.219,-210.139"/>
<polygon fill="gray" stroke="black" points="346.802,-207.776 337.617,-202.495 341.504,-212.351 346.802,-207.776"/>
<text text-anchor="middle" x="462" y="-321" font-family="times" font-size="20.00">down_dil_conv</text>
</g>
<!-- 0&#45;&gt;1 -->
<g id="edge3" class="edge"><title>0&#45;&gt;1</title>
<path fill="none" stroke="black" d="M130.523,-354.909C134.703,-342.802 141.583,-326.698 151.5,-315 158.394,-306.868 167.627,-299.834 176.399,-294.249"/>
<polygon fill="gray" stroke="black" points="178.459,-297.095 185.256,-288.968 174.875,-291.083 178.459,-297.095"/>
<text text-anchor="middle" x="194.5" y="-321" font-family="times" font-size="20.00">dep_conv</text>
</g>
<!-- c_{k} -->
<g id="node7" class="node"><title>c_{k}</title>
<polygon fill="palegoldenrod" stroke="black" stroke-width="2" points="208.5,-36 142.5,-36 142.5,-0 208.5,-0 208.5,-36"/>
<text text-anchor="middle" x="175.5" y="-13" font-family="times" font-size="20.00">c_{k}</text>
</g>
<!-- 0&#45;&gt;c_{k} -->
<g id="edge9" class="edge"><title>0&#45;&gt;c_{k}</title>
<path fill="none" stroke="black" d="M123.1,-354.744C120.743,-336.285 117.5,-306.133 117.5,-280 117.5,-280 117.5,-280 117.5,-90 117.5,-71.5058 129.449,-55.1732 142.5,-42.85"/>
<polygon fill="gray" stroke="black" points="145.018,-45.2964 150.229,-36.0716 140.403,-40.0335 145.018,-45.2964"/>
</g>
<!-- 1&#45;&gt;2 -->
<g id="edge5" class="edge"><title>1&#45;&gt;2</title>
<path fill="none" stroke="black" d="M221.625,-263.625C240.836,-248.389 271.359,-224.181 293.211,-206.85"/>
<polygon fill="gray" stroke="black" points="295.459,-209.534 301.119,-200.578 291.11,-204.049 295.459,-209.534"/>
<text text-anchor="middle" x="311" y="-227" font-family="times" font-size="20.00">dil_conv</text>
</g>
<!-- 3 -->
<g id="node6" class="node"><title>3</title>
<polygon fill="lightblue" stroke="black" stroke-width="2" points="221.5,-109 185.5,-109 185.5,-73 221.5,-73 221.5,-109"/>
<text text-anchor="middle" x="203.5" y="-86" font-family="times" font-size="20.00">3</text>
</g>
<!-- 1&#45;&gt;3 -->
<g id="edge7" class="edge"><title>1&#45;&gt;3</title>
<path fill="none" stroke="black" d="M203.5,-260.835C203.5,-228.446 203.5,-158.087 203.5,-119.2"/>
<polygon fill="gray" stroke="black" points="207,-119.124 203.5,-109.124 200,-119.124 207,-119.124"/>
<text text-anchor="middle" x="240" y="-180" font-family="times" font-size="20.00">dil_conv</text>
</g>
<!-- 1&#45;&gt;c_{k} -->
<g id="edge10" class="edge"><title>1&#45;&gt;c_{k}</title>
<path fill="none" stroke="black" d="M199.897,-260.83C193.705,-230.404 181.255,-164.955 176.5,-109 174.717,-88.0135 174.534,-64.1766 174.761,-46.3087"/>
<polygon fill="gray" stroke="black" points="178.261,-46.3502 174.939,-36.2897 171.262,-46.2261 178.261,-46.3502"/>
</g>
<!-- 2&#45;&gt;3 -->
<g id="edge8" class="edge"><title>2&#45;&gt;3</title>
<path fill="none" stroke="black" d="M301.27,-175.988C294.729,-173.131 287.292,-169.902 280.5,-167 261.448,-158.86 253.148,-162.578 237.5,-149 227.874,-140.648 220.22,-128.873 214.63,-118.192"/>
<polygon fill="gray" stroke="black" points="217.776,-116.659 210.251,-109.201 211.483,-119.724 217.776,-116.659"/>
<text text-anchor="middle" x="274" y="-133" font-family="times" font-size="20.00">dil_conv</text>
</g>
<!-- 2&#45;&gt;c_{k} -->
<g id="edge11" class="edge"><title>2&#45;&gt;c_{k}</title>
<path fill="none" stroke="black" d="M319.971,-166.966C319.577,-155.038 317.546,-139.128 310.5,-127 288.68,-89.4431 248.389,-59.8354 217.483,-41.1913"/>
<polygon fill="gray" stroke="black" points="219.027,-38.0393 208.632,-35.9934 215.483,-44.0754 219.027,-38.0393"/>
</g>
<!-- 3&#45;&gt;c_{k} -->
<g id="edge12" class="edge"><title>3&#45;&gt;c_{k}</title>
<path fill="none" stroke="black" d="M196.722,-72.8129C193.489,-64.6151 189.549,-54.6231 185.945,-45.4847"/>
<polygon fill="gray" stroke="black" points="189.14,-44.0475 182.216,-36.0288 182.628,-46.6156 189.14,-44.0475"/>
</g>
</g>
</svg>
