<?xml version="1.0" encoding="UTF-8" standalone="no"?>
<!DOCTYPE svg PUBLIC "-//W3C//DTD SVG 1.1//EN"
 "http://www.w3.org/Graphics/SVG/1.1/DTD/svg11.dtd">
<!-- Generated by graphviz version 2.38.0 (20140413.2041)
 -->
<!-- Title: %3 Pages: 1 -->
<svg width="339pt" height="493pt"
 viewBox="0.00 0.00 339.00 493.00" xmlns="http://www.w3.org/2000/svg" xmlns:xlink="http://www.w3.org/1999/xlink">
<g id="graph0" class="graph" transform="scale(1 1) rotate(0) translate(4 489)">
<title>%3</title>
<polygon fill="white" stroke="none" points="-4,4 -4,-489 335,-489 335,4 -4,4"/>
<!-- c_{k&#45;2} -->
<g id="node1" class="node"><title>c_{k&#45;2}</title>
<polygon fill="#b4eeb4" stroke="black" stroke-width="2" points="130.5,-485 45.5,-485 45.5,-449 130.5,-449 130.5,-485"/>
<text text-anchor="middle" x="88" y="-462" font-family="times" font-size="20.00">c_{k&#45;2}</text>
</g>
<!-- 0 -->
<g id="node3" class="node"><title>0</title>
<polygon fill="lightblue" stroke="black" stroke-width="2" points="109,-391 73,-391 73,-355 109,-355 109,-391"/>
<text text-anchor="middle" x="91" y="-368" font-family="times" font-size="20.00">0</text>
</g>
<!-- c_{k&#45;2}&#45;&gt;0 -->
<g id="edge1" class="edge"><title>c_{k&#45;2}&#45;&gt;0</title>
<path fill="none" stroke="black" d="M88.125,-448.784C88.2507,-437.473 88.5016,-422.352 89,-409 89.0954,-406.446 89.2133,-403.787 89.3437,-401.128"/>
<polygon fill="gray" stroke="black" points="92.8417,-401.258 89.8882,-391.083 85.852,-400.879 92.8417,-401.258"/>
<text text-anchor="middle" x="131" y="-415" font-family="times" font-size="20.00">sep_conv</text>
</g>
<!-- c_{k&#45;1} -->
<g id="node2" class="node"><title>c_{k&#45;1}</title>
<polygon fill="#b4eeb4" stroke="black" stroke-width="2" points="265.5,-485 180.5,-485 180.5,-449 265.5,-449 265.5,-485"/>
<text text-anchor="middle" x="223" y="-462" font-family="times" font-size="20.00">c_{k&#45;1}</text>
</g>
<!-- c_{k&#45;1}&#45;&gt;0 -->
<g id="edge2" class="edge"><title>c_{k&#45;1}&#45;&gt;0</title>
<path fill="none" stroke="black" d="M209.421,-448.897C197.634,-434.366 181.208,-414.948 173,-409 156.6,-397.116 135.544,-388.237 118.875,-382.396"/>
<polygon fill="gray" stroke="black" points="119.737,-378.994 109.144,-379.151 117.523,-385.635 119.737,-378.994"/>
<text text-anchor="middle" x="214" y="-415" font-family="times" font-size="20.00">conv</text>
</g>
<!-- 1 -->
<g id="node4" class="node"><title>1</title>
<polygon fill="lightblue" stroke="black" stroke-width="2" points="266,-297 230,-297 230,-261 266,-261 266,-297"/>
<text text-anchor="middle" x="248" y="-274" font-family="times" font-size="20.00">1</text>
</g>
<!-- c_{k&#45;1}&#45;&gt;1 -->
<g id="edge4" class="edge"><title>c_{k&#45;1}&#45;&gt;1</title>
<path fill="none" stroke="black" d="M231.676,-448.951C234.142,-443.367 236.55,-437.043 238,-431 248.155,-388.679 249.355,-337.901 248.937,-307.332"/>
<polygon fill="gray" stroke="black" points="252.43,-306.962 248.724,-297.037 245.432,-307.108 252.43,-306.962"/>
<text text-anchor="middle" x="289" y="-368" font-family="times" font-size="20.00">sep_conv</text>
</g>
<!-- 0&#45;&gt;1 -->
<g id="edge3" class="edge"><title>0&#45;&gt;1</title>
<path fill="none" stroke="black" d="M98.0707,-354.888C104.309,-341.943 114.651,-324.778 129,-315 160.192,-293.744 176.258,-309.137 212,-297 214.761,-296.062 217.59,-294.972 220.389,-293.805"/>
<polygon fill="gray" stroke="black" points="221.958,-296.937 229.65,-289.651 219.093,-290.55 221.958,-296.937"/>
<text text-anchor="middle" x="183.5" y="-321" font-family="times" font-size="20.00">atrous_conv</text>
</g>
<!-- 2 -->
<g id="node5" class="node"><title>2</title>
<polygon fill="lightblue" stroke="black" stroke-width="2" points="129,-203 93,-203 93,-167 129,-167 129,-203"/>
<text text-anchor="middle" x="111" y="-180" font-family="times" font-size="20.00">2</text>
</g>
<!-- 0&#45;&gt;2 -->
<g id="edge6" class="edge"><title>0&#45;&gt;2</title>
<path fill="none" stroke="black" d="M92.8457,-354.835C96.3284,-322.446 103.894,-252.087 108.075,-213.2"/>
<polygon fill="gray" stroke="black" points="111.57,-213.44 109.159,-203.124 104.61,-212.692 111.57,-213.44"/>
<text text-anchor="middle" x="158.5" y="-274" font-family="times" font-size="20.00">shuffle_conv</text>
</g>
<!-- 3 -->
<g id="node6" class="node"><title>3</title>
<polygon fill="lightblue" stroke="black" stroke-width="2" points="89,-109 53,-109 53,-73 89,-73 89,-109"/>
<text text-anchor="middle" x="71" y="-86" font-family="times" font-size="20.00">3</text>
</g>
<!-- 0&#45;&gt;3 -->
<g id="edge7" class="edge"><title>0&#45;&gt;3</title>
<path fill="none" stroke="black" d="M85.1075,-354.741C77.0859,-330.245 63.1392,-283.826 58,-243 54.4664,-214.929 57.494,-176.545 64,-127 64.3389,-124.42 64.7549,-121.744 65.2138,-119.073"/>
<polygon fill="gray" stroke="black" points="68.6969,-119.491 67.1225,-109.014 61.8196,-118.186 68.6969,-119.491"/>
<text text-anchor="middle" x="79" y="-227" font-family="times" font-size="20.00">conv</text>
</g>
<!-- c_{k} -->
<g id="node7" class="node"><title>c_{k}</title>
<polygon fill="palegoldenrod" stroke="black" stroke-width="2" points="190,-36 124,-36 124,-0 190,-0 190,-36"/>
<text text-anchor="middle" x="157" y="-13" font-family="times" font-size="20.00">c_{k}</text>
</g>
<!-- 0&#45;&gt;c_{k} -->
<g id="edge9" class="edge"><title>0&#45;&gt;c_{k}</title>
<path fill="none" stroke="black" d="M72.5848,-363.632C45.9943,-350.138 0,-320.888 0,-280 0,-280 0,-280 0,-90 0,-39.9399 67.0871,-24.9883 113.553,-20.6363"/>
<polygon fill="gray" stroke="black" points="114.017,-24.1104 123.704,-19.8201 113.456,-17.1329 114.017,-24.1104"/>
</g>
<!-- 1&#45;&gt;2 -->
<g id="edge5" class="edge"><title>1&#45;&gt;2</title>
<path fill="none" stroke="black" d="M229.65,-268.349C224.088,-265.695 217.89,-263 212,-261 176.258,-248.863 156.894,-268.431 129,-243 120.573,-235.317 116.064,-223.728 113.662,-213.002"/>
<polygon fill="gray" stroke="black" points="117.108,-212.39 111.946,-203.138 110.212,-213.59 117.108,-212.39"/>
<text text-anchor="middle" x="183.5" y="-227" font-family="times" font-size="20.00">atrous_conv</text>
</g>
<!-- 1&#45;&gt;c_{k} -->
<g id="edge10" class="edge"><title>1&#45;&gt;c_{k}</title>
<path fill="none" stroke="black" d="M245.613,-260.787C240.289,-224.935 225.833,-140.02 200,-73 196.568,-64.0959 195.546,-61.7652 190,-54 187.543,-50.5596 184.767,-47.1112 181.894,-43.7924"/>
<polygon fill="gray" stroke="black" points="184.44,-41.3897 175.121,-36.3489 179.263,-46.1008 184.44,-41.3897"/>
</g>
<!-- 2&#45;&gt;3 -->
<g id="edge8" class="edge"><title>2&#45;&gt;3</title>
<path fill="none" stroke="black" d="M92.6998,-172.659C84.8033,-166.685 76.3847,-158.599 72,-149 67.8326,-139.876 66.808,-129.044 67.091,-119.285"/>
<polygon fill="gray" stroke="black" points="70.5862,-119.477 67.8245,-109.248 63.6048,-118.966 70.5862,-119.477"/>
<text text-anchor="middle" x="126.5" y="-133" font-family="times" font-size="20.00">atrous_conv</text>
</g>
<!-- 2&#45;&gt;c_{k} -->
<g id="edge11" class="edge"><title>2&#45;&gt;c_{k}</title>
<path fill="none" stroke="black" d="M129.277,-180.487C145.998,-176.199 169.785,-167.146 181,-149 200.644,-117.215 185.596,-73.2808 172.036,-45.5049"/>
<polygon fill="gray" stroke="black" points="175.043,-43.6977 167.362,-36.4006 168.816,-46.8951 175.043,-43.6977"/>
</g>
<!-- 3&#45;&gt;c_{k} -->
<g id="edge12" class="edge"><title>3&#45;&gt;c_{k}</title>
<path fill="none" stroke="black" d="M89.2384,-74.9427C100.671,-65.5041 115.647,-53.1407 128.611,-42.4375"/>
<polygon fill="gray" stroke="black" points="130.89,-45.0944 136.374,-36.0288 126.434,-39.6963 130.89,-45.0944"/>
</g>
</g>
</svg>
