<?xml version="1.0" encoding="UTF-8" standalone="no"?>
<!DOCTYPE svg PUBLIC "-//W3C//DTD SVG 1.1//EN"
 "http://www.w3.org/Graphics/SVG/1.1/DTD/svg11.dtd">
<!-- Generated by graphviz version 2.38.0 (20140413.2041)
 -->
<!-- Title: %3 Pages: 1 -->
<svg width="398pt" height="493pt"
 viewBox="0.00 0.00 397.50 493.00" xmlns="http://www.w3.org/2000/svg" xmlns:xlink="http://www.w3.org/1999/xlink">
<g id="graph0" class="graph" transform="scale(1 1) rotate(0) translate(4 489)">
<title>%3</title>
<polygon fill="white" stroke="none" points="-4,4 -4,-489 393.5,-489 393.5,4 -4,4"/>
<!-- c_{k&#45;2} -->
<g id="node1" class="node"><title>c_{k&#45;2}</title>
<polygon fill="#b4eeb4" stroke="black" stroke-width="2" points="85,-485 0,-485 0,-449 85,-449 85,-485"/>
<text text-anchor="middle" x="42.5" y="-462" font-family="times" font-size="20.00">c_{k&#45;2}</text>
</g>
<!-- 0 -->
<g id="node3" class="node"><title>0</title>
<polygon fill="lightblue" stroke="black" stroke-width="2" points="107.5,-391 71.5,-391 71.5,-355 107.5,-355 107.5,-391"/>
<text text-anchor="middle" x="89.5" y="-368" font-family="times" font-size="20.00">0</text>
</g>
<!-- c_{k&#45;2}&#45;&gt;0 -->
<g id="edge1" class="edge"><title>c_{k&#45;2}&#45;&gt;0</title>
<path fill="none" stroke="black" d="M39.0395,-448.855C37.5218,-437.022 37.2823,-421.272 43.5,-409 47.7377,-400.636 55.01,-393.715 62.5372,-388.298"/>
<polygon fill="gray" stroke="black" points="64.8157,-390.993 71.3239,-382.633 61.0227,-385.11 64.8157,-390.993"/>
<text text-anchor="middle" x="85.5" y="-415" font-family="times" font-size="20.00">sep_conv</text>
</g>
<!-- c_{k&#45;1} -->
<g id="node2" class="node"><title>c_{k&#45;1}</title>
<polygon fill="#b4eeb4" stroke="black" stroke-width="2" points="255,-485 170,-485 170,-449 255,-449 255,-485"/>
<text text-anchor="middle" x="212.5" y="-462" font-family="times" font-size="20.00">c_{k&#45;1}</text>
</g>
<!-- c_{k&#45;1}&#45;&gt;0 -->
<g id="edge2" class="edge"><title>c_{k&#45;1}&#45;&gt;0</title>
<path fill="none" stroke="black" d="M178.726,-448.94C169.29,-443.645 159.234,-437.483 150.5,-431 139.142,-422.569 137.814,-418.681 127.5,-409 123.595,-405.334 119.443,-401.474 115.374,-397.71"/>
<polygon fill="gray" stroke="black" points="117.458,-394.871 107.734,-390.665 112.713,-400.017 117.458,-394.871"/>
<text text-anchor="middle" x="206" y="-415" font-family="times" font-size="20.00">up_att_conv</text>
</g>
<!-- 1 -->
<g id="node4" class="node"><title>1</title>
<polygon fill="lightblue" stroke="black" stroke-width="2" points="289.5,-297 253.5,-297 253.5,-261 289.5,-261 289.5,-297"/>
<text text-anchor="middle" x="271.5" y="-274" font-family="times" font-size="20.00">1</text>
</g>
<!-- c_{k&#45;1}&#45;&gt;1 -->
<g id="edge4" class="edge"><title>c_{k&#45;1}&#45;&gt;1</title>
<path fill="none" stroke="black" d="M245.121,-448.908C251.588,-444 257.582,-438.032 261.5,-431 283.099,-392.235 280.55,-338.89 276.315,-307.079"/>
<polygon fill="gray" stroke="black" points="279.775,-306.548 274.847,-297.169 272.85,-307.574 279.775,-306.548"/>
<text text-anchor="middle" x="334" y="-368" font-family="times" font-size="20.00">up_att_conv</text>
</g>
<!-- 0&#45;&gt;1 -->
<g id="edge3" class="edge"><title>0&#45;&gt;1</title>
<path fill="none" stroke="black" d="M107.571,-356.487C114.491,-350.469 122.42,-343.478 129.5,-337 139.937,-327.451 140.008,-321.637 152.5,-315 185.834,-297.29 199.758,-309.137 235.5,-297 238.261,-296.062 241.09,-294.972 243.889,-293.805"/>
<polygon fill="gray" stroke="black" points="245.458,-296.937 253.15,-289.651 242.593,-290.55 245.458,-296.937"/>
<text text-anchor="middle" x="207" y="-321" font-family="times" font-size="20.00">atrous_conv</text>
</g>
<!-- 2 -->
<g id="node5" class="node"><title>2</title>
<polygon fill="lightblue" stroke="black" stroke-width="2" points="152.5,-203 116.5,-203 116.5,-167 152.5,-167 152.5,-203"/>
<text text-anchor="middle" x="134.5" y="-180" font-family="times" font-size="20.00">2</text>
</g>
<!-- 0&#45;&gt;2 -->
<g id="edge6" class="edge"><title>0&#45;&gt;2</title>
<path fill="none" stroke="black" d="M93.6528,-354.835C101.489,-322.446 118.511,-252.087 127.919,-213.2"/>
<polygon fill="gray" stroke="black" points="131.407,-213.666 130.357,-203.124 124.604,-212.02 131.407,-213.666"/>
<text text-anchor="middle" x="172" y="-274" font-family="times" font-size="20.00">shuffle_conv</text>
</g>
<!-- 3 -->
<g id="node6" class="node"><title>3</title>
<polygon fill="lightblue" stroke="black" stroke-width="2" points="112.5,-109 76.5,-109 76.5,-73 112.5,-73 112.5,-109"/>
<text text-anchor="middle" x="94.5" y="-86" font-family="times" font-size="20.00">3</text>
</g>
<!-- 0&#45;&gt;3 -->
<g id="edge7" class="edge"><title>0&#45;&gt;3</title>
<path fill="none" stroke="black" d="M86.8789,-354.944C83.238,-330.307 76.8346,-283.291 74.5,-243 71.5017,-191.256 77.4329,-178.031 86.5,-127 86.9743,-124.33 87.5184,-121.557 88.0949,-118.793"/>
<polygon fill="gray" stroke="black" points="91.5139,-119.542 90.258,-109.022 84.6794,-118.029 91.5139,-119.542"/>
<text text-anchor="middle" x="95.5" y="-227" font-family="times" font-size="20.00">conv</text>
</g>
<!-- c_{k} -->
<g id="node7" class="node"><title>c_{k}</title>
<polygon fill="palegoldenrod" stroke="black" stroke-width="2" points="213.5,-36 147.5,-36 147.5,-0 213.5,-0 213.5,-36"/>
<text text-anchor="middle" x="180.5" y="-13" font-family="times" font-size="20.00">c_{k}</text>
</g>
<!-- 0&#45;&gt;c_{k} -->
<g id="edge9" class="edge"><title>0&#45;&gt;c_{k}</title>
<path fill="none" stroke="black" d="M71.4652,-358.567C51.9238,-342.325 23.5,-313.024 23.5,-280 23.5,-280 23.5,-280 23.5,-90 23.5,-39.9399 90.5871,-24.9883 137.053,-20.6363"/>
<polygon fill="gray" stroke="black" points="137.517,-24.1104 147.204,-19.8201 136.956,-17.1329 137.517,-24.1104"/>
</g>
<!-- 1&#45;&gt;2 -->
<g id="edge5" class="edge"><title>1&#45;&gt;2</title>
<path fill="none" stroke="black" d="M253.15,-268.349C247.588,-265.695 241.39,-263 235.5,-261 199.758,-248.863 180.394,-268.431 152.5,-243 144.073,-235.317 139.564,-223.728 137.162,-213.002"/>
<polygon fill="gray" stroke="black" points="140.608,-212.39 135.446,-203.138 133.712,-213.59 140.608,-212.39"/>
<text text-anchor="middle" x="207" y="-227" font-family="times" font-size="20.00">atrous_conv</text>
</g>
<!-- 1&#45;&gt;c_{k} -->
<g id="edge10" class="edge"><title>1&#45;&gt;c_{k}</title>
<path fill="none" stroke="black" d="M269.113,-260.787C263.789,-224.935 249.333,-140.02 223.5,-73 220.068,-64.0959 219.046,-61.7652 213.5,-54 211.043,-50.5596 208.267,-47.1112 205.394,-43.7924"/>
<polygon fill="gray" stroke="black" points="207.94,-41.3897 198.621,-36.3489 202.763,-46.1008 207.94,-41.3897"/>
</g>
<!-- 2&#45;&gt;3 -->
<g id="edge8" class="edge"><title>2&#45;&gt;3</title>
<path fill="none" stroke="black" d="M116.2,-172.659C108.303,-166.685 99.8847,-158.599 95.5,-149 91.3326,-139.876 90.308,-129.044 90.591,-119.285"/>
<polygon fill="gray" stroke="black" points="94.0862,-119.477 91.3245,-109.248 87.1048,-118.966 94.0862,-119.477"/>
<text text-anchor="middle" x="150" y="-133" font-family="times" font-size="20.00">atrous_conv</text>
</g>
<!-- 2&#45;&gt;c_{k} -->
<g id="edge11" class="edge"><title>2&#45;&gt;c_{k}</title>
<path fill="none" stroke="black" d="M152.777,-180.487C169.498,-176.199 193.285,-167.146 204.5,-149 224.144,-117.215 209.096,-73.2808 195.536,-45.5049"/>
<polygon fill="gray" stroke="black" points="198.543,-43.6977 190.862,-36.4006 192.316,-46.8951 198.543,-43.6977"/>
</g>
<!-- 3&#45;&gt;c_{k} -->
<g id="edge12" class="edge"><title>3&#45;&gt;c_{k}</title>
<path fill="none" stroke="black" d="M112.738,-74.9427C124.171,-65.5041 139.147,-53.1407 152.111,-42.4375"/>
<polygon fill="gray" stroke="black" points="154.39,-45.0944 159.874,-36.0288 149.934,-39.6963 154.39,-45.0944"/>
</g>
</g>
</svg>
