<?xml version="1.0" encoding="UTF-8" standalone="no"?>
<!DOCTYPE svg PUBLIC "-//W3C//DTD SVG 1.1//EN"
 "http://www.w3.org/Graphics/SVG/1.1/DTD/svg11.dtd">
<!-- Generated by graphviz version 2.38.0 (20140413.2041)
 -->
<!-- Title: %3 Pages: 1 -->
<svg width="394pt" height="399pt"
 viewBox="0.00 0.00 393.87 399.00" xmlns="http://www.w3.org/2000/svg" xmlns:xlink="http://www.w3.org/1999/xlink">
<g id="graph0" class="graph" transform="scale(1 1) rotate(0) translate(4 395)">
<title>%3</title>
<polygon fill="white" stroke="none" points="-4,4 -4,-395 389.867,-395 389.867,4 -4,4"/>
<!-- c_{k&#45;2} -->
<g id="node1" class="node"><title>c_{k&#45;2}</title>
<polygon fill="#b4eeb4" stroke="black" stroke-width="2" points="122.367,-391 37.3666,-391 37.3666,-355 122.367,-355 122.367,-391"/>
<text text-anchor="middle" x="79.8666" y="-368" font-family="times" font-size="20.00">c_{k&#45;2}</text>
</g>
<!-- 0 -->
<g id="node3" class="node"><title>0</title>
<polygon fill="lightblue" stroke="black" stroke-width="2" points="230.867,-297 194.867,-297 194.867,-261 230.867,-261 230.867,-297"/>
<text text-anchor="middle" x="212.867" y="-274" font-family="times" font-size="20.00">0</text>
</g>
<!-- c_{k&#45;2}&#45;&gt;0 -->
<g id="edge2" class="edge"><title>c_{k&#45;2}&#45;&gt;0</title>
<path fill="none" stroke="black" d="M80.8125,-354.862C82.449,-342.078 86.7468,-325.138 97.8666,-315 125.76,-289.569 145.421,-309.977 180.867,-297 182.307,-296.473 183.762,-295.892 185.218,-295.272"/>
<polygon fill="gray" stroke="black" points="187.127,-298.24 194.651,-290.78 184.118,-291.92 187.127,-298.24"/>
<text text-anchor="middle" x="130.867" y="-321" font-family="times" font-size="20.00">identity</text>
</g>
<!-- 1 -->
<g id="node4" class="node"><title>1</title>
<polygon fill="lightblue" stroke="black" stroke-width="2" points="284.867,-297 248.867,-297 248.867,-261 284.867,-261 284.867,-297"/>
<text text-anchor="middle" x="266.867" y="-274" font-family="times" font-size="20.00">1</text>
</g>
<!-- c_{k&#45;2}&#45;&gt;1 -->
<g id="edge3" class="edge"><title>c_{k&#45;2}&#45;&gt;1</title>
<path fill="none" stroke="black" d="M122.637,-358.135C136.426,-352.653 151.364,-345.585 163.867,-337 175.01,-329.348 173.432,-322.208 184.867,-315 204.33,-302.731 214.354,-306.758 239.178,-296.572"/>
<polygon fill="gray" stroke="black" points="240.931,-299.621 248.615,-292.326 238.059,-293.237 240.931,-299.621"/>
<text text-anchor="middle" x="205.867" y="-321" font-family="times" font-size="20.00">conv</text>
</g>
<!-- 2 -->
<g id="node5" class="node"><title>2</title>
<polygon fill="lightblue" stroke="black" stroke-width="2" points="102.867,-203 66.8666,-203 66.8666,-167 102.867,-167 102.867,-203"/>
<text text-anchor="middle" x="84.8666" y="-180" font-family="times" font-size="20.00">2</text>
</g>
<!-- c_{k&#45;2}&#45;&gt;2 -->
<g id="edge5" class="edge"><title>c_{k&#45;2}&#45;&gt;2</title>
<path fill="none" stroke="black" d="M77.2501,-354.684C74.2994,-332.834 70.2348,-294.107 72.8666,-261 74.1323,-245.078 76.8867,-227.433 79.4376,-213.26"/>
<polygon fill="gray" stroke="black" points="82.9239,-213.657 81.3207,-203.184 76.0431,-212.371 82.9239,-213.657"/>
<text text-anchor="middle" x="129.367" y="-274" font-family="times" font-size="20.00">shuffle_conv</text>
</g>
<!-- 3 -->
<g id="node6" class="node"><title>3</title>
<polygon fill="lightblue" stroke="black" stroke-width="2" points="64.8666,-109 28.8666,-109 28.8666,-73 64.8666,-73 64.8666,-109"/>
<text text-anchor="middle" x="46.8666" y="-86" font-family="times" font-size="20.00">3</text>
</g>
<!-- c_{k&#45;2}&#45;&gt;3 -->
<g id="edge8" class="edge"><title>c_{k&#45;2}&#45;&gt;3</title>
<path fill="none" stroke="black" d="M65.4497,-354.61C46.9541,-331.054 15.8332,-286.887 3.86659,-243 -8.1035,-199.101 13.8216,-148.246 30.5267,-118.174"/>
<polygon fill="gray" stroke="black" points="33.7524,-119.587 35.7175,-109.175 27.6889,-116.089 33.7524,-119.587"/>
<text text-anchor="middle" x="36.8666" y="-227" font-family="times" font-size="20.00">identity</text>
</g>
<!-- c_{k&#45;1} -->
<g id="node2" class="node"><title>c_{k&#45;1}</title>
<polygon fill="#b4eeb4" stroke="black" stroke-width="2" points="337.367,-391 252.367,-391 252.367,-355 337.367,-355 337.367,-391"/>
<text text-anchor="middle" x="294.867" y="-368" font-family="times" font-size="20.00">c_{k&#45;1}</text>
</g>
<!-- c_{k&#45;1}&#45;&gt;0 -->
<g id="edge1" class="edge"><title>c_{k&#45;1}&#45;&gt;0</title>
<path fill="none" stroke="black" d="M268.026,-354.738C261.012,-349.526 253.771,-343.457 247.867,-337 239.467,-327.814 231.966,-316.328 226.083,-306.078"/>
<polygon fill="gray" stroke="black" points="229.039,-304.191 221.155,-297.114 222.905,-307.563 229.039,-304.191"/>
<text text-anchor="middle" x="280.867" y="-321" font-family="times" font-size="20.00">identity</text>
</g>
<!-- c_{k&#45;1}&#45;&gt;1 -->
<g id="edge4" class="edge"><title>c_{k&#45;1}&#45;&gt;1</title>
<path fill="none" stroke="black" d="M309.571,-354.886C317.612,-343.35 324.678,-327.936 317.867,-315 312.688,-305.166 303.361,-297.562 294.086,-291.993"/>
<polygon fill="gray" stroke="black" points="295.448,-288.752 284.983,-287.096 292.131,-294.916 295.448,-288.752"/>
<text text-anchor="middle" x="352.867" y="-321" font-family="times" font-size="20.00">identity</text>
</g>
<!-- 0&#45;&gt;2 -->
<g id="edge6" class="edge"><title>0&#45;&gt;2</title>
<path fill="none" stroke="black" d="M194.585,-267.395C190.181,-265.092 185.428,-262.808 180.867,-261 152.6,-249.799 138.579,-262.03 114.867,-243 105.184,-235.23 98.258,-223.479 93.518,-212.662"/>
<polygon fill="gray" stroke="black" points="96.6852,-211.153 89.7633,-203.132 90.1723,-213.718 96.6852,-211.153"/>
<text text-anchor="middle" x="156.867" y="-227" font-family="times" font-size="20.00">sep_conv</text>
</g>
<!-- c_{k} -->
<g id="node7" class="node"><title>c_{k}</title>
<polygon fill="palegoldenrod" stroke="black" stroke-width="2" points="226.867,-36 160.867,-36 160.867,-0 226.867,-0 226.867,-36"/>
<text text-anchor="middle" x="193.867" y="-13" font-family="times" font-size="20.00">c_{k}</text>
</g>
<!-- 0&#45;&gt;c_{k} -->
<g id="edge9" class="edge"><title>0&#45;&gt;c_{k}</title>
<path fill="none" stroke="black" d="M212.259,-260.819C210.827,-223.239 206.754,-130.942 198.867,-54 198.604,-51.4354 198.292,-48.7703 197.956,-46.1066"/>
<polygon fill="gray" stroke="black" points="201.404,-45.4895 196.58,-36.0564 194.469,-46.4387 201.404,-45.4895"/>
</g>
<!-- 1&#45;&gt;c_{k} -->
<g id="edge10" class="edge"><title>1&#45;&gt;c_{k}</title>
<path fill="none" stroke="black" d="M264.321,-260.969C258.299,-222.918 241.499,-128.493 212.867,-54 211.737,-51.0615 210.408,-48.0612 208.987,-45.1139"/>
<polygon fill="gray" stroke="black" points="211.979,-43.28 204.262,-36.0207 205.767,-46.508 211.979,-43.28"/>
</g>
<!-- 2&#45;&gt;3 -->
<g id="edge7" class="edge"><title>2&#45;&gt;3</title>
<path fill="none" stroke="black" d="M66.7091,-171.837C59.4443,-165.893 51.8627,-158.061 47.8666,-149 43.8192,-139.822 42.8196,-128.978 43.089,-119.226"/>
<polygon fill="gray" stroke="black" points="46.5837,-119.423 43.7952,-109.201 39.601,-118.931 46.5837,-119.423"/>
<text text-anchor="middle" x="104.367" y="-133" font-family="times" font-size="20.00">shuffle_conv</text>
</g>
<!-- 2&#45;&gt;c_{k} -->
<g id="edge11" class="edge"><title>2&#45;&gt;c_{k}</title>
<path fill="none" stroke="black" d="M102.97,-180.381C120.355,-175.957 146.095,-166.756 160.867,-149 185.164,-119.794 191.895,-75.0112 193.581,-46.3698"/>
<polygon fill="gray" stroke="black" points="197.083,-46.3874 194.006,-36.2492 190.089,-46.0933 197.083,-46.3874"/>
</g>
<!-- 3&#45;&gt;c_{k} -->
<g id="edge12" class="edge"><title>3&#45;&gt;c_{k}</title>
<path fill="none" stroke="black" d="M64.8917,-81.294C86.4065,-70.9025 123.083,-53.188 151.837,-39.2999"/>
<polygon fill="gray" stroke="black" points="153.383,-42.4402 160.865,-34.9393 150.339,-36.1369 153.383,-42.4402"/>
</g>
</g>
</svg>
