<?xml version="1.0" encoding="UTF-8" standalone="no"?>
<!DOCTYPE svg PUBLIC "-//W3C//DTD SVG 1.1//EN"
 "http://www.w3.org/Graphics/SVG/1.1/DTD/svg11.dtd">
<!-- Generated by graphviz version 2.38.0 (20140413.2041)
 -->
<!-- Title: %3 Pages: 1 -->
<svg width="861pt" height="305pt"
 viewBox="0.00 0.00 860.79 305.00" xmlns="http://www.w3.org/2000/svg" xmlns:xlink="http://www.w3.org/1999/xlink">
<g id="graph0" class="graph" transform="scale(1 1) rotate(0) translate(4 301)">
<title>%3</title>
<polygon fill="white" stroke="none" points="-4,4 -4,-301 856.789,-301 856.789,4 -4,4"/>
<!-- c_{k&#45;2} -->
<g id="node1" class="node"><title>c_{k&#45;2}</title>
<polygon fill="#b4eeb4" stroke="black" stroke-width="2" points="135.289,-297 50.2886,-297 50.2886,-261 135.289,-261 135.289,-297"/>
<text text-anchor="middle" x="92.7886" y="-274" font-family="times" font-size="20.00">c_{k&#45;2}</text>
</g>
<!-- 0 -->
<g id="node3" class="node"><title>0</title>
<polygon fill="lightblue" stroke="black" stroke-width="2" points="175.789,-203 139.789,-203 139.789,-167 175.789,-167 175.789,-203"/>
<text text-anchor="middle" x="157.789" y="-180" font-family="times" font-size="20.00">0</text>
</g>
<!-- c_{k&#45;2}&#45;&gt;0 -->
<g id="edge2" class="edge"><title>c_{k&#45;2}&#45;&gt;0</title>
<path fill="none" stroke="black" d="M50.0515,-267.374C20.0327,-257.826 -12.0031,-242.067 4.78857,-221 20.074,-201.823 89.503,-192.31 129.381,-188.352"/>
<polygon fill="gray" stroke="black" points="129.91,-191.818 139.54,-187.4 129.257,-184.849 129.91,-191.818"/>
<text text-anchor="middle" x="37.7886" y="-227" font-family="times" font-size="20.00">identity</text>
</g>
<!-- 1 -->
<g id="node4" class="node"><title>1</title>
<polygon fill="lightblue" stroke="black" stroke-width="2" points="393.789,-203 357.789,-203 357.789,-167 393.789,-167 393.789,-203"/>
<text text-anchor="middle" x="375.789" y="-180" font-family="times" font-size="20.00">1</text>
</g>
<!-- c_{k&#45;2}&#45;&gt;1 -->
<g id="edge3" class="edge"><title>c_{k&#45;2}&#45;&gt;1</title>
<path fill="none" stroke="black" d="M87.7229,-260.901C85.1333,-248.308 84.2585,-231.597 93.7886,-221 102.224,-211.62 277.23,-194.884 347.225,-188.536"/>
<polygon fill="gray" stroke="black" points="347.869,-191.992 357.515,-187.609 347.241,-185.02 347.869,-191.992"/>
<text text-anchor="middle" x="114.789" y="-227" font-family="times" font-size="20.00">conv</text>
</g>
<!-- 2 -->
<g id="node5" class="node"><title>2</title>
<polygon fill="lightblue" stroke="black" stroke-width="2" points="459.789,-203 423.789,-203 423.789,-167 459.789,-167 459.789,-203"/>
<text text-anchor="middle" x="441.789" y="-180" font-family="times" font-size="20.00">2</text>
</g>
<!-- c_{k&#45;2}&#45;&gt;2 -->
<g id="edge5" class="edge"><title>c_{k&#45;2}&#45;&gt;2</title>
<path fill="none" stroke="black" d="M135.493,-275.2C194.009,-270.764 295.537,-260.751 327.789,-243 339.107,-236.77 336.015,-228.131 346.789,-221 368.588,-206.57 378.331,-212.235 402.789,-203 406.567,-201.573 410.512,-199.98 414.378,-198.357"/>
<polygon fill="gray" stroke="black" points="415.896,-201.514 423.69,-194.338 413.122,-195.087 415.896,-201.514"/>
<text text-anchor="middle" x="403.289" y="-227" font-family="times" font-size="20.00">shuffle_conv</text>
</g>
<!-- c_{k&#45;1} -->
<g id="node2" class="node"><title>c_{k&#45;1}</title>
<polygon fill="#b4eeb4" stroke="black" stroke-width="2" points="624.289,-297 539.289,-297 539.289,-261 624.289,-261 624.289,-297"/>
<text text-anchor="middle" x="581.789" y="-274" font-family="times" font-size="20.00">c_{k&#45;1}</text>
</g>
<!-- c_{k&#45;1}&#45;&gt;0 -->
<g id="edge1" class="edge"><title>c_{k&#45;1}&#45;&gt;0</title>
<path fill="none" stroke="black" d="M539.274,-277.708C436.38,-276.559 180.493,-270.898 154.789,-243 147.461,-235.047 146.926,-223.517 148.723,-212.905"/>
<polygon fill="gray" stroke="black" points="152.133,-213.694 151.016,-203.158 145.319,-212.091 152.133,-213.694"/>
<text text-anchor="middle" x="239.289" y="-227" font-family="times" font-size="20.00">donw_atrous_conv</text>
</g>
<!-- c_{k&#45;1}&#45;&gt;1 -->
<g id="edge4" class="edge"><title>c_{k&#45;1}&#45;&gt;1</title>
<path fill="none" stroke="black" d="M539.061,-268.165C520.707,-262.652 499.65,-254.514 482.789,-243 472.119,-235.714 474.413,-228.351 463.789,-221 444.709,-207.8 436.321,-211.639 414.789,-203 411.04,-201.496 407.113,-199.859 403.255,-198.214"/>
<polygon fill="gray" stroke="black" points="404.516,-194.946 393.948,-194.181 401.732,-201.368 404.516,-194.946"/>
<text text-anchor="middle" x="567.289" y="-227" font-family="times" font-size="20.00">donw_atrous_conv</text>
</g>
<!-- c_{k&#45;1}&#45;&gt;2 -->
<g id="edge6" class="edge"><title>c_{k&#45;1}&#45;&gt;2</title>
<path fill="none" stroke="black" d="M624.478,-263.361C648.132,-252.954 670.122,-237.868 655.789,-221 632.291,-193.347 522.82,-187.494 470.191,-186.29"/>
<polygon fill="gray" stroke="black" points="469.938,-182.785 459.874,-186.097 469.807,-189.783 469.938,-182.785"/>
<text text-anchor="middle" x="710.789" y="-227" font-family="times" font-size="20.00">down_conv</text>
</g>
<!-- 3 -->
<g id="node6" class="node"><title>3</title>
<polygon fill="lightblue" stroke="black" stroke-width="2" points="477.789,-109 441.789,-109 441.789,-73 477.789,-73 477.789,-109"/>
<text text-anchor="middle" x="459.789" y="-86" font-family="times" font-size="20.00">3</text>
</g>
<!-- c_{k&#45;1}&#45;&gt;3 -->
<g id="edge8" class="edge"><title>c_{k&#45;1}&#45;&gt;3</title>
<path fill="none" stroke="black" d="M624.596,-275.984C673.25,-272.69 748.217,-264.229 765.789,-243 772.023,-235.468 770.997,-229.275 765.789,-221 704.239,-123.219 551.529,-99.4757 488.106,-93.7746"/>
<polygon fill="gray" stroke="black" points="488.28,-90.2774 478.03,-92.9555 487.713,-97.2543 488.28,-90.2774"/>
<text text-anchor="middle" x="801.789" y="-180" font-family="times" font-size="20.00">down_conv</text>
</g>
<!-- c_{k} -->
<g id="node7" class="node"><title>c_{k}</title>
<polygon fill="palegoldenrod" stroke="black" stroke-width="2" points="427.789,-36 361.789,-36 361.789,-0 427.789,-0 427.789,-36"/>
<text text-anchor="middle" x="394.789" y="-13" font-family="times" font-size="20.00">c_{k}</text>
</g>
<!-- 0&#45;&gt;c_{k} -->
<g id="edge9" class="edge"><title>0&#45;&gt;c_{k}</title>
<path fill="none" stroke="black" d="M175.992,-171.327C215.851,-143.577 311.318,-77.1126 361.955,-41.8587"/>
<polygon fill="gray" stroke="black" points="364.067,-44.6533 370.274,-36.0672 360.067,-38.9085 364.067,-44.6533"/>
</g>
<!-- 1&#45;&gt;c_{k} -->
<g id="edge10" class="edge"><title>1&#45;&gt;c_{k}</title>
<path fill="none" stroke="black" d="M377.75,-166.964C381.036,-138.433 387.678,-80.7517 391.629,-46.4425"/>
<polygon fill="gray" stroke="black" points="395.142,-46.5257 392.809,-36.1909 388.188,-45.7249 395.142,-46.5257"/>
</g>
<!-- 2&#45;&gt;3 -->
<g id="edge7" class="edge"><title>2&#45;&gt;3</title>
<path fill="none" stroke="black" d="M445.174,-166.696C447.789,-153.331 451.456,-134.587 454.463,-119.219"/>
<polygon fill="gray" stroke="black" points="457.933,-119.713 456.418,-109.227 451.063,-118.369 457.933,-119.713"/>
<text text-anchor="middle" x="509.289" y="-133" font-family="times" font-size="20.00">shuffle_conv</text>
</g>
<!-- 2&#45;&gt;c_{k} -->
<g id="edge11" class="edge"><title>2&#45;&gt;c_{k}</title>
<path fill="none" stroke="black" d="M436.936,-166.964C428.774,-138.31 412.236,-80.2518 402.479,-45.9982"/>
<polygon fill="gray" stroke="black" points="405.791,-44.8495 399.685,-36.1909 399.059,-46.7672 405.791,-44.8495"/>
</g>
<!-- 3&#45;&gt;c_{k} -->
<g id="edge12" class="edge"><title>3&#45;&gt;c_{k}</title>
<path fill="none" stroke="black" d="M444.59,-72.6951C439.309,-66.7367 433.322,-60.0444 427.789,-54 424.724,-50.6525 421.473,-47.1491 418.254,-43.7067"/>
<polygon fill="gray" stroke="black" points="420.74,-41.2409 411.34,-36.3526 415.64,-46.0357 420.74,-41.2409"/>
</g>
</g>
</svg>
