<?xml version="1.0" encoding="UTF-8" standalone="no"?>
<!DOCTYPE svg PUBLIC "-//W3C//DTD SVG 1.1//EN"
 "http://www.w3.org/Graphics/SVG/1.1/DTD/svg11.dtd">
<!-- Generated by graphviz version 2.38.0 (20140413.2041)
 -->
<!-- Title: %3 Pages: 1 -->
<svg width="842pt" height="305pt"
 viewBox="0.00 0.00 841.79 305.00" xmlns="http://www.w3.org/2000/svg" xmlns:xlink="http://www.w3.org/1999/xlink">
<g id="graph0" class="graph" transform="scale(1 1) rotate(0) translate(4 301)">
<title>%3</title>
<polygon fill="white" stroke="none" points="-4,4 -4,-301 837.789,-301 837.789,4 -4,4"/>
<!-- c_{k&#45;2} -->
<g id="node1" class="node"><title>c_{k&#45;2}</title>
<polygon fill="#b4eeb4" stroke="black" stroke-width="2" points="135.289,-297 50.2886,-297 50.2886,-261 135.289,-261 135.289,-297"/>
<text text-anchor="middle" x="92.7886" y="-274" font-family="times" font-size="20.00">c_{k&#45;2}</text>
</g>
<!-- 0 -->
<g id="node3" class="node"><title>0</title>
<polygon fill="lightblue" stroke="black" stroke-width="2" points="175.789,-203 139.789,-203 139.789,-167 175.789,-167 175.789,-203"/>
<text text-anchor="middle" x="157.789" y="-180" font-family="times" font-size="20.00">0</text>
</g>
<!-- c_{k&#45;2}&#45;&gt;0 -->
<g id="edge2" class="edge"><title>c_{k&#45;2}&#45;&gt;0</title>
<path fill="none" stroke="black" d="M50.0515,-267.374C20.0327,-257.826 -12.0031,-242.067 4.78857,-221 20.074,-201.823 89.503,-192.31 129.381,-188.352"/>
<polygon fill="gray" stroke="black" points="129.91,-191.818 139.54,-187.4 129.257,-184.849 129.91,-191.818"/>
<text text-anchor="middle" x="37.7886" y="-227" font-family="times" font-size="20.00">identity</text>
</g>
<!-- 1 -->
<g id="node4" class="node"><title>1</title>
<polygon fill="lightblue" stroke="black" stroke-width="2" points="342.789,-203 306.789,-203 306.789,-167 342.789,-167 342.789,-203"/>
<text text-anchor="middle" x="324.789" y="-180" font-family="times" font-size="20.00">1</text>
</g>
<!-- c_{k&#45;2}&#45;&gt;1 -->
<g id="edge4" class="edge"><title>c_{k&#45;2}&#45;&gt;1</title>
<path fill="none" stroke="black" d="M87.8052,-260.974C85.2587,-248.419 84.4018,-231.724 93.7886,-221 100.436,-213.406 236.399,-196.462 296.565,-189.298"/>
<polygon fill="gray" stroke="black" points="297.019,-192.769 306.538,-188.118 296.196,-185.818 297.019,-192.769"/>
<text text-anchor="middle" x="114.789" y="-227" font-family="times" font-size="20.00">conv</text>
</g>
<!-- 2 -->
<g id="node5" class="node"><title>2</title>
<polygon fill="lightblue" stroke="black" stroke-width="2" points="408.789,-203 372.789,-203 372.789,-167 408.789,-167 408.789,-203"/>
<text text-anchor="middle" x="390.789" y="-180" font-family="times" font-size="20.00">2</text>
</g>
<!-- c_{k&#45;2}&#45;&gt;2 -->
<g id="edge5" class="edge"><title>c_{k&#45;2}&#45;&gt;2</title>
<path fill="none" stroke="black" d="M135.345,-277.734C174.51,-275.751 232.989,-268.265 276.789,-243 287.98,-236.545 285.015,-228.131 295.789,-221 317.588,-206.57 327.331,-212.235 351.789,-203 355.567,-201.573 359.512,-199.98 363.378,-198.357"/>
<polygon fill="gray" stroke="black" points="364.896,-201.514 372.69,-194.338 362.122,-195.087 364.896,-201.514"/>
<text text-anchor="middle" x="352.289" y="-227" font-family="times" font-size="20.00">shuffle_conv</text>
</g>
<!-- c_{k&#45;1} -->
<g id="node2" class="node"><title>c_{k&#45;1}</title>
<polygon fill="#b4eeb4" stroke="black" stroke-width="2" points="560.289,-297 475.289,-297 475.289,-261 560.289,-261 560.289,-297"/>
<text text-anchor="middle" x="517.789" y="-274" font-family="times" font-size="20.00">c_{k&#45;1}</text>
</g>
<!-- c_{k&#45;1}&#45;&gt;0 -->
<g id="edge1" class="edge"><title>c_{k&#45;1}&#45;&gt;0</title>
<path fill="none" stroke="black" d="M474.964,-277.035C383.566,-274.533 175.965,-266.317 154.789,-243 147.593,-235.078 147.003,-223.695 148.725,-213.182"/>
<polygon fill="gray" stroke="black" points="152.209,-213.651 151.059,-203.118 145.39,-212.069 152.209,-213.651"/>
<text text-anchor="middle" x="213.789" y="-227" font-family="times" font-size="20.00">up_sep_conv</text>
</g>
<!-- c_{k&#45;1}&#45;&gt;1 -->
<g id="edge3" class="edge"><title>c_{k&#45;1}&#45;&gt;1</title>
<path fill="none" stroke="black" d="M475.055,-265.153C460.553,-259.647 444.754,-252.305 431.789,-243 421.292,-235.467 423.413,-228.351 412.789,-221 393.709,-207.8 385.321,-211.639 363.789,-203 360.04,-201.496 356.113,-199.859 352.255,-198.214"/>
<polygon fill="gray" stroke="black" points="353.516,-194.946 342.948,-194.181 350.732,-201.368 353.516,-194.946"/>
<text text-anchor="middle" x="503.289" y="-227" font-family="times" font-size="20.00">up_atrous_conv</text>
</g>
<!-- c_{k&#45;1}&#45;&gt;2 -->
<g id="edge6" class="edge"><title>c_{k&#45;1}&#45;&gt;2</title>
<path fill="none" stroke="black" d="M560.508,-261.336C567.817,-256.534 574.444,-250.502 578.789,-243 583.689,-234.539 585.038,-228.52 578.789,-221 558.808,-196.956 466.479,-189.347 419.064,-187.004"/>
<polygon fill="gray" stroke="black" points="419.003,-183.498 408.857,-186.547 418.69,-190.491 419.003,-183.498"/>
<text text-anchor="middle" x="641.789" y="-227" font-family="times" font-size="20.00">up_sep_conv</text>
</g>
<!-- 3 -->
<g id="node6" class="node"><title>3</title>
<polygon fill="lightblue" stroke="black" stroke-width="2" points="426.789,-109 390.789,-109 390.789,-73 426.789,-73 426.789,-109"/>
<text text-anchor="middle" x="408.789" y="-86" font-family="times" font-size="20.00">3</text>
</g>
<!-- c_{k&#45;1}&#45;&gt;3 -->
<g id="edge8" class="edge"><title>c_{k&#45;1}&#45;&gt;3</title>
<path fill="none" stroke="black" d="M560.414,-276.145C609.826,-272.996 686.803,-264.664 704.789,-243 711.034,-235.477 709.911,-229.328 704.789,-221 646.192,-125.733 499.134,-100.605 437.098,-94.1552"/>
<polygon fill="gray" stroke="black" points="437.167,-90.6461 426.881,-93.1842 436.505,-97.6147 437.167,-90.6461"/>
<text text-anchor="middle" x="762.289" y="-180" font-family="times" font-size="20.00">up_atrous_conv</text>
</g>
<!-- c_{k} -->
<g id="node7" class="node"><title>c_{k}</title>
<polygon fill="palegoldenrod" stroke="black" stroke-width="2" points="376.789,-36 310.789,-36 310.789,-0 376.789,-0 376.789,-36"/>
<text text-anchor="middle" x="343.789" y="-13" font-family="times" font-size="20.00">c_{k}</text>
</g>
<!-- 0&#45;&gt;c_{k} -->
<g id="edge9" class="edge"><title>0&#45;&gt;c_{k}</title>
<path fill="none" stroke="black" d="M175.962,-167.879C208.818,-138.732 278.253,-77.1365 316.716,-43.0158"/>
<polygon fill="gray" stroke="black" points="319.271,-45.4279 324.429,-36.1734 314.626,-40.1913 319.271,-45.4279"/>
</g>
<!-- 1&#45;&gt;c_{k} -->
<g id="edge10" class="edge"><title>1&#45;&gt;c_{k}</title>
<path fill="none" stroke="black" d="M326.75,-166.964C330.036,-138.433 336.678,-80.7517 340.629,-46.4425"/>
<polygon fill="gray" stroke="black" points="344.142,-46.5257 341.809,-36.1909 337.188,-45.7249 344.142,-46.5257"/>
</g>
<!-- 2&#45;&gt;3 -->
<g id="edge7" class="edge"><title>2&#45;&gt;3</title>
<path fill="none" stroke="black" d="M394.174,-166.696C396.789,-153.331 400.456,-134.587 403.463,-119.219"/>
<polygon fill="gray" stroke="black" points="406.933,-119.713 405.418,-109.227 400.063,-118.369 406.933,-119.713"/>
<text text-anchor="middle" x="458.289" y="-133" font-family="times" font-size="20.00">shuffle_conv</text>
</g>
<!-- 2&#45;&gt;c_{k} -->
<g id="edge11" class="edge"><title>2&#45;&gt;c_{k}</title>
<path fill="none" stroke="black" d="M385.936,-166.964C377.774,-138.31 361.236,-80.2518 351.479,-45.9982"/>
<polygon fill="gray" stroke="black" points="354.791,-44.8495 348.685,-36.1909 348.059,-46.7672 354.791,-44.8495"/>
</g>
<!-- 3&#45;&gt;c_{k} -->
<g id="edge12" class="edge"><title>3&#45;&gt;c_{k}</title>
<path fill="none" stroke="black" d="M393.59,-72.6951C388.309,-66.7367 382.322,-60.0444 376.789,-54 373.724,-50.6525 370.473,-47.1491 367.254,-43.7067"/>
<polygon fill="gray" stroke="black" points="369.74,-41.2409 360.34,-36.3526 364.64,-46.0357 369.74,-41.2409"/>
</g>
</g>
</svg>
