<?xml version="1.0" encoding="UTF-8" standalone="no"?>
<!DOCTYPE svg PUBLIC "-//W3C//DTD SVG 1.1//EN"
 "http://www.w3.org/Graphics/SVG/1.1/DTD/svg11.dtd">
<!-- Generated by graphviz version 2.38.0 (20140413.2041)
 -->
<!-- Title: %3 Pages: 1 -->
<svg width="842pt" height="305pt"
 viewBox="0.00 0.00 842.49 305.00" xmlns="http://www.w3.org/2000/svg" xmlns:xlink="http://www.w3.org/1999/xlink">
<g id="graph0" class="graph" transform="scale(1 1) rotate(0) translate(4 301)">
<title>%3</title>
<polygon fill="white" stroke="none" points="-4,4 -4,-301 838.495,-301 838.495,4 -4,4"/>
<!-- c_{k&#45;2} -->
<g id="node1" class="node"><title>c_{k&#45;2}</title>
<polygon fill="#b4eeb4" stroke="black" stroke-width="2" points="113.995,-297 28.9946,-297 28.9946,-261 113.995,-261 113.995,-297"/>
<text text-anchor="middle" x="71.4946" y="-274" font-family="times" font-size="20.00">c_{k&#45;2}</text>
</g>
<!-- 0 -->
<g id="node3" class="node"><title>0</title>
<polygon fill="lightblue" stroke="black" stroke-width="2" points="293.495,-203 257.495,-203 257.495,-167 293.495,-167 293.495,-203"/>
<text text-anchor="middle" x="275.495" y="-180" font-family="times" font-size="20.00">0</text>
</g>
<!-- c_{k&#45;2}&#45;&gt;0 -->
<g id="edge2" class="edge"><title>c_{k&#45;2}&#45;&gt;0</title>
<path fill="none" stroke="black" d="M28.789,-264.415C19.1658,-259.27 10.1386,-252.316 4.4946,-243 -0.571862,-234.637 -1.96137,-228.343 4.4946,-221 20.3686,-202.944 181.029,-191.537 247.223,-187.571"/>
<polygon fill="gray" stroke="black" points="247.58,-191.056 257.358,-186.978 247.171,-184.068 247.58,-191.056"/>
<text text-anchor="middle" x="60.9946" y="-227" font-family="times" font-size="20.00">shuffle_conv</text>
</g>
<!-- 1 -->
<g id="node4" class="node"><title>1</title>
<polygon fill="lightblue" stroke="black" stroke-width="2" points="444.495,-203 408.495,-203 408.495,-167 444.495,-167 444.495,-203"/>
<text text-anchor="middle" x="426.495" y="-180" font-family="times" font-size="20.00">1</text>
</g>
<!-- c_{k&#45;2}&#45;&gt;1 -->
<g id="edge3" class="edge"><title>c_{k&#45;2}&#45;&gt;1</title>
<path fill="none" stroke="black" d="M94.2275,-260.702C115.273,-244.837 144.23,-223.44 150.495,-221 213.883,-196.308 235.015,-211.62 302.495,-203 335.499,-198.784 373.385,-193.529 398.505,-189.987"/>
<polygon fill="gray" stroke="black" points="399.026,-193.448 408.437,-188.582 398.045,-186.517 399.026,-193.448"/>
<text text-anchor="middle" x="206.995" y="-227" font-family="times" font-size="20.00">shuffle_conv</text>
</g>
<!-- c_{k&#45;1} -->
<g id="node2" class="node"><title>c_{k&#45;1}</title>
<polygon fill="#b4eeb4" stroke="black" stroke-width="2" points="585.995,-297 500.995,-297 500.995,-261 585.995,-261 585.995,-297"/>
<text text-anchor="middle" x="543.495" y="-274" font-family="times" font-size="20.00">c_{k&#45;1}</text>
</g>
<!-- c_{k&#45;1}&#45;&gt;0 -->
<g id="edge1" class="edge"><title>c_{k&#45;1}&#45;&gt;0</title>
<path fill="none" stroke="black" d="M500.797,-278.936C432.714,-279.411 304.284,-275.794 275.495,-243 268.444,-234.968 267.342,-223.569 268.425,-213.072"/>
<polygon fill="gray" stroke="black" points="271.906,-213.474 270.096,-203.035 265.001,-212.324 271.906,-213.474"/>
<text text-anchor="middle" x="359.995" y="-227" font-family="times" font-size="20.00">donw_atrous_conv</text>
</g>
<!-- c_{k&#45;1}&#45;&gt;1 -->
<g id="edge4" class="edge"><title>c_{k&#45;1}&#45;&gt;1</title>
<path fill="none" stroke="black" d="M500.848,-262.554C489.656,-257.349 478.055,-250.83 468.495,-243 457.87,-234.299 448.52,-222.337 441.355,-211.617"/>
<polygon fill="gray" stroke="black" points="444.194,-209.559 435.871,-203.003 438.29,-213.318 444.194,-209.559"/>
<text text-anchor="middle" x="536.995" y="-227" font-family="times" font-size="20.00">down_att_conv</text>
</g>
<!-- 2 -->
<g id="node5" class="node"><title>2</title>
<polygon fill="lightblue" stroke="black" stroke-width="2" points="457.495,-109 421.495,-109 421.495,-73 457.495,-73 457.495,-109"/>
<text text-anchor="middle" x="439.495" y="-86" font-family="times" font-size="20.00">2</text>
</g>
<!-- c_{k&#45;1}&#45;&gt;2 -->
<g id="edge6" class="edge"><title>c_{k&#45;1}&#45;&gt;2</title>
<path fill="none" stroke="black" d="M586.271,-261.861C593.949,-256.987 600.945,-250.792 605.495,-243 612.691,-230.674 627.693,-158.97 600.495,-127 596.173,-121.92 512.66,-105.659 467.663,-97.2091"/>
<polygon fill="gray" stroke="black" points="468.116,-93.7334 457.644,-95.3373 466.831,-100.614 468.116,-93.7334"/>
<text text-anchor="middle" x="666.495" y="-180" font-family="times" font-size="20.00">down_conv</text>
</g>
<!-- 3 -->
<g id="node6" class="node"><title>3</title>
<polygon fill="lightblue" stroke="black" stroke-width="2" points="580.495,-109 544.495,-109 544.495,-73 580.495,-73 580.495,-109"/>
<text text-anchor="middle" x="562.495" y="-86" font-family="times" font-size="20.00">3</text>
</g>
<!-- c_{k&#45;1}&#45;&gt;3 -->
<g id="edge7" class="edge"><title>c_{k&#45;1}&#45;&gt;3</title>
<path fill="none" stroke="black" d="M586.008,-273.941C629.518,-267.253 694.951,-249.585 725.495,-203 762.441,-146.648 646.234,-111.335 590.527,-98.0194"/>
<polygon fill="gray" stroke="black" points="591.098,-94.5594 580.567,-95.7192 589.523,-101.38 591.098,-94.5594"/>
<text text-anchor="middle" x="783.495" y="-180" font-family="times" font-size="20.00">down_conv</text>
</g>
<!-- c_{k} -->
<g id="node7" class="node"><title>c_{k}</title>
<polygon fill="palegoldenrod" stroke="black" stroke-width="2" points="443.495,-36 377.495,-36 377.495,-0 443.495,-0 443.495,-36"/>
<text text-anchor="middle" x="410.495" y="-13" font-family="times" font-size="20.00">c_{k}</text>
</g>
<!-- 0&#45;&gt;c_{k} -->
<g id="edge9" class="edge"><title>0&#45;&gt;c_{k}</title>
<path fill="none" stroke="black" d="M289.434,-166.964C313.282,-137.816 362.025,-78.241 389.837,-44.248"/>
<polygon fill="gray" stroke="black" points="392.806,-46.1469 396.429,-36.1909 387.388,-41.7142 392.806,-46.1469"/>
</g>
<!-- 1&#45;&gt;2 -->
<g id="edge5" class="edge"><title>1&#45;&gt;2</title>
<path fill="none" stroke="black" d="M425.412,-166.907C425.029,-155.516 425.165,-140.257 427.495,-127 427.968,-124.305 428.616,-121.538 429.368,-118.798"/>
<polygon fill="gray" stroke="black" points="432.736,-119.754 432.415,-109.164 426.062,-117.643 432.736,-119.754"/>
<text text-anchor="middle" x="483.995" y="-133" font-family="times" font-size="20.00">shuffle_conv</text>
</g>
<!-- 1&#45;&gt;3 -->
<g id="edge8" class="edge"><title>1&#45;&gt;3</title>
<path fill="none" stroke="black" d="M444.704,-183.195C469.452,-181.151 513.686,-173.983 540.495,-149 548.963,-141.108 554.209,-129.588 557.441,-118.965"/>
<polygon fill="gray" stroke="black" points="560.851,-119.762 559.963,-109.204 554.073,-118.011 560.851,-119.762"/>
<text text-anchor="middle" x="575.495" y="-133" font-family="times" font-size="20.00">conv</text>
</g>
<!-- 1&#45;&gt;c_{k} -->
<g id="edge10" class="edge"><title>1&#45;&gt;c_{k}</title>
<path fill="none" stroke="black" d="M422.469,-166.839C419.118,-151.712 414.572,-129.026 412.495,-109 410.321,-88.0465 409.882,-64.2078 409.953,-46.3309"/>
<polygon fill="gray" stroke="black" points="413.453,-46.3387 410.049,-36.3057 406.453,-46.2719 413.453,-46.3387"/>
</g>
<!-- 2&#45;&gt;c_{k} -->
<g id="edge11" class="edge"><title>2&#45;&gt;c_{k}</title>
<path fill="none" stroke="black" d="M432.475,-72.8129C429.126,-64.6151 425.045,-54.6231 421.312,-45.4847"/>
<polygon fill="gray" stroke="black" points="424.472,-43.9629 417.45,-36.0288 417.991,-46.6099 424.472,-43.9629"/>
</g>
<!-- 3&#45;&gt;c_{k} -->
<g id="edge12" class="edge"><title>3&#45;&gt;c_{k}</title>
<path fill="none" stroke="black" d="M544.461,-81.5766C522.109,-71.1357 483.287,-53.0016 453.17,-38.934"/>
<polygon fill="gray" stroke="black" points="454.271,-35.5854 443.73,-34.5243 451.309,-41.9276 454.271,-35.5854"/>
</g>
</g>
</svg>
