<?xml version="1.0" encoding="UTF-8" standalone="no"?>
<!DOCTYPE svg PUBLIC "-//W3C//DTD SVG 1.1//EN"
 "http://www.w3.org/Graphics/SVG/1.1/DTD/svg11.dtd">
<!-- Generated by graphviz version 2.38.0 (20140413.2041)
 -->
<!-- Title: %3 Pages: 1 -->
<svg width="463pt" height="399pt"
 viewBox="0.00 0.00 462.50 399.00" xmlns="http://www.w3.org/2000/svg" xmlns:xlink="http://www.w3.org/1999/xlink">
<g id="graph0" class="graph" transform="scale(1 1) rotate(0) translate(4 395)">
<title>%3</title>
<polygon fill="white" stroke="none" points="-4,4 -4,-395 458.5,-395 458.5,4 -4,4"/>
<!-- c_{k&#45;2} -->
<g id="node1" class="node"><title>c_{k&#45;2}</title>
<polygon fill="#b4eeb4" stroke="black" stroke-width="2" points="315,-391 230,-391 230,-355 315,-355 315,-391"/>
<text text-anchor="middle" x="272.5" y="-368" font-family="times" font-size="20.00">c_{k&#45;2}</text>
</g>
<!-- 0 -->
<g id="node3" class="node"><title>0</title>
<polygon fill="lightblue" stroke="black" stroke-width="2" points="122.5,-297 86.5,-297 86.5,-261 122.5,-261 122.5,-297"/>
<text text-anchor="middle" x="104.5" y="-274" font-family="times" font-size="20.00">0</text>
</g>
<!-- c_{k&#45;2}&#45;&gt;0 -->
<g id="edge1" class="edge"><title>c_{k&#45;2}&#45;&gt;0</title>
<path fill="none" stroke="black" d="M237.839,-354.823C228.346,-349.569 218.263,-343.458 209.5,-337 198.113,-328.608 198.307,-322.791 186.5,-315 169.703,-303.916 148.817,-295.063 132.327,-289.033"/>
<polygon fill="gray" stroke="black" points="133.299,-285.665 122.705,-285.649 130.977,-292.269 133.299,-285.665"/>
<text text-anchor="middle" x="266" y="-321" font-family="times" font-size="20.00">shuffle_conv</text>
</g>
<!-- 1 -->
<g id="node4" class="node"><title>1</title>
<polygon fill="lightblue" stroke="black" stroke-width="2" points="354.5,-203 318.5,-203 318.5,-167 354.5,-167 354.5,-203"/>
<text text-anchor="middle" x="336.5" y="-180" font-family="times" font-size="20.00">1</text>
</g>
<!-- c_{k&#45;2}&#45;&gt;1 -->
<g id="edge3" class="edge"><title>c_{k&#45;2}&#45;&gt;1</title>
<path fill="none" stroke="black" d="M305.64,-354.942C312.245,-350.032 318.402,-344.055 322.5,-337 344.837,-298.548 343.793,-245.103 340.497,-213.188"/>
<polygon fill="gray" stroke="black" points="343.972,-212.764 339.324,-203.243 337.02,-213.584 343.972,-212.764"/>
<text text-anchor="middle" x="398" y="-274" font-family="times" font-size="20.00">shuffle_conv</text>
</g>
<!-- c_{k&#45;1} -->
<g id="node2" class="node"><title>c_{k&#45;1}</title>
<polygon fill="#b4eeb4" stroke="black" stroke-width="2" points="85,-391 0,-391 0,-355 85,-355 85,-391"/>
<text text-anchor="middle" x="42.5" y="-368" font-family="times" font-size="20.00">c_{k&#45;1}</text>
</g>
<!-- c_{k&#45;1}&#45;&gt;0 -->
<g id="edge2" class="edge"><title>c_{k&#45;1}&#45;&gt;0</title>
<path fill="none" stroke="black" d="M38.5878,-354.844C36.8126,-342.858 36.4508,-326.929 43.5,-315 50.8029,-302.641 64.264,-294.252 76.6865,-288.793"/>
<polygon fill="gray" stroke="black" points="78.2597,-291.936 86.2891,-285.023 75.7016,-285.42 78.2597,-291.936"/>
<text text-anchor="middle" x="115" y="-321" font-family="times" font-size="20.00">up_atrous_conv</text>
</g>
<!-- 0&#45;&gt;1 -->
<g id="edge4" class="edge"><title>0&#45;&gt;1</title>
<path fill="none" stroke="black" d="M122.516,-271.474C138.771,-265.229 163.046,-255.001 182.5,-243 195.674,-234.873 195.607,-227.826 209.5,-221 241.043,-205.502 252.711,-212.668 286.5,-203 293.607,-200.966 301.197,-198.528 308.26,-196.14"/>
<polygon fill="gray" stroke="black" points="309.808,-199.309 318.115,-192.733 307.521,-192.693 309.808,-199.309"/>
<text text-anchor="middle" x="266" y="-227" font-family="times" font-size="20.00">shuffle_conv</text>
</g>
<!-- 2 -->
<g id="node5" class="node"><title>2</title>
<polygon fill="lightblue" stroke="black" stroke-width="2" points="176.5,-109 140.5,-109 140.5,-73 176.5,-73 176.5,-109"/>
<text text-anchor="middle" x="158.5" y="-86" font-family="times" font-size="20.00">2</text>
</g>
<!-- 0&#45;&gt;2 -->
<g id="edge6" class="edge"><title>0&#45;&gt;2</title>
<path fill="none" stroke="black" d="M86.1609,-262.512C63.0402,-241.016 28.3754,-200.95 46.5,-167 64.2661,-133.722 104.068,-112.615 131.109,-101.546"/>
<polygon fill="gray" stroke="black" points="132.38,-104.807 140.43,-97.9188 129.841,-98.2841 132.38,-104.807"/>
<text text-anchor="middle" x="97" y="-180" font-family="times" font-size="20.00">att_identity</text>
</g>
<!-- 3 -->
<g id="node6" class="node"><title>3</title>
<polygon fill="lightblue" stroke="black" stroke-width="2" points="230.5,-109 194.5,-109 194.5,-73 230.5,-73 230.5,-109"/>
<text text-anchor="middle" x="212.5" y="-86" font-family="times" font-size="20.00">3</text>
</g>
<!-- 0&#45;&gt;3 -->
<g id="edge8" class="edge"><title>0&#45;&gt;3</title>
<path fill="none" stroke="black" d="M114.793,-260.935C123.757,-245.869 136.935,-223.22 147.5,-203 164.808,-169.874 163.421,-158.524 183.5,-127 185.633,-123.651 188.048,-120.267 190.551,-116.99"/>
<polygon fill="gray" stroke="black" points="193.315,-119.138 196.846,-109.149 187.856,-114.756 193.315,-119.138"/>
<text text-anchor="middle" x="219" y="-180" font-family="times" font-size="20.00">shuffle_conv</text>
</g>
<!-- c_{k} -->
<g id="node7" class="node"><title>c_{k}</title>
<polygon fill="palegoldenrod" stroke="black" stroke-width="2" points="214.5,-36 148.5,-36 148.5,-0 214.5,-0 214.5,-36"/>
<text text-anchor="middle" x="181.5" y="-13" font-family="times" font-size="20.00">c_{k}</text>
</g>
<!-- 0&#45;&gt;c_{k} -->
<g id="edge9" class="edge"><title>0&#45;&gt;c_{k}</title>
<path fill="none" stroke="black" d="M86.3326,-270.882C73.9382,-265.132 58.0891,-255.872 48.5,-243 28.1102,-215.63 30.6882,-200.443 37.5,-167 49.0259,-110.413 103.063,-66.4399 141.548,-41.6117"/>
<polygon fill="gray" stroke="black" points="143.862,-44.2915 150.474,-36.0128 140.142,-38.3615 143.862,-44.2915"/>
</g>
<!-- 1&#45;&gt;2 -->
<g id="edge5" class="edge"><title>1&#45;&gt;2</title>
<path fill="none" stroke="black" d="M318.147,-177.152C308.765,-173.807 297.116,-169.891 286.5,-167 248.402,-156.625 232.623,-170.494 199.5,-149 187.837,-141.431 178.427,-129.291 171.579,-118.156"/>
<polygon fill="gray" stroke="black" points="174.438,-116.105 166.435,-109.162 168.361,-119.58 174.438,-116.105"/>
<text text-anchor="middle" x="256" y="-133" font-family="times" font-size="20.00">shuffle_conv</text>
</g>
<!-- 1&#45;&gt;3 -->
<g id="edge7" class="edge"><title>1&#45;&gt;3</title>
<path fill="none" stroke="black" d="M334.536,-166.908C332.232,-154.319 327.247,-137.61 316.5,-127 296.161,-106.921 263.944,-98.3554 240.756,-94.7049"/>
<polygon fill="gray" stroke="black" points="241.193,-91.2322 230.812,-93.3498 240.248,-98.1681 241.193,-91.2322"/>
<text text-anchor="middle" x="349.5" y="-133" font-family="times" font-size="20.00">conv</text>
</g>
<!-- 1&#45;&gt;c_{k} -->
<g id="edge10" class="edge"><title>1&#45;&gt;c_{k}</title>
<path fill="none" stroke="black" d="M354.815,-172.284C362.409,-166.329 370.394,-158.364 374.5,-149 378.427,-140.045 379.446,-135.435 374.5,-127 342.294,-72.0722 270.826,-42.9878 224.477,-29.3138"/>
<polygon fill="gray" stroke="black" points="225.28,-25.9039 214.705,-26.5486 223.374,-32.6394 225.28,-25.9039"/>
</g>
<!-- 2&#45;&gt;c_{k} -->
<g id="edge11" class="edge"><title>2&#45;&gt;c_{k}</title>
<path fill="none" stroke="black" d="M164.068,-72.8129C166.695,-64.7023 169.891,-54.8355 172.826,-45.7766"/>
<polygon fill="gray" stroke="black" points="176.231,-46.6208 175.984,-36.0288 169.572,-44.4635 176.231,-46.6208"/>
</g>
<!-- 3&#45;&gt;c_{k} -->
<g id="edge12" class="edge"><title>3&#45;&gt;c_{k}</title>
<path fill="none" stroke="black" d="M204.996,-72.8129C201.416,-64.6151 197.054,-54.6231 193.064,-45.4847"/>
<polygon fill="gray" stroke="black" points="196.144,-43.7929 188.935,-36.0288 189.729,-46.5939 196.144,-43.7929"/>
</g>
</g>
</svg>
