<?xml version="1.0" encoding="UTF-8" standalone="no"?>
<!DOCTYPE svg PUBLIC "-//W3C//DTD SVG 1.1//EN"
 "http://www.w3.org/Graphics/SVG/1.1/DTD/svg11.dtd">
<!-- Generated by graphviz version 2.38.0 (20140413.2041)
 -->
<!-- Title: %3 Pages: 1 -->
<svg width="493pt" height="399pt"
 viewBox="0.00 0.00 493.03 399.00" xmlns="http://www.w3.org/2000/svg" xmlns:xlink="http://www.w3.org/1999/xlink">
<g id="graph0" class="graph" transform="scale(1 1) rotate(0) translate(4 395)">
<title>%3</title>
<polygon fill="white" stroke="none" points="-4,4 -4,-395 489.027,-395 489.027,4 -4,4"/>
<!-- c_{k&#45;2} -->
<g id="node1" class="node"><title>c_{k&#45;2}</title>
<polygon fill="#b4eeb4" stroke="black" stroke-width="2" points="157.527,-391 72.5266,-391 72.5266,-355 157.527,-355 157.527,-391"/>
<text text-anchor="middle" x="115.027" y="-368" font-family="times" font-size="20.00">c_{k&#45;2}</text>
</g>
<!-- 0 -->
<g id="node3" class="node"><title>0</title>
<polygon fill="lightblue" stroke="black" stroke-width="2" points="55.0266,-297 19.0266,-297 19.0266,-261 55.0266,-261 55.0266,-297"/>
<text text-anchor="middle" x="37.0266" y="-274" font-family="times" font-size="20.00">0</text>
</g>
<!-- c_{k&#45;2}&#45;&gt;0 -->
<g id="edge1" class="edge"><title>c_{k&#45;2}&#45;&gt;0</title>
<path fill="none" stroke="black" d="M72.2633,-362.208C59.058,-356.979 45.9233,-349.03 38.0266,-337 32.3431,-328.341 31.1391,-317.237 31.7021,-307.133"/>
<polygon fill="gray" stroke="black" points="35.1899,-307.435 32.8147,-297.11 28.2326,-306.663 35.1899,-307.435"/>
<text text-anchor="middle" x="94.5266" y="-321" font-family="times" font-size="20.00">shuffle_conv</text>
</g>
<!-- 1 -->
<g id="node4" class="node"><title>1</title>
<polygon fill="lightblue" stroke="black" stroke-width="2" points="171.027,-203 135.027,-203 135.027,-167 171.027,-167 171.027,-203"/>
<text text-anchor="middle" x="153.027" y="-180" font-family="times" font-size="20.00">1</text>
</g>
<!-- c_{k&#45;2}&#45;&gt;1 -->
<g id="edge3" class="edge"><title>c_{k&#45;2}&#45;&gt;1</title>
<path fill="none" stroke="black" d="M138.023,-354.941C143.261,-349.806 148.132,-343.726 151.027,-337 168.362,-296.715 163.896,-244.605 158.719,-213.323"/>
<polygon fill="gray" stroke="black" points="162.109,-212.402 156.892,-203.181 155.22,-213.643 162.109,-212.402"/>
<text text-anchor="middle" x="219.527" y="-274" font-family="times" font-size="20.00">shuffle_conv</text>
</g>
<!-- c_{k&#45;1} -->
<g id="node2" class="node"><title>c_{k&#45;1}</title>
<polygon fill="#b4eeb4" stroke="black" stroke-width="2" points="289.527,-391 204.527,-391 204.527,-355 289.527,-355 289.527,-391"/>
<text text-anchor="middle" x="247.027" y="-368" font-family="times" font-size="20.00">c_{k&#45;1}</text>
</g>
<!-- c_{k&#45;1}&#45;&gt;0 -->
<g id="edge2" class="edge"><title>c_{k&#45;1}&#45;&gt;0</title>
<path fill="none" stroke="black" d="M223.406,-354.913C205.377,-342.49 179.544,-325.993 155.027,-315 125.474,-301.749 89.5508,-291.92 65.1607,-286.106"/>
<polygon fill="gray" stroke="black" points="65.68,-282.633 55.1485,-283.79 64.1028,-289.453 65.68,-282.633"/>
<text text-anchor="middle" x="248.527" y="-321" font-family="times" font-size="20.00">atrous_conv</text>
</g>
<!-- 2 -->
<g id="node5" class="node"><title>2</title>
<polygon fill="lightblue" stroke="black" stroke-width="2" points="197.027,-109 161.027,-109 161.027,-73 197.027,-73 197.027,-109"/>
<text text-anchor="middle" x="179.027" y="-86" font-family="times" font-size="20.00">2</text>
</g>
<!-- c_{k&#45;1}&#45;&gt;2 -->
<g id="edge6" class="edge"><title>c_{k&#45;1}&#45;&gt;2</title>
<path fill="none" stroke="black" d="M289.666,-354.808C296.613,-350.084 302.882,-344.215 307.027,-337 336.413,-285.837 509.624,-401.84 286.027,-127 267.009,-103.624 232.086,-95.7097 207.315,-93.1122"/>
<polygon fill="gray" stroke="black" points="207.321,-89.6011 197.069,-92.2754 206.751,-96.5779 207.321,-89.6011"/>
<text text-anchor="middle" x="428.527" y="-227" font-family="times" font-size="20.00">shuffle_conv</text>
</g>
<!-- 0&#45;&gt;1 -->
<g id="edge4" class="edge"><title>0&#45;&gt;1</title>
<path fill="none" stroke="black" d="M32.1898,-260.881C29.7864,-248.443 29.0461,-231.939 38.0266,-221 61.9775,-191.826 85.5809,-215.977 121.027,-203 122.467,-202.473 123.922,-201.892 125.378,-201.272"/>
<polygon fill="gray" stroke="black" points="127.287,-204.24 134.811,-196.78 124.278,-197.92 127.287,-204.24"/>
<text text-anchor="middle" x="94.5266" y="-227" font-family="times" font-size="20.00">shuffle_conv</text>
</g>
<!-- 3 -->
<g id="node6" class="node"><title>3</title>
<polygon fill="lightblue" stroke="black" stroke-width="2" points="94.0266,-109 58.0266,-109 58.0266,-73 94.0266,-73 94.0266,-109"/>
<text text-anchor="middle" x="76.0266" y="-86" font-family="times" font-size="20.00">3</text>
</g>
<!-- 0&#45;&gt;3 -->
<g id="edge8" class="edge"><title>0&#45;&gt;3</title>
<path fill="none" stroke="black" d="M27.4124,-260.668C16.4168,-238.473 1.35219,-199.049 13.0266,-167 20.5402,-146.373 36.4963,-127.478 50.4696,-113.813"/>
<polygon fill="gray" stroke="black" points="53.0655,-116.177 57.9624,-106.781 48.2753,-111.072 53.0655,-116.177"/>
<text text-anchor="middle" x="69.5266" y="-180" font-family="times" font-size="20.00">shuffle_conv</text>
</g>
<!-- c_{k} -->
<g id="node7" class="node"><title>c_{k}</title>
<polygon fill="palegoldenrod" stroke="black" stroke-width="2" points="145.027,-36 79.0266,-36 79.0266,-0 145.027,-0 145.027,-36"/>
<text text-anchor="middle" x="112.027" y="-13" font-family="times" font-size="20.00">c_{k}</text>
</g>
<!-- 0&#45;&gt;c_{k} -->
<g id="edge9" class="edge"><title>0&#45;&gt;c_{k}</title>
<path fill="none" stroke="black" d="M20.0185,-260.756C15.729,-255.458 11.6123,-249.341 9.02659,-243 -3.74561,-211.68 -0.640491,-200.346 5.02659,-167 12.7551,-121.524 19.8556,-108.733 49.0266,-73 58.0283,-61.9733 69.467,-51.4136 80.1203,-42.6034"/>
<polygon fill="gray" stroke="black" points="82.454,-45.2182 88.0605,-36.2283 78.0715,-39.7598 82.454,-45.2182"/>
</g>
<!-- 1&#45;&gt;2 -->
<g id="edge5" class="edge"><title>1&#45;&gt;2</title>
<path fill="none" stroke="black" d="M157.917,-166.696C161.694,-153.331 166.991,-134.587 171.334,-119.219"/>
<polygon fill="gray" stroke="black" points="174.807,-119.802 174.158,-109.227 168.07,-117.898 174.807,-119.802"/>
<text text-anchor="middle" x="225.527" y="-133" font-family="times" font-size="20.00">shuffle_conv</text>
</g>
<!-- 1&#45;&gt;3 -->
<g id="edge7" class="edge"><title>1&#45;&gt;3</title>
<path fill="none" stroke="black" d="M134.91,-173.972C130.417,-171.597 125.584,-169.136 121.027,-167 101.895,-158.032 88.9569,-166.438 77.0266,-149 71.1783,-140.452 69.9442,-129.367 70.5293,-119.249"/>
<polygon fill="gray" stroke="black" points="74.0194,-119.534 71.6803,-109.2 67.0649,-118.737 74.0194,-119.534"/>
<text text-anchor="middle" x="98.0266" y="-133" font-family="times" font-size="20.00">conv</text>
</g>
<!-- 1&#45;&gt;c_{k} -->
<g id="edge10" class="edge"><title>1&#45;&gt;c_{k}</title>
<path fill="none" stroke="black" d="M148.793,-166.964C141.673,-138.31 127.247,-80.2518 118.735,-45.9982"/>
<polygon fill="gray" stroke="black" points="122.107,-45.0518 116.298,-36.1909 115.313,-46.7399 122.107,-45.0518"/>
</g>
<!-- 2&#45;&gt;c_{k} -->
<g id="edge11" class="edge"><title>2&#45;&gt;c_{k}</title>
<path fill="none" stroke="black" d="M164.251,-72.9657C158.901,-66.9082 152.763,-60.0841 147.027,-54 143.823,-50.6023 140.402,-47.0699 137.001,-43.6132"/>
<polygon fill="gray" stroke="black" points="139.211,-40.8717 129.678,-36.2482 134.247,-45.8072 139.211,-40.8717"/>
</g>
<!-- 3&#45;&gt;c_{k} -->
<g id="edge12" class="edge"><title>3&#45;&gt;c_{k}</title>
<path fill="none" stroke="black" d="M84.7412,-72.8129C88.942,-64.5279 94.0721,-54.4103 98.7455,-45.1933"/>
<polygon fill="gray" stroke="black" points="101.992,-46.5307 103.392,-36.0288 95.7482,-43.365 101.992,-46.5307"/>
</g>
</g>
</svg>
