<?xml version="1.0" encoding="UTF-8" standalone="no"?>
<!DOCTYPE svg PUBLIC "-//W3C//DTD SVG 1.1//EN"
 "http://www.w3.org/Graphics/SVG/1.1/DTD/svg11.dtd">
<!-- Generated by graphviz version 2.38.0 (20140413.2041)
 -->
<!-- Title: %3 Pages: 1 -->
<svg width="395pt" height="399pt"
 viewBox="0.00 0.00 395.38 399.00" xmlns="http://www.w3.org/2000/svg" xmlns:xlink="http://www.w3.org/1999/xlink">
<g id="graph0" class="graph" transform="scale(1 1) rotate(0) translate(4 395)">
<title>%3</title>
<polygon fill="white" stroke="none" points="-4,4 -4,-395 391.38,-395 391.38,4 -4,4"/>
<!-- c_{k&#45;2} -->
<g id="node1" class="node"><title>c_{k&#45;2}</title>
<polygon fill="#b4eeb4" stroke="black" stroke-width="2" points="101.88,-391 16.8801,-391 16.8801,-355 101.88,-355 101.88,-391"/>
<text text-anchor="middle" x="59.3801" y="-368" font-family="times" font-size="20.00">c_{k&#45;2}</text>
</g>
<!-- 0 -->
<g id="node3" class="node"><title>0</title>
<polygon fill="lightblue" stroke="black" stroke-width="2" points="61.3801,-297 25.3801,-297 25.3801,-261 61.3801,-261 61.3801,-297"/>
<text text-anchor="middle" x="43.3801" y="-274" font-family="times" font-size="20.00">0</text>
</g>
<!-- c_{k&#45;2}&#45;&gt;0 -->
<g id="edge2" class="edge"><title>c_{k&#45;2}&#45;&gt;0</title>
<path fill="none" stroke="black" d="M20.3792,-354.938C13.5621,-350.147 7.3817,-344.22 3.38006,-337 -1.3599,-328.448 -0.660273,-323.904 3.38006,-315 6.40304,-308.338 11.39,-302.446 16.8346,-297.485"/>
<polygon fill="gray" stroke="black" points="19.3943,-299.916 24.9634,-290.903 14.9892,-294.476 19.3943,-299.916"/>
<text text-anchor="middle" x="36.3801" y="-321" font-family="times" font-size="20.00">identity</text>
</g>
<!-- 1 -->
<g id="node4" class="node"><title>1</title>
<polygon fill="lightblue" stroke="black" stroke-width="2" points="262.38,-297 226.38,-297 226.38,-261 262.38,-261 262.38,-297"/>
<text text-anchor="middle" x="244.38" y="-274" font-family="times" font-size="20.00">1</text>
</g>
<!-- c_{k&#45;2}&#45;&gt;1 -->
<g id="edge3" class="edge"><title>c_{k&#45;2}&#45;&gt;1</title>
<path fill="none" stroke="black" d="M63.7508,-354.98C67.9461,-342.086 75.5783,-324.944 88.3801,-315 125.566,-286.114 181.971,-280.142 215.795,-279.4"/>
<polygon fill="gray" stroke="black" points="215.958,-282.899 225.93,-279.321 215.903,-275.899 215.958,-282.899"/>
<text text-anchor="middle" x="109.38" y="-321" font-family="times" font-size="20.00">conv</text>
</g>
<!-- c_{k&#45;1} -->
<g id="node2" class="node"><title>c_{k&#45;1}</title>
<polygon fill="#b4eeb4" stroke="black" stroke-width="2" points="229.88,-391 144.88,-391 144.88,-355 229.88,-355 229.88,-391"/>
<text text-anchor="middle" x="187.38" y="-368" font-family="times" font-size="20.00">c_{k&#45;1}</text>
</g>
<!-- c_{k&#45;1}&#45;&gt;0 -->
<g id="edge1" class="edge"><title>c_{k&#45;1}&#45;&gt;0</title>
<path fill="none" stroke="black" d="M170.228,-354.745C164.772,-349.15 158.759,-342.872 153.38,-337 144.653,-327.474 144.949,-322.431 134.38,-315 115.22,-301.528 90.1851,-292.394 71.225,-286.845"/>
<polygon fill="gray" stroke="black" points="71.9635,-283.418 61.3923,-284.126 70.0977,-290.164 71.9635,-283.418"/>
<text text-anchor="middle" x="206.88" y="-321" font-family="times" font-size="20.00">up_dil_conv</text>
</g>
<!-- c_{k&#45;1}&#45;&gt;1 -->
<g id="edge4" class="edge"><title>c_{k&#45;1}&#45;&gt;1</title>
<path fill="none" stroke="black" d="M230.264,-362.287C243.479,-357.064 256.589,-349.099 264.38,-337 270.422,-327.616 267.985,-316.184 263.073,-306.028"/>
<polygon fill="gray" stroke="black" points="266.018,-304.126 258.04,-297.155 259.93,-307.58 266.018,-304.126"/>
<text text-anchor="middle" x="327.38" y="-321" font-family="times" font-size="20.00">up_dep_conv</text>
</g>
<!-- 2 -->
<g id="node5" class="node"><title>2</title>
<polygon fill="lightblue" stroke="black" stroke-width="2" points="300.38,-203 264.38,-203 264.38,-167 300.38,-167 300.38,-203"/>
<text text-anchor="middle" x="282.38" y="-180" font-family="times" font-size="20.00">2</text>
</g>
<!-- 0&#45;&gt;2 -->
<g id="edge6" class="edge"><title>0&#45;&gt;2</title>
<path fill="none" stroke="black" d="M61.5156,-266.063C82.1788,-253.015 117.369,-232.447 150.38,-221 193.046,-206.205 207.705,-217.771 250.38,-203 251.829,-202.498 253.292,-201.938 254.754,-201.335"/>
<polygon fill="gray" stroke="black" points="256.641,-204.316 264.207,-196.899 253.668,-197.979 256.641,-204.316"/>
<text text-anchor="middle" x="193.38" y="-227" font-family="times" font-size="20.00">dep_conv</text>
</g>
<!-- c_{k} -->
<g id="node7" class="node"><title>c_{k}</title>
<polygon fill="palegoldenrod" stroke="black" stroke-width="2" points="295.38,-36 229.38,-36 229.38,-0 295.38,-0 295.38,-36"/>
<text text-anchor="middle" x="262.38" y="-13" font-family="times" font-size="20.00">c_{k}</text>
</g>
<!-- 0&#45;&gt;c_{k} -->
<g id="edge9" class="edge"><title>0&#45;&gt;c_{k}</title>
<path fill="none" stroke="black" d="M50.0344,-260.886C65.4776,-222.977 107.015,-130.724 166.38,-73 181.791,-58.0154 202.177,-45.7788 220.198,-36.766"/>
<polygon fill="gray" stroke="black" points="221.877,-39.8422 229.367,-32.3493 218.839,-33.5357 221.877,-39.8422"/>
</g>
<!-- 1&#45;&gt;2 -->
<g id="edge5" class="edge"><title>1&#45;&gt;2</title>
<path fill="none" stroke="black" d="M241.309,-260.799C240.009,-249.084 239.869,-233.497 245.38,-221 248.003,-215.054 252.169,-209.637 256.777,-204.935"/>
<polygon fill="gray" stroke="black" points="259.18,-207.481 264.223,-198.163 254.47,-202.302 259.18,-207.481"/>
<text text-anchor="middle" x="281.88" y="-227" font-family="times" font-size="20.00">dil_conv</text>
</g>
<!-- 3 -->
<g id="node6" class="node"><title>3</title>
<polygon fill="lightblue" stroke="black" stroke-width="2" points="211.38,-109 175.38,-109 175.38,-73 211.38,-73 211.38,-109"/>
<text text-anchor="middle" x="193.38" y="-86" font-family="times" font-size="20.00">3</text>
</g>
<!-- 1&#45;&gt;3 -->
<g id="edge7" class="edge"><title>1&#45;&gt;3</title>
<path fill="none" stroke="black" d="M226.088,-266.238C207.797,-253.273 180.796,-230.56 169.38,-203 157.893,-175.267 168.558,-141.261 179.089,-118.252"/>
<polygon fill="gray" stroke="black" points="182.307,-119.638 183.529,-109.114 176.011,-116.579 182.307,-119.638"/>
<text text-anchor="middle" x="212.38" y="-180" font-family="times" font-size="20.00">dep_conv</text>
</g>
<!-- 1&#45;&gt;c_{k} -->
<g id="edge10" class="edge"><title>1&#45;&gt;c_{k}</title>
<path fill="none" stroke="black" d="M262.662,-275.03C280.35,-271.08 306.215,-262.211 318.38,-243 358.708,-179.315 309.574,-88.3275 280.648,-44.5095"/>
<polygon fill="gray" stroke="black" points="283.495,-42.4714 274.993,-36.1492 277.697,-46.3933 283.495,-42.4714"/>
</g>
<!-- 2&#45;&gt;3 -->
<g id="edge8" class="edge"><title>2&#45;&gt;3</title>
<path fill="none" stroke="black" d="M264.376,-173.72C259.88,-171.353 255.016,-168.958 250.38,-167 226.297,-156.827 209.965,-169.99 194.38,-149 188.162,-140.625 186.894,-129.485 187.555,-119.277"/>
<polygon fill="gray" stroke="black" points="191.055,-119.485 188.814,-109.13 184.109,-118.623 191.055,-119.485"/>
<text text-anchor="middle" x="237.38" y="-133" font-family="times" font-size="20.00">dep_conv</text>
</g>
<!-- 2&#45;&gt;c_{k} -->
<g id="edge11" class="edge"><title>2&#45;&gt;c_{k}</title>
<path fill="none" stroke="black" d="M282.357,-166.75C282.199,-155.424 281.716,-140.301 280.38,-127 277.588,-99.2061 272.07,-67.7337 267.876,-45.9646"/>
<polygon fill="gray" stroke="black" points="271.303,-45.2537 265.941,-36.1161 264.435,-46.6033 271.303,-45.2537"/>
</g>
<!-- 3&#45;&gt;c_{k} -->
<g id="edge12" class="edge"><title>3&#45;&gt;c_{k}</title>
<path fill="none" stroke="black" d="M210.083,-72.8129C218.643,-64.0046 229.216,-53.125 238.611,-43.4584"/>
<polygon fill="gray" stroke="black" points="241.372,-45.6395 245.831,-36.0288 236.352,-40.7609 241.372,-45.6395"/>
</g>
</g>
</svg>
