<?xml version="1.0" encoding="UTF-8" standalone="no"?>
<!DOCTYPE svg PUBLIC "-//W3C//DTD SVG 1.1//EN"
 "http://www.w3.org/Graphics/SVG/1.1/DTD/svg11.dtd">
<!-- Generated by graphviz version 2.38.0 (20140413.2041)
 -->
<!-- Title: %3 Pages: 1 -->
<svg width="275pt" height="493pt"
 viewBox="0.00 0.00 274.50 493.00" xmlns="http://www.w3.org/2000/svg" xmlns:xlink="http://www.w3.org/1999/xlink">
<g id="graph0" class="graph" transform="scale(1 1) rotate(0) translate(4 489)">
<title>%3</title>
<polygon fill="white" stroke="none" points="-4,4 -4,-489 270.5,-489 270.5,4 -4,4"/>
<!-- c_{k&#45;2} -->
<g id="node1" class="node"><title>c_{k&#45;2}</title>
<polygon fill="#b4eeb4" stroke="black" stroke-width="2" points="85,-485 0,-485 0,-449 85,-449 85,-485"/>
<text text-anchor="middle" x="42.5" y="-462" font-family="times" font-size="20.00">c_{k&#45;2}</text>
</g>
<!-- 0 -->
<g id="node3" class="node"><title>0</title>
<polygon fill="lightblue" stroke="black" stroke-width="2" points="170.5,-391 134.5,-391 134.5,-355 170.5,-355 170.5,-391"/>
<text text-anchor="middle" x="152.5" y="-368" font-family="times" font-size="20.00">0</text>
</g>
<!-- c_{k&#45;2}&#45;&gt;0 -->
<g id="edge2" class="edge"><title>c_{k&#45;2}&#45;&gt;0</title>
<path fill="none" stroke="black" d="M51.8296,-448.856C59.1772,-436.567 70.3542,-420.261 83.5,-409 95.7309,-398.523 111.64,-390.182 125.1,-384.275"/>
<polygon fill="gray" stroke="black" points="126.496,-387.485 134.38,-380.408 123.803,-381.024 126.496,-387.485"/>
<text text-anchor="middle" x="116.5" y="-415" font-family="times" font-size="20.00">identity</text>
</g>
<!-- 1 -->
<g id="node4" class="node"><title>1</title>
<polygon fill="lightblue" stroke="black" stroke-width="2" points="51.5,-297 15.5,-297 15.5,-261 51.5,-261 51.5,-297"/>
<text text-anchor="middle" x="33.5" y="-274" font-family="times" font-size="20.00">1</text>
</g>
<!-- c_{k&#45;2}&#45;&gt;1 -->
<g id="edge3" class="edge"><title>c_{k&#45;2}&#45;&gt;1</title>
<path fill="none" stroke="black" d="M41.6694,-448.835C40.1022,-416.446 36.6978,-346.087 34.8161,-307.2"/>
<polygon fill="gray" stroke="black" points="38.3079,-306.943 34.3286,-297.124 31.316,-307.281 38.3079,-306.943"/>
<text text-anchor="middle" x="60.5" y="-368" font-family="times" font-size="20.00">conv</text>
</g>
<!-- c_{k&#45;1} -->
<g id="node2" class="node"><title>c_{k&#45;1}</title>
<polygon fill="#b4eeb4" stroke="black" stroke-width="2" points="198,-485 113,-485 113,-449 198,-449 198,-485"/>
<text text-anchor="middle" x="155.5" y="-462" font-family="times" font-size="20.00">c_{k&#45;1}</text>
</g>
<!-- c_{k&#45;1}&#45;&gt;0 -->
<g id="edge1" class="edge"><title>c_{k&#45;1}&#45;&gt;0</title>
<path fill="none" stroke="black" d="M154.936,-448.696C154.504,-435.46 153.9,-416.947 153.402,-401.663"/>
<polygon fill="gray" stroke="black" points="156.886,-401.107 153.062,-391.227 149.89,-401.336 156.886,-401.107"/>
<text text-anchor="middle" x="194.5" y="-415" font-family="times" font-size="20.00">avg_pool</text>
</g>
<!-- 0&#45;&gt;1 -->
<g id="edge4" class="edge"><title>0&#45;&gt;1</title>
<path fill="none" stroke="black" d="M134.416,-367.256C117.099,-362.028 90.9493,-352.276 72.5,-337 62.2853,-328.542 53.6173,-316.753 47.0661,-306.09"/>
<polygon fill="gray" stroke="black" points="49.9108,-304.018 41.8683,-297.121 43.8544,-307.528 49.9108,-304.018"/>
<text text-anchor="middle" x="105.5" y="-321" font-family="times" font-size="20.00">identity</text>
</g>
<!-- 2 -->
<g id="node5" class="node"><title>2</title>
<polygon fill="lightblue" stroke="black" stroke-width="2" points="171.5,-203 135.5,-203 135.5,-167 171.5,-167 171.5,-203"/>
<text text-anchor="middle" x="153.5" y="-180" font-family="times" font-size="20.00">2</text>
</g>
<!-- 0&#45;&gt;2 -->
<g id="edge6" class="edge"><title>0&#45;&gt;2</title>
<path fill="none" stroke="black" d="M152.592,-354.835C152.766,-322.446 153.145,-252.087 153.354,-213.2"/>
<polygon fill="gray" stroke="black" points="156.854,-213.142 153.408,-203.124 149.854,-213.105 156.854,-213.142"/>
<text text-anchor="middle" x="195.5" y="-274" font-family="times" font-size="20.00">dep_conv</text>
</g>
<!-- c_{k} -->
<g id="node7" class="node"><title>c_{k}</title>
<polygon fill="palegoldenrod" stroke="black" stroke-width="2" points="166.5,-36 100.5,-36 100.5,-0 166.5,-0 166.5,-36"/>
<text text-anchor="middle" x="133.5" y="-13" font-family="times" font-size="20.00">c_{k}</text>
</g>
<!-- 0&#45;&gt;c_{k} -->
<g id="edge9" class="edge"><title>0&#45;&gt;c_{k}</title>
<path fill="none" stroke="black" d="M170.564,-366.697C202.709,-356.023 266.5,-328.704 266.5,-280 266.5,-280 266.5,-280 266.5,-90 266.5,-48.5529 215.613,-31.2151 176.792,-24.0188"/>
<polygon fill="gray" stroke="black" points="177.161,-20.5318 166.718,-22.3226 175.998,-27.4346 177.161,-20.5318"/>
</g>
<!-- 1&#45;&gt;2 -->
<g id="edge5" class="edge"><title>1&#45;&gt;2</title>
<path fill="none" stroke="black" d="M39.2493,-260.754C44.3024,-248.083 52.8456,-231.341 65.5,-221 85.7437,-204.458 97.4173,-213.173 121.5,-203 123.094,-202.327 124.714,-201.602 126.337,-200.845"/>
<polygon fill="gray" stroke="black" points="128.107,-203.874 135.496,-196.28 124.984,-197.608 128.107,-203.874"/>
<text text-anchor="middle" x="102" y="-227" font-family="times" font-size="20.00">dil_conv</text>
</g>
<!-- 3 -->
<g id="node6" class="node"><title>3</title>
<polygon fill="lightblue" stroke="black" stroke-width="2" points="82.5,-109 46.5,-109 46.5,-73 82.5,-73 82.5,-109"/>
<text text-anchor="middle" x="64.5" y="-86" font-family="times" font-size="20.00">3</text>
</g>
<!-- 1&#45;&gt;3 -->
<g id="edge7" class="edge"><title>1&#45;&gt;3</title>
<path fill="none" stroke="black" d="M33.2787,-260.914C33.2902,-238.977 34.3113,-199.826 40.5,-167 43.5776,-150.676 49.1404,-132.952 54.1361,-118.834"/>
<polygon fill="gray" stroke="black" points="57.4885,-119.857 57.6297,-109.263 50.9129,-117.457 57.4885,-119.857"/>
<text text-anchor="middle" x="83.5" y="-180" font-family="times" font-size="20.00">dep_conv</text>
</g>
<!-- 1&#45;&gt;c_{k} -->
<g id="edge10" class="edge"><title>1&#45;&gt;c_{k}</title>
<path fill="none" stroke="black" d="M28.448,-260.986C18.4397,-223.671 0.125724,-133.176 37.5,-73 49.5517,-53.5956 71.2583,-40.5426 90.9857,-32.1385"/>
<polygon fill="gray" stroke="black" points="92.456,-35.3206 100.46,-28.3789 89.8741,-28.8142 92.456,-35.3206"/>
</g>
<!-- 2&#45;&gt;3 -->
<g id="edge8" class="edge"><title>2&#45;&gt;3</title>
<path fill="none" stroke="black" d="M135.496,-173.72C131,-171.353 126.136,-168.958 121.5,-167 97.4173,-156.827 81.0846,-169.99 65.5,-149 59.2819,-140.625 58.014,-129.485 58.6745,-119.277"/>
<polygon fill="gray" stroke="black" points="62.1754,-119.485 59.9341,-109.13 55.2287,-118.623 62.1754,-119.485"/>
<text text-anchor="middle" x="108.5" y="-133" font-family="times" font-size="20.00">dep_conv</text>
</g>
<!-- 2&#45;&gt;c_{k} -->
<g id="edge11" class="edge"><title>2&#45;&gt;c_{k}</title>
<path fill="none" stroke="black" d="M153.477,-166.75C153.319,-155.424 152.836,-140.301 151.5,-127 148.708,-99.2061 143.19,-67.7337 138.996,-45.9646"/>
<polygon fill="gray" stroke="black" points="142.423,-45.2537 137.061,-36.1161 135.555,-46.6033 142.423,-45.2537"/>
</g>
<!-- 3&#45;&gt;c_{k} -->
<g id="edge12" class="edge"><title>3&#45;&gt;c_{k}</title>
<path fill="none" stroke="black" d="M81.203,-72.8129C89.7631,-64.0046 100.336,-53.125 109.731,-43.4584"/>
<polygon fill="gray" stroke="black" points="112.491,-45.6395 116.951,-36.0288 107.471,-40.7609 112.491,-45.6395"/>
</g>
</g>
</svg>
