<?xml version="1.0" encoding="UTF-8" standalone="no"?>
<!DOCTYPE svg PUBLIC "-//W3C//DTD SVG 1.1//EN"
 "http://www.w3.org/Graphics/SVG/1.1/DTD/svg11.dtd">
<!-- Generated by graphviz version 2.38.0 (20140413.2041)
 -->
<!-- Title: %3 Pages: 1 -->
<svg width="808pt" height="399pt"
 viewBox="0.00 0.00 807.50 399.00" xmlns="http://www.w3.org/2000/svg" xmlns:xlink="http://www.w3.org/1999/xlink">
<g id="graph0" class="graph" transform="scale(1 1) rotate(0) translate(4 395)">
<title>%3</title>
<polygon fill="white" stroke="none" points="-4,4 -4,-395 803.5,-395 803.5,4 -4,4"/>
<!-- c_{k&#45;2} -->
<g id="node1" class="node"><title>c_{k&#45;2}</title>
<polygon fill="#b4eeb4" stroke="black" stroke-width="2" points="85,-391 0,-391 0,-355 85,-355 85,-391"/>
<text text-anchor="middle" x="42.5" y="-368" font-family="times" font-size="20.00">c_{k&#45;2}</text>
</g>
<!-- 0 -->
<g id="node3" class="node"><title>0</title>
<polygon fill="lightblue" stroke="black" stroke-width="2" points="188.5,-297 152.5,-297 152.5,-261 188.5,-261 188.5,-297"/>
<text text-anchor="middle" x="170.5" y="-274" font-family="times" font-size="20.00">0</text>
</g>
<!-- c_{k&#45;2}&#45;&gt;0 -->
<g id="edge2" class="edge"><title>c_{k&#45;2}&#45;&gt;0</title>
<path fill="none" stroke="black" d="M37.7939,-354.764C35.5208,-342.428 34.8863,-326.105 43.5,-315 55.5475,-299.468 108.677,-289.014 142.285,-283.821"/>
<polygon fill="gray" stroke="black" points="143.054,-287.246 152.435,-282.321 142.03,-280.321 143.054,-287.246"/>
<text text-anchor="middle" x="94" y="-321" font-family="times" font-size="20.00">att_identity</text>
</g>
<!-- c_{k&#45;1} -->
<g id="node2" class="node"><title>c_{k&#45;1}</title>
<polygon fill="#b4eeb4" stroke="black" stroke-width="2" points="462,-391 377,-391 377,-355 462,-355 462,-391"/>
<text text-anchor="middle" x="419.5" y="-368" font-family="times" font-size="20.00">c_{k&#45;1}</text>
</g>
<!-- c_{k&#45;1}&#45;&gt;0 -->
<g id="edge1" class="edge"><title>c_{k&#45;1}&#45;&gt;0</title>
<path fill="none" stroke="black" d="M376.981,-372.523C312.372,-372.307 194.148,-367.605 167.5,-337 160.472,-328.929 159.908,-317.523 161.605,-307.032"/>
<polygon fill="gray" stroke="black" points="165.08,-307.533 163.899,-297.004 158.257,-305.972 165.08,-307.533"/>
<text text-anchor="middle" x="239.5" y="-321" font-family="times" font-size="20.00">down_sep_conv</text>
</g>
<!-- 1 -->
<g id="node4" class="node"><title>1</title>
<polygon fill="lightblue" stroke="black" stroke-width="2" points="345.5,-203 309.5,-203 309.5,-167 345.5,-167 345.5,-203"/>
<text text-anchor="middle" x="327.5" y="-180" font-family="times" font-size="20.00">1</text>
</g>
<!-- c_{k&#45;1}&#45;&gt;1 -->
<g id="edge4" class="edge"><title>c_{k&#45;1}&#45;&gt;1</title>
<path fill="none" stroke="black" d="M390.423,-355C370.903,-341.855 346.618,-321.744 334.5,-297 321.612,-270.683 321.544,-236.561 323.626,-213.135"/>
<polygon fill="gray" stroke="black" points="327.106,-213.508 324.695,-203.191 320.146,-212.759 327.106,-213.508"/>
<text text-anchor="middle" x="419" y="-274" font-family="times" font-size="20.00">donw_atrous_conv</text>
</g>
<!-- 2 -->
<g id="node5" class="node"><title>2</title>
<polygon fill="lightblue" stroke="black" stroke-width="2" points="391.5,-109 355.5,-109 355.5,-73 391.5,-73 391.5,-109"/>
<text text-anchor="middle" x="373.5" y="-86" font-family="times" font-size="20.00">2</text>
</g>
<!-- c_{k&#45;1}&#45;&gt;2 -->
<g id="edge5" class="edge"><title>c_{k&#45;1}&#45;&gt;2</title>
<path fill="none" stroke="black" d="M449.141,-354.864C468.585,-341.782 492.395,-321.802 503.5,-297 510.038,-282.397 505.258,-276.903 503.5,-261 496.793,-200.34 514.071,-172.592 473.5,-127 455.238,-106.478 424.25,-97.9887 401.599,-94.477"/>
<polygon fill="gray" stroke="black" points="401.919,-90.9891 391.548,-93.1551 401.006,-97.9293 401.919,-90.9891"/>
<text text-anchor="middle" x="573.5" y="-227" font-family="times" font-size="20.00">down_sep_conv</text>
</g>
<!-- 3 -->
<g id="node6" class="node"><title>3</title>
<polygon fill="lightblue" stroke="black" stroke-width="2" points="560.5,-109 524.5,-109 524.5,-73 560.5,-73 560.5,-109"/>
<text text-anchor="middle" x="542.5" y="-86" font-family="times" font-size="20.00">3</text>
</g>
<!-- c_{k&#45;1}&#45;&gt;3 -->
<g id="edge8" class="edge"><title>c_{k&#45;1}&#45;&gt;3</title>
<path fill="none" stroke="black" d="M462.261,-362.43C517.273,-347.532 610.392,-312.926 649.5,-243 678.515,-191.12 609.709,-135.362 569.316,-108.427"/>
<polygon fill="gray" stroke="black" points="570.986,-105.338 560.693,-102.825 567.172,-111.208 570.986,-105.338"/>
<text text-anchor="middle" x="727.5" y="-227" font-family="times" font-size="20.00">down_sep_conv</text>
</g>
<!-- 0&#45;&gt;1 -->
<g id="edge3" class="edge"><title>0&#45;&gt;1</title>
<path fill="none" stroke="black" d="M188.749,-266.652C207.599,-254.997 237.928,-236.43 264.5,-221 276.25,-214.177 289.368,-206.845 300.578,-200.663"/>
<polygon fill="gray" stroke="black" points="302.395,-203.658 309.475,-195.777 299.025,-197.523 302.395,-203.658"/>
<text text-anchor="middle" x="285.5" y="-227" font-family="times" font-size="20.00">conv</text>
</g>
<!-- c_{k} -->
<g id="node7" class="node"><title>c_{k}</title>
<polygon fill="palegoldenrod" stroke="black" stroke-width="2" points="377.5,-36 311.5,-36 311.5,-0 377.5,-0 377.5,-36"/>
<text text-anchor="middle" x="344.5" y="-13" font-family="times" font-size="20.00">c_{k}</text>
</g>
<!-- 0&#45;&gt;c_{k} -->
<g id="edge9" class="edge"><title>0&#45;&gt;c_{k}</title>
<path fill="none" stroke="black" d="M182.187,-260.604C212.151,-216.002 291.839,-97.386 327.192,-44.7633"/>
<polygon fill="gray" stroke="black" points="330.193,-46.5727 332.864,-36.3202 324.382,-42.6691 330.193,-46.5727"/>
</g>
<!-- 1&#45;&gt;2 -->
<g id="edge6" class="edge"><title>1&#45;&gt;2</title>
<path fill="none" stroke="black" d="M336.152,-166.696C342.963,-153.074 352.568,-133.864 360.332,-118.336"/>
<polygon fill="gray" stroke="black" points="363.545,-119.736 364.887,-109.227 357.284,-116.606 363.545,-119.736"/>
<text text-anchor="middle" x="413" y="-133" font-family="times" font-size="20.00">shuffle_conv</text>
</g>
<!-- 1&#45;&gt;3 -->
<g id="edge7" class="edge"><title>1&#45;&gt;3</title>
<path fill="none" stroke="black" d="M345.933,-182.281C374.553,-179.032 430.819,-170.299 473.5,-149 490.194,-140.669 506.409,-127.613 518.92,-116.097"/>
<polygon fill="gray" stroke="black" points="521.361,-118.606 526.203,-109.182 516.541,-113.529 521.361,-118.606"/>
<text text-anchor="middle" x="526.5" y="-133" font-family="times" font-size="20.00">conv</text>
</g>
<!-- 1&#45;&gt;c_{k} -->
<g id="edge10" class="edge"><title>1&#45;&gt;c_{k}</title>
<path fill="none" stroke="black" d="M329.255,-166.964C332.195,-138.433 338.138,-80.7517 341.673,-46.4425"/>
<polygon fill="gray" stroke="black" points="345.185,-46.497 342.729,-36.1909 338.222,-45.7796 345.185,-46.497"/>
</g>
<!-- 2&#45;&gt;c_{k} -->
<g id="edge11" class="edge"><title>2&#45;&gt;c_{k}</title>
<path fill="none" stroke="black" d="M366.48,-72.8129C363.132,-64.6151 359.05,-54.6231 355.318,-45.4847"/>
<polygon fill="gray" stroke="black" points="358.477,-43.9629 351.455,-36.0288 351.997,-46.6099 358.477,-43.9629"/>
</g>
<!-- 3&#45;&gt;c_{k} -->
<g id="edge12" class="edge"><title>3&#45;&gt;c_{k}</title>
<path fill="none" stroke="black" d="M524.228,-83.4478C493.319,-72.3644 429.928,-49.6332 387.309,-34.3505"/>
<polygon fill="gray" stroke="black" points="388.347,-31.0047 377.752,-30.9238 385.984,-37.5939 388.347,-31.0047"/>
</g>
</g>
</svg>
