<?xml version="1.0" encoding="UTF-8" standalone="no"?>
<!DOCTYPE svg PUBLIC "-//W3C//DTD SVG 1.1//EN"
 "http://www.w3.org/Graphics/SVG/1.1/DTD/svg11.dtd">
<!-- Generated by graphviz version 2.38.0 (20140413.2041)
 -->
<!-- Title: %3 Pages: 1 -->
<svg width="512pt" height="493pt"
 viewBox="0.00 0.00 511.50 493.00" xmlns="http://www.w3.org/2000/svg" xmlns:xlink="http://www.w3.org/1999/xlink">
<g id="graph0" class="graph" transform="scale(1 1) rotate(0) translate(4 489)">
<title>%3</title>
<polygon fill="white" stroke="none" points="-4,4 -4,-489 507.5,-489 507.5,4 -4,4"/>
<!-- c_{k&#45;2} -->
<g id="node1" class="node"><title>c_{k&#45;2}</title>
<polygon fill="#b4eeb4" stroke="black" stroke-width="2" points="85,-485 0,-485 0,-449 85,-449 85,-485"/>
<text text-anchor="middle" x="42.5" y="-462" font-family="times" font-size="20.00">c_{k&#45;2}</text>
</g>
<!-- 0 -->
<g id="node3" class="node"><title>0</title>
<polygon fill="lightblue" stroke="black" stroke-width="2" points="180.5,-391 144.5,-391 144.5,-355 180.5,-355 180.5,-391"/>
<text text-anchor="middle" x="162.5" y="-368" font-family="times" font-size="20.00">0</text>
</g>
<!-- c_{k&#45;2}&#45;&gt;0 -->
<g id="edge2" class="edge"><title>c_{k&#45;2}&#45;&gt;0</title>
<path fill="none" stroke="black" d="M37.8507,-448.807C35.6058,-436.494 34.9818,-420.179 43.5,-409 64.4711,-381.479 105.994,-374.717 134.01,-373.497"/>
<polygon fill="gray" stroke="black" points="134.453,-376.988 144.373,-373.268 134.298,-369.99 134.453,-376.988"/>
<text text-anchor="middle" x="94" y="-415" font-family="times" font-size="20.00">att_identity</text>
</g>
<!-- c_{k&#45;1} -->
<g id="node2" class="node"><title>c_{k&#45;1}</title>
<polygon fill="#b4eeb4" stroke="black" stroke-width="2" points="335,-485 250,-485 250,-449 335,-449 335,-485"/>
<text text-anchor="middle" x="292.5" y="-462" font-family="times" font-size="20.00">c_{k&#45;1}</text>
</g>
<!-- c_{k&#45;1}&#45;&gt;0 -->
<g id="edge1" class="edge"><title>c_{k&#45;1}&#45;&gt;0</title>
<path fill="none" stroke="black" d="M249.968,-465.801C222.131,-463.234 187.359,-454.933 167.5,-431 160.767,-422.886 158.758,-411.703 158.712,-401.39"/>
<polygon fill="gray" stroke="black" points="162.222,-401.296 159.26,-391.123 155.232,-400.923 162.222,-401.296"/>
<text text-anchor="middle" x="223" y="-415" font-family="times" font-size="20.00">up_att_conv</text>
</g>
<!-- 1 -->
<g id="node4" class="node"><title>1</title>
<polygon fill="lightblue" stroke="black" stroke-width="2" points="257.5,-297 221.5,-297 221.5,-261 257.5,-261 257.5,-297"/>
<text text-anchor="middle" x="239.5" y="-274" font-family="times" font-size="20.00">1</text>
</g>
<!-- c_{k&#45;1}&#45;&gt;1 -->
<g id="edge4" class="edge"><title>c_{k&#45;1}&#45;&gt;1</title>
<path fill="none" stroke="black" d="M289.411,-448.941C284.046,-420.645 271.983,-362.42 255.5,-315 254.533,-312.219 253.426,-309.359 252.254,-306.529"/>
<polygon fill="gray" stroke="black" points="255.37,-304.922 248.135,-297.182 248.965,-307.744 255.37,-304.922"/>
<text text-anchor="middle" x="314.5" y="-368" font-family="times" font-size="20.00">up_conv</text>
</g>
<!-- 2 -->
<g id="node5" class="node"><title>2</title>
<polygon fill="lightblue" stroke="black" stroke-width="2" points="362.5,-203 326.5,-203 326.5,-167 362.5,-167 362.5,-203"/>
<text text-anchor="middle" x="344.5" y="-180" font-family="times" font-size="20.00">2</text>
</g>
<!-- c_{k&#45;1}&#45;&gt;2 -->
<g id="edge5" class="edge"><title>c_{k&#45;1}&#45;&gt;2</title>
<path fill="none" stroke="black" d="M311.734,-448.803C326.28,-434.703 345.558,-413.468 356.5,-391 390.093,-322.022 419.042,-290.48 386.5,-221 382.99,-213.506 376.999,-207.057 370.624,-201.81"/>
<polygon fill="gray" stroke="black" points="372.628,-198.938 362.502,-195.819 368.472,-204.572 372.628,-198.938"/>
<text text-anchor="middle" x="448" y="-321" font-family="times" font-size="20.00">up_att_conv</text>
</g>
<!-- 0&#45;&gt;1 -->
<g id="edge3" class="edge"><title>0&#45;&gt;1</title>
<path fill="none" stroke="black" d="M176.983,-354.696C188.706,-340.689 205.375,-320.772 218.553,-305.027"/>
<polygon fill="gray" stroke="black" points="221.348,-307.142 225.082,-297.227 215.98,-302.649 221.348,-307.142"/>
<text text-anchor="middle" x="230.5" y="-321" font-family="times" font-size="20.00">conv</text>
</g>
<!-- c_{k} -->
<g id="node7" class="node"><title>c_{k}</title>
<polygon fill="palegoldenrod" stroke="black" stroke-width="2" points="244.5,-36 178.5,-36 178.5,-0 244.5,-0 244.5,-36"/>
<text text-anchor="middle" x="211.5" y="-13" font-family="times" font-size="20.00">c_{k}</text>
</g>
<!-- 0&#45;&gt;c_{k} -->
<g id="edge9" class="edge"><title>0&#45;&gt;c_{k}</title>
<path fill="none" stroke="black" d="M160.4,-354.734C158.338,-336.268 155.5,-306.11 155.5,-280 155.5,-280 155.5,-280 155.5,-90 155.5,-71.7584 167.037,-55.4491 179.638,-43.076"/>
<polygon fill="gray" stroke="black" points="182.076,-45.5887 187.1,-36.2609 177.356,-40.4197 182.076,-45.5887"/>
</g>
<!-- 1&#45;&gt;2 -->
<g id="edge6" class="edge"><title>1&#45;&gt;2</title>
<path fill="none" stroke="black" d="M246.57,-260.76C252.332,-248.423 261.478,-232.099 273.5,-221 285.851,-209.598 302.607,-201.102 316.74,-195.337"/>
<polygon fill="gray" stroke="black" points="318.375,-198.459 326.467,-191.62 315.876,-191.921 318.375,-198.459"/>
<text text-anchor="middle" x="330" y="-227" font-family="times" font-size="20.00">shuffle_conv</text>
</g>
<!-- 3 -->
<g id="node6" class="node"><title>3</title>
<polygon fill="lightblue" stroke="black" stroke-width="2" points="257.5,-109 221.5,-109 221.5,-73 257.5,-73 257.5,-109"/>
<text text-anchor="middle" x="239.5" y="-86" font-family="times" font-size="20.00">3</text>
</g>
<!-- 1&#45;&gt;3 -->
<g id="edge7" class="edge"><title>1&#45;&gt;3</title>
<path fill="none" stroke="black" d="M239.5,-260.835C239.5,-228.446 239.5,-158.087 239.5,-119.2"/>
<polygon fill="gray" stroke="black" points="243,-119.124 239.5,-109.124 236,-119.124 243,-119.124"/>
<text text-anchor="middle" x="260.5" y="-180" font-family="times" font-size="20.00">conv</text>
</g>
<!-- 1&#45;&gt;c_{k} -->
<g id="edge10" class="edge"><title>1&#45;&gt;c_{k}</title>
<path fill="none" stroke="black" d="M235.897,-260.83C229.705,-230.404 217.255,-164.955 212.5,-109 210.717,-88.0135 210.534,-64.1766 210.761,-46.3087"/>
<polygon fill="gray" stroke="black" points="214.261,-46.3502 210.939,-36.2897 207.262,-46.2261 214.261,-46.3502"/>
</g>
<!-- 2&#45;&gt;3 -->
<g id="edge8" class="edge"><title>2&#45;&gt;3</title>
<path fill="none" stroke="black" d="M326.467,-178.38C311.001,-172.852 288.848,-163.169 273.5,-149 264.295,-140.502 256.777,-128.942 251.172,-118.453"/>
<polygon fill="gray" stroke="black" points="254.17,-116.622 246.57,-109.24 247.908,-119.75 254.17,-116.622"/>
<text text-anchor="middle" x="315.5" y="-133" font-family="times" font-size="20.00">sep_conv</text>
</g>
<!-- 2&#45;&gt;c_{k} -->
<g id="edge11" class="edge"><title>2&#45;&gt;c_{k}</title>
<path fill="none" stroke="black" d="M354.259,-166.805C359.535,-155.094 363.805,-139.507 357.5,-127 335.937,-84.2286 288.548,-54.1867 253.581,-36.8291"/>
<polygon fill="gray" stroke="black" points="255.06,-33.6571 244.531,-32.4796 252.028,-39.9662 255.06,-33.6571"/>
</g>
<!-- 3&#45;&gt;c_{k} -->
<g id="edge12" class="edge"><title>3&#45;&gt;c_{k}</title>
<path fill="none" stroke="black" d="M232.722,-72.8129C229.489,-64.6151 225.549,-54.6231 221.945,-45.4847"/>
<polygon fill="gray" stroke="black" points="225.14,-44.0475 218.216,-36.0288 218.628,-46.6156 225.14,-44.0475"/>
</g>
</g>
</svg>
