<?xml version="1.0" encoding="UTF-8" standalone="no"?>
<!DOCTYPE svg PUBLIC "-//W3C//DTD SVG 1.1//EN"
 "http://www.w3.org/Graphics/SVG/1.1/DTD/svg11.dtd">
<!-- Generated by graphviz version 2.38.0 (20140413.2041)
 -->
<!-- Title: %3 Pages: 1 -->
<svg width="350pt" height="493pt"
 viewBox="0.00 0.00 349.50 493.00" xmlns="http://www.w3.org/2000/svg" xmlns:xlink="http://www.w3.org/1999/xlink">
<g id="graph0" class="graph" transform="scale(1 1) rotate(0) translate(4 489)">
<title>%3</title>
<polygon fill="white" stroke="none" points="-4,4 -4,-489 345.5,-489 345.5,4 -4,4"/>
<!-- c_{k&#45;2} -->
<g id="node1" class="node"><title>c_{k&#45;2}</title>
<polygon fill="#b4eeb4" stroke="black" stroke-width="2" points="85,-485 0,-485 0,-449 85,-449 85,-485"/>
<text text-anchor="middle" x="42.5" y="-462" font-family="times" font-size="20.00">c_{k&#45;2}</text>
</g>
<!-- 0 -->
<g id="node3" class="node"><title>0</title>
<polygon fill="lightblue" stroke="black" stroke-width="2" points="196.5,-391 160.5,-391 160.5,-355 196.5,-355 196.5,-391"/>
<text text-anchor="middle" x="178.5" y="-368" font-family="times" font-size="20.00">0</text>
</g>
<!-- c_{k&#45;2}&#45;&gt;0 -->
<g id="edge2" class="edge"><title>c_{k&#45;2}&#45;&gt;0</title>
<path fill="none" stroke="black" d="M47.0349,-448.813C51.29,-436.002 58.9233,-419.051 71.5,-409 96.9308,-388.677 111.861,-402.001 142.5,-391 145.399,-389.959 148.379,-388.765 151.325,-387.504"/>
<polygon fill="gray" stroke="black" points="152.819,-390.669 160.475,-383.346 149.923,-384.297 152.819,-390.669"/>
<text text-anchor="middle" x="122" y="-415" font-family="times" font-size="20.00">att_identity</text>
</g>
<!-- 1 -->
<g id="node4" class="node"><title>1</title>
<polygon fill="lightblue" stroke="black" stroke-width="2" points="87.5,-297 51.5,-297 51.5,-261 87.5,-261 87.5,-297"/>
<text text-anchor="middle" x="69.5" y="-274" font-family="times" font-size="20.00">1</text>
</g>
<!-- c_{k&#45;2}&#45;&gt;1 -->
<g id="edge4" class="edge"><title>c_{k&#45;2}&#45;&gt;1</title>
<path fill="none" stroke="black" d="M39.4627,-448.881C36.1145,-426.909 32.004,-387.722 38.5,-355 41.8436,-338.157 49.0297,-320.353 55.6418,-306.32"/>
<polygon fill="gray" stroke="black" points="58.8209,-307.786 60.0734,-297.265 52.5336,-304.708 58.8209,-307.786"/>
<text text-anchor="middle" x="95" y="-368" font-family="times" font-size="20.00">shuffle_conv</text>
</g>
<!-- c_{k&#45;1} -->
<g id="node2" class="node"><title>c_{k&#45;1}</title>
<polygon fill="#b4eeb4" stroke="black" stroke-width="2" points="274,-485 189,-485 189,-449 274,-449 274,-485"/>
<text text-anchor="middle" x="231.5" y="-462" font-family="times" font-size="20.00">c_{k&#45;1}</text>
</g>
<!-- c_{k&#45;1}&#45;&gt;0 -->
<g id="edge1" class="edge"><title>c_{k&#45;1}&#45;&gt;0</title>
<path fill="none" stroke="black" d="M199.891,-448.927C193.457,-443.99 187.456,-438.005 183.5,-431 178.477,-422.107 176.683,-411.164 176.333,-401.251"/>
<polygon fill="gray" stroke="black" points="179.835,-401.08 176.437,-391.045 172.835,-401.009 179.835,-401.08"/>
<text text-anchor="middle" x="225.5" y="-415" font-family="times" font-size="20.00">sep_conv</text>
</g>
<!-- 2 -->
<g id="node5" class="node"><title>2</title>
<polygon fill="lightblue" stroke="black" stroke-width="2" points="188.5,-203 152.5,-203 152.5,-167 188.5,-167 188.5,-203"/>
<text text-anchor="middle" x="170.5" y="-180" font-family="times" font-size="20.00">2</text>
</g>
<!-- c_{k&#45;1}&#45;&gt;2 -->
<g id="edge5" class="edge"><title>c_{k&#45;1}&#45;&gt;2</title>
<path fill="none" stroke="black" d="M254.557,-448.966C259.795,-443.832 264.65,-437.745 267.5,-431 276.153,-410.518 270.775,-400.696 253.5,-315 244.98,-272.732 255.342,-255.516 229.5,-221 221.47,-210.275 209.103,-202.217 197.763,-196.553"/>
<polygon fill="gray" stroke="black" points="199.144,-193.336 188.595,-192.353 196.229,-199.7 199.144,-193.336"/>
<text text-anchor="middle" x="299.5" y="-321" font-family="times" font-size="20.00">sep_conv</text>
</g>
<!-- 0&#45;&gt;1 -->
<g id="edge3" class="edge"><title>0&#45;&gt;1</title>
<path fill="none" stroke="black" d="M160.01,-356.393C142.286,-341.434 115.367,-318.713 95.4896,-301.936"/>
<polygon fill="gray" stroke="black" points="97.6167,-299.151 87.7173,-295.376 93.1016,-304.501 97.6167,-299.151"/>
<text text-anchor="middle" x="157.5" y="-321" font-family="times" font-size="20.00">conv</text>
</g>
<!-- c_{k} -->
<g id="node7" class="node"><title>c_{k}</title>
<polygon fill="palegoldenrod" stroke="black" stroke-width="2" points="203.5,-36 137.5,-36 137.5,-0 203.5,-0 203.5,-36"/>
<text text-anchor="middle" x="170.5" y="-13" font-family="times" font-size="20.00">c_{k}</text>
</g>
<!-- 0&#45;&gt;c_{k} -->
<g id="edge9" class="edge"><title>0&#45;&gt;c_{k}</title>
<path fill="none" stroke="black" d="M196.802,-356.765C214.77,-339.994 239.5,-311.238 239.5,-280 239.5,-280 239.5,-280 239.5,-90 239.5,-70.4214 225.84,-54.2092 210.675,-42.2439"/>
<polygon fill="gray" stroke="black" points="212.314,-39.1069 202.173,-36.039 208.187,-44.7612 212.314,-39.1069"/>
</g>
<!-- 1&#45;&gt;2 -->
<g id="edge6" class="edge"><title>1&#45;&gt;2</title>
<path fill="none" stroke="black" d="M79.8774,-260.912C87.7931,-248.807 99.5192,-232.704 112.5,-221 121.662,-212.739 133.053,-205.372 143.308,-199.553"/>
<polygon fill="gray" stroke="black" points="145.194,-202.512 152.311,-194.663 141.853,-196.361 145.194,-202.512"/>
<text text-anchor="middle" x="169" y="-227" font-family="times" font-size="20.00">shuffle_conv</text>
</g>
<!-- 3 -->
<g id="node6" class="node"><title>3</title>
<polygon fill="lightblue" stroke="black" stroke-width="2" points="120.5,-109 84.5,-109 84.5,-73 120.5,-73 120.5,-109"/>
<text text-anchor="middle" x="102.5" y="-86" font-family="times" font-size="20.00">3</text>
</g>
<!-- 1&#45;&gt;3 -->
<g id="edge7" class="edge"><title>1&#45;&gt;3</title>
<path fill="none" stroke="black" d="M71.4139,-260.659C74.6904,-232.444 82.0467,-174.931 92.5,-127 93.0538,-124.461 93.6877,-121.834 94.3617,-119.214"/>
<polygon fill="gray" stroke="black" points="97.8012,-119.906 97.0753,-109.336 91.0512,-118.052 97.8012,-119.906"/>
<text text-anchor="middle" x="105.5" y="-180" font-family="times" font-size="20.00">conv</text>
</g>
<!-- 1&#45;&gt;c_{k} -->
<g id="edge10" class="edge"><title>1&#45;&gt;c_{k}</title>
<path fill="none" stroke="black" d="M64.7064,-260.754C55.3729,-223.365 38.7257,-133.356 75.5,-73 87.2065,-53.7866 108.454,-40.7859 127.891,-32.3651"/>
<polygon fill="gray" stroke="black" points="129.275,-35.581 137.238,-28.592 126.655,-29.0899 129.275,-35.581"/>
</g>
<!-- 2&#45;&gt;3 -->
<g id="edge8" class="edge"><title>2&#45;&gt;3</title>
<path fill="none" stroke="black" d="M152.435,-180.036C136.499,-175.485 114.192,-166.304 103.5,-149 98.1512,-140.343 96.9374,-129.446 97.4,-119.505"/>
<polygon fill="gray" stroke="black" points="100.914,-119.546 98.4435,-109.243 93.9497,-118.838 100.914,-119.546"/>
<text text-anchor="middle" x="145.5" y="-133" font-family="times" font-size="20.00">sep_conv</text>
</g>
<!-- 2&#45;&gt;c_{k} -->
<g id="edge11" class="edge"><title>2&#45;&gt;c_{k}</title>
<path fill="none" stroke="black" d="M180.776,-166.769C183.52,-161.28 186.107,-155.057 187.5,-149 195.608,-113.751 187.1,-72.1725 179.48,-45.7041"/>
<polygon fill="gray" stroke="black" points="182.791,-44.5619 176.534,-36.0124 176.094,-46.5981 182.791,-44.5619"/>
</g>
<!-- 3&#45;&gt;c_{k} -->
<g id="edge12" class="edge"><title>3&#45;&gt;c_{k}</title>
<path fill="none" stroke="black" d="M118.961,-72.8129C127.397,-64.0046 137.817,-53.125 147.075,-43.4584"/>
<polygon fill="gray" stroke="black" points="149.802,-45.6718 154.191,-36.0288 144.746,-40.83 149.802,-45.6718"/>
</g>
</g>
</svg>
