<?xml version="1.0" encoding="UTF-8" standalone="no"?>
<!DOCTYPE svg PUBLIC "-//W3C//DTD SVG 1.1//EN"
 "http://www.w3.org/Graphics/SVG/1.1/DTD/svg11.dtd">
<!-- Generated by graphviz version 2.38.0 (20140413.2041)
 -->
<!-- Title: %3 Pages: 1 -->
<svg width="605pt" height="493pt"
 viewBox="0.00 0.00 604.50 493.00" xmlns="http://www.w3.org/2000/svg" xmlns:xlink="http://www.w3.org/1999/xlink">
<g id="graph0" class="graph" transform="scale(1 1) rotate(0) translate(4 489)">
<title>%3</title>
<polygon fill="white" stroke="none" points="-4,4 -4,-489 600.5,-489 600.5,4 -4,4"/>
<!-- c_{k&#45;2} -->
<g id="node1" class="node"><title>c_{k&#45;2}</title>
<polygon fill="#b4eeb4" stroke="black" stroke-width="2" points="85,-485 0,-485 0,-449 85,-449 85,-485"/>
<text text-anchor="middle" x="42.5" y="-462" font-family="times" font-size="20.00">c_{k&#45;2}</text>
</g>
<!-- 0 -->
<g id="node3" class="node"><title>0</title>
<polygon fill="lightblue" stroke="black" stroke-width="2" points="174.5,-391 138.5,-391 138.5,-355 174.5,-355 174.5,-391"/>
<text text-anchor="middle" x="156.5" y="-368" font-family="times" font-size="20.00">0</text>
</g>
<!-- c_{k&#45;2}&#45;&gt;0 -->
<g id="edge2" class="edge"><title>c_{k&#45;2}&#45;&gt;0</title>
<path fill="none" stroke="black" d="M37.8984,-448.844C35.6772,-436.548 35.062,-420.239 43.5,-409 63.0073,-383.017 101.559,-375.781 128.167,-374.045"/>
<polygon fill="gray" stroke="black" points="128.563,-377.531 138.404,-373.606 128.263,-370.538 128.563,-377.531"/>
<text text-anchor="middle" x="100" y="-415" font-family="times" font-size="20.00">shuffle_conv</text>
</g>
<!-- c_{k&#45;1} -->
<g id="node2" class="node"><title>c_{k&#45;1}</title>
<polygon fill="#b4eeb4" stroke="black" stroke-width="2" points="373,-485 288,-485 288,-449 373,-449 373,-485"/>
<text text-anchor="middle" x="330.5" y="-462" font-family="times" font-size="20.00">c_{k&#45;1}</text>
</g>
<!-- c_{k&#45;1}&#45;&gt;0 -->
<g id="edge1" class="edge"><title>c_{k&#45;1}&#45;&gt;0</title>
<path fill="none" stroke="black" d="M287.699,-466.331C254.581,-464.382 209.461,-456.623 179.5,-431 170.589,-423.379 165.09,-411.799 161.716,-401.062"/>
<polygon fill="gray" stroke="black" points="165.042,-399.949 159.09,-391.184 158.277,-401.747 165.042,-399.949"/>
<text text-anchor="middle" x="248" y="-415" font-family="times" font-size="20.00">down_att_conv</text>
</g>
<!-- 1 -->
<g id="node4" class="node"><title>1</title>
<polygon fill="lightblue" stroke="black" stroke-width="2" points="335.5,-297 299.5,-297 299.5,-261 335.5,-261 335.5,-297"/>
<text text-anchor="middle" x="317.5" y="-274" font-family="times" font-size="20.00">1</text>
</g>
<!-- c_{k&#45;1}&#45;&gt;1 -->
<g id="edge3" class="edge"><title>c_{k&#45;1}&#45;&gt;1</title>
<path fill="none" stroke="black" d="M329.3,-448.835C327.037,-416.446 322.119,-346.087 319.401,-307.2"/>
<polygon fill="gray" stroke="black" points="322.886,-306.855 318.697,-297.124 315.903,-307.343 322.886,-306.855"/>
<text text-anchor="middle" x="375.5" y="-368" font-family="times" font-size="20.00">down_conv</text>
</g>
<!-- 2 -->
<g id="node5" class="node"><title>2</title>
<polygon fill="lightblue" stroke="black" stroke-width="2" points="369.5,-203 333.5,-203 333.5,-167 369.5,-167 369.5,-203"/>
<text text-anchor="middle" x="351.5" y="-180" font-family="times" font-size="20.00">2</text>
</g>
<!-- c_{k&#45;1}&#45;&gt;2 -->
<g id="edge5" class="edge"><title>c_{k&#45;1}&#45;&gt;2</title>
<path fill="none" stroke="black" d="M365.859,-448.723C388.113,-435.936 415.391,-416.353 430.5,-391 464.544,-333.874 447.598,-309.32 452.5,-243 453.221,-233.249 458.17,-228.966 452.5,-221 436.168,-198.056 403.707,-190.015 379.978,-187.271"/>
<polygon fill="gray" stroke="black" points="380.054,-183.764 369.779,-186.348 379.423,-190.735 380.054,-183.764"/>
<text text-anchor="middle" x="524.5" y="-321" font-family="times" font-size="20.00">down_sep_conv</text>
</g>
<!-- 0&#45;&gt;1 -->
<g id="edge4" class="edge"><title>0&#45;&gt;1</title>
<path fill="none" stroke="black" d="M168.026,-354.782C177.318,-342.127 191.448,-325.39 207.5,-315 232.739,-298.663 266.174,-289.453 289.531,-284.629"/>
<polygon fill="gray" stroke="black" points="290.33,-288.039 299.487,-282.711 289.006,-281.166 290.33,-288.039"/>
<text text-anchor="middle" x="262" y="-321" font-family="times" font-size="20.00">atrous_conv</text>
</g>
<!-- 3 -->
<g id="node6" class="node"><title>3</title>
<polygon fill="lightblue" stroke="black" stroke-width="2" points="207.5,-109 171.5,-109 171.5,-73 207.5,-73 207.5,-109"/>
<text text-anchor="middle" x="189.5" y="-86" font-family="times" font-size="20.00">3</text>
</g>
<!-- 0&#45;&gt;3 -->
<g id="edge7" class="edge"><title>0&#45;&gt;3</title>
<path fill="none" stroke="black" d="M158.515,-354.906C164.049,-307.946 179.523,-176.654 186.277,-119.343"/>
<polygon fill="gray" stroke="black" points="189.775,-119.567 187.47,-109.226 182.823,-118.747 189.775,-119.567"/>
<text text-anchor="middle" x="195.5" y="-227" font-family="times" font-size="20.00">conv</text>
</g>
<!-- c_{k} -->
<g id="node7" class="node"><title>c_{k}</title>
<polygon fill="palegoldenrod" stroke="black" stroke-width="2" points="302.5,-36 236.5,-36 236.5,-0 302.5,-0 302.5,-36"/>
<text text-anchor="middle" x="269.5" y="-13" font-family="times" font-size="20.00">c_{k}</text>
</g>
<!-- 0&#45;&gt;c_{k} -->
<g id="edge9" class="edge"><title>0&#45;&gt;c_{k}</title>
<path fill="none" stroke="black" d="M144.685,-354.889C133.53,-337.038 118.5,-307.823 118.5,-280 118.5,-280 118.5,-280 118.5,-90 118.5,-42.0278 181.686,-26.4099 226.311,-21.3617"/>
<polygon fill="gray" stroke="black" points="226.757,-24.8347 236.362,-20.3642 226.066,-17.869 226.757,-24.8347"/>
</g>
<!-- 1&#45;&gt;2 -->
<g id="edge6" class="edge"><title>1&#45;&gt;2</title>
<path fill="none" stroke="black" d="M323.895,-260.696C328.882,-247.203 335.895,-228.226 341.604,-212.777"/>
<polygon fill="gray" stroke="black" points="344.95,-213.82 345.134,-203.227 338.384,-211.394 344.95,-213.82"/>
<text text-anchor="middle" x="395" y="-227" font-family="times" font-size="20.00">shuffle_conv</text>
</g>
<!-- 1&#45;&gt;c_{k} -->
<g id="edge10" class="edge"><title>1&#45;&gt;c_{k}</title>
<path fill="none" stroke="black" d="M314.707,-260.759C310.119,-232.685 300.588,-175.366 291.5,-127 286.307,-99.3641 279.827,-67.8683 275.248,-46.0506"/>
<polygon fill="gray" stroke="black" points="278.654,-45.2401 273.167,-36.1769 271.805,-46.6837 278.654,-45.2401"/>
</g>
<!-- 2&#45;&gt;3 -->
<g id="edge8" class="edge"><title>2&#45;&gt;3</title>
<path fill="none" stroke="black" d="M333.452,-182.254C308.733,-179.117 263.845,-170.688 232.5,-149 220.837,-140.93 211.01,-128.688 203.707,-117.615"/>
<polygon fill="gray" stroke="black" points="206.658,-115.732 198.405,-109.088 200.713,-119.428 206.658,-115.732"/>
<text text-anchor="middle" x="283" y="-133" font-family="times" font-size="20.00">att_identity</text>
</g>
<!-- 2&#45;&gt;c_{k} -->
<g id="edge11" class="edge"><title>2&#45;&gt;c_{k}</title>
<path fill="none" stroke="black" d="M351.043,-166.876C349.564,-140.442 343.542,-89.0885 319.5,-54 316.617,-49.792 313.05,-45.929 309.158,-42.43"/>
<polygon fill="gray" stroke="black" points="311.352,-39.7027 301.369,-36.1548 306.96,-45.1539 311.352,-39.7027"/>
</g>
<!-- 3&#45;&gt;c_{k} -->
<g id="edge12" class="edge"><title>3&#45;&gt;c_{k}</title>
<path fill="none" stroke="black" d="M207.653,-73.889C217.991,-64.714 231.138,-53.0466 242.649,-42.83"/>
<polygon fill="gray" stroke="black" points="245.147,-45.2929 250.303,-36.0373 240.501,-40.0574 245.147,-45.2929"/>
</g>
</g>
</svg>
