<?xml version="1.0" encoding="UTF-8" standalone="no"?>
<!DOCTYPE svg PUBLIC "-//W3C//DTD SVG 1.1//EN"
 "http://www.w3.org/Graphics/SVG/1.1/DTD/svg11.dtd">
<!-- Generated by graphviz version 2.38.0 (20140413.2041)
 -->
<!-- Title: %3 Pages: 1 -->
<svg width="381pt" height="493pt"
 viewBox="0.00 0.00 381.00 493.00" xmlns="http://www.w3.org/2000/svg" xmlns:xlink="http://www.w3.org/1999/xlink">
<g id="graph0" class="graph" transform="scale(1 1) rotate(0) translate(4 489)">
<title>%3</title>
<polygon fill="white" stroke="none" points="-4,4 -4,-489 377,-489 377,4 -4,4"/>
<!-- c_{k&#45;2} -->
<g id="node1" class="node"><title>c_{k&#45;2}</title>
<polygon fill="#b4eeb4" stroke="black" stroke-width="2" points="187.5,-485 102.5,-485 102.5,-449 187.5,-449 187.5,-485"/>
<text text-anchor="middle" x="145" y="-462" font-family="times" font-size="20.00">c_{k&#45;2}</text>
</g>
<!-- 0 -->
<g id="node3" class="node"><title>0</title>
<polygon fill="lightblue" stroke="black" stroke-width="2" points="85,-391 49,-391 49,-355 85,-355 85,-391"/>
<text text-anchor="middle" x="67" y="-368" font-family="times" font-size="20.00">0</text>
</g>
<!-- c_{k&#45;2}&#45;&gt;0 -->
<g id="edge2" class="edge"><title>c_{k&#45;2}&#45;&gt;0</title>
<path fill="none" stroke="black" d="M102.237,-456.208C89.0315,-450.979 75.8967,-443.03 68,-431 62.3165,-422.341 61.1125,-411.237 61.6755,-401.133"/>
<polygon fill="gray" stroke="black" points="65.1633,-401.435 62.7881,-391.11 58.2061,-400.663 65.1633,-401.435"/>
<text text-anchor="middle" x="124.5" y="-415" font-family="times" font-size="20.00">shuffle_conv</text>
</g>
<!-- 1 -->
<g id="node4" class="node"><title>1</title>
<polygon fill="lightblue" stroke="black" stroke-width="2" points="136,-297 100,-297 100,-261 136,-261 136,-297"/>
<text text-anchor="middle" x="118" y="-274" font-family="times" font-size="20.00">1</text>
</g>
<!-- c_{k&#45;2}&#45;&gt;1 -->
<g id="edge4" class="edge"><title>c_{k&#45;2}&#45;&gt;1</title>
<path fill="none" stroke="black" d="M168.057,-448.966C173.295,-443.832 178.15,-437.745 181,-431 201.064,-383.509 207.145,-359.434 181,-315 173.365,-302.024 158.989,-293.514 145.895,-288.138"/>
<polygon fill="gray" stroke="black" points="146.859,-284.764 136.266,-284.616 144.455,-291.338 146.859,-284.764"/>
<text text-anchor="middle" x="254.5" y="-368" font-family="times" font-size="20.00">shuffle_conv</text>
</g>
<!-- c_{k&#45;1} -->
<g id="node2" class="node"><title>c_{k&#45;1}</title>
<polygon fill="#b4eeb4" stroke="black" stroke-width="2" points="319.5,-485 234.5,-485 234.5,-449 319.5,-449 319.5,-485"/>
<text text-anchor="middle" x="277" y="-462" font-family="times" font-size="20.00">c_{k&#45;1}</text>
</g>
<!-- c_{k&#45;1}&#45;&gt;0 -->
<g id="edge1" class="edge"><title>c_{k&#45;1}&#45;&gt;0</title>
<path fill="none" stroke="black" d="M253.38,-448.913C235.35,-436.49 209.517,-419.993 185,-409 155.447,-395.749 119.524,-385.92 95.1341,-380.106"/>
<polygon fill="gray" stroke="black" points="95.6534,-376.633 85.122,-377.79 94.0762,-383.453 95.6534,-376.633"/>
<text text-anchor="middle" x="280.5" y="-415" font-family="times" font-size="20.00">shuffle_conv</text>
</g>
<!-- 2 -->
<g id="node5" class="node"><title>2</title>
<polygon fill="lightblue" stroke="black" stroke-width="2" points="202,-203 166,-203 166,-167 202,-167 202,-203"/>
<text text-anchor="middle" x="184" y="-180" font-family="times" font-size="20.00">2</text>
</g>
<!-- c_{k&#45;1}&#45;&gt;2 -->
<g id="edge6" class="edge"><title>c_{k&#45;1}&#45;&gt;2</title>
<path fill="none" stroke="black" d="M319.819,-450.897C328.255,-445.896 336.027,-439.388 341,-431 345.987,-422.589 342.643,-418.639 341,-409 326.122,-321.704 336.686,-284.536 275,-221 258.232,-203.729 232.012,-194.846 212.015,-190.361"/>
<polygon fill="gray" stroke="black" points="212.702,-186.929 202.209,-188.395 211.326,-193.792 212.702,-186.929"/>
<text text-anchor="middle" x="352" y="-321" font-family="times" font-size="20.00">conv</text>
</g>
<!-- 0&#45;&gt;1 -->
<g id="edge3" class="edge"><title>0&#45;&gt;1</title>
<path fill="none" stroke="black" d="M65.0129,-354.998C64.4187,-343.084 65.2845,-327.179 72,-315 76.458,-306.915 83.6527,-300.121 91.0414,-294.734"/>
<polygon fill="gray" stroke="black" points="93.2252,-297.487 99.6518,-289.064 89.3751,-291.641 93.2252,-297.487"/>
<text text-anchor="middle" x="126.5" y="-321" font-family="times" font-size="20.00">atrous_conv</text>
</g>
<!-- 3 -->
<g id="node6" class="node"><title>3</title>
<polygon fill="lightblue" stroke="black" stroke-width="2" points="159,-109 123,-109 123,-73 159,-73 159,-109"/>
<text text-anchor="middle" x="141" y="-86" font-family="times" font-size="20.00">3</text>
</g>
<!-- 0&#45;&gt;3 -->
<g id="edge7" class="edge"><title>0&#45;&gt;3</title>
<path fill="none" stroke="black" d="M64.0715,-354.962C63.2253,-349.269 62.4177,-342.878 62,-337 58.3343,-285.42 55.9008,-270.457 71,-221 82.6626,-182.8 106.287,-143.016 122.853,-117.909"/>
<polygon fill="gray" stroke="black" points="125.929,-119.606 128.601,-109.354 120.119,-115.702 125.929,-119.606"/>
<text text-anchor="middle" x="92" y="-227" font-family="times" font-size="20.00">conv</text>
</g>
<!-- c_{k} -->
<g id="node7" class="node"><title>c_{k}</title>
<polygon fill="palegoldenrod" stroke="black" stroke-width="2" points="146,-36 80,-36 80,-0 146,-0 146,-36"/>
<text text-anchor="middle" x="113" y="-13" font-family="times" font-size="20.00">c_{k}</text>
</g>
<!-- 0&#45;&gt;c_{k} -->
<g id="edge9" class="edge"><title>0&#45;&gt;c_{k}</title>
<path fill="none" stroke="black" d="M48.692,-358.628C28.8545,-342.443 0,-313.195 0,-280 0,-280 0,-280 0,-90 0,-55.5649 38.0875,-37.1825 70.0378,-27.82"/>
<polygon fill="gray" stroke="black" points="70.973,-31.1929 79.7075,-25.1962 69.1398,-24.4372 70.973,-31.1929"/>
</g>
<!-- 1&#45;&gt;2 -->
<g id="edge5" class="edge"><title>1&#45;&gt;2</title>
<path fill="none" stroke="black" d="M130.414,-260.696C140.37,-246.817 154.488,-227.137 165.734,-211.461"/>
<polygon fill="gray" stroke="black" points="168.656,-213.392 171.642,-203.227 162.969,-209.312 168.656,-213.392"/>
<text text-anchor="middle" x="214.5" y="-227" font-family="times" font-size="20.00">shuffle_conv</text>
</g>
<!-- 1&#45;&gt;c_{k} -->
<g id="edge10" class="edge"><title>1&#45;&gt;c_{k}</title>
<path fill="none" stroke="black" d="M117.52,-260.728C116.685,-230.145 114.964,-164.46 114,-109 113.634,-87.9411 113.376,-64.108 113.214,-46.26"/>
<polygon fill="gray" stroke="black" points="116.714,-46.2238 113.127,-36.2545 109.714,-46.2844 116.714,-46.2238"/>
</g>
<!-- 2&#45;&gt;3 -->
<g id="edge8" class="edge"><title>2&#45;&gt;3</title>
<path fill="none" stroke="black" d="M165.589,-176.216C154.535,-170.462 141.41,-161.456 135,-149 130.303,-139.872 130.366,-128.845 132.115,-118.931"/>
<polygon fill="gray" stroke="black" points="135.538,-119.664 134.42,-109.129 128.724,-118.062 135.538,-119.664"/>
<text text-anchor="middle" x="185.5" y="-133" font-family="times" font-size="20.00">att_identity</text>
</g>
<!-- 2&#45;&gt;c_{k} -->
<g id="edge11" class="edge"><title>2&#45;&gt;c_{k}</title>
<path fill="none" stroke="black" d="M202.203,-177.117C214.173,-171.523 228.892,-162.352 236,-149 240.595,-140.369 240.033,-135.907 236,-127 219.112,-89.6968 182.266,-60.1706 153.281,-41.485"/>
<polygon fill="gray" stroke="black" points="154.903,-38.3714 144.569,-36.0374 151.192,-44.3067 154.903,-38.3714"/>
</g>
<!-- 3&#45;&gt;c_{k} -->
<g id="edge12" class="edge"><title>3&#45;&gt;c_{k}</title>
<path fill="none" stroke="black" d="M134.222,-72.8129C130.989,-64.6151 127.049,-54.6231 123.445,-45.4847"/>
<polygon fill="gray" stroke="black" points="126.64,-44.0475 119.716,-36.0288 120.128,-46.6156 126.64,-44.0475"/>
</g>
</g>
</svg>
