<?xml version="1.0" encoding="UTF-8" standalone="no"?>
<!DOCTYPE svg PUBLIC "-//W3C//DTD SVG 1.1//EN"
 "http://www.w3.org/Graphics/SVG/1.1/DTD/svg11.dtd">
<!-- Generated by graphviz version 2.38.0 (20140413.2041)
 -->
<!-- Title: %3 Pages: 1 -->
<svg width="394pt" height="493pt"
 viewBox="0.00 0.00 393.50 493.00" xmlns="http://www.w3.org/2000/svg" xmlns:xlink="http://www.w3.org/1999/xlink">
<g id="graph0" class="graph" transform="scale(1 1) rotate(0) translate(4 489)">
<title>%3</title>
<polygon fill="white" stroke="none" points="-4,4 -4,-489 389.5,-489 389.5,4 -4,4"/>
<!-- c_{k&#45;2} -->
<g id="node1" class="node"><title>c_{k&#45;2}</title>
<polygon fill="#b4eeb4" stroke="black" stroke-width="2" points="85,-485 0,-485 0,-449 85,-449 85,-485"/>
<text text-anchor="middle" x="42.5" y="-462" font-family="times" font-size="20.00">c_{k&#45;2}</text>
</g>
<!-- 0 -->
<g id="node3" class="node"><title>0</title>
<polygon fill="lightblue" stroke="black" stroke-width="2" points="101.5,-391 65.5,-391 65.5,-355 101.5,-355 101.5,-391"/>
<text text-anchor="middle" x="83.5" y="-368" font-family="times" font-size="20.00">0</text>
</g>
<!-- c_{k&#45;2}&#45;&gt;0 -->
<g id="edge2" class="edge"><title>c_{k&#45;2}&#45;&gt;0</title>
<path fill="none" stroke="black" d="M39.3047,-448.984C37.9087,-437.21 37.7056,-421.478 43.5,-409 46.5813,-402.365 51.5905,-396.483 57.0379,-391.523"/>
<polygon fill="gray" stroke="black" points="59.5965,-393.955 65.159,-384.937 55.1874,-388.518 59.5965,-393.955"/>
<text text-anchor="middle" x="100" y="-415" font-family="times" font-size="20.00">shuffle_conv</text>
</g>
<!-- c_{k&#45;1} -->
<g id="node2" class="node"><title>c_{k&#45;1}</title>
<polygon fill="#b4eeb4" stroke="black" stroke-width="2" points="266,-485 181,-485 181,-449 266,-449 266,-485"/>
<text text-anchor="middle" x="223.5" y="-462" font-family="times" font-size="20.00">c_{k&#45;1}</text>
</g>
<!-- c_{k&#45;1}&#45;&gt;0 -->
<g id="edge1" class="edge"><title>c_{k&#45;1}&#45;&gt;0</title>
<path fill="none" stroke="black" d="M201.245,-448.939C194.181,-443.355 186.413,-437.033 179.5,-431 168.843,-421.698 168.134,-417.047 156.5,-409 142.412,-399.256 125.193,-390.857 111.017,-384.731"/>
<polygon fill="gray" stroke="black" points="112.341,-381.491 101.764,-380.864 109.642,-387.949 112.341,-381.491"/>
<text text-anchor="middle" x="217.5" y="-415" font-family="times" font-size="20.00">up_conv</text>
</g>
<!-- 1 -->
<g id="node4" class="node"><title>1</title>
<polygon fill="lightblue" stroke="black" stroke-width="2" points="277.5,-297 241.5,-297 241.5,-261 277.5,-261 277.5,-297"/>
<text text-anchor="middle" x="259.5" y="-274" font-family="times" font-size="20.00">1</text>
</g>
<!-- c_{k&#45;1}&#45;&gt;1 -->
<g id="edge4" class="edge"><title>c_{k&#45;1}&#45;&gt;1</title>
<path fill="none" stroke="black" d="M243.587,-448.882C248.369,-443.67 252.85,-437.566 255.5,-431 271.917,-390.32 268.587,-338.331 264.307,-307.181"/>
<polygon fill="gray" stroke="black" points="267.737,-306.451 262.785,-297.085 260.815,-307.495 267.737,-306.451"/>
<text text-anchor="middle" x="326.5" y="-368" font-family="times" font-size="20.00">up_sep_conv</text>
</g>
<!-- 0&#45;&gt;1 -->
<g id="edge3" class="edge"><title>0&#45;&gt;1</title>
<path fill="none" stroke="black" d="M101.571,-356.487C108.491,-350.469 116.42,-343.478 123.5,-337 133.937,-327.451 134.125,-321.853 146.5,-315 174.979,-299.229 186.563,-307.131 217.5,-297 222.205,-295.459 227.135,-293.649 231.895,-291.794"/>
<polygon fill="gray" stroke="black" points="233.338,-294.986 241.301,-287.997 230.718,-288.495 233.338,-294.986"/>
<text text-anchor="middle" x="201" y="-321" font-family="times" font-size="20.00">atrous_conv</text>
</g>
<!-- 2 -->
<g id="node5" class="node"><title>2</title>
<polygon fill="lightblue" stroke="black" stroke-width="2" points="146.5,-203 110.5,-203 110.5,-167 146.5,-167 146.5,-203"/>
<text text-anchor="middle" x="128.5" y="-180" font-family="times" font-size="20.00">2</text>
</g>
<!-- 0&#45;&gt;2 -->
<g id="edge6" class="edge"><title>0&#45;&gt;2</title>
<path fill="none" stroke="black" d="M87.6528,-354.835C95.4888,-322.446 112.511,-252.087 121.919,-213.2"/>
<polygon fill="gray" stroke="black" points="125.407,-213.666 124.357,-203.124 118.604,-212.02 125.407,-213.666"/>
<text text-anchor="middle" x="160" y="-274" font-family="times" font-size="20.00">att_identity</text>
</g>
<!-- 3 -->
<g id="node6" class="node"><title>3</title>
<polygon fill="lightblue" stroke="black" stroke-width="2" points="106.5,-109 70.5,-109 70.5,-73 106.5,-73 106.5,-109"/>
<text text-anchor="middle" x="88.5" y="-86" font-family="times" font-size="20.00">3</text>
</g>
<!-- 0&#45;&gt;3 -->
<g id="edge7" class="edge"><title>0&#45;&gt;3</title>
<path fill="none" stroke="black" d="M80.8789,-354.944C77.238,-330.307 70.8346,-283.291 68.5,-243 65.5017,-191.256 71.4329,-178.031 80.5,-127 80.9743,-124.33 81.5184,-121.557 82.0949,-118.793"/>
<polygon fill="gray" stroke="black" points="85.5139,-119.542 84.258,-109.022 78.6794,-118.029 85.5139,-119.542"/>
<text text-anchor="middle" x="89.5" y="-227" font-family="times" font-size="20.00">conv</text>
</g>
<!-- c_{k} -->
<g id="node7" class="node"><title>c_{k}</title>
<polygon fill="palegoldenrod" stroke="black" stroke-width="2" points="201.5,-36 135.5,-36 135.5,-0 201.5,-0 201.5,-36"/>
<text text-anchor="middle" x="168.5" y="-13" font-family="times" font-size="20.00">c_{k}</text>
</g>
<!-- 0&#45;&gt;c_{k} -->
<g id="edge9" class="edge"><title>0&#45;&gt;c_{k}</title>
<path fill="none" stroke="black" d="M65.4652,-358.567C45.9238,-342.325 17.5,-313.024 17.5,-280 17.5,-280 17.5,-280 17.5,-90 17.5,-42.0278 80.686,-26.4099 125.311,-21.3617"/>
<polygon fill="gray" stroke="black" points="125.757,-24.8347 135.362,-20.3642 125.066,-17.869 125.757,-24.8347"/>
</g>
<!-- 1&#45;&gt;2 -->
<g id="edge5" class="edge"><title>1&#45;&gt;2</title>
<path fill="none" stroke="black" d="M241.301,-270.003C233.987,-266.955 225.424,-263.595 217.5,-261 186.563,-250.869 170.172,-265.347 146.5,-243 138.293,-235.253 133.811,-223.802 131.37,-213.191"/>
<polygon fill="gray" stroke="black" points="134.757,-212.254 129.546,-203.03 127.867,-213.491 134.757,-212.254"/>
<text text-anchor="middle" x="203" y="-227" font-family="times" font-size="20.00">shuffle_conv</text>
</g>
<!-- 1&#45;&gt;c_{k} -->
<g id="edge10" class="edge"><title>1&#45;&gt;c_{k}</title>
<path fill="none" stroke="black" d="M260.912,-260.927C261.508,-249.543 261.642,-234.287 259.5,-221 248.47,-152.594 237.616,-136.763 210.5,-73 206.765,-64.2185 205.987,-61.8075 200.5,-54 198.05,-50.514 195.283,-47.0071 192.427,-43.6303"/>
<polygon fill="gray" stroke="black" points="194.964,-41.216 185.71,-36.058 189.728,-45.8614 194.964,-41.216"/>
</g>
<!-- 2&#45;&gt;3 -->
<g id="edge8" class="edge"><title>2&#45;&gt;3</title>
<path fill="none" stroke="black" d="M110.2,-172.659C102.303,-166.685 93.8847,-158.599 89.5,-149 85.3326,-139.876 84.308,-129.044 84.591,-119.285"/>
<polygon fill="gray" stroke="black" points="88.0862,-119.477 85.3245,-109.248 81.1048,-118.966 88.0862,-119.477"/>
<text text-anchor="middle" x="140" y="-133" font-family="times" font-size="20.00">att_identity</text>
</g>
<!-- 2&#45;&gt;c_{k} -->
<g id="edge11" class="edge"><title>2&#45;&gt;c_{k}</title>
<path fill="none" stroke="black" d="M146.778,-179.203C161.473,-174.276 181.152,-165.012 190.5,-149 209.289,-116.817 195.283,-72.9906 182.594,-45.3464"/>
<polygon fill="gray" stroke="black" points="185.72,-43.7698 178.217,-36.2888 179.417,-46.8155 185.72,-43.7698"/>
</g>
<!-- 3&#45;&gt;c_{k} -->
<g id="edge12" class="edge"><title>3&#45;&gt;c_{k}</title>
<path fill="none" stroke="black" d="M106.653,-73.889C116.991,-64.714 130.138,-53.0466 141.649,-42.83"/>
<polygon fill="gray" stroke="black" points="144.147,-45.2929 149.303,-36.0373 139.501,-40.0574 144.147,-45.2929"/>
</g>
</g>
</svg>
