<?xml version="1.0" encoding="UTF-8" standalone="no"?>
<!DOCTYPE svg PUBLIC "-//W3C//DTD SVG 1.1//EN"
 "http://www.w3.org/Graphics/SVG/1.1/DTD/svg11.dtd">
<!-- Generated by graphviz version 2.38.0 (20140413.2041)
 -->
<!-- Title: %3 Pages: 1 -->
<svg width="478pt" height="493pt"
 viewBox="0.00 0.00 477.50 493.00" xmlns="http://www.w3.org/2000/svg" xmlns:xlink="http://www.w3.org/1999/xlink">
<g id="graph0" class="graph" transform="scale(1 1) rotate(0) translate(4 489)">
<title>%3</title>
<polygon fill="white" stroke="none" points="-4,4 -4,-489 473.5,-489 473.5,4 -4,4"/>
<!-- c_{k&#45;2} -->
<g id="node1" class="node"><title>c_{k&#45;2}</title>
<polygon fill="#b4eeb4" stroke="black" stroke-width="2" points="85,-485 0,-485 0,-449 85,-449 85,-485"/>
<text text-anchor="middle" x="42.5" y="-462" font-family="times" font-size="20.00">c_{k&#45;2}</text>
</g>
<!-- 0 -->
<g id="node3" class="node"><title>0</title>
<polygon fill="lightblue" stroke="black" stroke-width="2" points="190.5,-391 154.5,-391 154.5,-355 190.5,-355 190.5,-391"/>
<text text-anchor="middle" x="172.5" y="-368" font-family="times" font-size="20.00">0</text>
</g>
<!-- c_{k&#45;2}&#45;&gt;0 -->
<g id="edge2" class="edge"><title>c_{k&#45;2}&#45;&gt;0</title>
<path fill="none" stroke="black" d="M48.6518,-448.874C54.0893,-436.096 63.2353,-419.159 76.5,-409 99.9588,-391.034 113.074,-401.994 140.5,-391 141.923,-390.429 143.366,-389.813 144.811,-389.166"/>
<polygon fill="gray" stroke="black" points="146.756,-392.111 154.208,-384.579 143.686,-385.82 146.756,-392.111"/>
<text text-anchor="middle" x="118.5" y="-415" font-family="times" font-size="20.00">sep_conv</text>
</g>
<!-- 1 -->
<g id="node4" class="node"><title>1</title>
<polygon fill="lightblue" stroke="black" stroke-width="2" points="106.5,-297 70.5,-297 70.5,-261 106.5,-261 106.5,-297"/>
<text text-anchor="middle" x="88.5" y="-274" font-family="times" font-size="20.00">1</text>
</g>
<!-- c_{k&#45;2}&#45;&gt;1 -->
<g id="edge4" class="edge"><title>c_{k&#45;2}&#45;&gt;1</title>
<path fill="none" stroke="black" d="M36.8128,-448.964C30.3212,-426.748 21.8877,-386.951 32.5,-355 38.7515,-336.178 51.7703,-318.257 63.683,-304.654"/>
<polygon fill="gray" stroke="black" points="66.3561,-306.917 70.5096,-297.171 61.1845,-302.2 66.3561,-306.917"/>
<text text-anchor="middle" x="89" y="-368" font-family="times" font-size="20.00">shuffle_conv</text>
</g>
<!-- c_{k&#45;1} -->
<g id="node2" class="node"><title>c_{k&#45;1}</title>
<polygon fill="#b4eeb4" stroke="black" stroke-width="2" points="303,-485 218,-485 218,-449 303,-449 303,-485"/>
<text text-anchor="middle" x="260.5" y="-462" font-family="times" font-size="20.00">c_{k&#45;1}</text>
</g>
<!-- c_{k&#45;1}&#45;&gt;0 -->
<g id="edge1" class="edge"><title>c_{k&#45;1}&#45;&gt;0</title>
<path fill="none" stroke="black" d="M217.638,-460.074C199.985,-455.288 181.196,-446.636 170.5,-431 164.649,-422.447 163.916,-411.362 165.094,-401.244"/>
<polygon fill="gray" stroke="black" points="168.576,-401.655 166.88,-391.197 161.684,-400.43 168.576,-401.655"/>
<text text-anchor="middle" x="208.5" y="-415" font-family="times" font-size="20.00">up_conv</text>
</g>
<!-- 2 -->
<g id="node5" class="node"><title>2</title>
<polygon fill="lightblue" stroke="black" stroke-width="2" points="278.5,-203 242.5,-203 242.5,-167 278.5,-167 278.5,-203"/>
<text text-anchor="middle" x="260.5" y="-180" font-family="times" font-size="20.00">2</text>
</g>
<!-- c_{k&#45;1}&#45;&gt;2 -->
<g id="edge6" class="edge"><title>c_{k&#45;1}&#45;&gt;2</title>
<path fill="none" stroke="black" d="M260.5,-448.906C260.5,-401.946 260.5,-270.654 260.5,-213.343"/>
<polygon fill="gray" stroke="black" points="264,-213.226 260.5,-203.226 257,-213.226 264,-213.226"/>
<text text-anchor="middle" x="319.5" y="-321" font-family="times" font-size="20.00">up_sep_conv</text>
</g>
<!-- 3 -->
<g id="node6" class="node"><title>3</title>
<polygon fill="lightblue" stroke="black" stroke-width="2" points="316.5,-109 280.5,-109 280.5,-73 316.5,-73 316.5,-109"/>
<text text-anchor="middle" x="298.5" y="-86" font-family="times" font-size="20.00">3</text>
</g>
<!-- c_{k&#45;1}&#45;&gt;3 -->
<g id="edge7" class="edge"><title>c_{k&#45;1}&#45;&gt;3</title>
<path fill="none" stroke="black" d="M303.314,-455.612C342.194,-443.319 393.5,-418.641 393.5,-374 393.5,-374 393.5,-374 393.5,-184 393.5,-156.845 389.931,-146.942 371.5,-127 359.486,-114.001 341.626,-105.321 326.579,-99.857"/>
<polygon fill="gray" stroke="black" points="327.311,-96.412 316.718,-96.5742 325.1,-103.054 327.311,-96.412"/>
<text text-anchor="middle" x="431.5" y="-274" font-family="times" font-size="20.00">up_conv</text>
</g>
<!-- 0&#45;&gt;1 -->
<g id="edge3" class="edge"><title>0&#45;&gt;1</title>
<path fill="none" stroke="black" d="M154.473,-361.773C149.977,-359.405 145.12,-356.996 140.5,-355 117.664,-345.132 101.989,-357.222 87.5,-337 81.4249,-328.521 80.5213,-317.363 81.5608,-307.168"/>
<polygon fill="gray" stroke="black" points="85.0562,-307.479 83.2121,-297.046 78.1476,-306.352 85.0562,-307.479"/>
<text text-anchor="middle" x="144" y="-321" font-family="times" font-size="20.00">shuffle_conv</text>
</g>
<!-- c_{k} -->
<g id="node7" class="node"><title>c_{k}</title>
<polygon fill="palegoldenrod" stroke="black" stroke-width="2" points="266.5,-36 200.5,-36 200.5,-0 266.5,-0 266.5,-36"/>
<text text-anchor="middle" x="233.5" y="-13" font-family="times" font-size="20.00">c_{k}</text>
</g>
<!-- 0&#45;&gt;c_{k} -->
<g id="edge9" class="edge"><title>0&#45;&gt;c_{k}</title>
<path fill="none" stroke="black" d="M188.647,-354.861C193.025,-349.473 197.405,-343.282 200.5,-337 212.029,-313.6 214.5,-306.086 214.5,-280 214.5,-280 214.5,-280 214.5,-90 214.5,-75.0986 218.454,-59.0176 222.754,-45.9342"/>
<polygon fill="gray" stroke="black" points="226.175,-46.7588 226.208,-36.164 219.575,-44.4255 226.175,-46.7588"/>
</g>
<!-- 1&#45;&gt;2 -->
<g id="edge5" class="edge"><title>1&#45;&gt;2</title>
<path fill="none" stroke="black" d="M106.724,-265.633C124.966,-253.514 154.05,-234.89 180.5,-221 197.456,-212.096 217.158,-203.457 232.767,-196.989"/>
<polygon fill="gray" stroke="black" points="234.428,-200.092 242.364,-193.072 231.783,-193.611 234.428,-200.092"/>
<text text-anchor="middle" x="213.5" y="-227" font-family="times" font-size="20.00">identity</text>
</g>
<!-- 1&#45;&gt;c_{k} -->
<g id="edge10" class="edge"><title>1&#45;&gt;c_{k}</title>
<path fill="none" stroke="black" d="M95.084,-260.766C110.352,-221.906 150.697,-125.284 200.5,-54 202.921,-50.5342 205.676,-47.0704 208.536,-43.7434"/>
<polygon fill="gray" stroke="black" points="211.17,-46.0494 215.298,-36.2919 205.986,-41.3453 211.17,-46.0494"/>
</g>
<!-- 2&#45;&gt;3 -->
<g id="edge8" class="edge"><title>2&#45;&gt;3</title>
<path fill="none" stroke="black" d="M267.648,-166.696C273.221,-153.203 281.059,-134.226 287.44,-118.777"/>
<polygon fill="gray" stroke="black" points="290.802,-119.806 291.385,-109.227 284.332,-117.133 290.802,-119.806"/>
<text text-anchor="middle" x="325.5" y="-133" font-family="times" font-size="20.00">sep_conv</text>
</g>
<!-- 2&#45;&gt;c_{k} -->
<g id="edge11" class="edge"><title>2&#45;&gt;c_{k}</title>
<path fill="none" stroke="black" d="M257.712,-166.964C253.044,-138.433 243.605,-80.7517 237.991,-46.4425"/>
<polygon fill="gray" stroke="black" points="241.382,-45.4945 236.313,-36.1909 234.474,-46.6249 241.382,-45.4945"/>
</g>
<!-- 3&#45;&gt;c_{k} -->
<g id="edge12" class="edge"><title>3&#45;&gt;c_{k}</title>
<path fill="none" stroke="black" d="M283.302,-72.6951C278.02,-66.7367 272.034,-60.0444 266.5,-54 263.435,-50.6525 260.185,-47.1491 256.965,-43.7067"/>
<polygon fill="gray" stroke="black" points="259.451,-41.2409 250.051,-36.3526 254.351,-46.0357 259.451,-41.2409"/>
</g>
</g>
</svg>
