<?xml version="1.0" encoding="UTF-8" standalone="no"?>
<!DOCTYPE svg PUBLIC "-//W3C//DTD SVG 1.1//EN"
 "http://www.w3.org/Graphics/SVG/1.1/DTD/svg11.dtd">
<!-- Generated by graphviz version 2.38.0 (20140413.2041)
 -->
<!-- Title: %3 Pages: 1 -->
<svg width="729pt" height="493pt"
 viewBox="0.00 0.00 728.50 493.00" xmlns="http://www.w3.org/2000/svg" xmlns:xlink="http://www.w3.org/1999/xlink">
<g id="graph0" class="graph" transform="scale(1 1) rotate(0) translate(4 489)">
<title>%3</title>
<polygon fill="white" stroke="none" points="-4,4 -4,-489 724.5,-489 724.5,4 -4,4"/>
<!-- c_{k&#45;2} -->
<g id="node1" class="node"><title>c_{k&#45;2}</title>
<polygon fill="#b4eeb4" stroke="black" stroke-width="2" points="85,-485 0,-485 0,-449 85,-449 85,-485"/>
<text text-anchor="middle" x="42.5" y="-462" font-family="times" font-size="20.00">c_{k&#45;2}</text>
</g>
<!-- 0 -->
<g id="node3" class="node"><title>0</title>
<polygon fill="lightblue" stroke="black" stroke-width="2" points="139.5,-391 103.5,-391 103.5,-355 139.5,-355 139.5,-391"/>
<text text-anchor="middle" x="121.5" y="-368" font-family="times" font-size="20.00">0</text>
</g>
<!-- c_{k&#45;2}&#45;&gt;0 -->
<g id="edge2" class="edge"><title>c_{k&#45;2}&#45;&gt;0</title>
<path fill="none" stroke="black" d="M38.271,-448.878C36.2912,-436.756 35.814,-420.648 43.5,-409 54.6386,-392.12 76.0172,-383.293 93.5797,-378.729"/>
<polygon fill="gray" stroke="black" points="94.3959,-382.133 103.373,-376.506 92.8462,-375.307 94.3959,-382.133"/>
<text text-anchor="middle" x="85.5" y="-415" font-family="times" font-size="20.00">sep_conv</text>
</g>
<!-- c_{k&#45;1} -->
<g id="node2" class="node"><title>c_{k&#45;1}</title>
<polygon fill="#b4eeb4" stroke="black" stroke-width="2" points="391,-485 306,-485 306,-449 391,-449 391,-485"/>
<text text-anchor="middle" x="348.5" y="-462" font-family="times" font-size="20.00">c_{k&#45;1}</text>
</g>
<!-- c_{k&#45;1}&#45;&gt;0 -->
<g id="edge1" class="edge"><title>c_{k&#45;1}&#45;&gt;0</title>
<path fill="none" stroke="black" d="M305.886,-462.901C255.24,-458.47 174.553,-448.817 150.5,-431 140.527,-423.613 133.734,-411.809 129.246,-400.854"/>
<polygon fill="gray" stroke="black" points="132.44,-399.396 125.747,-391.183 125.858,-401.778 132.44,-399.396"/>
<text text-anchor="middle" x="201.5" y="-415" font-family="times" font-size="20.00">down_conv</text>
</g>
<!-- 1 -->
<g id="node4" class="node"><title>1</title>
<polygon fill="lightblue" stroke="black" stroke-width="2" points="284.5,-297 248.5,-297 248.5,-261 284.5,-261 284.5,-297"/>
<text text-anchor="middle" x="266.5" y="-274" font-family="times" font-size="20.00">1</text>
</g>
<!-- c_{k&#45;1}&#45;&gt;1 -->
<g id="edge4" class="edge"><title>c_{k&#45;1}&#45;&gt;1</title>
<path fill="none" stroke="black" d="M327.238,-448.986C311.548,-435.141 291.147,-414.155 280.5,-391 268.241,-364.339 265.576,-330.489 265.45,-307.219"/>
<polygon fill="gray" stroke="black" points="268.951,-307.065 265.553,-297.03 261.952,-306.994 268.951,-307.065"/>
<text text-anchor="middle" x="349" y="-368" font-family="times" font-size="20.00">down_att_conv</text>
</g>
<!-- 2 -->
<g id="node5" class="node"><title>2</title>
<polygon fill="lightblue" stroke="black" stroke-width="2" points="346.5,-203 310.5,-203 310.5,-167 346.5,-167 346.5,-203"/>
<text text-anchor="middle" x="328.5" y="-180" font-family="times" font-size="20.00">2</text>
</g>
<!-- c_{k&#45;1}&#45;&gt;2 -->
<g id="edge5" class="edge"><title>c_{k&#45;1}&#45;&gt;2</title>
<path fill="none" stroke="black" d="M371.59,-448.84C387.854,-435.211 408.306,-414.572 417.5,-391 423.314,-376.094 419.974,-370.808 417.5,-355 407.828,-293.206 410.61,-272.07 374.5,-221 369.337,-213.697 362.193,-207.237 355.074,-201.918"/>
<polygon fill="gray" stroke="black" points="357.06,-199.037 346.848,-196.216 353.073,-204.79 357.06,-199.037"/>
<text text-anchor="middle" x="483" y="-321" font-family="times" font-size="20.00">down_att_conv</text>
</g>
<!-- 3 -->
<g id="node6" class="node"><title>3</title>
<polygon fill="lightblue" stroke="black" stroke-width="2" points="368.5,-109 332.5,-109 332.5,-73 368.5,-73 368.5,-109"/>
<text text-anchor="middle" x="350.5" y="-86" font-family="times" font-size="20.00">3</text>
</g>
<!-- c_{k&#45;1}&#45;&gt;3 -->
<g id="edge7" class="edge"><title>c_{k&#45;1}&#45;&gt;3</title>
<path fill="none" stroke="black" d="M391.057,-458.373C458.777,-445.011 583.5,-414.856 583.5,-374 583.5,-374 583.5,-374 583.5,-184 583.5,-140.421 440.71,-108.692 378.692,-96.9662"/>
<polygon fill="gray" stroke="black" points="379.253,-93.5106 368.783,-95.1336 377.98,-100.394 379.253,-93.5106"/>
<text text-anchor="middle" x="652" y="-274" font-family="times" font-size="20.00">down_att_conv</text>
</g>
<!-- 0&#45;&gt;1 -->
<g id="edge3" class="edge"><title>0&#45;&gt;1</title>
<path fill="none" stroke="black" d="M122.643,-354.77C124.389,-342.109 128.74,-325.37 139.5,-315 166.077,-289.388 209.616,-282.159 238.17,-280.313"/>
<polygon fill="gray" stroke="black" points="238.486,-283.802 248.313,-279.842 238.161,-276.81 238.486,-283.802"/>
<text text-anchor="middle" x="196" y="-321" font-family="times" font-size="20.00">shuffle_conv</text>
</g>
<!-- c_{k} -->
<g id="node7" class="node"><title>c_{k}</title>
<polygon fill="palegoldenrod" stroke="black" stroke-width="2" points="318.5,-36 252.5,-36 252.5,-0 318.5,-0 318.5,-36"/>
<text text-anchor="middle" x="285.5" y="-13" font-family="times" font-size="20.00">c_{k}</text>
</g>
<!-- 0&#45;&gt;c_{k} -->
<g id="edge9" class="edge"><title>0&#45;&gt;c_{k}</title>
<path fill="none" stroke="black" d="M116.699,-354.859C111.987,-336.498 105.5,-306.426 105.5,-280 105.5,-280 105.5,-280 105.5,-90 105.5,-60.6499 189.363,-38.2877 242.603,-27.0483"/>
<polygon fill="gray" stroke="black" points="243.396,-30.4586 252.485,-25.0149 241.985,-23.6023 243.396,-30.4586"/>
</g>
<!-- 1&#45;&gt;2 -->
<g id="edge6" class="edge"><title>1&#45;&gt;2</title>
<path fill="none" stroke="black" d="M278.162,-260.696C287.428,-246.946 300.532,-227.501 311.047,-211.898"/>
<polygon fill="gray" stroke="black" points="314.204,-213.476 316.891,-203.227 308.4,-209.564 314.204,-213.476"/>
<text text-anchor="middle" x="337.5" y="-227" font-family="times" font-size="20.00">identity</text>
</g>
<!-- 1&#45;&gt;c_{k} -->
<g id="edge10" class="edge"><title>1&#45;&gt;c_{k}</title>
<path fill="none" stroke="black" d="M267.776,-260.604C271.014,-216.462 279.57,-99.8288 283.489,-46.4152"/>
<polygon fill="gray" stroke="black" points="286.988,-46.5495 284.229,-36.3202 280.007,-46.0373 286.988,-46.5495"/>
</g>
<!-- 2&#45;&gt;3 -->
<g id="edge8" class="edge"><title>2&#45;&gt;3</title>
<path fill="none" stroke="black" d="M332.638,-166.696C335.834,-153.331 340.316,-134.587 343.991,-119.219"/>
<polygon fill="gray" stroke="black" points="347.459,-119.767 346.381,-109.227 340.651,-118.139 347.459,-119.767"/>
<text text-anchor="middle" x="383.5" y="-133" font-family="times" font-size="20.00">sep_conv</text>
</g>
<!-- 2&#45;&gt;c_{k} -->
<g id="edge11" class="edge"><title>2&#45;&gt;c_{k}</title>
<path fill="none" stroke="black" d="M324.06,-166.964C316.593,-138.31 301.463,-80.2518 292.536,-45.9982"/>
<polygon fill="gray" stroke="black" points="295.889,-44.9851 289.98,-36.1909 289.115,-46.7504 295.889,-44.9851"/>
</g>
<!-- 3&#45;&gt;c_{k} -->
<g id="edge12" class="edge"><title>3&#45;&gt;c_{k}</title>
<path fill="none" stroke="black" d="M335.302,-72.6951C330.02,-66.7367 324.034,-60.0444 318.5,-54 315.435,-50.6525 312.185,-47.1491 308.965,-43.7067"/>
<polygon fill="gray" stroke="black" points="311.451,-41.2409 302.051,-36.3526 306.351,-46.0357 311.451,-41.2409"/>
</g>
</g>
</svg>
