<?xml version="1.0" encoding="UTF-8" standalone="no"?>
<!DOCTYPE svg PUBLIC "-//W3C//DTD SVG 1.1//EN"
 "http://www.w3.org/Graphics/SVG/1.1/DTD/svg11.dtd">
<!-- Generated by graphviz version 2.38.0 (20140413.2041)
 -->
<!-- Title: %3 Pages: 1 -->
<svg width="453pt" height="493pt"
 viewBox="0.00 0.00 452.50 493.00" xmlns="http://www.w3.org/2000/svg" xmlns:xlink="http://www.w3.org/1999/xlink">
<g id="graph0" class="graph" transform="scale(1 1) rotate(0) translate(4 489)">
<title>%3</title>
<polygon fill="white" stroke="none" points="-4,4 -4,-489 448.5,-489 448.5,4 -4,4"/>
<!-- c_{k&#45;2} -->
<g id="node1" class="node"><title>c_{k&#45;2}</title>
<polygon fill="#b4eeb4" stroke="black" stroke-width="2" points="85,-485 0,-485 0,-449 85,-449 85,-485"/>
<text text-anchor="middle" x="42.5" y="-462" font-family="times" font-size="20.00">c_{k&#45;2}</text>
</g>
<!-- 0 -->
<g id="node3" class="node"><title>0</title>
<polygon fill="lightblue" stroke="black" stroke-width="2" points="190.5,-391 154.5,-391 154.5,-355 190.5,-355 190.5,-391"/>
<text text-anchor="middle" x="172.5" y="-368" font-family="times" font-size="20.00">0</text>
</g>
<!-- c_{k&#45;2}&#45;&gt;0 -->
<g id="edge1" class="edge"><title>c_{k&#45;2}&#45;&gt;0</title>
<path fill="none" stroke="black" d="M48.3337,-448.864C53.5375,-436.08 62.3822,-419.14 75.5,-409 99.2162,-390.667 112.654,-402.098 140.5,-391 141.924,-390.432 143.368,-389.819 144.813,-389.173"/>
<polygon fill="gray" stroke="black" points="146.757,-392.119 154.213,-384.592 143.69,-385.827 146.757,-392.119"/>
<text text-anchor="middle" x="117.5" y="-415" font-family="times" font-size="20.00">sep_conv</text>
</g>
<!-- 1 -->
<g id="node4" class="node"><title>1</title>
<polygon fill="lightblue" stroke="black" stroke-width="2" points="100.5,-297 64.5,-297 64.5,-261 100.5,-261 100.5,-297"/>
<text text-anchor="middle" x="82.5" y="-274" font-family="times" font-size="20.00">1</text>
</g>
<!-- c_{k&#45;2}&#45;&gt;1 -->
<g id="edge4" class="edge"><title>c_{k&#45;2}&#45;&gt;1</title>
<path fill="none" stroke="black" d="M36.9691,-448.665C30.7769,-426.466 22.7999,-387.037 32.5,-355 38.0205,-336.767 49.5969,-318.915 60.2215,-305.205"/>
<polygon fill="gray" stroke="black" points="63.0949,-307.218 66.6511,-297.237 57.6474,-302.822 63.0949,-307.218"/>
<text text-anchor="middle" x="89" y="-368" font-family="times" font-size="20.00">shuffle_conv</text>
</g>
<!-- c_{k&#45;1} -->
<g id="node2" class="node"><title>c_{k&#45;1}</title>
<polygon fill="#b4eeb4" stroke="black" stroke-width="2" points="340,-485 255,-485 255,-449 340,-449 340,-485"/>
<text text-anchor="middle" x="297.5" y="-462" font-family="times" font-size="20.00">c_{k&#45;1}</text>
</g>
<!-- c_{k&#45;1}&#45;&gt;0 -->
<g id="edge2" class="edge"><title>c_{k&#45;1}&#45;&gt;0</title>
<path fill="none" stroke="black" d="M254.898,-459.872C222.153,-454.187 180.824,-444.554 170.5,-431 164.11,-422.611 163.383,-411.337 164.713,-401.03"/>
<polygon fill="gray" stroke="black" points="168.154,-401.668 166.595,-391.188 161.279,-400.353 168.154,-401.668"/>
<text text-anchor="middle" x="227" y="-415" font-family="times" font-size="20.00">shuffle_conv</text>
</g>
<!-- 2 -->
<g id="node5" class="node"><title>2</title>
<polygon fill="lightblue" stroke="black" stroke-width="2" points="285.5,-203 249.5,-203 249.5,-167 285.5,-167 285.5,-203"/>
<text text-anchor="middle" x="267.5" y="-180" font-family="times" font-size="20.00">2</text>
</g>
<!-- c_{k&#45;1}&#45;&gt;2 -->
<g id="edge6" class="edge"><title>c_{k&#45;1}&#45;&gt;2</title>
<path fill="none" stroke="black" d="M295.669,-448.906C290.637,-401.946 276.57,-270.654 270.43,-213.343"/>
<polygon fill="gray" stroke="black" points="273.891,-212.796 269.346,-203.226 266.931,-213.542 273.891,-212.796"/>
<text text-anchor="middle" x="316.5" y="-321" font-family="times" font-size="20.00">identity</text>
</g>
<!-- 3 -->
<g id="node6" class="node"><title>3</title>
<polygon fill="lightblue" stroke="black" stroke-width="2" points="310.5,-109 274.5,-109 274.5,-73 310.5,-73 310.5,-109"/>
<text text-anchor="middle" x="292.5" y="-86" font-family="times" font-size="20.00">3</text>
</g>
<!-- c_{k&#45;1}&#45;&gt;3 -->
<g id="edge7" class="edge"><title>c_{k&#45;1}&#45;&gt;3</title>
<path fill="none" stroke="black" d="M326.743,-448.801C349.944,-432.715 378.5,-406.347 378.5,-374 378.5,-374 378.5,-374 378.5,-184 378.5,-157.914 380.894,-147.291 364.5,-127 353.429,-113.297 335.67,-104.583 320.561,-99.2776"/>
<polygon fill="gray" stroke="black" points="321.228,-95.8175 310.638,-96.1293 319.111,-102.49 321.228,-95.8175"/>
<text text-anchor="middle" x="411.5" y="-274" font-family="times" font-size="20.00">identity</text>
</g>
<!-- 0&#45;&gt;1 -->
<g id="edge3" class="edge"><title>0&#45;&gt;1</title>
<path fill="none" stroke="black" d="M154.178,-361.493C149.776,-359.186 145.034,-356.876 140.5,-355 115.166,-344.521 97.8138,-359.033 81.5,-337 75.293,-328.617 74.3661,-317.476 75.4238,-307.268"/>
<polygon fill="gray" stroke="black" points="78.9229,-307.561 77.1064,-297.123 72.0173,-306.416 78.9229,-307.561"/>
<text text-anchor="middle" x="138" y="-321" font-family="times" font-size="20.00">shuffle_conv</text>
</g>
<!-- c_{k} -->
<g id="node7" class="node"><title>c_{k}</title>
<polygon fill="palegoldenrod" stroke="black" stroke-width="2" points="260.5,-36 194.5,-36 194.5,-0 260.5,-0 260.5,-36"/>
<text text-anchor="middle" x="227.5" y="-13" font-family="times" font-size="20.00">c_{k}</text>
</g>
<!-- 0&#45;&gt;c_{k} -->
<g id="edge9" class="edge"><title>0&#45;&gt;c_{k}</title>
<path fill="none" stroke="black" d="M184.845,-354.796C188.356,-349.309 191.923,-343.079 194.5,-337 204.683,-312.983 208.5,-306.086 208.5,-280 208.5,-280 208.5,-280 208.5,-90 208.5,-75.0986 212.454,-59.0176 216.754,-45.9342"/>
<polygon fill="gray" stroke="black" points="220.175,-46.7588 220.208,-36.164 213.575,-44.4255 220.175,-46.7588"/>
</g>
<!-- 1&#45;&gt;2 -->
<g id="edge5" class="edge"><title>1&#45;&gt;2</title>
<path fill="none" stroke="black" d="M100.575,-269.011C133.18,-252.797 202,-218.573 240.31,-199.522"/>
<polygon fill="gray" stroke="black" points="241.956,-202.612 249.351,-195.025 238.839,-196.344 241.956,-202.612"/>
<text text-anchor="middle" x="229.5" y="-227" font-family="times" font-size="20.00">identity</text>
</g>
<!-- 1&#45;&gt;c_{k} -->
<g id="edge10" class="edge"><title>1&#45;&gt;c_{k}</title>
<path fill="none" stroke="black" d="M89.084,-260.766C104.352,-221.906 144.697,-125.284 194.5,-54 196.921,-50.5342 199.676,-47.0704 202.536,-43.7434"/>
<polygon fill="gray" stroke="black" points="205.17,-46.0494 209.298,-36.2919 199.986,-41.3453 205.17,-46.0494"/>
</g>
<!-- 2&#45;&gt;3 -->
<g id="edge8" class="edge"><title>2&#45;&gt;3</title>
<path fill="none" stroke="black" d="M270.901,-166.92C273.289,-155.534 276.721,-140.277 280.5,-127 281.249,-124.368 282.081,-121.644 282.947,-118.93"/>
<polygon fill="gray" stroke="black" points="286.305,-119.925 286.151,-109.332 279.665,-117.709 286.305,-119.925"/>
<text text-anchor="middle" x="322.5" y="-133" font-family="times" font-size="20.00">sep_conv</text>
</g>
<!-- 2&#45;&gt;c_{k} -->
<g id="edge11" class="edge"><title>2&#45;&gt;c_{k}</title>
<path fill="none" stroke="black" d="M263.37,-166.964C256.424,-138.31 242.349,-80.2518 234.045,-45.9982"/>
<polygon fill="gray" stroke="black" points="237.425,-45.0848 231.668,-36.1909 230.622,-46.7341 237.425,-45.0848"/>
</g>
<!-- 3&#45;&gt;c_{k} -->
<g id="edge12" class="edge"><title>3&#45;&gt;c_{k}</title>
<path fill="none" stroke="black" d="M277.302,-72.6951C272.02,-66.7367 266.034,-60.0444 260.5,-54 257.435,-50.6525 254.185,-47.1491 250.965,-43.7067"/>
<polygon fill="gray" stroke="black" points="253.451,-41.2409 244.051,-36.3526 248.351,-46.0357 253.451,-41.2409"/>
</g>
</g>
</svg>
