<?xml version="1.0" encoding="UTF-8" standalone="no"?>
<!DOCTYPE svg PUBLIC "-//W3C//DTD SVG 1.1//EN"
 "http://www.w3.org/Graphics/SVG/1.1/DTD/svg11.dtd">
<!-- Generated by graphviz version 2.38.0 (20140413.2041)
 -->
<!-- Title: %3 Pages: 1 -->
<svg width="445pt" height="493pt"
 viewBox="0.00 0.00 445.00 493.00" xmlns="http://www.w3.org/2000/svg" xmlns:xlink="http://www.w3.org/1999/xlink">
<g id="graph0" class="graph" transform="scale(1 1) rotate(0) translate(4 489)">
<title>%3</title>
<polygon fill="white" stroke="none" points="-4,4 -4,-489 441,-489 441,4 -4,4"/>
<!-- c_{k&#45;2} -->
<g id="node1" class="node"><title>c_{k&#45;2}</title>
<polygon fill="#b4eeb4" stroke="black" stroke-width="2" points="132.5,-485 47.5,-485 47.5,-449 132.5,-449 132.5,-485"/>
<text text-anchor="middle" x="90" y="-462" font-family="times" font-size="20.00">c_{k&#45;2}</text>
</g>
<!-- 0 -->
<g id="node3" class="node"><title>0</title>
<polygon fill="lightblue" stroke="black" stroke-width="2" points="146,-391 110,-391 110,-355 146,-355 146,-391"/>
<text text-anchor="middle" x="128" y="-368" font-family="times" font-size="20.00">0</text>
</g>
<!-- c_{k&#45;2}&#45;&gt;0 -->
<g id="edge2" class="edge"><title>c_{k&#45;2}&#45;&gt;0</title>
<path fill="none" stroke="black" d="M86.9286,-448.799C85.6286,-437.084 85.4886,-421.497 91,-409 93.6225,-403.054 97.789,-397.637 102.397,-392.935"/>
<polygon fill="gray" stroke="black" points="104.8,-395.481 109.843,-386.163 100.09,-390.302 104.8,-395.481"/>
<text text-anchor="middle" x="133" y="-415" font-family="times" font-size="20.00">sep_conv</text>
</g>
<!-- c_{k&#45;1} -->
<g id="node2" class="node"><title>c_{k&#45;1}</title>
<polygon fill="#b4eeb4" stroke="black" stroke-width="2" points="302.5,-485 217.5,-485 217.5,-449 302.5,-449 302.5,-485"/>
<text text-anchor="middle" x="260" y="-462" font-family="times" font-size="20.00">c_{k&#45;1}</text>
</g>
<!-- c_{k&#45;1}&#45;&gt;0 -->
<g id="edge1" class="edge"><title>c_{k&#45;1}&#45;&gt;0</title>
<path fill="none" stroke="black" d="M226.226,-448.94C216.79,-443.645 206.734,-437.483 198,-431 186.642,-422.569 185.804,-418.131 175,-409 168.553,-403.552 161.348,-397.959 154.554,-392.887"/>
<polygon fill="gray" stroke="black" points="156.386,-389.89 146.255,-386.791 152.243,-395.532 156.386,-389.89"/>
<text text-anchor="middle" x="253.5" y="-415" font-family="times" font-size="20.00">up_att_conv</text>
</g>
<!-- 1 -->
<g id="node4" class="node"><title>1</title>
<polygon fill="lightblue" stroke="black" stroke-width="2" points="337,-297 301,-297 301,-261 337,-261 337,-297"/>
<text text-anchor="middle" x="319" y="-274" font-family="times" font-size="20.00">1</text>
</g>
<!-- c_{k&#45;1}&#45;&gt;1 -->
<g id="edge4" class="edge"><title>c_{k&#45;1}&#45;&gt;1</title>
<path fill="none" stroke="black" d="M292.621,-448.908C299.088,-444 305.082,-438.032 309,-431 330.599,-392.235 328.05,-338.89 323.815,-307.079"/>
<polygon fill="gray" stroke="black" points="327.275,-306.548 322.347,-297.169 320.35,-307.574 327.275,-306.548"/>
<text text-anchor="middle" x="381.5" y="-368" font-family="times" font-size="20.00">up_att_conv</text>
</g>
<!-- 0&#45;&gt;1 -->
<g id="edge3" class="edge"><title>0&#45;&gt;1</title>
<path fill="none" stroke="black" d="M146.148,-359.957C155.588,-353.466 167.177,-345.135 177,-337 187.894,-327.977 187.508,-321.637 200,-315 233.334,-297.29 247.258,-309.137 283,-297 285.761,-296.062 288.59,-294.972 291.389,-293.805"/>
<polygon fill="gray" stroke="black" points="292.958,-296.937 300.65,-289.651 290.093,-290.55 292.958,-296.937"/>
<text text-anchor="middle" x="254.5" y="-321" font-family="times" font-size="20.00">atrous_conv</text>
</g>
<!-- 2 -->
<g id="node5" class="node"><title>2</title>
<polygon fill="lightblue" stroke="black" stroke-width="2" points="198,-203 162,-203 162,-167 198,-167 198,-203"/>
<text text-anchor="middle" x="180" y="-180" font-family="times" font-size="20.00">2</text>
</g>
<!-- 0&#45;&gt;2 -->
<g id="edge6" class="edge"><title>0&#45;&gt;2</title>
<path fill="none" stroke="black" d="M132.799,-354.835C141.854,-322.446 161.524,-252.087 172.396,-213.2"/>
<polygon fill="gray" stroke="black" points="175.891,-213.697 175.213,-203.124 169.149,-211.812 175.891,-213.697"/>
<text text-anchor="middle" x="214.5" y="-274" font-family="times" font-size="20.00">shuffle_conv</text>
</g>
<!-- 3 -->
<g id="node6" class="node"><title>3</title>
<polygon fill="lightblue" stroke="black" stroke-width="2" points="89,-109 53,-109 53,-73 89,-73 89,-109"/>
<text text-anchor="middle" x="71" y="-86" font-family="times" font-size="20.00">3</text>
</g>
<!-- 0&#45;&gt;3 -->
<g id="edge8" class="edge"><title>0&#45;&gt;3</title>
<path fill="none" stroke="black" d="M112.65,-354.785C92.9542,-331.424 59.8046,-287.472 47,-243 34.7268,-200.374 48.7034,-149.055 59.8893,-118.556"/>
<polygon fill="gray" stroke="black" points="63.2207,-119.644 63.5339,-109.054 56.6849,-117.137 63.2207,-119.644"/>
<text text-anchor="middle" x="103.5" y="-227" font-family="times" font-size="20.00">shuffle_conv</text>
</g>
<!-- c_{k} -->
<g id="node7" class="node"><title>c_{k}</title>
<polygon fill="palegoldenrod" stroke="black" stroke-width="2" points="190,-36 124,-36 124,-0 190,-0 190,-36"/>
<text text-anchor="middle" x="157" y="-13" font-family="times" font-size="20.00">c_{k}</text>
</g>
<!-- 0&#45;&gt;c_{k} -->
<g id="edge9" class="edge"><title>0&#45;&gt;c_{k}</title>
<path fill="none" stroke="black" d="M109.932,-367.978C74.6489,-358.942 0,-333.502 0,-280 0,-280 0,-280 0,-90 0,-39.9399 67.0871,-24.9883 113.553,-20.6363"/>
<polygon fill="gray" stroke="black" points="114.017,-24.1104 123.704,-19.8201 113.456,-17.1329 114.017,-24.1104"/>
</g>
<!-- 1&#45;&gt;2 -->
<g id="edge5" class="edge"><title>1&#45;&gt;2</title>
<path fill="none" stroke="black" d="M300.65,-268.349C295.088,-265.695 288.89,-263 283,-261 247.258,-248.863 228.292,-267.987 200,-243 191.363,-235.372 186.455,-223.79 183.667,-213.055"/>
<polygon fill="gray" stroke="black" points="187.073,-212.244 181.591,-203.178 180.223,-213.684 187.073,-212.244"/>
<text text-anchor="middle" x="254.5" y="-227" font-family="times" font-size="20.00">atrous_conv</text>
</g>
<!-- 1&#45;&gt;c_{k} -->
<g id="edge10" class="edge"><title>1&#45;&gt;c_{k}</title>
<path fill="none" stroke="black" d="M318.102,-260.94C316.993,-249.289 314.519,-233.719 309,-221 277.817,-149.132 216.22,-79.2778 181.783,-43.57"/>
<polygon fill="gray" stroke="black" points="183.951,-40.7795 174.461,-36.0681 178.941,-45.669 183.951,-40.7795"/>
</g>
<!-- 2&#45;&gt;3 -->
<g id="edge7" class="edge"><title>2&#45;&gt;3</title>
<path fill="none" stroke="black" d="M161.847,-184.084C136.938,-183.101 92.8807,-177.193 72,-149 65.7919,-140.618 64.5258,-129.477 65.1849,-119.269"/>
<polygon fill="gray" stroke="black" points="68.6856,-119.478 66.4421,-109.124 61.7387,-118.618 68.6856,-119.478"/>
<text text-anchor="middle" x="126.5" y="-133" font-family="times" font-size="20.00">atrous_conv</text>
</g>
<!-- 2&#45;&gt;c_{k} -->
<g id="edge11" class="edge"><title>2&#45;&gt;c_{k}</title>
<path fill="none" stroke="black" d="M180.586,-166.912C180.755,-161.216 180.917,-154.835 181,-149 181.14,-139.223 182.067,-136.719 181,-127 177.92,-98.9427 170.468,-67.5093 164.678,-45.8212"/>
<polygon fill="gray" stroke="black" points="168.01,-44.7369 161.995,-36.0147 161.258,-46.5838 168.01,-44.7369"/>
</g>
<!-- 3&#45;&gt;c_{k} -->
<g id="edge12" class="edge"><title>3&#45;&gt;c_{k}</title>
<path fill="none" stroke="black" d="M89.2384,-74.9427C100.671,-65.5041 115.647,-53.1407 128.611,-42.4375"/>
<polygon fill="gray" stroke="black" points="130.89,-45.0944 136.374,-36.0288 126.434,-39.6963 130.89,-45.0944"/>
</g>
</g>
</svg>
