<?xml version="1.0" encoding="UTF-8" standalone="no"?>
<!DOCTYPE svg PUBLIC "-//W3C//DTD SVG 1.1//EN"
 "http://www.w3.org/Graphics/SVG/1.1/DTD/svg11.dtd">
<!-- Generated by graphviz version 2.38.0 (20140413.2041)
 -->
<!-- Title: %3 Pages: 1 -->
<svg width="597pt" height="493pt"
 viewBox="0.00 0.00 596.50 493.00" xmlns="http://www.w3.org/2000/svg" xmlns:xlink="http://www.w3.org/1999/xlink">
<g id="graph0" class="graph" transform="scale(1 1) rotate(0) translate(4 489)">
<title>%3</title>
<polygon fill="white" stroke="none" points="-4,4 -4,-489 592.5,-489 592.5,4 -4,4"/>
<!-- c_{k&#45;2} -->
<g id="node1" class="node"><title>c_{k&#45;2}</title>
<polygon fill="#b4eeb4" stroke="black" stroke-width="2" points="85,-485 0,-485 0,-449 85,-449 85,-485"/>
<text text-anchor="middle" x="42.5" y="-462" font-family="times" font-size="20.00">c_{k&#45;2}</text>
</g>
<!-- 0 -->
<g id="node3" class="node"><title>0</title>
<polygon fill="lightblue" stroke="black" stroke-width="2" points="167.5,-391 131.5,-391 131.5,-355 167.5,-355 167.5,-391"/>
<text text-anchor="middle" x="149.5" y="-368" font-family="times" font-size="20.00">0</text>
</g>
<!-- c_{k&#45;2}&#45;&gt;0 -->
<g id="edge2" class="edge"><title>c_{k&#45;2}&#45;&gt;0</title>
<path fill="none" stroke="black" d="M37.9607,-448.89C35.7704,-436.617 35.1666,-420.317 43.5,-409 61.2971,-384.831 96.3565,-377.095 121.278,-374.755"/>
<polygon fill="gray" stroke="black" points="121.529,-378.246 131.258,-374.051 121.036,-371.264 121.529,-378.246"/>
<text text-anchor="middle" x="85.5" y="-415" font-family="times" font-size="20.00">sep_conv</text>
</g>
<!-- c_{k&#45;1} -->
<g id="node2" class="node"><title>c_{k&#45;1}</title>
<polygon fill="#b4eeb4" stroke="black" stroke-width="2" points="376,-485 291,-485 291,-449 376,-449 376,-485"/>
<text text-anchor="middle" x="333.5" y="-462" font-family="times" font-size="20.00">c_{k&#45;1}</text>
</g>
<!-- c_{k&#45;1}&#45;&gt;0 -->
<g id="edge1" class="edge"><title>c_{k&#45;1}&#45;&gt;0</title>
<path fill="none" stroke="black" d="M290.986,-463.896C242.655,-460.517 168.154,-451.973 150.5,-431 143.664,-422.879 142.381,-411.558 143.197,-401.144"/>
<polygon fill="gray" stroke="black" points="146.671,-401.572 144.585,-391.184 139.738,-400.605 146.671,-401.572"/>
<text text-anchor="middle" x="235" y="-415" font-family="times" font-size="20.00">donw_atrous_conv</text>
</g>
<!-- 1 -->
<g id="node4" class="node"><title>1</title>
<polygon fill="lightblue" stroke="black" stroke-width="2" points="337.5,-297 301.5,-297 301.5,-261 337.5,-261 337.5,-297"/>
<text text-anchor="middle" x="319.5" y="-274" font-family="times" font-size="20.00">1</text>
</g>
<!-- c_{k&#45;1}&#45;&gt;1 -->
<g id="edge4" class="edge"><title>c_{k&#45;1}&#45;&gt;1</title>
<path fill="none" stroke="black" d="M332.208,-448.835C329.77,-416.446 324.474,-346.087 321.547,-307.2"/>
<polygon fill="gray" stroke="black" points="325.03,-306.833 320.789,-297.124 318.049,-307.358 325.03,-306.833"/>
<text text-anchor="middle" x="378.5" y="-368" font-family="times" font-size="20.00">down_conv</text>
</g>
<!-- 2 -->
<g id="node5" class="node"><title>2</title>
<polygon fill="lightblue" stroke="black" stroke-width="2" points="370.5,-203 334.5,-203 334.5,-167 370.5,-167 370.5,-203"/>
<text text-anchor="middle" x="352.5" y="-180" font-family="times" font-size="20.00">2</text>
</g>
<!-- c_{k&#45;1}&#45;&gt;2 -->
<g id="edge6" class="edge"><title>c_{k&#45;1}&#45;&gt;2</title>
<path fill="none" stroke="black" d="M369.194,-448.919C391.589,-436.213 418.899,-416.649 433.5,-391 466.23,-333.502 445.939,-309.065 449.5,-243 450.026,-233.236 455.119,-229.002 449.5,-221 434.133,-199.119 403.683,-190.856 380.978,-187.769"/>
<polygon fill="gray" stroke="black" points="381.187,-184.271 370.864,-186.659 380.422,-191.23 381.187,-184.271"/>
<text text-anchor="middle" x="520" y="-321" font-family="times" font-size="20.00">down_att_conv</text>
</g>
<!-- 0&#45;&gt;1 -->
<g id="edge3" class="edge"><title>0&#45;&gt;1</title>
<path fill="none" stroke="black" d="M163.977,-354.886C175.452,-342.285 192.504,-325.571 210.5,-315 235.913,-300.072 268.458,-290.695 291.346,-285.446"/>
<polygon fill="gray" stroke="black" points="292.094,-288.865 301.122,-283.32 290.607,-282.025 292.094,-288.865"/>
<text text-anchor="middle" x="265" y="-321" font-family="times" font-size="20.00">atrous_conv</text>
</g>
<!-- 3 -->
<g id="node6" class="node"><title>3</title>
<polygon fill="lightblue" stroke="black" stroke-width="2" points="200.5,-109 164.5,-109 164.5,-73 200.5,-73 200.5,-109"/>
<text text-anchor="middle" x="182.5" y="-86" font-family="times" font-size="20.00">3</text>
</g>
<!-- 0&#45;&gt;3 -->
<g id="edge8" class="edge"><title>0&#45;&gt;3</title>
<path fill="none" stroke="black" d="M151.515,-354.906C157.049,-307.946 172.523,-176.654 179.277,-119.343"/>
<polygon fill="gray" stroke="black" points="182.775,-119.567 180.47,-109.226 175.823,-118.747 182.775,-119.567"/>
<text text-anchor="middle" x="224" y="-227" font-family="times" font-size="20.00">shuffle_conv</text>
</g>
<!-- c_{k} -->
<g id="node7" class="node"><title>c_{k}</title>
<polygon fill="palegoldenrod" stroke="black" stroke-width="2" points="301.5,-36 235.5,-36 235.5,-0 301.5,-0 301.5,-36"/>
<text text-anchor="middle" x="268.5" y="-13" font-family="times" font-size="20.00">c_{k}</text>
</g>
<!-- 0&#45;&gt;c_{k} -->
<g id="edge9" class="edge"><title>0&#45;&gt;c_{k}</title>
<path fill="none" stroke="black" d="M137.685,-354.889C126.53,-337.038 111.5,-307.823 111.5,-280 111.5,-280 111.5,-280 111.5,-90 111.5,-39.9399 178.587,-24.9883 225.053,-20.6363"/>
<polygon fill="gray" stroke="black" points="225.517,-24.1104 235.204,-19.8201 224.956,-17.1329 225.517,-24.1104"/>
</g>
<!-- 1&#45;&gt;2 -->
<g id="edge5" class="edge"><title>1&#45;&gt;2</title>
<path fill="none" stroke="black" d="M325.707,-260.696C330.547,-247.203 337.354,-228.226 342.895,-212.777"/>
<polygon fill="gray" stroke="black" points="346.239,-213.821 346.321,-203.227 339.65,-211.458 346.239,-213.821"/>
<text text-anchor="middle" x="394" y="-227" font-family="times" font-size="20.00">atrous_conv</text>
</g>
<!-- 1&#45;&gt;c_{k} -->
<g id="edge10" class="edge"><title>1&#45;&gt;c_{k}</title>
<path fill="none" stroke="black" d="M316.656,-260.745C311.971,-232.652 302.182,-175.307 292.5,-127 286.953,-99.3245 279.866,-67.8347 274.835,-46.0291"/>
<polygon fill="gray" stroke="black" points="278.215,-45.1121 272.546,-36.1617 271.396,-46.6939 278.215,-45.1121"/>
</g>
<!-- 2&#45;&gt;3 -->
<g id="edge7" class="edge"><title>2&#45;&gt;3</title>
<path fill="none" stroke="black" d="M334.134,-182.649C307.962,-179.95 259.364,-172.004 225.5,-149 213.768,-141.031 203.934,-128.799 196.644,-117.707"/>
<polygon fill="gray" stroke="black" points="199.594,-115.822 191.356,-109.159 193.641,-119.505 199.594,-115.822"/>
<text text-anchor="middle" x="280" y="-133" font-family="times" font-size="20.00">atrous_conv</text>
</g>
<!-- 2&#45;&gt;c_{k} -->
<g id="edge11" class="edge"><title>2&#45;&gt;c_{k}</title>
<path fill="none" stroke="black" d="M352.121,-166.822C350.746,-140.315 344.862,-88.8671 320.5,-54 317.499,-49.7056 313.789,-45.7887 309.741,-42.2591"/>
<polygon fill="gray" stroke="black" points="311.68,-39.3329 301.639,-35.9514 307.379,-44.8564 311.68,-39.3329"/>
</g>
<!-- 3&#45;&gt;c_{k} -->
<g id="edge12" class="edge"><title>3&#45;&gt;c_{k}</title>
<path fill="none" stroke="black" d="M200.738,-74.9427C212.171,-65.5041 227.147,-53.1407 240.111,-42.4375"/>
<polygon fill="gray" stroke="black" points="242.39,-45.0944 247.874,-36.0288 237.934,-39.6963 242.39,-45.0944"/>
</g>
</g>
</svg>
