<?xml version="1.0" encoding="UTF-8" standalone="no"?>
<!DOCTYPE svg PUBLIC "-//W3C//DTD SVG 1.1//EN"
 "http://www.w3.org/Graphics/SVG/1.1/DTD/svg11.dtd">
<!-- Generated by graphviz version 2.38.0 (20140413.2041)
 -->
<!-- Title: %3 Pages: 1 -->
<svg width="443pt" height="493pt"
 viewBox="0.00 0.00 443.00 493.00" xmlns="http://www.w3.org/2000/svg" xmlns:xlink="http://www.w3.org/1999/xlink">
<g id="graph0" class="graph" transform="scale(1 1) rotate(0) translate(4 489)">
<title>%3</title>
<polygon fill="white" stroke="none" points="-4,4 -4,-489 439,-489 439,4 -4,4"/>
<!-- c_{k&#45;2} -->
<g id="node1" class="node"><title>c_{k&#45;2}</title>
<polygon fill="#b4eeb4" stroke="black" stroke-width="2" points="134.5,-485 49.5,-485 49.5,-449 134.5,-449 134.5,-485"/>
<text text-anchor="middle" x="92" y="-462" font-family="times" font-size="20.00">c_{k&#45;2}</text>
</g>
<!-- 0 -->
<g id="node3" class="node"><title>0</title>
<polygon fill="lightblue" stroke="black" stroke-width="2" points="147,-391 111,-391 111,-355 147,-355 147,-391"/>
<text text-anchor="middle" x="129" y="-368" font-family="times" font-size="20.00">0</text>
</g>
<!-- c_{k&#45;2}&#45;&gt;0 -->
<g id="edge1" class="edge"><title>c_{k&#45;2}&#45;&gt;0</title>
<path fill="none" stroke="black" d="M88.9832,-448.822C87.7076,-437.119 87.5743,-421.534 93,-409 95.4402,-403.363 99.2647,-398.177 103.527,-393.621"/>
<polygon fill="gray" stroke="black" points="106.101,-396.003 110.945,-386.581 101.282,-390.926 106.101,-396.003"/>
<text text-anchor="middle" x="135" y="-415" font-family="times" font-size="20.00">sep_conv</text>
</g>
<!-- c_{k&#45;1} -->
<g id="node2" class="node"><title>c_{k&#45;1}</title>
<polygon fill="#b4eeb4" stroke="black" stroke-width="2" points="303.5,-485 218.5,-485 218.5,-449 303.5,-449 303.5,-485"/>
<text text-anchor="middle" x="261" y="-462" font-family="times" font-size="20.00">c_{k&#45;1}</text>
</g>
<!-- c_{k&#45;1}&#45;&gt;0 -->
<g id="edge2" class="edge"><title>c_{k&#45;1}&#45;&gt;0</title>
<path fill="none" stroke="black" d="M227.786,-448.877C218.502,-443.581 208.605,-437.434 200,-431 188.671,-422.529 187.85,-418.076 177,-409 170.325,-403.417 162.836,-397.712 155.795,-392.572"/>
<polygon fill="gray" stroke="black" points="157.376,-389.399 147.21,-386.415 153.296,-395.087 157.376,-389.399"/>
<text text-anchor="middle" x="254.5" y="-415" font-family="times" font-size="20.00">atrous_conv</text>
</g>
<!-- 1 -->
<g id="node4" class="node"><title>1</title>
<polygon fill="lightblue" stroke="black" stroke-width="2" points="337,-297 301,-297 301,-261 337,-261 337,-297"/>
<text text-anchor="middle" x="319" y="-274" font-family="times" font-size="20.00">1</text>
</g>
<!-- c_{k&#45;1}&#45;&gt;1 -->
<g id="edge4" class="edge"><title>c_{k&#45;1}&#45;&gt;1</title>
<path fill="none" stroke="black" d="M292.718,-448.988C299.147,-444.048 305.119,-438.046 309,-431 330.409,-392.13 327.92,-338.818 323.749,-307.043"/>
<polygon fill="gray" stroke="black" points="327.212,-306.533 322.302,-297.144 320.285,-307.546 327.212,-306.533"/>
<text text-anchor="middle" x="380.5" y="-368" font-family="times" font-size="20.00">atrous_conv</text>
</g>
<!-- 0&#45;&gt;1 -->
<g id="edge3" class="edge"><title>0&#45;&gt;1</title>
<path fill="none" stroke="black" d="M147.21,-359.585C156.367,-353.127 167.507,-344.941 177,-337 187.85,-327.924 187.508,-321.637 200,-315 233.334,-297.29 247.258,-309.137 283,-297 285.761,-296.062 288.59,-294.972 291.389,-293.805"/>
<polygon fill="gray" stroke="black" points="292.958,-296.937 300.65,-289.651 290.093,-290.55 292.958,-296.937"/>
<text text-anchor="middle" x="254.5" y="-321" font-family="times" font-size="20.00">atrous_conv</text>
</g>
<!-- 2 -->
<g id="node5" class="node"><title>2</title>
<polygon fill="lightblue" stroke="black" stroke-width="2" points="198,-203 162,-203 162,-167 198,-167 198,-203"/>
<text text-anchor="middle" x="180" y="-180" font-family="times" font-size="20.00">2</text>
</g>
<!-- 0&#45;&gt;2 -->
<g id="edge6" class="edge"><title>0&#45;&gt;2</title>
<path fill="none" stroke="black" d="M133.707,-354.835C142.587,-322.446 161.879,-252.087 172.542,-213.2"/>
<polygon fill="gray" stroke="black" points="176.036,-213.693 175.305,-203.124 169.285,-211.842 176.036,-213.693"/>
<text text-anchor="middle" x="214.5" y="-274" font-family="times" font-size="20.00">shuffle_conv</text>
</g>
<!-- 3 -->
<g id="node6" class="node"><title>3</title>
<polygon fill="lightblue" stroke="black" stroke-width="2" points="89,-109 53,-109 53,-73 89,-73 89,-109"/>
<text text-anchor="middle" x="71" y="-86" font-family="times" font-size="20.00">3</text>
</g>
<!-- 0&#45;&gt;3 -->
<g id="edge8" class="edge"><title>0&#45;&gt;3</title>
<path fill="none" stroke="black" d="M113.463,-354.821C93.5281,-331.5 59.9731,-287.592 47,-243 34.6087,-200.408 48.6214,-149.079 59.8466,-118.568"/>
<polygon fill="gray" stroke="black" points="63.1798,-119.652 63.5044,-109.062 56.6467,-117.138 63.1798,-119.652"/>
<text text-anchor="middle" x="103.5" y="-227" font-family="times" font-size="20.00">shuffle_conv</text>
</g>
<!-- c_{k} -->
<g id="node7" class="node"><title>c_{k}</title>
<polygon fill="palegoldenrod" stroke="black" stroke-width="2" points="190,-36 124,-36 124,-0 190,-0 190,-36"/>
<text text-anchor="middle" x="157" y="-13" font-family="times" font-size="20.00">c_{k}</text>
</g>
<!-- 0&#45;&gt;c_{k} -->
<g id="edge9" class="edge"><title>0&#45;&gt;c_{k}</title>
<path fill="none" stroke="black" d="M110.791,-368.024C75.2321,-359.072 0,-333.778 0,-280 0,-280 0,-280 0,-90 0,-39.9399 67.0871,-24.9883 113.553,-20.6363"/>
<polygon fill="gray" stroke="black" points="114.017,-24.1104 123.704,-19.8201 113.456,-17.1329 114.017,-24.1104"/>
</g>
<!-- 1&#45;&gt;2 -->
<g id="edge5" class="edge"><title>1&#45;&gt;2</title>
<path fill="none" stroke="black" d="M300.65,-268.349C295.088,-265.695 288.89,-263 283,-261 247.258,-248.863 228.292,-267.987 200,-243 191.363,-235.372 186.455,-223.79 183.667,-213.055"/>
<polygon fill="gray" stroke="black" points="187.073,-212.244 181.591,-203.178 180.223,-213.684 187.073,-212.244"/>
<text text-anchor="middle" x="254.5" y="-227" font-family="times" font-size="20.00">atrous_conv</text>
</g>
<!-- 1&#45;&gt;c_{k} -->
<g id="edge10" class="edge"><title>1&#45;&gt;c_{k}</title>
<path fill="none" stroke="black" d="M318.102,-260.94C316.993,-249.289 314.519,-233.719 309,-221 277.817,-149.132 216.22,-79.2778 181.783,-43.57"/>
<polygon fill="gray" stroke="black" points="183.951,-40.7795 174.461,-36.0681 178.941,-45.669 183.951,-40.7795"/>
</g>
<!-- 2&#45;&gt;3 -->
<g id="edge7" class="edge"><title>2&#45;&gt;3</title>
<path fill="none" stroke="black" d="M161.847,-184.084C136.938,-183.101 92.8807,-177.193 72,-149 65.7919,-140.618 64.5258,-129.477 65.1849,-119.269"/>
<polygon fill="gray" stroke="black" points="68.6856,-119.478 66.4421,-109.124 61.7387,-118.618 68.6856,-119.478"/>
<text text-anchor="middle" x="126.5" y="-133" font-family="times" font-size="20.00">atrous_conv</text>
</g>
<!-- 2&#45;&gt;c_{k} -->
<g id="edge11" class="edge"><title>2&#45;&gt;c_{k}</title>
<path fill="none" stroke="black" d="M180.586,-166.912C180.755,-161.216 180.917,-154.835 181,-149 181.14,-139.223 182.067,-136.719 181,-127 177.92,-98.9427 170.468,-67.5093 164.678,-45.8212"/>
<polygon fill="gray" stroke="black" points="168.01,-44.7369 161.995,-36.0147 161.258,-46.5838 168.01,-44.7369"/>
</g>
<!-- 3&#45;&gt;c_{k} -->
<g id="edge12" class="edge"><title>3&#45;&gt;c_{k}</title>
<path fill="none" stroke="black" d="M89.2384,-74.9427C100.671,-65.5041 115.647,-53.1407 128.611,-42.4375"/>
<polygon fill="gray" stroke="black" points="130.89,-45.0944 136.374,-36.0288 126.434,-39.6963 130.89,-45.0944"/>
</g>
</g>
</svg>
