<?xml version="1.0" encoding="UTF-8" standalone="no"?>
<!DOCTYPE svg PUBLIC "-//W3C//DTD SVG 1.1//EN"
 "http://www.w3.org/Graphics/SVG/1.1/DTD/svg11.dtd">
<!-- Generated by graphviz version 2.38.0 (20140413.2041)
 -->
<!-- Title: %3 Pages: 1 -->
<svg width="771pt" height="305pt"
 viewBox="0.00 0.00 771.35 305.00" xmlns="http://www.w3.org/2000/svg" xmlns:xlink="http://www.w3.org/1999/xlink">
<g id="graph0" class="graph" transform="scale(1 1) rotate(0) translate(4 301)">
<title>%3</title>
<polygon fill="white" stroke="none" points="-4,4 -4,-301 767.349,-301 767.349,4 -4,4"/>
<!-- c_{k&#45;2} -->
<g id="node1" class="node"><title>c_{k&#45;2}</title>
<polygon fill="#b4eeb4" stroke="black" stroke-width="2" points="120.849,-297 35.8494,-297 35.8494,-261 120.849,-261 120.849,-297"/>
<text text-anchor="middle" x="78.3494" y="-274" font-family="times" font-size="20.00">c_{k&#45;2}</text>
</g>
<!-- 0 -->
<g id="node3" class="node"><title>0</title>
<polygon fill="lightblue" stroke="black" stroke-width="2" points="198.349,-203 162.349,-203 162.349,-167 198.349,-167 198.349,-203"/>
<text text-anchor="middle" x="180.349" y="-180" font-family="times" font-size="20.00">0</text>
</g>
<!-- c_{k&#45;2}&#45;&gt;0 -->
<g id="edge2" class="edge"><title>c_{k&#45;2}&#45;&gt;0</title>
<path fill="none" stroke="black" d="M35.6438,-264.415C26.0206,-259.27 16.9935,-252.316 11.3494,-243 6.28294,-234.637 5.17622,-228.583 11.3494,-221 12.4678,-219.626 104.235,-201.167 152.056,-191.626"/>
<polygon fill="gray" stroke="black" points="152.97,-195.013 162.094,-189.626 151.602,-188.148 152.97,-195.013"/>
<text text-anchor="middle" x="67.8494" y="-227" font-family="times" font-size="20.00">shuffle_conv</text>
</g>
<!-- 1 -->
<g id="node4" class="node"><title>1</title>
<polygon fill="lightblue" stroke="black" stroke-width="2" points="304.349,-203 268.349,-203 268.349,-167 304.349,-167 304.349,-203"/>
<text text-anchor="middle" x="286.349" y="-180" font-family="times" font-size="20.00">1</text>
</g>
<!-- c_{k&#45;2}&#45;&gt;1 -->
<g id="edge4" class="edge"><title>c_{k&#45;2}&#45;&gt;1</title>
<path fill="none" stroke="black" d="M102.153,-260.693C109.413,-255.202 117.329,-248.995 124.349,-243 135.106,-233.814 134.969,-227.843 147.349,-221 157.055,-215.636 220.629,-200.774 258.354,-192.241"/>
<polygon fill="gray" stroke="black" points="259.255,-195.626 268.243,-190.015 257.718,-188.797 259.255,-195.626"/>
<text text-anchor="middle" x="201.849" y="-227" font-family="times" font-size="20.00">atrous_conv</text>
</g>
<!-- 2 -->
<g id="node5" class="node"><title>2</title>
<polygon fill="lightblue" stroke="black" stroke-width="2" points="152.349,-109 116.349,-109 116.349,-73 152.349,-73 152.349,-109"/>
<text text-anchor="middle" x="134.349" y="-86" font-family="times" font-size="20.00">2</text>
</g>
<!-- c_{k&#45;2}&#45;&gt;2 -->
<g id="edge6" class="edge"><title>c_{k&#45;2}&#45;&gt;2</title>
<path fill="none" stroke="black" d="M35.7633,-267.709C23.1586,-262.466 10.7593,-254.635 3.34941,-243 -1.90297,-234.753 0.456542,-230.34 3.34941,-221 19.7502,-168.047 74.1889,-127.571 107.507,-107.014"/>
<polygon fill="gray" stroke="black" points="109.515,-109.891 116.295,-101.75 105.918,-103.886 109.515,-109.891"/>
<text text-anchor="middle" x="89.8494" y="-180" font-family="times" font-size="20.00">shuffle_conv</text>
</g>
<!-- 3 -->
<g id="node6" class="node"><title>3</title>
<polygon fill="lightblue" stroke="black" stroke-width="2" points="463.349,-203 427.349,-203 427.349,-167 463.349,-167 463.349,-203"/>
<text text-anchor="middle" x="445.349" y="-180" font-family="times" font-size="20.00">3</text>
</g>
<!-- c_{k&#45;2}&#45;&gt;3 -->
<g id="edge7" class="edge"><title>c_{k&#45;2}&#45;&gt;3</title>
<path fill="none" stroke="black" d="M121.121,-276.146C208.183,-272.017 399.777,-260.986 423.349,-243 432.84,-235.758 438.238,-223.867 441.308,-212.814"/>
<polygon fill="gray" stroke="black" points="444.722,-213.583 443.523,-203.057 437.896,-212.034 444.722,-213.583"/>
<text text-anchor="middle" x="458.349" y="-227" font-family="times" font-size="20.00">conv</text>
</g>
<!-- c_{k&#45;1} -->
<g id="node2" class="node"><title>c_{k&#45;1}</title>
<polygon fill="#b4eeb4" stroke="black" stroke-width="2" points="552.849,-297 467.849,-297 467.849,-261 552.849,-261 552.849,-297"/>
<text text-anchor="middle" x="510.349" y="-274" font-family="times" font-size="20.00">c_{k&#45;1}</text>
</g>
<!-- c_{k&#45;1}&#45;&gt;0 -->
<g id="edge1" class="edge"><title>c_{k&#45;1}&#45;&gt;0</title>
<path fill="none" stroke="black" d="M467.622,-274.624C410.216,-269.563 311.657,-258.877 279.349,-243 266.654,-236.761 268.045,-228.957 256.349,-221 241.419,-210.843 223.068,-202.297 208.139,-196.193"/>
<polygon fill="gray" stroke="black" points="209.021,-192.779 198.434,-192.367 206.453,-199.291 209.021,-192.779"/>
<text text-anchor="middle" x="351.349" y="-227" font-family="times" font-size="20.00">down_sep_conv</text>
</g>
<!-- c_{k&#45;1}&#45;&gt;1 -->
<g id="edge3" class="edge"><title>c_{k&#45;1}&#45;&gt;1</title>
<path fill="none" stroke="black" d="M508.286,-260.912C505.795,-247.98 500.323,-230.822 488.349,-221 475.059,-210.098 366.789,-195.718 314.462,-189.318"/>
<polygon fill="gray" stroke="black" points="314.84,-185.838 304.492,-188.113 314,-192.788 314.84,-185.838"/>
<text text-anchor="middle" x="574.349" y="-227" font-family="times" font-size="20.00">down_sep_conv</text>
</g>
<!-- c_{k&#45;1}&#45;&gt;3 -->
<g id="edge8" class="edge"><title>c_{k&#45;1}&#45;&gt;3</title>
<path fill="none" stroke="black" d="M552.995,-275.422C606.046,-270.644 686.121,-257.324 655.349,-221 632.376,-193.881 525.401,-187.755 473.602,-186.385"/>
<polygon fill="gray" stroke="black" points="473.512,-182.883 463.437,-186.16 473.356,-189.881 473.512,-182.883"/>
<text text-anchor="middle" x="712.349" y="-227" font-family="times" font-size="20.00">down_conv</text>
</g>
<!-- c_{k} -->
<g id="node7" class="node"><title>c_{k}</title>
<polygon fill="palegoldenrod" stroke="black" stroke-width="2" points="291.349,-36 225.349,-36 225.349,-0 291.349,-0 291.349,-36"/>
<text text-anchor="middle" x="258.349" y="-13" font-family="times" font-size="20.00">c_{k}</text>
</g>
<!-- 0&#45;&gt;c_{k} -->
<g id="edge9" class="edge"><title>0&#45;&gt;c_{k}</title>
<path fill="none" stroke="black" d="M183.189,-166.878C185.431,-155.339 189.069,-139.923 194.349,-127 206.54,-97.1652 226.002,-65.762 240.267,-44.5572"/>
<polygon fill="gray" stroke="black" points="243.274,-46.3594 246.026,-36.1281 237.494,-42.4104 243.274,-46.3594"/>
</g>
<!-- 1&#45;&gt;2 -->
<g id="edge5" class="edge"><title>1&#45;&gt;2</title>
<path fill="none" stroke="black" d="M268.162,-176.175C253.338,-169.558 232.037,-159.501 214.349,-149 195.666,-137.908 175.765,-123.738 160.485,-112.302"/>
<polygon fill="gray" stroke="black" points="162.595,-109.51 152.509,-106.266 158.371,-115.092 162.595,-109.51"/>
<text text-anchor="middle" x="268.849" y="-133" font-family="times" font-size="20.00">atrous_conv</text>
</g>
<!-- 1&#45;&gt;c_{k} -->
<g id="edge10" class="edge"><title>1&#45;&gt;c_{k}</title>
<path fill="none" stroke="black" d="M304.582,-171.87C311.861,-165.932 319.433,-158.096 323.349,-149 327.216,-140.019 325.966,-136.421 323.349,-127 314.754,-96.0507 294.648,-65.0881 279.055,-44.3015"/>
<polygon fill="gray" stroke="black" points="281.782,-42.106 272.91,-36.3158 276.235,-46.3753 281.782,-42.106"/>
</g>
<!-- 2&#45;&gt;c_{k} -->
<g id="edge11" class="edge"><title>2&#45;&gt;c_{k}</title>
<path fill="none" stroke="black" d="M146.615,-72.9573C152.058,-66.3365 158.915,-59.128 166.349,-54 181.027,-43.8752 199.024,-36.1894 215.196,-30.6364"/>
<polygon fill="gray" stroke="black" points="216.557,-33.8742 224.983,-27.4517 214.391,-27.2177 216.557,-33.8742"/>
</g>
<!-- 3&#45;&gt;c_{k} -->
<g id="edge12" class="edge"><title>3&#45;&gt;c_{k}</title>
<path fill="none" stroke="black" d="M426.953,-167.348C402.821,-145.546 359.104,-106.197 321.349,-73 311.647,-64.469 309.151,-62.4163 299.349,-54 295.089,-50.3419 290.574,-46.476 286.157,-42.7005"/>
<polygon fill="gray" stroke="black" points="288.266,-39.8994 278.389,-36.0669 283.72,-45.2225 288.266,-39.8994"/>
</g>
</g>
</svg>
