<?xml version="1.0" encoding="UTF-8" standalone="no"?>
<!DOCTYPE svg PUBLIC "-//W3C//DTD SVG 1.1//EN"
 "http://www.w3.org/Graphics/SVG/1.1/DTD/svg11.dtd">
<!-- Generated by graphviz version 2.38.0 (20140413.2041)
 -->
<!-- Title: %3 Pages: 1 -->
<svg width="411pt" height="493pt"
 viewBox="0.00 0.00 410.50 493.00" xmlns="http://www.w3.org/2000/svg" xmlns:xlink="http://www.w3.org/1999/xlink">
<g id="graph0" class="graph" transform="scale(1 1) rotate(0) translate(4 489)">
<title>%3</title>
<polygon fill="white" stroke="none" points="-4,4 -4,-489 406.5,-489 406.5,4 -4,4"/>
<!-- c_{k&#45;2} -->
<g id="node1" class="node"><title>c_{k&#45;2}</title>
<polygon fill="#b4eeb4" stroke="black" stroke-width="2" points="148.5,-485 63.5,-485 63.5,-449 148.5,-449 148.5,-485"/>
<text text-anchor="middle" x="106" y="-462" font-family="times" font-size="20.00">c_{k&#45;2}</text>
</g>
<!-- 0 -->
<g id="node3" class="node"><title>0</title>
<polygon fill="lightblue" stroke="black" stroke-width="2" points="354,-391 318,-391 318,-355 354,-355 354,-391"/>
<text text-anchor="middle" x="336" y="-368" font-family="times" font-size="20.00">0</text>
</g>
<!-- c_{k&#45;2}&#45;&gt;0 -->
<g id="edge1" class="edge"><title>c_{k&#45;2}&#45;&gt;0</title>
<path fill="none" stroke="black" d="M148.544,-454.076C165.755,-448.35 185.43,-440.618 202,-431 215.092,-423.401 214.486,-415.82 228,-409 258.989,-393.36 271.518,-403.243 304,-391 305.435,-390.459 306.887,-389.867 308.339,-389.239"/>
<polygon fill="gray" stroke="black" points="310.26,-392.199 317.761,-384.717 307.231,-385.888 310.26,-392.199"/>
<text text-anchor="middle" x="284.5" y="-415" font-family="times" font-size="20.00">shuffle_conv</text>
</g>
<!-- 1 -->
<g id="node4" class="node"><title>1</title>
<polygon fill="lightblue" stroke="black" stroke-width="2" points="230,-297 194,-297 194,-261 230,-261 230,-297"/>
<text text-anchor="middle" x="212" y="-274" font-family="times" font-size="20.00">1</text>
</g>
<!-- c_{k&#45;2}&#45;&gt;1 -->
<g id="edge3" class="edge"><title>c_{k&#45;2}&#45;&gt;1</title>
<path fill="none" stroke="black" d="M117.088,-448.755C132.675,-424.276 161.657,-377.878 184,-337 189.394,-327.132 194.934,-316.079 199.649,-306.351"/>
<polygon fill="gray" stroke="black" points="202.888,-307.689 204.051,-297.159 196.575,-304.666 202.888,-307.689"/>
<text text-anchor="middle" x="227.5" y="-368" font-family="times" font-size="20.00">atrous_conv</text>
</g>
<!-- 2 -->
<g id="node5" class="node"><title>2</title>
<polygon fill="lightblue" stroke="black" stroke-width="2" points="105,-203 69,-203 69,-167 105,-167 105,-203"/>
<text text-anchor="middle" x="87" y="-180" font-family="times" font-size="20.00">2</text>
</g>
<!-- c_{k&#45;2}&#45;&gt;2 -->
<g id="edge6" class="edge"><title>c_{k&#45;2}&#45;&gt;2</title>
<path fill="none" stroke="black" d="M99.0412,-448.845C89.567,-424.472 73.0916,-378.199 67,-337 60.599,-293.709 70.8314,-243.287 78.8671,-213.045"/>
<polygon fill="gray" stroke="black" points="82.2881,-213.806 81.5869,-203.234 75.5425,-211.936 82.2881,-213.806"/>
<text text-anchor="middle" x="123.5" y="-321" font-family="times" font-size="20.00">shuffle_conv</text>
</g>
<!-- 3 -->
<g id="node6" class="node"><title>3</title>
<polygon fill="lightblue" stroke="black" stroke-width="2" points="83,-109 47,-109 47,-73 83,-73 83,-109"/>
<text text-anchor="middle" x="65" y="-86" font-family="times" font-size="20.00">3</text>
</g>
<!-- c_{k&#45;2}&#45;&gt;3 -->
<g id="edge7" class="edge"><title>c_{k&#45;2}&#45;&gt;3</title>
<path fill="none" stroke="black" d="M63.4965,-449.038C34.0065,-434.155 0,-409.333 0,-374 0,-374 0,-374 0,-184 0,-155.423 21.1779,-129.495 39.3569,-112.502"/>
<polygon fill="gray" stroke="black" points="41.7571,-115.051 46.8939,-105.785 37.0997,-109.826 41.7571,-115.051"/>
<text text-anchor="middle" x="21" y="-274" font-family="times" font-size="20.00">conv</text>
</g>
<!-- c_{k&#45;1} -->
<g id="node2" class="node"><title>c_{k&#45;1}</title>
<polygon fill="#b4eeb4" stroke="black" stroke-width="2" points="402.5,-485 317.5,-485 317.5,-449 402.5,-449 402.5,-485"/>
<text text-anchor="middle" x="360" y="-462" font-family="times" font-size="20.00">c_{k&#45;1}</text>
</g>
<!-- c_{k&#45;1}&#45;&gt;0 -->
<g id="edge2" class="edge"><title>c_{k&#45;1}&#45;&gt;0</title>
<path fill="none" stroke="black" d="M355.486,-448.696C351.999,-435.331 347.11,-416.587 343.101,-401.219"/>
<polygon fill="gray" stroke="black" points="346.405,-400.02 340.494,-391.227 339.632,-401.787 346.405,-400.02"/>
<text text-anchor="middle" x="371" y="-415" font-family="times" font-size="20.00">conv</text>
</g>
<!-- 0&#45;&gt;1 -->
<g id="edge4" class="edge"><title>0&#45;&gt;1</title>
<path fill="none" stroke="black" d="M317.956,-361.812C313.461,-359.443 308.608,-357.024 304,-355 281.992,-345.335 272.233,-351.418 253,-337 242.027,-328.774 232.78,-316.771 225.862,-305.898"/>
<polygon fill="gray" stroke="black" points="228.755,-303.916 220.611,-297.138 222.751,-307.515 228.755,-303.916"/>
<text text-anchor="middle" x="274" y="-321" font-family="times" font-size="20.00">conv</text>
</g>
<!-- c_{k} -->
<g id="node7" class="node"><title>c_{k}</title>
<polygon fill="palegoldenrod" stroke="black" stroke-width="2" points="241,-36 175,-36 175,-0 241,-0 241,-36"/>
<text text-anchor="middle" x="208" y="-13" font-family="times" font-size="20.00">c_{k}</text>
</g>
<!-- 0&#45;&gt;c_{k} -->
<g id="edge9" class="edge"><title>0&#45;&gt;c_{k}</title>
<path fill="none" stroke="black" d="M327.752,-354.804C319.812,-336.645 309,-306.966 309,-280 309,-280 309,-280 309,-90 309,-59.7064 278.214,-41.2213 250.636,-30.7396"/>
<polygon fill="gray" stroke="black" points="251.666,-27.3914 241.071,-27.3596 249.334,-33.9914 251.666,-27.3914"/>
</g>
<!-- 1&#45;&gt;2 -->
<g id="edge5" class="edge"><title>1&#45;&gt;2</title>
<path fill="none" stroke="black" d="M193.644,-277.116C169.72,-274.97 128.101,-267.675 104,-243 96.2072,-235.022 91.964,-223.63 89.6623,-213.125"/>
<polygon fill="gray" stroke="black" points="93.0798,-212.345 87.9482,-203.076 86.1794,-213.522 93.0798,-212.345"/>
<text text-anchor="middle" x="158.5" y="-227" font-family="times" font-size="20.00">atrous_conv</text>
</g>
<!-- 1&#45;&gt;c_{k} -->
<g id="edge10" class="edge"><title>1&#45;&gt;c_{k}</title>
<path fill="none" stroke="black" d="M212.957,-260.828C214.857,-223.266 218.472,-131.001 213,-54 212.817,-51.4285 212.56,-48.7587 212.257,-46.092"/>
<polygon fill="gray" stroke="black" points="215.709,-45.493 210.928,-36.0378 208.769,-46.4102 215.709,-45.493"/>
</g>
<!-- 2&#45;&gt;3 -->
<g id="edge8" class="edge"><title>2&#45;&gt;3</title>
<path fill="none" stroke="black" d="M74.1769,-166.67C70.8731,-161.277 67.7562,-155.131 66,-149 63.3069,-139.598 62.5438,-128.962 62.622,-119.446"/>
<polygon fill="gray" stroke="black" points="66.1251,-119.428 63.0098,-109.302 59.1303,-119.161 66.1251,-119.428"/>
<text text-anchor="middle" x="120.5" y="-133" font-family="times" font-size="20.00">atrous_conv</text>
</g>
<!-- 2&#45;&gt;c_{k} -->
<g id="edge11" class="edge"><title>2&#45;&gt;c_{k}</title>
<path fill="none" stroke="black" d="M105.306,-181.67C125.338,-178.139 156.994,-169.512 175,-149 200.063,-120.448 206.583,-75.4859 208.016,-46.628"/>
<polygon fill="gray" stroke="black" points="211.521,-46.5317 208.345,-36.4243 204.525,-46.3066 211.521,-46.5317"/>
</g>
<!-- 3&#45;&gt;c_{k} -->
<g id="edge12" class="edge"><title>3&#45;&gt;c_{k}</title>
<path fill="none" stroke="black" d="M83.111,-81.0078C103.773,-70.7492 138.254,-53.6292 165.756,-39.9741"/>
<polygon fill="gray" stroke="black" points="167.385,-43.073 174.786,-35.491 164.272,-36.8033 167.385,-43.073"/>
</g>
</g>
</svg>
