<?xml version="1.0" encoding="UTF-8" standalone="no"?>
<!DOCTYPE svg PUBLIC "-//W3C//DTD SVG 1.1//EN"
 "http://www.w3.org/Graphics/SVG/1.1/DTD/svg11.dtd">
<!-- Generated by graphviz version 2.38.0 (20140413.2041)
 -->
<!-- Title: %3 Pages: 1 -->
<svg width="663pt" height="399pt"
 viewBox="0.00 0.00 662.50 399.00" xmlns="http://www.w3.org/2000/svg" xmlns:xlink="http://www.w3.org/1999/xlink">
<g id="graph0" class="graph" transform="scale(1 1) rotate(0) translate(4 395)">
<title>%3</title>
<polygon fill="white" stroke="none" points="-4,4 -4,-395 658.502,-395 658.502,4 -4,4"/>
<!-- c_{k&#45;2} -->
<g id="node1" class="node"><title>c_{k&#45;2}</title>
<polygon fill="#b4eeb4" stroke="black" stroke-width="2" points="174.002,-391 89.0019,-391 89.0019,-355 174.002,-355 174.002,-391"/>
<text text-anchor="middle" x="131.502" y="-368" font-family="times" font-size="20.00">c_{k&#45;2}</text>
</g>
<!-- 0 -->
<g id="node3" class="node"><title>0</title>
<polygon fill="lightblue" stroke="black" stroke-width="2" points="103.502,-297 67.5019,-297 67.5019,-261 103.502,-261 103.502,-297"/>
<text text-anchor="middle" x="85.5019" y="-274" font-family="times" font-size="20.00">0</text>
</g>
<!-- c_{k&#45;2}&#45;&gt;0 -->
<g id="edge2" class="edge"><title>c_{k&#45;2}&#45;&gt;0</title>
<path fill="none" stroke="black" d="M88.8995,-365.872C56.1549,-360.187 14.8261,-350.554 4.50187,-337 -13.097,-313.895 27.7884,-296.466 57.6446,-287.28"/>
<polygon fill="gray" stroke="black" points="58.6234,-290.641 67.2465,-284.485 56.6668,-283.92 58.6234,-290.641"/>
<text text-anchor="middle" x="61.0019" y="-321" font-family="times" font-size="20.00">shuffle_conv</text>
</g>
<!-- 1 -->
<g id="node4" class="node"><title>1</title>
<polygon fill="lightblue" stroke="black" stroke-width="2" points="250.502,-297 214.502,-297 214.502,-261 250.502,-261 250.502,-297"/>
<text text-anchor="middle" x="232.502" y="-274" font-family="times" font-size="20.00">1</text>
</g>
<!-- c_{k&#45;2}&#45;&gt;1 -->
<g id="edge3" class="edge"><title>c_{k&#45;2}&#45;&gt;1</title>
<path fill="none" stroke="black" d="M138.65,-354.843C144.45,-342.547 153.61,-326.239 165.502,-315 176.751,-304.369 191.855,-296.105 204.875,-290.283"/>
<polygon fill="gray" stroke="black" points="206.465,-293.411 214.327,-286.309 203.752,-286.959 206.465,-293.411"/>
<text text-anchor="middle" x="220.002" y="-321" font-family="times" font-size="20.00">atrous_conv</text>
</g>
<!-- 3 -->
<g id="node6" class="node"><title>3</title>
<polygon fill="lightblue" stroke="black" stroke-width="2" points="160.502,-109 124.502,-109 124.502,-73 160.502,-73 160.502,-109"/>
<text text-anchor="middle" x="142.502" y="-86" font-family="times" font-size="20.00">3</text>
</g>
<!-- c_{k&#45;2}&#45;&gt;3 -->
<g id="edge7" class="edge"><title>c_{k&#45;2}&#45;&gt;3</title>
<path fill="none" stroke="black" d="M131.22,-354.78C130.85,-326.735 130.466,-269.457 132.502,-221 133.979,-185.848 137.392,-145.422 139.819,-119.334"/>
<polygon fill="gray" stroke="black" points="143.331,-119.373 140.79,-109.088 136.362,-118.713 143.331,-119.373"/>
<text text-anchor="middle" x="153.502" y="-227" font-family="times" font-size="20.00">conv</text>
</g>
<!-- c_{k&#45;1} -->
<g id="node2" class="node"><title>c_{k&#45;1}</title>
<polygon fill="#b4eeb4" stroke="black" stroke-width="2" points="480.002,-391 395.002,-391 395.002,-355 480.002,-355 480.002,-391"/>
<text text-anchor="middle" x="437.502" y="-368" font-family="times" font-size="20.00">c_{k&#45;1}</text>
</g>
<!-- c_{k&#45;1}&#45;&gt;0 -->
<g id="edge1" class="edge"><title>c_{k&#45;1}&#45;&gt;0</title>
<path fill="none" stroke="black" d="M394.852,-368.564C364.71,-364.548 324.348,-355.846 293.502,-337 282.477,-330.264 285.709,-321.428 274.502,-315 260.715,-307.092 162.768,-291.569 113.565,-284.146"/>
<polygon fill="gray" stroke="black" points="113.982,-280.669 103.574,-282.649 112.945,-287.592 113.982,-280.669"/>
<text text-anchor="middle" x="352.502" y="-321" font-family="times" font-size="20.00">up_sep_conv</text>
</g>
<!-- c_{k&#45;1}&#45;&gt;1 -->
<g id="edge4" class="edge"><title>c_{k&#45;1}&#45;&gt;1</title>
<path fill="none" stroke="black" d="M435.391,-354.97C432.873,-342.07 427.389,-324.926 415.502,-315 392.4,-295.711 306.193,-285.971 260.827,-282.09"/>
<polygon fill="gray" stroke="black" points="261.009,-278.593 250.758,-281.267 260.439,-285.57 261.009,-278.593"/>
<text text-anchor="middle" x="488.502" y="-321" font-family="times" font-size="20.00">up_sep_conv</text>
</g>
<!-- 2 -->
<g id="node5" class="node"><title>2</title>
<polygon fill="lightblue" stroke="black" stroke-width="2" points="307.502,-203 271.502,-203 271.502,-167 307.502,-167 307.502,-203"/>
<text text-anchor="middle" x="289.502" y="-180" font-family="times" font-size="20.00">2</text>
</g>
<!-- c_{k&#45;1}&#45;&gt;2 -->
<g id="edge6" class="edge"><title>c_{k&#45;1}&#45;&gt;2</title>
<path fill="none" stroke="black" d="M480.073,-367.007C519.562,-360.394 569.694,-345.759 551.502,-315 500.947,-229.52 374.37,-199.327 317.703,-189.859"/>
<polygon fill="gray" stroke="black" points="318.079,-186.376 307.657,-188.278 316.991,-193.29 318.079,-186.376"/>
<text text-anchor="middle" x="595.502" y="-274" font-family="times" font-size="20.00">up_sep_conv</text>
</g>
<!-- c_{k} -->
<g id="node7" class="node"><title>c_{k}</title>
<polygon fill="palegoldenrod" stroke="black" stroke-width="2" points="203.502,-36 137.502,-36 137.502,-0 203.502,-0 203.502,-36"/>
<text text-anchor="middle" x="170.502" y="-13" font-family="times" font-size="20.00">c_{k}</text>
</g>
<!-- 0&#45;&gt;c_{k} -->
<g id="edge9" class="edge"><title>0&#45;&gt;c_{k}</title>
<path fill="none" stroke="black" d="M84.4575,-260.978C82.9422,-224.405 83.2514,-136.499 115.502,-73 121.23,-61.7215 130.227,-51.4093 139.298,-42.8877"/>
<polygon fill="gray" stroke="black" points="141.712,-45.4256 146.865,-36.1687 137.064,-40.1913 141.712,-45.4256"/>
</g>
<!-- 1&#45;&gt;2 -->
<g id="edge5" class="edge"><title>1&#45;&gt;2</title>
<path fill="none" stroke="black" d="M243.223,-260.696C251.742,-246.946 263.789,-227.501 273.456,-211.898"/>
<polygon fill="gray" stroke="black" points="276.537,-213.571 278.829,-203.227 270.587,-209.884 276.537,-213.571"/>
<text text-anchor="middle" x="322.002" y="-227" font-family="times" font-size="20.00">atrous_conv</text>
</g>
<!-- 1&#45;&gt;c_{k} -->
<g id="edge10" class="edge"><title>1&#45;&gt;c_{k}</title>
<path fill="none" stroke="black" d="M228.338,-260.604C217.749,-216.37 189.734,-99.3415 176.985,-46.0815"/>
<polygon fill="gray" stroke="black" points="180.38,-45.2306 174.648,-36.3202 173.572,-46.8603 180.38,-45.2306"/>
</g>
<!-- 2&#45;&gt;3 -->
<g id="edge8" class="edge"><title>2&#45;&gt;3</title>
<path fill="none" stroke="black" d="M271.5,-175.438C257.796,-168.72 238.61,-158.881 222.502,-149 204.153,-137.744 184.449,-123.73 169.187,-112.415"/>
<polygon fill="gray" stroke="black" points="170.862,-109.296 160.759,-106.106 166.667,-114.9 170.862,-109.296"/>
<text text-anchor="middle" x="277.002" y="-133" font-family="times" font-size="20.00">atrous_conv</text>
</g>
<!-- 2&#45;&gt;c_{k} -->
<g id="edge11" class="edge"><title>2&#45;&gt;c_{k}</title>
<path fill="none" stroke="black" d="M307.504,-174.181C316.5,-168.203 326.51,-159.658 331.502,-149 335.649,-140.145 336.103,-135.627 331.502,-127 306.679,-80.4579 251.911,-50.4254 213.164,-34.1312"/>
<polygon fill="gray" stroke="black" points="214.269,-30.8022 203.686,-30.283 211.635,-37.288 214.269,-30.8022"/>
</g>
<!-- 3&#45;&gt;c_{k} -->
<g id="edge12" class="edge"><title>3&#45;&gt;c_{k}</title>
<path fill="none" stroke="black" d="M149.28,-72.8129C152.513,-64.6151 156.453,-54.6231 160.057,-45.4847"/>
<polygon fill="gray" stroke="black" points="163.373,-46.6156 163.786,-36.0288 156.862,-44.0475 163.373,-46.6156"/>
</g>
</g>
</svg>
