<?xml version="1.0" encoding="UTF-8" standalone="no"?>
<!DOCTYPE svg PUBLIC "-//W3C//DTD SVG 1.1//EN"
 "http://www.w3.org/Graphics/SVG/1.1/DTD/svg11.dtd">
<!-- Generated by graphviz version 2.38.0 (20140413.2041)
 -->
<!-- Title: %3 Pages: 1 -->
<svg width="697pt" height="399pt"
 viewBox="0.00 0.00 697.27 399.00" xmlns="http://www.w3.org/2000/svg" xmlns:xlink="http://www.w3.org/1999/xlink">
<g id="graph0" class="graph" transform="scale(1 1) rotate(0) translate(4 395)">
<title>%3</title>
<polygon fill="white" stroke="none" points="-4,4 -4,-395 693.275,-395 693.275,4 -4,4"/>
<!-- c_{k&#45;2} -->
<g id="node1" class="node"><title>c_{k&#45;2}</title>
<polygon fill="#b4eeb4" stroke="black" stroke-width="2" points="622.775,-391 537.775,-391 537.775,-355 622.775,-355 622.775,-391"/>
<text text-anchor="middle" x="580.275" y="-368" font-family="times" font-size="20.00">c_{k&#45;2}</text>
</g>
<!-- 0 -->
<g id="node3" class="node"><title>0</title>
<polygon fill="lightblue" stroke="black" stroke-width="2" points="358.275,-297 322.275,-297 322.275,-261 358.275,-261 358.275,-297"/>
<text text-anchor="middle" x="340.275" y="-274" font-family="times" font-size="20.00">0</text>
</g>
<!-- c_{k&#45;2}&#45;&gt;0 -->
<g id="edge2" class="edge"><title>c_{k&#45;2}&#45;&gt;0</title>
<path fill="none" stroke="black" d="M543.049,-354.956C533.557,-349.822 523.672,-343.738 515.275,-337 505.198,-328.915 507.359,-321.638 496.275,-315 494.89,-314.171 413.094,-296.054 368.518,-286.221"/>
<polygon fill="gray" stroke="black" points="369.095,-282.764 358.576,-284.028 367.587,-289.6 369.095,-282.764"/>
<text text-anchor="middle" x="565.775" y="-321" font-family="times" font-size="20.00">att_identity</text>
</g>
<!-- 1 -->
<g id="node4" class="node"><title>1</title>
<polygon fill="lightblue" stroke="black" stroke-width="2" points="462.275,-297 426.275,-297 426.275,-261 462.275,-261 462.275,-297"/>
<text text-anchor="middle" x="444.275" y="-274" font-family="times" font-size="20.00">1</text>
</g>
<!-- c_{k&#45;2}&#45;&gt;1 -->
<g id="edge4" class="edge"><title>c_{k&#45;2}&#45;&gt;1</title>
<path fill="none" stroke="black" d="M604.98,-354.8C618.588,-343.227 630.782,-327.803 620.275,-315 601.925,-292.641 517.596,-284.304 472.658,-281.41"/>
<polygon fill="gray" stroke="black" points="472.595,-277.901 462.405,-280.801 472.18,-284.888 472.595,-277.901"/>
<text text-anchor="middle" x="656.275" y="-321" font-family="times" font-size="20.00">identity</text>
</g>
<!-- c_{k&#45;1} -->
<g id="node2" class="node"><title>c_{k&#45;1}</title>
<polygon fill="#b4eeb4" stroke="black" stroke-width="2" points="223.775,-391 138.775,-391 138.775,-355 223.775,-355 223.775,-391"/>
<text text-anchor="middle" x="181.275" y="-368" font-family="times" font-size="20.00">c_{k&#45;1}</text>
</g>
<!-- c_{k&#45;1}&#45;&gt;0 -->
<g id="edge1" class="edge"><title>c_{k&#45;1}&#45;&gt;0</title>
<path fill="none" stroke="black" d="M182.306,-354.955C183.989,-342.22 188.307,-325.302 199.275,-315 229.862,-286.269 280.25,-280.1 311.78,-279.302"/>
<polygon fill="gray" stroke="black" points="312.113,-282.799 322.083,-279.215 312.054,-275.799 312.113,-282.799"/>
<text text-anchor="middle" x="267.775" y="-321" font-family="times" font-size="20.00">down_att_conv</text>
</g>
<!-- c_{k&#45;1}&#45;&gt;1 -->
<g id="edge3" class="edge"><title>c_{k&#45;1}&#45;&gt;1</title>
<path fill="none" stroke="black" d="M224.078,-369.57C256.8,-366.071 301.971,-357.575 336.275,-337 347.354,-330.355 344.734,-322.47 355.275,-315 373.705,-301.938 397.684,-292.874 416.107,-287.248"/>
<polygon fill="gray" stroke="black" points="417.329,-290.538 425.965,-284.401 415.386,-283.813 417.329,-290.538"/>
<text text-anchor="middle" x="423.775" y="-321" font-family="times" font-size="20.00">down_att_conv</text>
</g>
<!-- 2 -->
<g id="node5" class="node"><title>2</title>
<polygon fill="lightblue" stroke="black" stroke-width="2" points="67.2748,-203 31.2748,-203 31.2748,-167 67.2748,-167 67.2748,-203"/>
<text text-anchor="middle" x="49.2748" y="-180" font-family="times" font-size="20.00">2</text>
</g>
<!-- c_{k&#45;1}&#45;&gt;2 -->
<g id="edge5" class="edge"><title>c_{k&#45;1}&#45;&gt;2</title>
<path fill="none" stroke="black" d="M138.424,-366.819C96.9394,-359.274 36.2026,-340.97 7.27484,-297 -10.3755,-270.172 9.03418,-234.867 26.9202,-211.351"/>
<polygon fill="gray" stroke="black" points="29.8743,-213.26 33.3693,-203.258 24.3999,-208.898 29.8743,-213.26"/>
<text text-anchor="middle" x="79.2748" y="-274" font-family="times" font-size="20.00">down_sep_conv</text>
</g>
<!-- 3 -->
<g id="node6" class="node"><title>3</title>
<polygon fill="lightblue" stroke="black" stroke-width="2" points="183.275,-109 147.275,-109 147.275,-73 183.275,-73 183.275,-109"/>
<text text-anchor="middle" x="165.275" y="-86" font-family="times" font-size="20.00">3</text>
</g>
<!-- c_{k&#45;1}&#45;&gt;3 -->
<g id="edge7" class="edge"><title>c_{k&#45;1}&#45;&gt;3</title>
<path fill="none" stroke="black" d="M177.956,-354.977C173.345,-330.38 165.235,-283.413 162.275,-243 159.119,-199.913 161.268,-149.739 163.201,-119.448"/>
<polygon fill="gray" stroke="black" points="166.708,-119.452 163.893,-109.238 159.724,-118.979 166.708,-119.452"/>
<text text-anchor="middle" x="213.275" y="-227" font-family="times" font-size="20.00">down_conv</text>
</g>
<!-- 0&#45;&gt;2 -->
<g id="edge6" class="edge"><title>0&#45;&gt;2</title>
<path fill="none" stroke="black" d="M322.127,-265.957C312.686,-259.466 301.097,-251.135 291.275,-243 280.381,-233.977 280.945,-227.29 268.275,-221 205.326,-189.747 120.807,-185.268 77.4798,-185.271"/>
<polygon fill="gray" stroke="black" points="77.3606,-181.772 67.3901,-185.355 77.4189,-188.772 77.3606,-181.772"/>
<text text-anchor="middle" x="341.775" y="-227" font-family="times" font-size="20.00">att_identity</text>
</g>
<!-- c_{k} -->
<g id="node7" class="node"><title>c_{k}</title>
<polygon fill="palegoldenrod" stroke="black" stroke-width="2" points="372.275,-36 306.275,-36 306.275,-0 372.275,-0 372.275,-36"/>
<text text-anchor="middle" x="339.275" y="-13" font-family="times" font-size="20.00">c_{k}</text>
</g>
<!-- 0&#45;&gt;c_{k} -->
<g id="edge9" class="edge"><title>0&#45;&gt;c_{k}</title>
<path fill="none" stroke="black" d="M358.477,-271.117C370.447,-265.523 385.167,-256.352 392.275,-243 396.869,-234.369 393.526,-230.697 392.275,-221 384.028,-157.071 361.674,-84.5128 348.784,-46.1434"/>
<polygon fill="gray" stroke="black" points="351.957,-44.601 345.419,-36.2634 345.33,-46.8579 351.957,-44.601"/>
</g>
<!-- 1&#45;&gt;c_{k} -->
<g id="edge10" class="edge"><title>1&#45;&gt;c_{k}</title>
<path fill="none" stroke="black" d="M439.859,-260.816C430.384,-225.019 406.49,-140.202 376.275,-73 371.801,-63.0495 365.479,-52.9682 359.325,-44.2534"/>
<polygon fill="gray" stroke="black" points="362.041,-42.0384 353.301,-36.0495 356.398,-46.1815 362.041,-42.0384"/>
</g>
<!-- 2&#45;&gt;3 -->
<g id="edge8" class="edge"><title>2&#45;&gt;3</title>
<path fill="none" stroke="black" d="M50.6422,-166.995C52.5069,-154.451 56.9061,-137.761 67.2748,-127 85.696,-107.882 115.261,-99.1793 137.106,-95.2346"/>
<polygon fill="gray" stroke="black" points="137.794,-98.6695 147.127,-93.6555 136.704,-91.7549 137.794,-98.6695"/>
<text text-anchor="middle" x="109.275" y="-133" font-family="times" font-size="20.00">sep_conv</text>
</g>
<!-- 2&#45;&gt;c_{k} -->
<g id="edge11" class="edge"><title>2&#45;&gt;c_{k}</title>
<path fill="none" stroke="black" d="M45.4714,-166.907C43.7475,-154.951 43.4022,-139.032 50.2748,-127 73.0347,-87.1545 96.1251,-91.1406 138.275,-73 190.443,-50.5478 254.322,-35.3095 295.866,-26.8906"/>
<polygon fill="gray" stroke="black" points="296.797,-30.2742 305.926,-24.8969 295.436,-23.4077 296.797,-30.2742"/>
</g>
<!-- 3&#45;&gt;c_{k} -->
<g id="edge12" class="edge"><title>3&#45;&gt;c_{k}</title>
<path fill="none" stroke="black" d="M183.567,-82.5359C210.239,-71.6526 260.565,-51.1171 296.794,-36.3343"/>
<polygon fill="gray" stroke="black" points="298.205,-39.5387 306.141,-32.52 295.56,-33.0575 298.205,-39.5387"/>
</g>
</g>
</svg>
