<?xml version="1.0" encoding="UTF-8" standalone="no"?>
<!DOCTYPE svg PUBLIC "-//W3C//DTD SVG 1.1//EN"
 "http://www.w3.org/Graphics/SVG/1.1/DTD/svg11.dtd">
<!-- Generated by graphviz version 2.38.0 (20140413.2041)
 -->
<!-- Title: %3 Pages: 1 -->
<svg width="408pt" height="413pt"
 viewBox="0.00 0.00 408.45 413.00" xmlns="http://www.w3.org/2000/svg" xmlns:xlink="http://www.w3.org/1999/xlink">
<g id="graph0" class="graph" transform="scale(1 1) rotate(0) translate(4 409)">
<title>%3</title>
<polygon fill="white" stroke="none" points="-4,4 -4,-409 404.446,-409 404.446,4 -4,4"/>
<!-- c_{k&#45;2} -->
<g id="node1" class="node"><title>c_{k&#45;2}</title>
<polygon fill="#b4eeb4" stroke="black" stroke-width="2" points="132.946,-405 47.9458,-405 47.9458,-369 132.946,-369 132.946,-405"/>
<text text-anchor="middle" x="90.4458" y="-382" font-family="times" font-size="20.00">c_{k&#45;2}</text>
</g>
<!-- 0 -->
<g id="node3" class="node"><title>0</title>
<polygon fill="lightblue" stroke="black" stroke-width="2" points="311.446,-311 275.446,-311 275.446,-275 311.446,-275 311.446,-311"/>
<text text-anchor="middle" x="293.446" y="-288" font-family="times" font-size="20.00">0</text>
</g>
<!-- c_{k&#45;2}&#45;&gt;0 -->
<g id="edge2" class="edge"><title>c_{k&#45;2}&#45;&gt;0</title>
<path fill="none" stroke="black" d="M96.292,-368.876C101.609,-355.923 110.74,-338.755 124.446,-329 146.733,-313.136 223.212,-302.096 265.233,-297.069"/>
<polygon fill="gray" stroke="black" points="265.835,-300.523 275.365,-295.894 265.028,-293.57 265.835,-300.523"/>
<text text-anchor="middle" x="174.946" y="-335" font-family="times" font-size="20.00">att_identity</text>
</g>
<!-- 1 -->
<g id="node4" class="node"><title>1</title>
<polygon fill="lightblue" stroke="black" stroke-width="2" points="36.4458,-257 0.445763,-257 0.445763,-221 36.4458,-221 36.4458,-257"/>
<text text-anchor="middle" x="18.4458" y="-234" font-family="times" font-size="20.00">1</text>
</g>
<!-- c_{k&#45;2}&#45;&gt;1 -->
<g id="edge3" class="edge"><title>c_{k&#45;2}&#45;&gt;1</title>
<path fill="none" stroke="black" d="M47.6144,-377.291C33.3289,-372.126 18.9095,-363.941 10.4458,-351 -5.93262,-325.957 0.434215,-290.589 8.01995,-266.555"/>
<polygon fill="gray" stroke="black" points="11.3594,-267.606 11.2828,-257.011 4.73587,-265.341 11.3594,-267.606"/>
<text text-anchor="middle" x="43.4458" y="-335" font-family="times" font-size="20.00">identity</text>
</g>
<!-- 2 -->
<g id="node5" class="node"><title>2</title>
<polygon fill="lightblue" stroke="black" stroke-width="2" points="195.446,-203 159.446,-203 159.446,-167 195.446,-167 195.446,-203"/>
<text text-anchor="middle" x="177.446" y="-180" font-family="times" font-size="20.00">2</text>
</g>
<!-- c_{k&#45;2}&#45;&gt;2 -->
<g id="edge6" class="edge"><title>c_{k&#45;2}&#45;&gt;2</title>
<path fill="none" stroke="black" d="M93.6029,-368.729C95.9613,-357.263 99.6102,-341.987 104.446,-329 120.349,-286.286 145.719,-239.797 161.974,-211.781"/>
<polygon fill="gray" stroke="black" points="165.072,-213.418 167.11,-203.021 159.033,-209.877 165.072,-213.418"/>
<text text-anchor="middle" x="160.446" y="-288" font-family="times" font-size="20.00">identity</text>
</g>
<!-- c_{k&#45;1} -->
<g id="node2" class="node"><title>c_{k&#45;1}</title>
<polygon fill="#b4eeb4" stroke="black" stroke-width="2" points="333.946,-405 248.946,-405 248.946,-369 333.946,-369 333.946,-405"/>
<text text-anchor="middle" x="291.446" y="-382" font-family="times" font-size="20.00">c_{k&#45;1}</text>
</g>
<!-- c_{k&#45;1}&#45;&gt;0 -->
<g id="edge1" class="edge"><title>c_{k&#45;1}&#45;&gt;0</title>
<path fill="none" stroke="black" d="M305.551,-368.844C309.171,-363.456 312.57,-357.269 314.446,-351 317.248,-341.632 317.056,-338.423 314.446,-329 313.621,-326.023 312.468,-323.045 311.123,-320.152"/>
<polygon fill="gray" stroke="black" points="314.176,-318.439 306.337,-311.311 308.02,-321.771 314.176,-318.439"/>
<text text-anchor="middle" x="358.446" y="-335" font-family="times" font-size="20.00">sep_conv</text>
</g>
<!-- c_{k&#45;1}&#45;&gt;1 -->
<g id="edge4" class="edge"><title>c_{k&#45;1}&#45;&gt;1</title>
<path fill="none" stroke="black" d="M266.245,-368.803C258.949,-363.414 251.15,-357.236 244.446,-351 234.986,-342.201 234.668,-338.048 225.446,-329 198.636,-302.698 193.974,-291.924 160.446,-275 123.704,-256.455 76.5607,-247.362 46.918,-243.187"/>
<polygon fill="gray" stroke="black" points="47.2113,-239.696 36.8405,-241.863 46.2993,-246.636 47.2113,-239.696"/>
<text text-anchor="middle" x="277.446" y="-335" font-family="times" font-size="20.00">identity</text>
</g>
<!-- 0&#45;&gt;2 -->
<g id="edge5" class="edge"><title>0&#45;&gt;2</title>
<path fill="none" stroke="black" d="M275.231,-281.22C270.824,-278.924 266.054,-276.687 261.446,-275 226,-262.023 202.346,-286.216 178.446,-257 168.647,-245.022 168.218,-227.719 170.325,-213.194"/>
<polygon fill="gray" stroke="black" points="173.791,-213.7 172.21,-203.224 166.913,-212.399 173.791,-213.7"/>
<text text-anchor="middle" x="228.946" y="-234" font-family="times" font-size="20.00">att_identity</text>
</g>
<!-- c_{k} -->
<g id="node7" class="node"><title>c_{k}</title>
<polygon fill="palegoldenrod" stroke="black" stroke-width="2" points="179.446,-36 113.446,-36 113.446,-0 179.446,-0 179.446,-36"/>
<text text-anchor="middle" x="146.446" y="-13" font-family="times" font-size="20.00">c_{k}</text>
</g>
<!-- 0&#45;&gt;c_{k} -->
<g id="edge9" class="edge"><title>0&#45;&gt;c_{k}</title>
<path fill="none" stroke="black" d="M291.939,-274.826C290.211,-260.105 286.632,-238.558 279.446,-221 251.029,-151.567 197.49,-80.6541 167.74,-44.1505"/>
<polygon fill="gray" stroke="black" points="170.129,-41.5456 161.069,-36.0531 164.726,-45.9967 170.129,-41.5456"/>
</g>
<!-- 3 -->
<g id="node6" class="node"><title>3</title>
<polygon fill="lightblue" stroke="black" stroke-width="2" points="96.4458,-109 60.4458,-109 60.4458,-73 96.4458,-73 96.4458,-109"/>
<text text-anchor="middle" x="78.4458" y="-86" font-family="times" font-size="20.00">3</text>
</g>
<!-- 1&#45;&gt;3 -->
<g id="edge8" class="edge"><title>1&#45;&gt;3</title>
<path fill="none" stroke="black" d="M21.7979,-220.993C24.9598,-206.375 30.2832,-184.887 37.4458,-167 44.2787,-149.936 54.0981,-131.826 62.4143,-117.678"/>
<polygon fill="gray" stroke="black" points="65.4749,-119.379 67.6156,-109.003 59.4714,-115.78 65.4749,-119.379"/>
<text text-anchor="middle" x="93.9458" y="-180" font-family="times" font-size="20.00">shuffle_conv</text>
</g>
<!-- 1&#45;&gt;c_{k} -->
<g id="edge10" class="edge"><title>1&#45;&gt;c_{k}</title>
<path fill="none" stroke="black" d="M17.0438,-220.927C15.3141,-188.419 16.1436,-116.961 51.4458,-73 65.0625,-56.0432 85.5331,-43.4448 103.989,-34.7016"/>
<polygon fill="gray" stroke="black" points="105.439,-37.887 113.128,-30.5978 102.572,-31.5013 105.439,-37.887"/>
</g>
<!-- 2&#45;&gt;3 -->
<g id="edge7" class="edge"><title>2&#45;&gt;3</title>
<path fill="none" stroke="black" d="M159.164,-173.395C154.76,-171.092 150.008,-168.808 145.446,-167 117.18,-155.799 98.1124,-173 79.4458,-149 73.0418,-140.766 71.7412,-129.652 72.4273,-119.423"/>
<polygon fill="gray" stroke="black" points="75.9323,-119.607 73.7309,-109.243 68.989,-118.718 75.9323,-119.607"/>
<text text-anchor="middle" x="121.446" y="-133" font-family="times" font-size="20.00">sep_conv</text>
</g>
<!-- 2&#45;&gt;c_{k} -->
<g id="edge11" class="edge"><title>2&#45;&gt;c_{k}</title>
<path fill="none" stroke="black" d="M174.245,-166.964C168.885,-138.433 158.048,-80.7517 151.602,-46.4425"/>
<polygon fill="gray" stroke="black" points="154.962,-45.3727 149.676,-36.1909 148.082,-46.6653 154.962,-45.3727"/>
</g>
<!-- 3&#45;&gt;c_{k} -->
<g id="edge12" class="edge"><title>3&#45;&gt;c_{k}</title>
<path fill="none" stroke="black" d="M94.9067,-72.8129C103.343,-64.0046 113.763,-53.125 123.021,-43.4584"/>
<polygon fill="gray" stroke="black" points="125.747,-45.6718 130.136,-36.0288 120.692,-40.83 125.747,-45.6718"/>
</g>
</g>
</svg>
