<?xml version="1.0" encoding="UTF-8" standalone="no"?>
<!DOCTYPE svg PUBLIC "-//W3C//DTD SVG 1.1//EN"
 "http://www.w3.org/Graphics/SVG/1.1/DTD/svg11.dtd">
<!-- Generated by graphviz version 2.38.0 (20140413.2041)
 -->
<!-- Title: %3 Pages: 1 -->
<svg width="596pt" height="413pt"
 viewBox="0.00 0.00 595.79 413.00" xmlns="http://www.w3.org/2000/svg" xmlns:xlink="http://www.w3.org/1999/xlink">
<g id="graph0" class="graph" transform="scale(1 1) rotate(0) translate(4 409)">
<title>%3</title>
<polygon fill="white" stroke="none" points="-4,4 -4,-409 591.789,-409 591.789,4 -4,4"/>
<!-- c_{k&#45;2} -->
<g id="node1" class="node"><title>c_{k&#45;2}</title>
<polygon fill="#b4eeb4" stroke="black" stroke-width="2" points="181.289,-405 96.2895,-405 96.2895,-369 181.289,-369 181.289,-405"/>
<text text-anchor="middle" x="138.789" y="-382" font-family="times" font-size="20.00">c_{k&#45;2}</text>
</g>
<!-- 0 -->
<g id="node3" class="node"><title>0</title>
<polygon fill="lightblue" stroke="black" stroke-width="2" points="146.789,-311 110.789,-311 110.789,-275 146.789,-275 146.789,-311"/>
<text text-anchor="middle" x="128.789" y="-288" font-family="times" font-size="20.00">0</text>
</g>
<!-- c_{k&#45;2}&#45;&gt;0 -->
<g id="edge1" class="edge"><title>c_{k&#45;2}&#45;&gt;0</title>
<path fill="none" stroke="black" d="M96.2587,-380.48C61.6787,-375.016 16.8683,-365.371 5.78947,-351 -20.9593,-316.301 56.2294,-301.926 100.342,-296.665"/>
<polygon fill="gray" stroke="black" points="100.947,-300.12 110.502,-295.543 100.179,-293.162 100.947,-300.12"/>
<text text-anchor="middle" x="56.2895" y="-335" font-family="times" font-size="20.00">att_identity</text>
</g>
<!-- 1 -->
<g id="node4" class="node"><title>1</title>
<polygon fill="lightblue" stroke="black" stroke-width="2" points="441.789,-257 405.789,-257 405.789,-221 441.789,-221 441.789,-257"/>
<text text-anchor="middle" x="423.789" y="-234" font-family="times" font-size="20.00">1</text>
</g>
<!-- c_{k&#45;2}&#45;&gt;1 -->
<g id="edge4" class="edge"><title>c_{k&#45;2}&#45;&gt;1</title>
<path fill="none" stroke="black" d="M181.559,-380.396C208.928,-375.5 244.479,-366.633 272.789,-351 316.004,-327.137 313.288,-303.223 353.789,-275 367.066,-265.749 383.139,-257.53 396.533,-251.386"/>
<polygon fill="gray" stroke="black" points="398.02,-254.555 405.735,-247.293 395.176,-248.159 398.02,-254.555"/>
<text text-anchor="middle" x="333.789" y="-335" font-family="times" font-size="20.00">identity</text>
</g>
<!-- c_{k&#45;1} -->
<g id="node2" class="node"><title>c_{k&#45;1}</title>
<polygon fill="#b4eeb4" stroke="black" stroke-width="2" points="418.289,-405 333.289,-405 333.289,-369 418.289,-369 418.289,-405"/>
<text text-anchor="middle" x="375.789" y="-382" font-family="times" font-size="20.00">c_{k&#45;1}</text>
</g>
<!-- c_{k&#45;1}&#45;&gt;0 -->
<g id="edge2" class="edge"><title>c_{k&#45;1}&#45;&gt;0</title>
<path fill="none" stroke="black" d="M333.109,-382.91C266.248,-377.635 143.033,-365.994 129.789,-351 122.713,-342.989 121.429,-331.592 122.31,-321.092"/>
<polygon fill="gray" stroke="black" points="125.795,-321.451 123.778,-311.05 118.869,-320.439 125.795,-321.451"/>
<text text-anchor="middle" x="201.289" y="-335" font-family="times" font-size="20.00">up_atrous_conv</text>
</g>
<!-- c_{k&#45;1}&#45;&gt;1 -->
<g id="edge3" class="edge"><title>c_{k&#45;1}&#45;&gt;1</title>
<path fill="none" stroke="black" d="M418.305,-370.536C444.32,-358.604 475.463,-339.294 490.789,-311 498.41,-296.932 499.08,-288.685 490.789,-275 482.226,-260.864 465.873,-252.166 451.468,-246.977"/>
<polygon fill="gray" stroke="black" points="452.516,-243.638 441.925,-243.921 450.381,-250.304 452.516,-243.638"/>
<text text-anchor="middle" x="532.289" y="-335" font-family="times" font-size="20.00">up_att_conv</text>
</g>
<!-- 2 -->
<g id="node5" class="node"><title>2</title>
<polygon fill="lightblue" stroke="black" stroke-width="2" points="205.789,-203 169.789,-203 169.789,-167 205.789,-167 205.789,-203"/>
<text text-anchor="middle" x="187.789" y="-180" font-family="times" font-size="20.00">2</text>
</g>
<!-- c_{k&#45;1}&#45;&gt;2 -->
<g id="edge5" class="edge"><title>c_{k&#45;1}&#45;&gt;2</title>
<path fill="none" stroke="black" d="M373.65,-368.833C371.703,-357.134 368.13,-341.551 361.789,-329 333.615,-273.231 322.076,-258.084 271.789,-221 255.047,-208.653 233.306,-199.748 216.136,-194.011"/>
<polygon fill="gray" stroke="black" points="216.712,-190.522 206.122,-190.845 214.602,-197.197 216.712,-190.522"/>
<text text-anchor="middle" x="407.289" y="-288" font-family="times" font-size="20.00">up_att_conv</text>
</g>
<!-- 0&#45;&gt;2 -->
<g id="edge6" class="edge"><title>0&#45;&gt;2</title>
<path fill="none" stroke="black" d="M138.269,-274.969C147.717,-257.994 162.354,-231.698 173.268,-212.09"/>
<polygon fill="gray" stroke="black" points="176.332,-213.781 178.138,-203.341 170.216,-210.376 176.332,-213.781"/>
<text text-anchor="middle" x="217.289" y="-234" font-family="times" font-size="20.00">att_identity</text>
</g>
<!-- c_{k} -->
<g id="node7" class="node"><title>c_{k}</title>
<polygon fill="palegoldenrod" stroke="black" stroke-width="2" points="217.789,-36 151.789,-36 151.789,-0 217.789,-0 217.789,-36"/>
<text text-anchor="middle" x="184.789" y="-13" font-family="times" font-size="20.00">c_{k}</text>
</g>
<!-- 0&#45;&gt;c_{k} -->
<g id="edge9" class="edge"><title>0&#45;&gt;c_{k}</title>
<path fill="none" stroke="black" d="M132.293,-274.923C141.74,-228.864 167.804,-101.804 179.263,-45.9435"/>
<polygon fill="gray" stroke="black" points="182.707,-46.5703 181.288,-36.0709 175.85,-45.1636 182.707,-46.5703"/>
</g>
<!-- 3 -->
<g id="node6" class="node"><title>3</title>
<polygon fill="lightblue" stroke="black" stroke-width="2" points="230.789,-109 194.789,-109 194.789,-73 230.789,-73 230.789,-109"/>
<text text-anchor="middle" x="212.789" y="-86" font-family="times" font-size="20.00">3</text>
</g>
<!-- 1&#45;&gt;3 -->
<g id="edge8" class="edge"><title>1&#45;&gt;3</title>
<path fill="none" stroke="black" d="M405.784,-228.017C400.716,-225.479 395.127,-222.928 389.789,-221 356.735,-209.06 339.125,-226.272 312.789,-203 285.815,-179.163 308.946,-153.688 284.789,-127 273.043,-114.023 255.429,-105.344 240.564,-99.874"/>
<polygon fill="gray" stroke="black" points="241.411,-96.4662 230.817,-96.5868 239.174,-103.099 241.411,-96.4662"/>
<text text-anchor="middle" x="369.289" y="-180" font-family="times" font-size="20.00">shuffle_conv</text>
</g>
<!-- 1&#45;&gt;c_{k} -->
<g id="edge10" class="edge"><title>1&#45;&gt;c_{k}</title>
<path fill="none" stroke="black" d="M428.973,-220.765C432.487,-205.61 435,-183.466 425.789,-167 383.503,-91.4074 285.056,-49.7177 227.928,-31.1015"/>
<polygon fill="gray" stroke="black" points="228.696,-27.6736 218.106,-27.9955 226.585,-34.3478 228.696,-27.6736"/>
</g>
<!-- 2&#45;&gt;3 -->
<g id="edge7" class="edge"><title>2&#45;&gt;3</title>
<path fill="none" stroke="black" d="M191.19,-166.92C193.578,-155.534 197.011,-140.277 200.789,-127 201.538,-124.368 202.37,-121.644 203.237,-118.93"/>
<polygon fill="gray" stroke="black" points="206.594,-119.925 206.441,-109.332 199.954,-117.709 206.594,-119.925"/>
<text text-anchor="middle" x="242.789" y="-133" font-family="times" font-size="20.00">sep_conv</text>
</g>
<!-- 2&#45;&gt;c_{k} -->
<g id="edge11" class="edge"><title>2&#45;&gt;c_{k}</title>
<path fill="none" stroke="black" d="M187.253,-166.724C186.798,-151.524 186.163,-128.795 185.789,-109 185.392,-87.9417 185.136,-64.1085 184.982,-46.2604"/>
<polygon fill="gray" stroke="black" points="188.482,-46.2262 184.902,-36.2548 181.482,-46.2827 188.482,-46.2262"/>
</g>
<!-- 3&#45;&gt;c_{k} -->
<g id="edge12" class="edge"><title>3&#45;&gt;c_{k}</title>
<path fill="none" stroke="black" d="M206.011,-72.8129C202.779,-64.6151 198.838,-54.6231 195.234,-45.4847"/>
<polygon fill="gray" stroke="black" points="198.43,-44.0475 191.505,-36.0288 191.918,-46.6156 198.43,-44.0475"/>
</g>
</g>
</svg>
