<?xml version="1.0" encoding="UTF-8" standalone="no"?>
<!DOCTYPE svg PUBLIC "-//W3C//DTD SVG 1.1//EN"
 "http://www.w3.org/Graphics/SVG/1.1/DTD/svg11.dtd">
<!-- Generated by graphviz version 2.38.0 (20140413.2041)
 -->
<!-- Title: %3 Pages: 1 -->
<svg width="701pt" height="399pt"
 viewBox="0.00 0.00 700.50 399.00" xmlns="http://www.w3.org/2000/svg" xmlns:xlink="http://www.w3.org/1999/xlink">
<g id="graph0" class="graph" transform="scale(1 1) rotate(0) translate(4 395)">
<title>%3</title>
<polygon fill="white" stroke="none" points="-4,4 -4,-395 696.5,-395 696.5,4 -4,4"/>
<!-- c_{k&#45;2} -->
<g id="node1" class="node"><title>c_{k&#45;2}</title>
<polygon fill="#b4eeb4" stroke="black" stroke-width="2" points="85,-391 0,-391 0,-355 85,-355 85,-391"/>
<text text-anchor="middle" x="42.5" y="-368" font-family="times" font-size="20.00">c_{k&#45;2}</text>
</g>
<!-- 0 -->
<g id="node3" class="node"><title>0</title>
<polygon fill="lightblue" stroke="black" stroke-width="2" points="181.5,-297 145.5,-297 145.5,-261 181.5,-261 181.5,-297"/>
<text text-anchor="middle" x="163.5" y="-274" font-family="times" font-size="20.00">0</text>
</g>
<!-- c_{k&#45;2}&#45;&gt;0 -->
<g id="edge2" class="edge"><title>c_{k&#45;2}&#45;&gt;0</title>
<path fill="none" stroke="black" d="M37.8432,-354.802C35.5945,-342.485 34.9692,-326.169 43.5,-315 64.7583,-287.168 106.903,-280.517 135.152,-279.403"/>
<polygon fill="gray" stroke="black" points="135.293,-282.901 145.226,-279.215 135.162,-275.902 135.293,-282.901"/>
<text text-anchor="middle" x="94" y="-321" font-family="times" font-size="20.00">att_identity</text>
</g>
<!-- c_{k&#45;1} -->
<g id="node2" class="node"><title>c_{k&#45;1}</title>
<polygon fill="#b4eeb4" stroke="black" stroke-width="2" points="408,-391 323,-391 323,-355 408,-355 408,-391"/>
<text text-anchor="middle" x="365.5" y="-368" font-family="times" font-size="20.00">c_{k&#45;1}</text>
</g>
<!-- c_{k&#45;1}&#45;&gt;0 -->
<g id="edge1" class="edge"><title>c_{k&#45;1}&#45;&gt;0</title>
<path fill="none" stroke="black" d="M322.927,-370.425C271.023,-367.536 187.703,-359.441 167.5,-337 160.332,-329.037 158.5,-317.649 158.777,-307.141"/>
<polygon fill="gray" stroke="black" points="162.272,-307.35 159.639,-297.088 155.298,-306.752 162.272,-307.35"/>
<text text-anchor="middle" x="223" y="-321" font-family="times" font-size="20.00">up_att_conv</text>
</g>
<!-- 1 -->
<g id="node4" class="node"><title>1</title>
<polygon fill="lightblue" stroke="black" stroke-width="2" points="310.5,-203 274.5,-203 274.5,-167 310.5,-167 310.5,-203"/>
<text text-anchor="middle" x="292.5" y="-180" font-family="times" font-size="20.00">1</text>
</g>
<!-- c_{k&#45;1}&#45;&gt;1 -->
<g id="edge4" class="edge"><title>c_{k&#45;1}&#45;&gt;1</title>
<path fill="none" stroke="black" d="M347.35,-354.719C333.708,-340.572 315.83,-319.316 306.5,-297 295.246,-270.082 292.378,-236.537 291.931,-213.409"/>
<polygon fill="gray" stroke="black" points="295.43,-213.253 291.876,-203.272 288.43,-213.291 295.43,-213.253"/>
<text text-anchor="middle" x="365.5" y="-274" font-family="times" font-size="20.00">up_sep_conv</text>
</g>
<!-- 2 -->
<g id="node5" class="node"><title>2</title>
<polygon fill="lightblue" stroke="black" stroke-width="2" points="345.5,-109 309.5,-109 309.5,-73 345.5,-73 345.5,-109"/>
<text text-anchor="middle" x="327.5" y="-86" font-family="times" font-size="20.00">2</text>
</g>
<!-- c_{k&#45;1}&#45;&gt;2 -->
<g id="edge6" class="edge"><title>c_{k&#45;1}&#45;&gt;2</title>
<path fill="none" stroke="black" d="M384.725,-354.73C398.757,-340.747 416.641,-319.7 424.5,-297 449.217,-225.602 467.923,-188.831 424.5,-127 409.133,-105.119 378.683,-96.8563 355.978,-93.7694"/>
<polygon fill="gray" stroke="black" points="356.187,-90.2713 345.864,-92.6587 355.422,-97.2295 356.187,-90.2713"/>
<text text-anchor="middle" x="506.5" y="-227" font-family="times" font-size="20.00">up_sep_conv</text>
</g>
<!-- 3 -->
<g id="node6" class="node"><title>3</title>
<polygon fill="lightblue" stroke="black" stroke-width="2" points="489.5,-109 453.5,-109 453.5,-73 489.5,-73 489.5,-109"/>
<text text-anchor="middle" x="471.5" y="-86" font-family="times" font-size="20.00">3</text>
</g>
<!-- c_{k&#45;1}&#45;&gt;3 -->
<g id="edge8" class="edge"><title>c_{k&#45;1}&#45;&gt;3</title>
<path fill="none" stroke="black" d="M408.385,-358.952C457.48,-341.439 535.49,-305.116 569.5,-243 583.01,-218.325 610.324,-191.371 562.5,-127 547.819,-107.24 520.451,-98.6355 499.548,-94.8889"/>
<polygon fill="gray" stroke="black" points="500.012,-91.4193 489.599,-93.3756 498.959,-98.3397 500.012,-91.4193"/>
<text text-anchor="middle" x="637" y="-227" font-family="times" font-size="20.00">up_att_conv</text>
</g>
<!-- 0&#45;&gt;1 -->
<g id="edge3" class="edge"><title>0&#45;&gt;1</title>
<path fill="none" stroke="black" d="M169.032,-260.872C173.908,-248.264 182.176,-231.547 194.5,-221 214.344,-204.017 243.03,-195.053 264.243,-190.468"/>
<polygon fill="gray" stroke="black" points="265.135,-193.86 274.275,-188.501 263.789,-186.99 265.135,-193.86"/>
<text text-anchor="middle" x="236.5" y="-227" font-family="times" font-size="20.00">sep_conv</text>
</g>
<!-- c_{k} -->
<g id="node7" class="node"><title>c_{k}</title>
<polygon fill="palegoldenrod" stroke="black" stroke-width="2" points="331.5,-36 265.5,-36 265.5,-0 331.5,-0 331.5,-36"/>
<text text-anchor="middle" x="298.5" y="-13" font-family="times" font-size="20.00">c_{k}</text>
</g>
<!-- 0&#45;&gt;c_{k} -->
<g id="edge9" class="edge"><title>0&#45;&gt;c_{k}</title>
<path fill="none" stroke="black" d="M165.179,-260.844C166.701,-249.29 169.499,-233.87 174.5,-221 201.128,-152.467 250.991,-81.1975 278.684,-44.3967"/>
<polygon fill="gray" stroke="black" points="281.627,-46.3085 284.893,-36.2296 276.054,-42.0718 281.627,-46.3085"/>
</g>
<!-- 1&#45;&gt;2 -->
<g id="edge5" class="edge"><title>1&#45;&gt;2</title>
<path fill="none" stroke="black" d="M299.083,-166.696C304.216,-153.203 311.436,-134.226 317.313,-118.777"/>
<polygon fill="gray" stroke="black" points="320.662,-119.818 320.946,-109.227 314.119,-117.329 320.662,-119.818"/>
<text text-anchor="middle" x="369" y="-133" font-family="times" font-size="20.00">atrous_conv</text>
</g>
<!-- 1&#45;&gt;3 -->
<g id="edge7" class="edge"><title>1&#45;&gt;3</title>
<path fill="none" stroke="black" d="M310.601,-183.003C338.007,-180.727 390.726,-173.28 427.5,-149 439.436,-141.119 449.492,-128.897 456.964,-117.789"/>
<polygon fill="gray" stroke="black" points="459.995,-119.544 462.389,-109.223 454.082,-115.798 459.995,-119.544"/>
<text text-anchor="middle" x="504" y="-133" font-family="times" font-size="20.00">atrous_conv</text>
</g>
<!-- 1&#45;&gt;c_{k} -->
<g id="edge10" class="edge"><title>1&#45;&gt;c_{k}</title>
<path fill="none" stroke="black" d="M293.12,-166.964C294.157,-138.433 296.254,-80.7517 297.502,-46.4425"/>
<polygon fill="gray" stroke="black" points="301.009,-46.3116 297.875,-36.1909 294.014,-46.0571 301.009,-46.3116"/>
</g>
<!-- 2&#45;&gt;c_{k} -->
<g id="edge11" class="edge"><title>2&#45;&gt;c_{k}</title>
<path fill="none" stroke="black" d="M320.48,-72.8129C317.132,-64.6151 313.05,-54.6231 309.318,-45.4847"/>
<polygon fill="gray" stroke="black" points="312.477,-43.9629 305.455,-36.0288 305.997,-46.6099 312.477,-43.9629"/>
</g>
<!-- 3&#45;&gt;c_{k} -->
<g id="edge12" class="edge"><title>3&#45;&gt;c_{k}</title>
<path fill="none" stroke="black" d="M453.313,-82.5359C426.874,-71.6852 377.057,-51.2403 341.062,-36.4676"/>
<polygon fill="gray" stroke="black" points="342.35,-33.2129 331.77,-32.6541 339.692,-39.6888 342.35,-33.2129"/>
</g>
</g>
</svg>
