<?xml version="1.0" encoding="UTF-8" standalone="no"?>
<!DOCTYPE svg PUBLIC "-//W3C//DTD SVG 1.1//EN"
 "http://www.w3.org/Graphics/SVG/1.1/DTD/svg11.dtd">
<!-- Generated by graphviz version 2.38.0 (20140413.2041)
 -->
<!-- Title: %3 Pages: 1 -->
<svg width="758pt" height="305pt"
 viewBox="0.00 0.00 757.52 305.00" xmlns="http://www.w3.org/2000/svg" xmlns:xlink="http://www.w3.org/1999/xlink">
<g id="graph0" class="graph" transform="scale(1 1) rotate(0) translate(4 301)">
<title>%3</title>
<polygon fill="white" stroke="none" points="-4,4 -4,-301 753.516,-301 753.516,4 -4,4"/>
<!-- c_{k&#45;2} -->
<g id="node1" class="node"><title>c_{k&#45;2}</title>
<polygon fill="#b4eeb4" stroke="black" stroke-width="2" points="657.016,-297 572.016,-297 572.016,-261 657.016,-261 657.016,-297"/>
<text text-anchor="middle" x="614.516" y="-274" font-family="times" font-size="20.00">c_{k&#45;2}</text>
</g>
<!-- 0 -->
<g id="node3" class="node"><title>0</title>
<polygon fill="lightblue" stroke="black" stroke-width="2" points="357.516,-203 321.516,-203 321.516,-167 357.516,-167 357.516,-203"/>
<text text-anchor="middle" x="339.516" y="-180" font-family="times" font-size="20.00">0</text>
</g>
<!-- c_{k&#45;2}&#45;&gt;0 -->
<g id="edge1" class="edge"><title>c_{k&#45;2}&#45;&gt;0</title>
<path fill="none" stroke="black" d="M572.013,-275.585C498.907,-270.998 355.697,-259.942 340.516,-243 333.382,-235.039 332.09,-223.651 332.979,-213.143"/>
<polygon fill="gray" stroke="black" points="336.466,-213.493 334.461,-203.089 329.54,-212.472 336.466,-213.493"/>
<text text-anchor="middle" x="395.016" y="-227" font-family="times" font-size="20.00">atrous_conv</text>
</g>
<!-- 1 -->
<g id="node4" class="node"><title>1</title>
<polygon fill="lightblue" stroke="black" stroke-width="2" points="480.516,-203 444.516,-203 444.516,-167 480.516,-167 480.516,-203"/>
<text text-anchor="middle" x="462.516" y="-180" font-family="times" font-size="20.00">1</text>
</g>
<!-- c_{k&#45;2}&#45;&gt;1 -->
<g id="edge3" class="edge"><title>c_{k&#45;2}&#45;&gt;1</title>
<path fill="none" stroke="black" d="M589.315,-260.803C582.019,-255.414 574.22,-249.236 567.516,-243 558.056,-234.201 559.14,-228.351 548.516,-221 529.436,-207.8 520.962,-211.85 499.516,-203 496.444,-201.733 493.254,-200.358 490.091,-198.957"/>
<polygon fill="gray" stroke="black" points="491.387,-195.702 480.834,-194.762 488.497,-202.078 491.387,-195.702"/>
<text text-anchor="middle" x="600.516" y="-227" font-family="times" font-size="20.00">identity</text>
</g>
<!-- 2 -->
<g id="node5" class="node"><title>2</title>
<polygon fill="lightblue" stroke="black" stroke-width="2" points="544.516,-203 508.516,-203 508.516,-167 544.516,-167 544.516,-203"/>
<text text-anchor="middle" x="526.516" y="-180" font-family="times" font-size="20.00">2</text>
</g>
<!-- c_{k&#45;2}&#45;&gt;2 -->
<g id="edge6" class="edge"><title>c_{k&#45;2}&#45;&gt;2</title>
<path fill="none" stroke="black" d="M629.844,-260.917C638.643,-248.966 646.349,-233.048 637.516,-221 618.719,-195.364 581.104,-188.018 554.899,-186.165"/>
<polygon fill="gray" stroke="black" points="554.953,-182.663 544.796,-185.678 554.616,-189.655 554.953,-182.663"/>
<text text-anchor="middle" x="661.516" y="-227" font-family="times" font-size="20.00">conv</text>
</g>
<!-- 3 -->
<g id="node6" class="node"><title>3</title>
<polygon fill="lightblue" stroke="black" stroke-width="2" points="564.516,-109 528.516,-109 528.516,-73 564.516,-73 564.516,-109"/>
<text text-anchor="middle" x="546.516" y="-86" font-family="times" font-size="20.00">3</text>
</g>
<!-- c_{k&#45;2}&#45;&gt;3 -->
<g id="edge7" class="edge"><title>c_{k&#45;2}&#45;&gt;3</title>
<path fill="none" stroke="black" d="M657.329,-266.485C668.769,-261.243 679.806,-253.722 686.516,-243 691.702,-234.711 688.249,-230.623 686.516,-221 678.613,-177.126 683.58,-157.971 651.516,-127 630.661,-106.857 597.913,-98.2997 574.536,-94.6685"/>
<polygon fill="gray" stroke="black" points="574.908,-91.1872 564.531,-93.3229 573.975,-98.1247 574.908,-91.1872"/>
<text text-anchor="middle" x="716.516" y="-180" font-family="times" font-size="20.00">identity</text>
</g>
<!-- c_{k&#45;1} -->
<g id="node2" class="node"><title>c_{k&#45;1}</title>
<polygon fill="#b4eeb4" stroke="black" stroke-width="2" points="216.016,-297 131.016,-297 131.016,-261 216.016,-261 216.016,-297"/>
<text text-anchor="middle" x="173.516" y="-274" font-family="times" font-size="20.00">c_{k&#45;1}</text>
</g>
<!-- c_{k&#45;1}&#45;&gt;0 -->
<g id="edge2" class="edge"><title>c_{k&#45;1}&#45;&gt;0</title>
<path fill="none" stroke="black" d="M130.877,-276.743C70.5817,-273.514 -28.3798,-262.002 8.51563,-221 28.5939,-198.687 234.132,-189.538 310.847,-186.883"/>
<polygon fill="gray" stroke="black" points="311.316,-190.369 321.194,-186.537 311.083,-183.373 311.316,-190.369"/>
<text text-anchor="middle" x="80.0156" y="-227" font-family="times" font-size="20.00">up_atrous_conv</text>
</g>
<!-- c_{k&#45;1}&#45;&gt;1 -->
<g id="edge4" class="edge"><title>c_{k&#45;1}&#45;&gt;1</title>
<path fill="none" stroke="black" d="M172.5,-260.904C172.739,-247.967 175.405,-230.806 186.516,-221 216.655,-194.399 326.695,-208.509 366.516,-203 389.433,-199.83 415.246,-195.198 434.329,-191.57"/>
<polygon fill="gray" stroke="black" points="435.02,-195.001 444.177,-189.673 433.696,-188.128 435.02,-195.001"/>
<text text-anchor="middle" x="258.016" y="-227" font-family="times" font-size="20.00">up_atrous_conv</text>
</g>
<!-- c_{k&#45;1}&#45;&gt;2 -->
<g id="edge5" class="edge"><title>c_{k&#45;1}&#45;&gt;2</title>
<path fill="none" stroke="black" d="M216.071,-276.303C283.198,-273.015 410.09,-264.145 449.516,-243 460.901,-236.894 458.64,-229.33 468.516,-221 477.876,-213.104 489.218,-205.841 499.38,-200.003"/>
<polygon fill="gray" stroke="black" points="501.241,-202.973 508.29,-195.064 497.847,-196.851 501.241,-202.973"/>
<text text-anchor="middle" x="506.516" y="-227" font-family="times" font-size="20.00">up_conv</text>
</g>
<!-- c_{k} -->
<g id="node7" class="node"><title>c_{k}</title>
<polygon fill="palegoldenrod" stroke="black" stroke-width="2" points="514.516,-36 448.516,-36 448.516,-0 514.516,-0 514.516,-36"/>
<text text-anchor="middle" x="481.516" y="-13" font-family="times" font-size="20.00">c_{k}</text>
</g>
<!-- 0&#45;&gt;c_{k} -->
<g id="edge9" class="edge"><title>0&#45;&gt;c_{k}</title>
<path fill="none" stroke="black" d="M354.177,-166.964C379.368,-137.692 430.967,-77.7356 460.158,-43.8173"/>
<polygon fill="gray" stroke="black" points="462.851,-46.0536 466.721,-36.1909 457.545,-41.4875 462.851,-46.0536"/>
</g>
<!-- 1&#45;&gt;c_{k} -->
<g id="edge10" class="edge"><title>1&#45;&gt;c_{k}</title>
<path fill="none" stroke="black" d="M464.477,-166.964C467.763,-138.433 474.405,-80.7517 478.356,-46.4425"/>
<polygon fill="gray" stroke="black" points="481.869,-46.5257 479.536,-36.1909 474.915,-45.7249 481.869,-46.5257"/>
</g>
<!-- 2&#45;&gt;3 -->
<g id="edge8" class="edge"><title>2&#45;&gt;3</title>
<path fill="none" stroke="black" d="M530.277,-166.696C533.183,-153.331 537.258,-134.587 540.598,-119.219"/>
<polygon fill="gray" stroke="black" points="544.066,-119.742 542.771,-109.227 537.226,-118.255 544.066,-119.742"/>
<text text-anchor="middle" x="593.016" y="-133" font-family="times" font-size="20.00">atrous_conv</text>
</g>
<!-- 2&#45;&gt;c_{k} -->
<g id="edge11" class="edge"><title>2&#45;&gt;c_{k}</title>
<path fill="none" stroke="black" d="M521.869,-166.964C514.055,-138.31 498.221,-80.2518 488.879,-45.9982"/>
<polygon fill="gray" stroke="black" points="492.212,-44.9177 486.204,-36.1909 485.459,-46.7595 492.212,-44.9177"/>
</g>
<!-- 3&#45;&gt;c_{k} -->
<g id="edge12" class="edge"><title>3&#45;&gt;c_{k}</title>
<path fill="none" stroke="black" d="M531.317,-72.6951C526.036,-66.7367 520.049,-60.0444 514.516,-54 511.451,-50.6525 508.2,-47.1491 504.981,-43.7067"/>
<polygon fill="gray" stroke="black" points="507.467,-41.2409 498.067,-36.3526 502.367,-46.0357 507.467,-41.2409"/>
</g>
</g>
</svg>
