<?xml version="1.0" encoding="UTF-8" standalone="no"?>
<!DOCTYPE svg PUBLIC "-//W3C//DTD SVG 1.1//EN"
 "http://www.w3.org/Graphics/SVG/1.1/DTD/svg11.dtd">
<!-- Generated by graphviz version 2.38.0 (20140413.2041)
 -->
<!-- Title: %3 Pages: 1 -->
<svg width="768pt" height="211pt"
 viewBox="0.00 0.00 767.96 211.00" xmlns="http://www.w3.org/2000/svg" xmlns:xlink="http://www.w3.org/1999/xlink">
<g id="graph0" class="graph" transform="scale(1 1) rotate(0) translate(4 207)">
<title>%3</title>
<polygon fill="white" stroke="none" points="-4,4 -4,-207 763.964,-207 763.964,4 -4,4"/>
<!-- c_{k&#45;2} -->
<g id="node1" class="node"><title>c_{k&#45;2}</title>
<polygon fill="#b4eeb4" stroke="black" stroke-width="2" points="202.464,-203 117.464,-203 117.464,-167 202.464,-167 202.464,-203"/>
<text text-anchor="middle" x="159.964" y="-180" font-family="times" font-size="20.00">c_{k&#45;2}</text>
</g>
<!-- 0 -->
<g id="node3" class="node"><title>0</title>
<polygon fill="lightblue" stroke="black" stroke-width="2" points="359.964,-109 323.964,-109 323.964,-73 359.964,-73 359.964,-109"/>
<text text-anchor="middle" x="341.964" y="-86" font-family="times" font-size="20.00">0</text>
</g>
<!-- c_{k&#45;2}&#45;&gt;0 -->
<g id="edge2" class="edge"><title>c_{k&#45;2}&#45;&gt;0</title>
<path fill="none" stroke="black" d="M197.229,-166.899C207.223,-161.687 217.794,-155.579 226.964,-149 238.458,-140.755 237.665,-133.988 249.964,-127 273.584,-113.58 285.258,-119.65 314.199,-108.501"/>
<polygon fill="gray" stroke="black" points="315.925,-111.571 323.768,-104.447 313.195,-105.125 315.925,-111.571"/>
<text text-anchor="middle" x="304.464" y="-133" font-family="times" font-size="20.00">atrous_conv</text>
</g>
<!-- 1 -->
<g id="node4" class="node"><title>1</title>
<polygon fill="lightblue" stroke="black" stroke-width="2" points="305.964,-109 269.964,-109 269.964,-73 305.964,-73 305.964,-109"/>
<text text-anchor="middle" x="287.964" y="-86" font-family="times" font-size="20.00">1</text>
</g>
<!-- c_{k&#45;2}&#45;&gt;1 -->
<g id="edge4" class="edge"><title>c_{k&#45;2}&#45;&gt;1</title>
<path fill="none" stroke="black" d="M117.454,-173.251C87.035,-163.536 54.3312,-147.608 71.9642,-127 88.7812,-107.346 161.432,-113.147 186.964,-109 211.512,-105.013 239.384,-100.308 259.621,-96.8601"/>
<polygon fill="gray" stroke="black" points="260.461,-100.267 269.729,-95.1341 259.282,-93.3674 260.461,-100.267"/>
<text text-anchor="middle" x="104.964" y="-133" font-family="times" font-size="20.00">identity</text>
</g>
<!-- 2 -->
<g id="node5" class="node"><title>2</title>
<polygon fill="lightblue" stroke="black" stroke-width="2" points="177.964,-109 141.964,-109 141.964,-73 177.964,-73 177.964,-109"/>
<text text-anchor="middle" x="159.964" y="-86" font-family="times" font-size="20.00">2</text>
</g>
<!-- c_{k&#45;2}&#45;&gt;2 -->
<g id="edge6" class="edge"><title>c_{k&#45;2}&#45;&gt;2</title>
<path fill="none" stroke="black" d="M117.286,-180.117C76.9203,-175.457 20.5515,-166.046 6.96424,-149 -27.3339,-105.97 78.3638,-95.4232 131.461,-92.8386"/>
<polygon fill="gray" stroke="black" points="131.779,-96.3284 141.623,-92.4098 131.484,-89.3346 131.779,-96.3284"/>
<text text-anchor="middle" x="27.9642" y="-133" font-family="times" font-size="20.00">conv</text>
</g>
<!-- 3 -->
<g id="node6" class="node"><title>3</title>
<polygon fill="lightblue" stroke="black" stroke-width="2" points="487.964,-109 451.964,-109 451.964,-73 487.964,-73 487.964,-109"/>
<text text-anchor="middle" x="469.964" y="-86" font-family="times" font-size="20.00">3</text>
</g>
<!-- c_{k&#45;2}&#45;&gt;3 -->
<g id="edge7" class="edge"><title>c_{k&#45;2}&#45;&gt;3</title>
<path fill="none" stroke="black" d="M202.505,-184.058C273.166,-183.317 410.66,-178.053 447.964,-149 457.223,-141.789 462.589,-130.164 465.696,-119.287"/>
<polygon fill="gray" stroke="black" points="469.172,-119.791 468.037,-109.257 462.356,-118.2 469.172,-119.791"/>
<text text-anchor="middle" x="494.964" y="-133" font-family="times" font-size="20.00">identity</text>
</g>
<!-- c_{k&#45;1} -->
<g id="node2" class="node"><title>c_{k&#45;1}</title>
<polygon fill="#b4eeb4" stroke="black" stroke-width="2" points="512.464,-203 427.464,-203 427.464,-167 512.464,-167 512.464,-203"/>
<text text-anchor="middle" x="469.964" y="-180" font-family="times" font-size="20.00">c_{k&#45;1}</text>
</g>
<!-- c_{k&#45;1}&#45;&gt;0 -->
<g id="edge1" class="edge"><title>c_{k&#45;1}&#45;&gt;0</title>
<path fill="none" stroke="black" d="M512.67,-170.415C522.293,-165.27 531.32,-158.316 536.964,-149 542.031,-140.637 543.238,-134.5 536.964,-127 535.623,-125.396 423.721,-106.02 370.061,-96.8072"/>
<polygon fill="gray" stroke="black" points="370.603,-93.3492 360.155,-95.1085 369.42,-100.248 370.603,-93.3492"/>
<text text-anchor="middle" x="582.964" y="-133" font-family="times" font-size="20.00">sep_conv</text>
</g>
<!-- c_{k&#45;1}&#45;&gt;1 -->
<g id="edge3" class="edge"><title>c_{k&#45;1}&#45;&gt;1</title>
<path fill="none" stroke="black" d="M427.169,-170.747C412.253,-165.169 395.799,-157.884 381.964,-149 370.062,-141.356 370.829,-134.702 358.964,-127 341.242,-115.496 333.753,-118.665 314.964,-109 314.872,-108.952 314.779,-108.905 314.687,-108.857"/>
<polygon fill="gray" stroke="black" points="316.442,-105.828 306.013,-103.963 313.002,-111.925 316.442,-105.828"/>
<text text-anchor="middle" x="414.964" y="-133" font-family="times" font-size="20.00">identity</text>
</g>
<!-- c_{k&#45;1}&#45;&gt;2 -->
<g id="edge5" class="edge"><title>c_{k&#45;1}&#45;&gt;2</title>
<path fill="none" stroke="black" d="M427.206,-182.328C345.717,-178.7 174.666,-168.792 156.964,-149 149.829,-141.023 149.249,-129.632 150.962,-119.127"/>
<polygon fill="gray" stroke="black" points="154.443,-119.608 153.281,-109.077 147.622,-118.033 154.443,-119.608"/>
<text text-anchor="middle" x="189.964" y="-133" font-family="times" font-size="20.00">identity</text>
</g>
<!-- c_{k&#45;1}&#45;&gt;3 -->
<g id="edge8" class="edge"><title>c_{k&#45;1}&#45;&gt;3</title>
<path fill="none" stroke="black" d="M512.522,-181.469C558.584,-177.736 627.663,-168.906 643.964,-149 683.969,-100.147 557.134,-92.7892 498.284,-91.9446"/>
<polygon fill="gray" stroke="black" points="498.173,-88.4436 488.143,-91.8542 498.111,-95.4433 498.173,-88.4436"/>
<text text-anchor="middle" x="705.464" y="-133" font-family="times" font-size="20.00">atrous_conv</text>
</g>
<!-- c_{k} -->
<g id="node7" class="node"><title>c_{k}</title>
<polygon fill="palegoldenrod" stroke="black" stroke-width="2" points="346.964,-36 280.964,-36 280.964,-0 346.964,-0 346.964,-36"/>
<text text-anchor="middle" x="313.964" y="-13" font-family="times" font-size="20.00">c_{k}</text>
</g>
<!-- 0&#45;&gt;c_{k} -->
<g id="edge9" class="edge"><title>0&#45;&gt;c_{k}</title>
<path fill="none" stroke="black" d="M335.186,-72.8129C331.953,-64.6151 328.013,-54.6231 324.409,-45.4847"/>
<polygon fill="gray" stroke="black" points="327.605,-44.0475 320.68,-36.0288 321.093,-46.6156 327.605,-44.0475"/>
</g>
<!-- 1&#45;&gt;c_{k} -->
<g id="edge10" class="edge"><title>1&#45;&gt;c_{k}</title>
<path fill="none" stroke="black" d="M294.258,-72.8129C297.26,-64.6151 300.919,-54.6231 304.266,-45.4847"/>
<polygon fill="gray" stroke="black" points="307.576,-46.6226 307.728,-36.0288 301.003,-44.2155 307.576,-46.6226"/>
</g>
<!-- 2&#45;&gt;c_{k} -->
<g id="edge11" class="edge"><title>2&#45;&gt;c_{k}</title>
<path fill="none" stroke="black" d="M178.235,-81.5766C201.124,-71.0239 241.058,-52.6125 271.704,-38.4836"/>
<polygon fill="gray" stroke="black" points="273.272,-41.615 280.887,-34.2497 270.341,-35.2581 273.272,-41.615"/>
</g>
<!-- 3&#45;&gt;c_{k} -->
<g id="edge12" class="edge"><title>3&#45;&gt;c_{k}</title>
<path fill="none" stroke="black" d="M451.764,-81.7164C428.528,-71.1414 387.6,-52.5135 356.366,-38.2982"/>
<polygon fill="gray" stroke="black" points="357.566,-34.9989 347.014,-34.042 354.666,-41.3701 357.566,-34.9989"/>
</g>
</g>
</svg>
