<?xml version="1.0" encoding="UTF-8" standalone="no"?>
<!DOCTYPE svg PUBLIC "-//W3C//DTD SVG 1.1//EN"
 "http://www.w3.org/Graphics/SVG/1.1/DTD/svg11.dtd">
<!-- Generated by graphviz version 2.38.0 (20140413.2041)
 -->
<!-- Title: %3 Pages: 1 -->
<svg width="1005pt" height="211pt"
 viewBox="0.00 0.00 1005.30 211.00" xmlns="http://www.w3.org/2000/svg" xmlns:xlink="http://www.w3.org/1999/xlink">
<g id="graph0" class="graph" transform="scale(1 1) rotate(0) translate(4 207)">
<title>%3</title>
<polygon fill="white" stroke="none" points="-4,4 -4,-207 1001.3,-207 1001.3,4 -4,4"/>
<!-- c_{k&#45;2} -->
<g id="node1" class="node"><title>c_{k&#45;2}</title>
<polygon fill="#b4eeb4" stroke="black" stroke-width="2" points="237.797,-203 152.797,-203 152.797,-167 237.797,-167 237.797,-203"/>
<text text-anchor="middle" x="195.297" y="-180" font-family="times" font-size="20.00">c_{k&#45;2}</text>
</g>
<!-- 0 -->
<g id="node3" class="node"><title>0</title>
<polygon fill="lightblue" stroke="black" stroke-width="2" points="407.297,-109 371.297,-109 371.297,-73 407.297,-73 407.297,-109"/>
<text text-anchor="middle" x="389.297" y="-86" font-family="times" font-size="20.00">0</text>
</g>
<!-- c_{k&#45;2}&#45;&gt;0 -->
<g id="edge1" class="edge"><title>c_{k&#45;2}&#45;&gt;0</title>
<path fill="none" stroke="black" d="M237.97,-174.023C257.255,-168.402 279.809,-160.217 298.297,-149 310.391,-141.662 309.531,-134.852 321.297,-127 337.851,-115.954 344.717,-118.327 362.297,-109 362.389,-108.951 362.481,-108.902 362.573,-108.853"/>
<polygon fill="gray" stroke="black" points="364.281,-111.908 371.214,-103.897 360.798,-105.836 364.281,-111.908"/>
<text text-anchor="middle" x="375.797" y="-133" font-family="times" font-size="20.00">atrous_conv</text>
</g>
<!-- 1 -->
<g id="node4" class="node"><title>1</title>
<polygon fill="lightblue" stroke="black" stroke-width="2" points="353.297,-109 317.297,-109 317.297,-73 353.297,-73 353.297,-109"/>
<text text-anchor="middle" x="335.297" y="-86" font-family="times" font-size="20.00">1</text>
</g>
<!-- c_{k&#45;2}&#45;&gt;1 -->
<g id="edge3" class="edge"><title>c_{k&#45;2}&#45;&gt;1</title>
<path fill="none" stroke="black" d="M152.452,-178.969C107.36,-171.998 46.2474,-156.746 72.2971,-127 76.1509,-122.599 239.569,-103.135 306.829,-95.2921"/>
<polygon fill="gray" stroke="black" points="307.595,-98.7267 317.124,-94.0949 306.787,-91.7736 307.595,-98.7267"/>
<text text-anchor="middle" x="105.297" y="-133" font-family="times" font-size="20.00">identity</text>
</g>
<!-- 2 -->
<g id="node5" class="node"><title>2</title>
<polygon fill="lightblue" stroke="black" stroke-width="2" points="178.297,-109 142.297,-109 142.297,-73 178.297,-73 178.297,-109"/>
<text text-anchor="middle" x="160.297" y="-86" font-family="times" font-size="20.00">2</text>
</g>
<!-- c_{k&#45;2}&#45;&gt;2 -->
<g id="edge6" class="edge"><title>c_{k&#45;2}&#45;&gt;2</title>
<path fill="none" stroke="black" d="M152.446,-182.18C102.772,-179.065 25.3862,-170.768 7.29707,-149 -27.957,-106.577 78.7879,-95.7135 132.026,-92.9428"/>
<polygon fill="gray" stroke="black" points="132.373,-96.4306 142.203,-92.4777 132.054,-89.4379 132.373,-96.4306"/>
<text text-anchor="middle" x="28.2971" y="-133" font-family="times" font-size="20.00">conv</text>
</g>
<!-- 3 -->
<g id="node6" class="node"><title>3</title>
<polygon fill="lightblue" stroke="black" stroke-width="2" points="637.297,-109 601.297,-109 601.297,-73 637.297,-73 637.297,-109"/>
<text text-anchor="middle" x="619.297" y="-86" font-family="times" font-size="20.00">3</text>
</g>
<!-- c_{k&#45;2}&#45;&gt;3 -->
<g id="edge8" class="edge"><title>c_{k&#45;2}&#45;&gt;3</title>
<path fill="none" stroke="black" d="M237.999,-182.811C335.653,-179.737 569.054,-170.233 597.297,-149 606.839,-141.826 612.244,-129.943 615.304,-118.878"/>
<polygon fill="gray" stroke="black" points="618.722,-119.63 617.507,-109.105 611.894,-118.09 618.722,-119.63"/>
<text text-anchor="middle" x="644.297" y="-133" font-family="times" font-size="20.00">identity</text>
</g>
<!-- c_{k&#45;1} -->
<g id="node2" class="node"><title>c_{k&#45;1}</title>
<polygon fill="#b4eeb4" stroke="black" stroke-width="2" points="622.797,-203 537.797,-203 537.797,-167 622.797,-167 622.797,-203"/>
<text text-anchor="middle" x="580.297" y="-180" font-family="times" font-size="20.00">c_{k&#45;1}</text>
</g>
<!-- c_{k&#45;1}&#45;&gt;0 -->
<g id="edge2" class="edge"><title>c_{k&#45;1}&#45;&gt;0</title>
<path fill="none" stroke="black" d="M622.848,-176.585C661.257,-168.104 708.58,-152.063 686.297,-127 677.417,-117.012 490.642,-100.445 417.919,-94.3468"/>
<polygon fill="gray" stroke="black" points="417.917,-90.8346 407.661,-93.4927 417.336,-97.8104 417.917,-90.8346"/>
<text text-anchor="middle" x="748.797" y="-133" font-family="times" font-size="20.00">max_pooling</text>
</g>
<!-- c_{k&#45;1}&#45;&gt;1 -->
<g id="edge4" class="edge"><title>c_{k&#45;1}&#45;&gt;1</title>
<path fill="none" stroke="black" d="M537.668,-177.689C512.001,-172.602 479.356,-163.784 453.297,-149 440.994,-142.02 442.636,-133.918 430.297,-127 405.477,-113.085 393.255,-119.92 362.997,-108.448"/>
<polygon fill="gray" stroke="black" points="364.057,-105.097 353.48,-104.477 361.362,-111.558 364.057,-105.097"/>
<text text-anchor="middle" x="525.297" y="-133" font-family="times" font-size="20.00">down_sep_conv</text>
</g>
<!-- c_{k&#45;1}&#45;&gt;2 -->
<g id="edge5" class="edge"><title>c_{k&#45;1}&#45;&gt;2</title>
<path fill="none" stroke="black" d="M537.762,-182.022C433,-176.944 170.071,-162.875 157.297,-149 149.973,-141.044 149.438,-129.514 151.235,-118.902"/>
<polygon fill="gray" stroke="black" points="154.645,-119.692 153.527,-109.156 147.83,-118.089 154.645,-119.692"/>
<text text-anchor="middle" x="225.797" y="-133" font-family="times" font-size="20.00">down_att_conv</text>
</g>
<!-- c_{k&#45;1}&#45;&gt;3 -->
<g id="edge7" class="edge"><title>c_{k&#45;1}&#45;&gt;3</title>
<path fill="none" stroke="black" d="M623.021,-184.296C685.916,-183.717 798.755,-178.468 824.297,-149 830.701,-141.612 830.602,-134.473 824.297,-127 802.017,-100.593 698.473,-94.1082 647.625,-92.5168"/>
<polygon fill="gray" stroke="black" points="647.713,-89.018 637.622,-92.2461 647.524,-96.0154 647.713,-89.018"/>
<text text-anchor="middle" x="912.797" y="-133" font-family="times" font-size="20.00">donw_atrous_conv</text>
</g>
<!-- c_{k} -->
<g id="node7" class="node"><title>c_{k}</title>
<polygon fill="palegoldenrod" stroke="black" stroke-width="2" points="394.297,-36 328.297,-36 328.297,-0 394.297,-0 394.297,-36"/>
<text text-anchor="middle" x="361.297" y="-13" font-family="times" font-size="20.00">c_{k}</text>
</g>
<!-- 0&#45;&gt;c_{k} -->
<g id="edge9" class="edge"><title>0&#45;&gt;c_{k}</title>
<path fill="none" stroke="black" d="M382.519,-72.8129C379.286,-64.6151 375.346,-54.6231 371.742,-45.4847"/>
<polygon fill="gray" stroke="black" points="374.937,-44.0475 368.013,-36.0288 368.425,-46.6156 374.937,-44.0475"/>
</g>
<!-- 1&#45;&gt;c_{k} -->
<g id="edge10" class="edge"><title>1&#45;&gt;c_{k}</title>
<path fill="none" stroke="black" d="M341.591,-72.8129C344.593,-64.6151 348.252,-54.6231 351.598,-45.4847"/>
<polygon fill="gray" stroke="black" points="354.909,-46.6226 355.061,-36.0288 348.336,-44.2155 354.909,-46.6226"/>
</g>
<!-- 2&#45;&gt;c_{k} -->
<g id="edge11" class="edge"><title>2&#45;&gt;c_{k}</title>
<path fill="none" stroke="black" d="M178.489,-83.574C209.934,-72.4667 275.246,-49.3962 318.678,-34.0546"/>
<polygon fill="gray" stroke="black" points="319.869,-37.3458 328.132,-30.7149 317.538,-30.7454 319.869,-37.3458"/>
</g>
<!-- 3&#45;&gt;c_{k} -->
<g id="edge12" class="edge"><title>3&#45;&gt;c_{k}</title>
<path fill="none" stroke="black" d="M601.155,-85.0074C560.579,-73.8411 461.567,-46.5937 404.241,-30.818"/>
<polygon fill="gray" stroke="black" points="404.958,-27.3852 394.388,-28.1064 403.101,-34.1343 404.958,-27.3852"/>
</g>
</g>
</svg>
