<?xml version="1.0" encoding="UTF-8" standalone="no"?>
<!DOCTYPE svg PUBLIC "-//W3C//DTD SVG 1.1//EN"
 "http://www.w3.org/Graphics/SVG/1.1/DTD/svg11.dtd">
<!-- Generated by graphviz version 2.38.0 (20140413.2041)
 -->
<!-- Title: %3 Pages: 1 -->
<svg width="529pt" height="399pt"
 viewBox="0.00 0.00 529.28 399.00" xmlns="http://www.w3.org/2000/svg" xmlns:xlink="http://www.w3.org/1999/xlink">
<g id="graph0" class="graph" transform="scale(1 1) rotate(0) translate(4 395)">
<title>%3</title>
<polygon fill="white" stroke="none" points="-4,4 -4,-395 525.275,-395 525.275,4 -4,4"/>
<!-- c_{k&#45;2} -->
<g id="node1" class="node"><title>c_{k&#45;2}</title>
<polygon fill="#b4eeb4" stroke="black" stroke-width="2" points="402.775,-391 317.775,-391 317.775,-355 402.775,-355 402.775,-391"/>
<text text-anchor="middle" x="360.275" y="-368" font-family="times" font-size="20.00">c_{k&#45;2}</text>
</g>
<!-- 0 -->
<g id="node3" class="node"><title>0</title>
<polygon fill="lightblue" stroke="black" stroke-width="2" points="341.275,-297 305.275,-297 305.275,-261 341.275,-261 341.275,-297"/>
<text text-anchor="middle" x="323.275" y="-274" font-family="times" font-size="20.00">0</text>
</g>
<!-- c_{k&#45;2}&#45;&gt;0 -->
<g id="edge1" class="edge"><title>c_{k&#45;2}&#45;&gt;0</title>
<path fill="none" stroke="black" d="M353.891,-354.976C349.584,-343.613 343.715,-328.361 338.275,-315 337.153,-312.245 335.963,-309.377 334.762,-306.52"/>
<polygon fill="gray" stroke="black" points="337.862,-304.868 330.725,-297.037 331.421,-307.609 337.862,-304.868"/>
<text text-anchor="middle" x="379.275" y="-321" font-family="times" font-size="20.00">identity</text>
</g>
<!-- 1 -->
<g id="node4" class="node"><title>1</title>
<polygon fill="lightblue" stroke="black" stroke-width="2" points="164.275,-297 128.275,-297 128.275,-261 164.275,-261 164.275,-297"/>
<text text-anchor="middle" x="146.275" y="-274" font-family="times" font-size="20.00">1</text>
</g>
<!-- c_{k&#45;2}&#45;&gt;1 -->
<g id="edge3" class="edge"><title>c_{k&#45;2}&#45;&gt;1</title>
<path fill="none" stroke="black" d="M317.35,-360.578C301.09,-355.031 282.972,-347.294 268.275,-337 257.693,-329.588 259.989,-322.22 249.275,-315 226.394,-299.58 196.084,-290.362 174.276,-285.288"/>
<polygon fill="gray" stroke="black" points="174.839,-281.828 164.323,-283.121 173.35,-288.668 174.839,-281.828"/>
<text text-anchor="middle" x="301.275" y="-321" font-family="times" font-size="20.00">identity</text>
</g>
<!-- 3 -->
<g id="node6" class="node"><title>3</title>
<polygon fill="lightblue" stroke="black" stroke-width="2" points="351.275,-109 315.275,-109 315.275,-73 351.275,-73 351.275,-109"/>
<text text-anchor="middle" x="333.275" y="-86" font-family="times" font-size="20.00">3</text>
</g>
<!-- c_{k&#45;2}&#45;&gt;3 -->
<g id="edge8" class="edge"><title>c_{k&#45;2}&#45;&gt;3</title>
<path fill="none" stroke="black" d="M399.276,-354.938C406.093,-350.147 412.274,-344.22 416.275,-337 422.993,-324.88 427.998,-339.16 409.275,-221 402.544,-178.52 411.04,-162.165 386.275,-127 379.684,-117.64 369.722,-110.116 360.207,-104.477"/>
<polygon fill="gray" stroke="black" points="361.802,-101.361 351.346,-99.6508 358.454,-107.508 361.802,-101.361"/>
<text text-anchor="middle" x="466.775" y="-227" font-family="times" font-size="20.00">atrous_conv</text>
</g>
<!-- c_{k&#45;1} -->
<g id="node2" class="node"><title>c_{k&#45;1}</title>
<polygon fill="#b4eeb4" stroke="black" stroke-width="2" points="112.775,-391 27.7752,-391 27.7752,-355 112.775,-355 112.775,-391"/>
<text text-anchor="middle" x="70.2752" y="-368" font-family="times" font-size="20.00">c_{k&#45;1}</text>
</g>
<!-- c_{k&#45;1}&#45;&gt;0 -->
<g id="edge2" class="edge"><title>c_{k&#45;1}&#45;&gt;0</title>
<path fill="none" stroke="black" d="M94.354,-354.675C101.338,-349.282 108.817,-343.135 115.275,-337 124.642,-328.102 123.068,-321.428 134.275,-315 185.606,-285.557 256.509,-280.11 295.241,-279.543"/>
<polygon fill="gray" stroke="black" points="295.285,-283.043 305.269,-279.496 295.253,-276.043 295.285,-283.043"/>
<text text-anchor="middle" x="189.775" y="-321" font-family="times" font-size="20.00">up_att_conv</text>
</g>
<!-- c_{k&#45;1}&#45;&gt;1 -->
<g id="edge4" class="edge"><title>c_{k&#45;1}&#45;&gt;1</title>
<path fill="none" stroke="black" d="M27.5085,-357.914C18.2869,-352.811 9.69089,-346.002 4.2752,-337 -0.765325,-328.622 -1.75494,-322.697 4.2752,-315 18.1353,-297.309 80.7282,-287.349 118.028,-282.887"/>
<polygon fill="gray" stroke="black" points="118.723,-286.33 128.264,-281.724 117.933,-279.375 118.723,-286.33"/>
<text text-anchor="middle" x="59.7752" y="-321" font-family="times" font-size="20.00">up_att_conv</text>
</g>
<!-- 2 -->
<g id="node5" class="node"><title>2</title>
<polygon fill="lightblue" stroke="black" stroke-width="2" points="305.275,-203 269.275,-203 269.275,-167 305.275,-167 305.275,-203"/>
<text text-anchor="middle" x="287.275" y="-180" font-family="times" font-size="20.00">2</text>
</g>
<!-- 0&#45;&gt;2 -->
<g id="edge5" class="edge"><title>0&#45;&gt;2</title>
<path fill="none" stroke="black" d="M304.974,-264.669C298.447,-258.826 291.835,-251.385 288.275,-243 284.356,-233.767 283.383,-222.912 283.638,-213.165"/>
<polygon fill="gray" stroke="black" points="287.132,-213.367 284.315,-203.153 280.148,-212.894 287.132,-213.367"/>
<text text-anchor="middle" x="338.775" y="-227" font-family="times" font-size="20.00">att_identity</text>
</g>
<!-- c_{k} -->
<g id="node7" class="node"><title>c_{k}</title>
<polygon fill="palegoldenrod" stroke="black" stroke-width="2" points="338.275,-36 272.275,-36 272.275,-0 338.275,-0 338.275,-36"/>
<text text-anchor="middle" x="305.275" y="-13" font-family="times" font-size="20.00">c_{k}</text>
</g>
<!-- 0&#45;&gt;c_{k} -->
<g id="edge9" class="edge"><title>0&#45;&gt;c_{k}</title>
<path fill="none" stroke="black" d="M341.455,-273.91C357.186,-269.304 378.979,-260.115 389.275,-243 396.875,-230.368 414.45,-241.977 386.275,-127 379.935,-101.128 375.788,-94.6538 360.275,-73 352.604,-62.2918 342.7,-51.8344 333.415,-43.0182"/>
<polygon fill="gray" stroke="black" points="335.551,-40.2274 325.823,-36.0292 330.81,-45.3773 335.551,-40.2274"/>
</g>
<!-- 1&#45;&gt;2 -->
<g id="edge6" class="edge"><title>1&#45;&gt;2</title>
<path fill="none" stroke="black" d="M152.344,-260.759C157.628,-248.091 166.469,-231.35 179.275,-221 202.273,-202.414 235.407,-193.592 258.898,-189.473"/>
<polygon fill="gray" stroke="black" points="259.607,-192.904 268.942,-187.893 258.519,-185.989 259.607,-192.904"/>
<text text-anchor="middle" x="229.775" y="-227" font-family="times" font-size="20.00">att_identity</text>
</g>
<!-- 1&#45;&gt;c_{k} -->
<g id="edge10" class="edge"><title>1&#45;&gt;c_{k}</title>
<path fill="none" stroke="black" d="M147.586,-260.958C148.951,-249.315 151.712,-233.747 157.275,-221 188.314,-149.875 248.023,-79.7276 281.33,-43.7743"/>
<polygon fill="gray" stroke="black" points="284.127,-45.9083 288.41,-36.2179 279.019,-41.122 284.127,-45.9083"/>
</g>
<!-- 2&#45;&gt;3 -->
<g id="edge7" class="edge"><title>2&#45;&gt;3</title>
<path fill="none" stroke="black" d="M295.927,-166.696C302.738,-153.074 312.343,-133.864 320.107,-118.336"/>
<polygon fill="gray" stroke="black" points="323.32,-119.736 324.662,-109.227 317.059,-116.606 323.32,-119.736"/>
<text text-anchor="middle" x="349.275" y="-133" font-family="times" font-size="20.00">identity</text>
</g>
<!-- 2&#45;&gt;c_{k} -->
<g id="edge11" class="edge"><title>2&#45;&gt;c_{k}</title>
<path fill="none" stroke="black" d="M289.134,-166.964C292.246,-138.433 298.539,-80.7517 302.281,-46.4425"/>
<polygon fill="gray" stroke="black" points="305.795,-46.5116 303.4,-36.1909 298.836,-45.7524 305.795,-46.5116"/>
</g>
<!-- 3&#45;&gt;c_{k} -->
<g id="edge12" class="edge"><title>3&#45;&gt;c_{k}</title>
<path fill="none" stroke="black" d="M326.497,-72.8129C323.264,-64.6151 319.324,-54.6231 315.72,-45.4847"/>
<polygon fill="gray" stroke="black" points="318.916,-44.0475 311.991,-36.0288 312.404,-46.6156 318.916,-44.0475"/>
</g>
</g>
</svg>
