<?xml version="1.0" encoding="UTF-8" standalone="no"?>
<!DOCTYPE svg PUBLIC "-//W3C//DTD SVG 1.1//EN"
 "http://www.w3.org/Graphics/SVG/1.1/DTD/svg11.dtd">
<!-- Generated by graphviz version 2.38.0 (20140413.2041)
 -->
<!-- Title: %3 Pages: 1 -->
<svg width="453pt" height="493pt"
 viewBox="0.00 0.00 453.17 493.00" xmlns="http://www.w3.org/2000/svg" xmlns:xlink="http://www.w3.org/1999/xlink">
<g id="graph0" class="graph" transform="scale(1 1) rotate(0) translate(4 489)">
<title>%3</title>
<polygon fill="white" stroke="none" points="-4,4 -4,-489 449.172,-489 449.172,4 -4,4"/>
<!-- c_{k&#45;2} -->
<g id="node1" class="node"><title>c_{k&#45;2}</title>
<polygon fill="#b4eeb4" stroke="black" stroke-width="2" points="85.6725,-485 0.672477,-485 0.672477,-449 85.6725,-449 85.6725,-485"/>
<text text-anchor="middle" x="43.1725" y="-462" font-family="times" font-size="20.00">c_{k&#45;2}</text>
</g>
<!-- 0 -->
<g id="node3" class="node"><title>0</title>
<polygon fill="lightblue" stroke="black" stroke-width="2" points="115.172,-391 79.1725,-391 79.1725,-355 115.172,-355 115.172,-391"/>
<text text-anchor="middle" x="97.1725" y="-368" font-family="times" font-size="20.00">0</text>
</g>
<!-- c_{k&#45;2}&#45;&gt;0 -->
<g id="edge2" class="edge"><title>c_{k&#45;2}&#45;&gt;0</title>
<path fill="none" stroke="black" d="M50.1704,-448.793C55.1535,-437.216 62.335,-421.791 70.1725,-409 72.1321,-405.802 74.3276,-402.549 76.5975,-399.379"/>
<polygon fill="gray" stroke="black" points="79.4735,-401.378 82.6689,-391.276 73.8716,-397.18 79.4735,-401.378"/>
<text text-anchor="middle" x="103.172" y="-415" font-family="times" font-size="20.00">identity</text>
</g>
<!-- 1 -->
<g id="node4" class="node"><title>1</title>
<polygon fill="lightblue" stroke="black" stroke-width="2" points="90.1725,-297 54.1725,-297 54.1725,-261 90.1725,-261 90.1725,-297"/>
<text text-anchor="middle" x="72.1725" y="-274" font-family="times" font-size="20.00">1</text>
</g>
<!-- c_{k&#45;2}&#45;&gt;1 -->
<g id="edge3" class="edge"><title>c_{k&#45;2}&#45;&gt;1</title>
<path fill="none" stroke="black" d="M29.5206,-448.958C13.7347,-427.069 -8.54783,-387.968 4.17248,-355 12.6313,-333.077 30.8014,-313.597 46.2323,-299.987"/>
<polygon fill="gray" stroke="black" points="48.6149,-302.556 53.9861,-293.424 44.0922,-297.213 48.6149,-302.556"/>
<text text-anchor="middle" x="37.1725" y="-368" font-family="times" font-size="20.00">identity</text>
</g>
<!-- c_{k&#45;1} -->
<g id="node2" class="node"><title>c_{k&#45;1}</title>
<polygon fill="#b4eeb4" stroke="black" stroke-width="2" points="218.672,-485 133.672,-485 133.672,-449 218.672,-449 218.672,-485"/>
<text text-anchor="middle" x="176.172" y="-462" font-family="times" font-size="20.00">c_{k&#45;1}</text>
</g>
<!-- c_{k&#45;1}&#45;&gt;0 -->
<g id="edge1" class="edge"><title>c_{k&#45;1}&#45;&gt;0</title>
<path fill="none" stroke="black" d="M165.568,-448.788C158.002,-437.069 147.244,-421.48 136.172,-409 132.15,-404.466 127.58,-399.921 123.019,-395.678"/>
<polygon fill="gray" stroke="black" points="125.23,-392.959 115.452,-388.879 120.551,-398.166 125.23,-392.959"/>
<text text-anchor="middle" x="185.172" y="-415" font-family="times" font-size="20.00">identity</text>
</g>
<!-- 3 -->
<g id="node6" class="node"><title>3</title>
<polygon fill="lightblue" stroke="black" stroke-width="2" points="160.172,-109 124.172,-109 124.172,-73 160.172,-73 160.172,-109"/>
<text text-anchor="middle" x="142.172" y="-86" font-family="times" font-size="20.00">3</text>
</g>
<!-- c_{k&#45;1}&#45;&gt;3 -->
<g id="edge7" class="edge"><title>c_{k&#45;1}&#45;&gt;3</title>
<path fill="none" stroke="black" d="M219.001,-461.187C268.775,-452.938 344.172,-431.03 344.172,-374 344.172,-374 344.172,-374 344.172,-184 344.172,-108.675 226.405,-94.7422 170.712,-92.3645"/>
<polygon fill="gray" stroke="black" points="170.564,-88.8578 160.455,-92.0282 170.335,-95.8541 170.564,-88.8578"/>
<text text-anchor="middle" x="394.672" y="-274" font-family="times" font-size="20.00">att_identity</text>
</g>
<!-- 0&#45;&gt;1 -->
<g id="edge4" class="edge"><title>0&#45;&gt;1</title>
<path fill="none" stroke="black" d="M92.4702,-354.696C88.8386,-341.331 83.7451,-322.587 79.569,-307.219"/>
<polygon fill="gray" stroke="black" points="82.8536,-305.959 76.8537,-297.227 76.0985,-307.795 82.8536,-305.959"/>
<text text-anchor="middle" x="137.672" y="-321" font-family="times" font-size="20.00">att_identity</text>
</g>
<!-- 2 -->
<g id="node5" class="node"><title>2</title>
<polygon fill="lightblue" stroke="black" stroke-width="2" points="138.172,-203 102.172,-203 102.172,-167 138.172,-167 138.172,-203"/>
<text text-anchor="middle" x="120.172" y="-180" font-family="times" font-size="20.00">2</text>
</g>
<!-- 0&#45;&gt;2 -->
<g id="edge5" class="edge"><title>0&#45;&gt;2</title>
<path fill="none" stroke="black" d="M115.517,-371.148C137.854,-369.013 174.749,-361.706 192.172,-337 221.886,-294.866 220.64,-264.631 193.172,-221 183.345,-205.389 164.406,-196.585 148.281,-191.712"/>
<polygon fill="gray" stroke="black" points="148.779,-188.223 138.216,-189.046 146.986,-194.99 148.779,-188.223"/>
<text text-anchor="middle" x="263.672" y="-274" font-family="times" font-size="20.00">att_identity</text>
</g>
<!-- c_{k} -->
<g id="node7" class="node"><title>c_{k}</title>
<polygon fill="palegoldenrod" stroke="black" stroke-width="2" points="110.172,-36 44.1725,-36 44.1725,-0 110.172,-0 110.172,-36"/>
<text text-anchor="middle" x="77.1725" y="-13" font-family="times" font-size="20.00">c_{k}</text>
</g>
<!-- 0&#45;&gt;c_{k} -->
<g id="edge9" class="edge"><title>0&#45;&gt;c_{k}</title>
<path fill="none" stroke="black" d="M78.9246,-355.671C56.1546,-334.524 20.1725,-298.225 20.1725,-280 20.1725,-280 20.1725,-280 20.1725,-90 20.1725,-71.6328 31.9153,-55.3119 44.7411,-42.9636"/>
<polygon fill="gray" stroke="black" points="47.2188,-45.4432 52.3373,-36.1667 42.5511,-40.2265 47.2188,-45.4432"/>
</g>
<!-- 1&#45;&gt;2 -->
<g id="edge6" class="edge"><title>1&#45;&gt;2</title>
<path fill="none" stroke="black" d="M76.5312,-260.901C79.893,-249.233 85.1567,-233.658 92.1725,-221 93.9761,-217.746 96.0827,-214.486 98.3162,-211.337"/>
<polygon fill="gray" stroke="black" points="101.133,-213.415 104.404,-203.337 95.5628,-209.176 101.133,-213.415"/>
<text text-anchor="middle" x="142.672" y="-227" font-family="times" font-size="20.00">att_identity</text>
</g>
<!-- 1&#45;&gt;c_{k} -->
<g id="edge10" class="edge"><title>1&#45;&gt;c_{k}</title>
<path fill="none" stroke="black" d="M72.5083,-260.604C73.3605,-216.462 75.6121,-99.8288 76.6432,-46.4152"/>
<polygon fill="gray" stroke="black" points="80.1443,-46.3859 76.8381,-36.3202 73.1457,-46.2507 80.1443,-46.3859"/>
</g>
<!-- 2&#45;&gt;3 -->
<g id="edge8" class="edge"><title>2&#45;&gt;3</title>
<path fill="none" stroke="black" d="M124.311,-166.696C127.506,-153.331 131.989,-134.587 135.664,-119.219"/>
<polygon fill="gray" stroke="black" points="139.131,-119.767 138.053,-109.227 132.323,-118.139 139.131,-119.767"/>
<text text-anchor="middle" x="166.172" y="-133" font-family="times" font-size="20.00">identity</text>
</g>
<!-- 2&#45;&gt;c_{k} -->
<g id="edge11" class="edge"><title>2&#45;&gt;c_{k}</title>
<path fill="none" stroke="black" d="M115.733,-166.964C108.265,-138.31 93.1351,-80.2518 84.2084,-45.9982"/>
<polygon fill="gray" stroke="black" points="87.5613,-44.9851 81.6525,-36.1909 80.7876,-46.7504 87.5613,-44.9851"/>
</g>
<!-- 3&#45;&gt;c_{k} -->
<g id="edge12" class="edge"><title>3&#45;&gt;c_{k}</title>
<path fill="none" stroke="black" d="M126.974,-72.6951C121.693,-66.7367 115.706,-60.0444 110.172,-54 107.108,-50.6525 103.857,-47.1491 100.638,-43.7067"/>
<polygon fill="gray" stroke="black" points="103.123,-41.2409 93.7237,-36.3526 98.0234,-46.0357 103.123,-41.2409"/>
</g>
</g>
</svg>
