<?xml version="1.0" encoding="UTF-8" standalone="no"?>
<!DOCTYPE svg PUBLIC "-//W3C//DTD SVG 1.1//EN"
 "http://www.w3.org/Graphics/SVG/1.1/DTD/svg11.dtd">
<!-- Generated by graphviz version 2.38.0 (20140413.2041)
 -->
<!-- Title: %3 Pages: 1 -->
<svg width="615pt" height="399pt"
 viewBox="0.00 0.00 614.77 399.00" xmlns="http://www.w3.org/2000/svg" xmlns:xlink="http://www.w3.org/1999/xlink">
<g id="graph0" class="graph" transform="scale(1 1) rotate(0) translate(4 395)">
<title>%3</title>
<polygon fill="white" stroke="none" points="-4,4 -4,-395 610.768,-395 610.768,4 -4,4"/>
<!-- c_{k&#45;2} -->
<g id="node1" class="node"><title>c_{k&#45;2}</title>
<polygon fill="#b4eeb4" stroke="black" stroke-width="2" points="536.268,-391 451.268,-391 451.268,-355 536.268,-355 536.268,-391"/>
<text text-anchor="middle" x="493.768" y="-368" font-family="times" font-size="20.00">c_{k&#45;2}</text>
</g>
<!-- 0 -->
<g id="node3" class="node"><title>0</title>
<polygon fill="lightblue" stroke="black" stroke-width="2" points="330.768,-297 294.768,-297 294.768,-261 330.768,-261 330.768,-297"/>
<text text-anchor="middle" x="312.768" y="-274" font-family="times" font-size="20.00">0</text>
</g>
<!-- c_{k&#45;2}&#45;&gt;0 -->
<g id="edge1" class="edge"><title>c_{k&#45;2}&#45;&gt;0</title>
<path fill="none" stroke="black" d="M453.493,-354.879C443.64,-349.817 433.443,-343.787 424.768,-337 414.593,-329.039 416.363,-322.393 405.768,-315 385.98,-301.194 360.055,-292.026 340.605,-286.55"/>
<polygon fill="gray" stroke="black" points="341.382,-283.135 330.818,-283.949 339.584,-289.9 341.382,-283.135"/>
<text text-anchor="middle" x="479.268" y="-321" font-family="times" font-size="20.00">atrous_conv</text>
</g>
<!-- 1 -->
<g id="node4" class="node"><title>1</title>
<polygon fill="lightblue" stroke="black" stroke-width="2" points="434.768,-297 398.768,-297 398.768,-261 434.768,-261 434.768,-297"/>
<text text-anchor="middle" x="416.768" y="-274" font-family="times" font-size="20.00">1</text>
</g>
<!-- c_{k&#45;2}&#45;&gt;1 -->
<g id="edge3" class="edge"><title>c_{k&#45;2}&#45;&gt;1</title>
<path fill="none" stroke="black" d="M520.762,-354.877C535.118,-343.604 547.909,-328.49 537.768,-315 516.445,-286.635 473.538,-280.167 444.977,-279.233"/>
<polygon fill="gray" stroke="black" points="444.849,-275.731 434.808,-279.112 444.765,-282.731 444.849,-275.731"/>
<text text-anchor="middle" x="573.768" y="-321" font-family="times" font-size="20.00">identity</text>
</g>
<!-- c_{k&#45;1} -->
<g id="node2" class="node"><title>c_{k&#45;1}</title>
<polygon fill="#b4eeb4" stroke="black" stroke-width="2" points="189.268,-391 104.268,-391 104.268,-355 189.268,-355 189.268,-391"/>
<text text-anchor="middle" x="146.768" y="-368" font-family="times" font-size="20.00">c_{k&#45;1}</text>
</g>
<!-- c_{k&#45;1}&#45;&gt;0 -->
<g id="edge2" class="edge"><title>c_{k&#45;1}&#45;&gt;0</title>
<path fill="none" stroke="black" d="M147.768,-354.92C149.433,-342.167 153.743,-325.241 164.768,-315 181.964,-299.026 246.655,-288.359 284.58,-283.332"/>
<polygon fill="gray" stroke="black" points="285.029,-286.803 294.505,-282.064 284.142,-279.859 285.029,-286.803"/>
<text text-anchor="middle" x="219.268" y="-321" font-family="times" font-size="20.00">avg_pooling</text>
</g>
<!-- c_{k&#45;1}&#45;&gt;1 -->
<g id="edge4" class="edge"><title>c_{k&#45;1}&#45;&gt;1</title>
<path fill="none" stroke="black" d="M189.331,-366.673C215.281,-361.931 248.249,-353.13 273.768,-337 284.689,-330.097 281.869,-321.937 292.768,-315 308.621,-304.911 357.073,-292.99 388.508,-285.987"/>
<polygon fill="gray" stroke="black" points="389.425,-289.369 398.445,-283.81 387.928,-282.531 389.425,-289.369"/>
<text text-anchor="middle" x="347.268" y="-321" font-family="times" font-size="20.00">avg_pooling</text>
</g>
<!-- 2 -->
<g id="node5" class="node"><title>2</title>
<polygon fill="lightblue" stroke="black" stroke-width="2" points="50.7681,-203 14.7681,-203 14.7681,-167 50.7681,-167 50.7681,-203"/>
<text text-anchor="middle" x="32.7681" y="-180" font-family="times" font-size="20.00">2</text>
</g>
<!-- c_{k&#45;1}&#45;&gt;2 -->
<g id="edge5" class="edge"><title>c_{k&#45;1}&#45;&gt;2</title>
<path fill="none" stroke="black" d="M104.196,-361.72C71.4801,-351.339 28.4931,-331.732 7.76807,-297 -7.80057,-270.909 4.36299,-236.101 16.5549,-212.469"/>
<polygon fill="gray" stroke="black" points="19.7932,-213.842 21.5233,-203.39 13.6525,-210.482 19.7932,-213.842"/>
<text text-anchor="middle" x="62.2681" y="-274" font-family="times" font-size="20.00">avg_pooling</text>
</g>
<!-- 3 -->
<g id="node6" class="node"><title>3</title>
<polygon fill="lightblue" stroke="black" stroke-width="2" points="148.768,-109 112.768,-109 112.768,-73 148.768,-73 148.768,-109"/>
<text text-anchor="middle" x="130.768" y="-86" font-family="times" font-size="20.00">3</text>
</g>
<!-- c_{k&#45;1}&#45;&gt;3 -->
<g id="edge7" class="edge"><title>c_{k&#45;1}&#45;&gt;3</title>
<path fill="none" stroke="black" d="M143.449,-354.977C138.838,-330.38 130.728,-283.413 127.768,-243 124.612,-199.913 126.761,-149.739 128.694,-119.448"/>
<polygon fill="gray" stroke="black" points="132.202,-119.452 129.386,-109.238 125.218,-118.979 132.202,-119.452"/>
<text text-anchor="middle" x="182.268" y="-227" font-family="times" font-size="20.00">avg_pooling</text>
</g>
<!-- 0&#45;&gt;2 -->
<g id="edge6" class="edge"><title>0&#45;&gt;2</title>
<path fill="none" stroke="black" d="M294.621,-265.957C285.18,-259.466 273.591,-251.135 263.768,-243 252.874,-233.977 253.412,-227.343 240.768,-221 181.727,-191.384 102.62,-186.127 61.0378,-185.605"/>
<polygon fill="gray" stroke="black" points="60.844,-182.104 50.8302,-185.565 60.8162,-189.104 60.844,-182.104"/>
<text text-anchor="middle" x="314.268" y="-227" font-family="times" font-size="20.00">att_identity</text>
</g>
<!-- c_{k} -->
<g id="node7" class="node"><title>c_{k}</title>
<polygon fill="palegoldenrod" stroke="black" stroke-width="2" points="342.768,-36 276.768,-36 276.768,-0 342.768,-0 342.768,-36"/>
<text text-anchor="middle" x="309.768" y="-13" font-family="times" font-size="20.00">c_{k}</text>
</g>
<!-- 0&#45;&gt;c_{k} -->
<g id="edge9" class="edge"><title>0&#45;&gt;c_{k}</title>
<path fill="none" stroke="black" d="M330.971,-271.117C342.941,-265.523 357.66,-256.352 364.768,-243 369.363,-234.369 366.064,-230.692 364.768,-221 356.205,-156.952 333.009,-84.44 319.635,-46.11"/>
<polygon fill="gray" stroke="black" points="322.778,-44.5009 316.143,-36.2408 316.179,-46.8356 322.778,-44.5009"/>
</g>
<!-- 1&#45;&gt;c_{k} -->
<g id="edge10" class="edge"><title>1&#45;&gt;c_{k}</title>
<path fill="none" stroke="black" d="M412.526,-260.998C403.276,-225.19 379.545,-139.805 347.768,-73 343.041,-63.062 336.515,-52.9837 330.205,-44.2679"/>
<polygon fill="gray" stroke="black" points="332.845,-41.9554 324.041,-36.062 327.248,-46.1596 332.845,-41.9554"/>
</g>
<!-- 2&#45;&gt;3 -->
<g id="edge8" class="edge"><title>2&#45;&gt;3</title>
<path fill="none" stroke="black" d="M34.395,-166.938C36.3942,-154.529 40.8483,-138.037 50.7681,-127 64.2792,-111.967 85.4165,-103.099 102.571,-98.0523"/>
<polygon fill="gray" stroke="black" points="103.866,-101.33 112.634,-95.3827 102.071,-94.564 103.866,-101.33"/>
<text text-anchor="middle" x="83.7681" y="-133" font-family="times" font-size="20.00">identity</text>
</g>
<!-- 2&#45;&gt;c_{k} -->
<g id="edge11" class="edge"><title>2&#45;&gt;c_{k}</title>
<path fill="none" stroke="black" d="M29.7264,-166.851C28.4705,-155.016 28.5235,-139.266 34.7681,-127 52.4358,-92.297 68.878,-90.2952 103.768,-73 156.557,-46.8321 223.45,-32.3178 266.432,-25.0887"/>
<polygon fill="gray" stroke="black" points="267.244,-28.5028 276.555,-23.4467 266.123,-21.5931 267.244,-28.5028"/>
</g>
<!-- 3&#45;&gt;c_{k} -->
<g id="edge12" class="edge"><title>3&#45;&gt;c_{k}</title>
<path fill="none" stroke="black" d="M148.917,-82.8014C176.412,-71.8953 229.404,-50.8764 267.043,-35.9467"/>
<polygon fill="gray" stroke="black" points="268.732,-39.0422 276.737,-32.1017 266.151,-32.5354 268.732,-39.0422"/>
</g>
</g>
</svg>
