<?xml version="1.0" encoding="UTF-8" standalone="no"?>
<!DOCTYPE svg PUBLIC "-//W3C//DTD SVG 1.1//EN"
 "http://www.w3.org/Graphics/SVG/1.1/DTD/svg11.dtd">
<!-- Generated by graphviz version 2.38.0 (20140413.2041)
 -->
<!-- Title: %3 Pages: 1 -->
<svg width="1070pt" height="211pt"
 viewBox="0.00 0.00 1069.80 211.00" xmlns="http://www.w3.org/2000/svg" xmlns:xlink="http://www.w3.org/1999/xlink">
<g id="graph0" class="graph" transform="scale(1 1) rotate(0) translate(4 207)">
<title>%3</title>
<polygon fill="white" stroke="none" points="-4,4 -4,-207 1065.8,-207 1065.8,4 -4,4"/>
<!-- c_{k&#45;2} -->
<g id="node1" class="node"><title>c_{k&#45;2}</title>
<polygon fill="#b4eeb4" stroke="black" stroke-width="2" points="302.3,-203 217.3,-203 217.3,-167 302.3,-167 302.3,-203"/>
<text text-anchor="middle" x="259.8" y="-180" font-family="times" font-size="20.00">c_{k&#45;2}</text>
</g>
<!-- 0 -->
<g id="node3" class="node"><title>0</title>
<polygon fill="lightblue" stroke="black" stroke-width="2" points="471.8,-109 435.8,-109 435.8,-73 471.8,-73 471.8,-109"/>
<text text-anchor="middle" x="453.8" y="-86" font-family="times" font-size="20.00">0</text>
</g>
<!-- c_{k&#45;2}&#45;&gt;0 -->
<g id="edge1" class="edge"><title>c_{k&#45;2}&#45;&gt;0</title>
<path fill="none" stroke="black" d="M302.473,-174.023C321.758,-168.402 344.313,-160.217 362.8,-149 374.894,-141.662 374.034,-134.852 385.8,-127 402.354,-115.954 409.22,-118.327 426.8,-109 426.892,-108.951 426.984,-108.902 427.076,-108.853"/>
<polygon fill="gray" stroke="black" points="428.784,-111.908 435.717,-103.897 425.302,-105.836 428.784,-111.908"/>
<text text-anchor="middle" x="440.3" y="-133" font-family="times" font-size="20.00">atrous_conv</text>
</g>
<!-- 1 -->
<g id="node4" class="node"><title>1</title>
<polygon fill="lightblue" stroke="black" stroke-width="2" points="417.8,-109 381.8,-109 381.8,-73 417.8,-73 417.8,-109"/>
<text text-anchor="middle" x="399.8" y="-86" font-family="times" font-size="20.00">1</text>
</g>
<!-- c_{k&#45;2}&#45;&gt;1 -->
<g id="edge3" class="edge"><title>c_{k&#45;2}&#45;&gt;1</title>
<path fill="none" stroke="black" d="M216.956,-178.969C171.863,-171.998 110.751,-156.746 136.8,-127 140.654,-122.599 304.072,-103.135 371.332,-95.2921"/>
<polygon fill="gray" stroke="black" points="372.099,-98.7267 381.627,-94.0949 371.29,-91.7736 372.099,-98.7267"/>
<text text-anchor="middle" x="169.8" y="-133" font-family="times" font-size="20.00">identity</text>
</g>
<!-- 2 -->
<g id="node5" class="node"><title>2</title>
<polygon fill="lightblue" stroke="black" stroke-width="2" points="242.8,-109 206.8,-109 206.8,-73 242.8,-73 242.8,-109"/>
<text text-anchor="middle" x="224.8" y="-86" font-family="times" font-size="20.00">2</text>
</g>
<!-- c_{k&#45;2}&#45;&gt;2 -->
<g id="edge5" class="edge"><title>c_{k&#45;2}&#45;&gt;2</title>
<path fill="none" stroke="black" d="M217.046,-184.604C151.733,-184.509 31.8215,-179.983 4.80024,-149 -1.62644,-141.631 -1.54735,-134.437 4.80024,-127 29.1112,-98.5156 142.538,-93.0978 196.34,-92.1483"/>
<polygon fill="gray" stroke="black" points="196.61,-95.645 206.562,-92.0096 196.515,-88.6457 196.61,-95.645"/>
<text text-anchor="middle" x="59.3002" y="-133" font-family="times" font-size="20.00">atrous_conv</text>
</g>
<!-- 3 -->
<g id="node6" class="node"><title>3</title>
<polygon fill="lightblue" stroke="black" stroke-width="2" points="701.8,-109 665.8,-109 665.8,-73 701.8,-73 701.8,-109"/>
<text text-anchor="middle" x="683.8" y="-86" font-family="times" font-size="20.00">3</text>
</g>
<!-- c_{k&#45;2}&#45;&gt;3 -->
<g id="edge8" class="edge"><title>c_{k&#45;2}&#45;&gt;3</title>
<path fill="none" stroke="black" d="M302.502,-182.811C400.156,-179.737 633.557,-170.233 661.8,-149 671.343,-141.826 676.747,-129.943 679.807,-118.878"/>
<polygon fill="gray" stroke="black" points="683.225,-119.63 682.01,-109.105 676.397,-118.09 683.225,-119.63"/>
<text text-anchor="middle" x="708.8" y="-133" font-family="times" font-size="20.00">identity</text>
</g>
<!-- c_{k&#45;1} -->
<g id="node2" class="node"><title>c_{k&#45;1}</title>
<polygon fill="#b4eeb4" stroke="black" stroke-width="2" points="687.3,-203 602.3,-203 602.3,-167 687.3,-167 687.3,-203"/>
<text text-anchor="middle" x="644.8" y="-180" font-family="times" font-size="20.00">c_{k&#45;1}</text>
</g>
<!-- c_{k&#45;1}&#45;&gt;0 -->
<g id="edge2" class="edge"><title>c_{k&#45;1}&#45;&gt;0</title>
<path fill="none" stroke="black" d="M687.351,-176.585C725.76,-168.104 773.083,-152.063 750.8,-127 741.92,-117.012 555.146,-100.445 482.422,-94.3468"/>
<polygon fill="gray" stroke="black" points="482.42,-90.8346 472.164,-93.4927 481.839,-97.8104 482.42,-90.8346"/>
<text text-anchor="middle" x="813.3" y="-133" font-family="times" font-size="20.00">max_pooling</text>
</g>
<!-- c_{k&#45;1}&#45;&gt;1 -->
<g id="edge4" class="edge"><title>c_{k&#45;1}&#45;&gt;1</title>
<path fill="none" stroke="black" d="M602.171,-177.689C576.504,-172.602 543.859,-163.784 517.8,-149 505.497,-142.02 507.139,-133.918 494.8,-127 469.98,-113.085 457.758,-119.92 427.501,-108.448"/>
<polygon fill="gray" stroke="black" points="428.56,-105.097 417.983,-104.477 425.865,-111.558 428.56,-105.097"/>
<text text-anchor="middle" x="589.8" y="-133" font-family="times" font-size="20.00">down_sep_conv</text>
</g>
<!-- c_{k&#45;1}&#45;&gt;2 -->
<g id="edge6" class="edge"><title>c_{k&#45;1}&#45;&gt;2</title>
<path fill="none" stroke="black" d="M602.265,-182.022C497.503,-176.944 234.574,-162.875 221.8,-149 214.476,-141.044 213.941,-129.514 215.738,-118.902"/>
<polygon fill="gray" stroke="black" points="219.148,-119.692 218.03,-109.156 212.334,-118.089 219.148,-119.692"/>
<text text-anchor="middle" x="290.3" y="-133" font-family="times" font-size="20.00">down_att_conv</text>
</g>
<!-- c_{k&#45;1}&#45;&gt;3 -->
<g id="edge7" class="edge"><title>c_{k&#45;1}&#45;&gt;3</title>
<path fill="none" stroke="black" d="M687.524,-184.296C750.419,-183.717 863.258,-178.468 888.8,-149 895.205,-141.612 895.106,-134.473 888.8,-127 866.52,-100.593 762.976,-94.1082 712.128,-92.5168"/>
<polygon fill="gray" stroke="black" points="712.216,-89.018 702.125,-92.2461 712.027,-96.0154 712.216,-89.018"/>
<text text-anchor="middle" x="977.3" y="-133" font-family="times" font-size="20.00">donw_atrous_conv</text>
</g>
<!-- c_{k} -->
<g id="node7" class="node"><title>c_{k}</title>
<polygon fill="palegoldenrod" stroke="black" stroke-width="2" points="458.8,-36 392.8,-36 392.8,-0 458.8,-0 458.8,-36"/>
<text text-anchor="middle" x="425.8" y="-13" font-family="times" font-size="20.00">c_{k}</text>
</g>
<!-- 0&#45;&gt;c_{k} -->
<g id="edge9" class="edge"><title>0&#45;&gt;c_{k}</title>
<path fill="none" stroke="black" d="M447.022,-72.8129C443.789,-64.6151 439.849,-54.6231 436.245,-45.4847"/>
<polygon fill="gray" stroke="black" points="439.441,-44.0475 432.516,-36.0288 432.929,-46.6156 439.441,-44.0475"/>
</g>
<!-- 1&#45;&gt;c_{k} -->
<g id="edge10" class="edge"><title>1&#45;&gt;c_{k}</title>
<path fill="none" stroke="black" d="M406.094,-72.8129C409.096,-64.6151 412.755,-54.6231 416.102,-45.4847"/>
<polygon fill="gray" stroke="black" points="419.412,-46.6226 419.564,-36.0288 412.839,-44.2155 419.412,-46.6226"/>
</g>
<!-- 2&#45;&gt;c_{k} -->
<g id="edge11" class="edge"><title>2&#45;&gt;c_{k}</title>
<path fill="none" stroke="black" d="M242.992,-83.574C274.437,-72.4667 339.749,-49.3962 383.181,-34.0546"/>
<polygon fill="gray" stroke="black" points="384.372,-37.3458 392.636,-30.7149 382.041,-30.7454 384.372,-37.3458"/>
</g>
<!-- 3&#45;&gt;c_{k} -->
<g id="edge12" class="edge"><title>3&#45;&gt;c_{k}</title>
<path fill="none" stroke="black" d="M665.658,-85.0074C625.082,-73.8411 526.07,-46.5937 468.744,-30.818"/>
<polygon fill="gray" stroke="black" points="469.461,-27.3852 458.891,-28.1064 467.604,-34.1343 469.461,-27.3852"/>
</g>
</g>
</svg>
