<?xml version="1.0" encoding="UTF-8" standalone="no"?>
<!DOCTYPE svg PUBLIC "-//W3C//DTD SVG 1.1//EN"
 "http://www.w3.org/Graphics/SVG/1.1/DTD/svg11.dtd">
<!-- Generated by graphviz version 2.38.0 (20140413.2041)
 -->
<!-- Title: %3 Pages: 1 -->
<svg width="820pt" height="305pt"
 viewBox="0.00 0.00 819.52 305.00" xmlns="http://www.w3.org/2000/svg" xmlns:xlink="http://www.w3.org/1999/xlink">
<g id="graph0" class="graph" transform="scale(1 1) rotate(0) translate(4 301)">
<title>%3</title>
<polygon fill="white" stroke="none" points="-4,4 -4,-301 815.516,-301 815.516,4 -4,4"/>
<!-- c_{k&#45;2} -->
<g id="node1" class="node"><title>c_{k&#45;2}</title>
<polygon fill="#b4eeb4" stroke="black" stroke-width="2" points="657.016,-297 572.016,-297 572.016,-261 657.016,-261 657.016,-297"/>
<text text-anchor="middle" x="614.516" y="-274" font-family="times" font-size="20.00">c_{k&#45;2}</text>
</g>
<!-- 0 -->
<g id="node3" class="node"><title>0</title>
<polygon fill="lightblue" stroke="black" stroke-width="2" points="357.516,-203 321.516,-203 321.516,-167 357.516,-167 357.516,-203"/>
<text text-anchor="middle" x="339.516" y="-180" font-family="times" font-size="20.00">0</text>
</g>
<!-- c_{k&#45;2}&#45;&gt;0 -->
<g id="edge1" class="edge"><title>c_{k&#45;2}&#45;&gt;0</title>
<path fill="none" stroke="black" d="M572.013,-275.585C498.907,-270.998 355.697,-259.942 340.516,-243 333.382,-235.039 332.09,-223.651 332.979,-213.143"/>
<polygon fill="gray" stroke="black" points="336.466,-213.493 334.461,-203.089 329.54,-212.472 336.466,-213.493"/>
<text text-anchor="middle" x="395.016" y="-227" font-family="times" font-size="20.00">atrous_conv</text>
</g>
<!-- 1 -->
<g id="node4" class="node"><title>1</title>
<polygon fill="lightblue" stroke="black" stroke-width="2" points="506.516,-203 470.516,-203 470.516,-167 506.516,-167 506.516,-203"/>
<text text-anchor="middle" x="488.516" y="-180" font-family="times" font-size="20.00">1</text>
</g>
<!-- c_{k&#45;2}&#45;&gt;1 -->
<g id="edge3" class="edge"><title>c_{k&#45;2}&#45;&gt;1</title>
<path fill="none" stroke="black" d="M589.315,-260.803C582.019,-255.414 574.22,-249.236 567.516,-243 558.056,-234.201 558.453,-229.256 548.516,-221 538.543,-212.715 526.365,-205.216 515.593,-199.304"/>
<polygon fill="gray" stroke="black" points="517.055,-196.118 506.579,-194.537 513.783,-202.306 517.055,-196.118"/>
<text text-anchor="middle" x="600.516" y="-227" font-family="times" font-size="20.00">identity</text>
</g>
<!-- 2 -->
<g id="node5" class="node"><title>2</title>
<polygon fill="lightblue" stroke="black" stroke-width="2" points="570.516,-203 534.516,-203 534.516,-167 570.516,-167 570.516,-203"/>
<text text-anchor="middle" x="552.516" y="-180" font-family="times" font-size="20.00">2</text>
</g>
<!-- c_{k&#45;2}&#45;&gt;2 -->
<g id="edge5" class="edge"><title>c_{k&#45;2}&#45;&gt;2</title>
<path fill="none" stroke="black" d="M629.709,-260.888C638.279,-249.07 645.769,-233.324 637.516,-221 624.945,-202.229 600.286,-193.516 580.752,-189.476"/>
<polygon fill="gray" stroke="black" points="581.272,-186.014 570.816,-187.72 580.054,-192.907 581.272,-186.014"/>
<text text-anchor="middle" x="695.016" y="-227" font-family="times" font-size="20.00">atrous_conv</text>
</g>
<!-- 3 -->
<g id="node6" class="node"><title>3</title>
<polygon fill="lightblue" stroke="black" stroke-width="2" points="590.516,-109 554.516,-109 554.516,-73 590.516,-73 590.516,-109"/>
<text text-anchor="middle" x="572.516" y="-86" font-family="times" font-size="20.00">3</text>
</g>
<!-- c_{k&#45;2}&#45;&gt;3 -->
<g id="edge7" class="edge"><title>c_{k&#45;2}&#45;&gt;3</title>
<path fill="none" stroke="black" d="M657.168,-273.007C693.516,-267.771 741.698,-258.162 753.516,-243 759.526,-235.288 756.776,-230.218 753.516,-221 735.602,-170.35 721.664,-157.615 677.516,-127 654.206,-110.836 622.865,-101.676 600.505,-96.8164"/>
<polygon fill="gray" stroke="black" points="601.121,-93.3701 590.626,-94.8207 599.735,-100.231 601.121,-93.3701"/>
<text text-anchor="middle" x="778.516" y="-180" font-family="times" font-size="20.00">identity</text>
</g>
<!-- c_{k&#45;1} -->
<g id="node2" class="node"><title>c_{k&#45;1}</title>
<polygon fill="#b4eeb4" stroke="black" stroke-width="2" points="216.016,-297 131.016,-297 131.016,-261 216.016,-261 216.016,-297"/>
<text text-anchor="middle" x="173.516" y="-274" font-family="times" font-size="20.00">c_{k&#45;1}</text>
</g>
<!-- c_{k&#45;1}&#45;&gt;0 -->
<g id="edge2" class="edge"><title>c_{k&#45;1}&#45;&gt;0</title>
<path fill="none" stroke="black" d="M130.877,-276.743C70.5817,-273.514 -28.3798,-262.002 8.51563,-221 28.5939,-198.687 234.132,-189.538 310.847,-186.883"/>
<polygon fill="gray" stroke="black" points="311.316,-190.369 321.194,-186.537 311.083,-183.373 311.316,-190.369"/>
<text text-anchor="middle" x="80.0156" y="-227" font-family="times" font-size="20.00">up_atrous_conv</text>
</g>
<!-- c_{k&#45;1}&#45;&gt;1 -->
<g id="edge4" class="edge"><title>c_{k&#45;1}&#45;&gt;1</title>
<path fill="none" stroke="black" d="M172.5,-260.904C172.739,-247.967 175.405,-230.806 186.516,-221 216.655,-194.399 326.601,-207.775 366.516,-203 398.7,-199.15 435.54,-193.9 460.241,-190.257"/>
<polygon fill="gray" stroke="black" points="460.978,-193.686 470.355,-188.755 459.949,-186.762 460.978,-193.686"/>
<text text-anchor="middle" x="258.016" y="-227" font-family="times" font-size="20.00">up_atrous_conv</text>
</g>
<!-- c_{k&#45;1}&#45;&gt;2 -->
<g id="edge6" class="edge"><title>c_{k&#45;1}&#45;&gt;2</title>
<path fill="none" stroke="black" d="M216.071,-276.303C283.198,-273.015 410.09,-264.145 449.516,-243 460.901,-236.894 457.942,-228.423 468.516,-221 486.823,-208.148 494.897,-211.674 515.516,-203 518.578,-201.712 521.763,-200.323 524.923,-198.915"/>
<polygon fill="gray" stroke="black" points="526.519,-202.034 534.176,-194.711 523.624,-195.661 526.519,-202.034"/>
<text text-anchor="middle" x="506.516" y="-227" font-family="times" font-size="20.00">up_conv</text>
</g>
<!-- c_{k} -->
<g id="node7" class="node"><title>c_{k}</title>
<polygon fill="palegoldenrod" stroke="black" stroke-width="2" points="540.516,-36 474.516,-36 474.516,-0 540.516,-0 540.516,-36"/>
<text text-anchor="middle" x="507.516" y="-13" font-family="times" font-size="20.00">c_{k}</text>
</g>
<!-- 0&#45;&gt;c_{k} -->
<g id="edge9" class="edge"><title>0&#45;&gt;c_{k}</title>
<path fill="none" stroke="black" d="M356.862,-166.964C386.791,-137.569 448.228,-77.2291 482.683,-43.3893"/>
<polygon fill="gray" stroke="black" points="485.33,-45.6951 490.012,-36.1909 480.425,-40.701 485.33,-45.6951"/>
</g>
<!-- 1&#45;&gt;c_{k} -->
<g id="edge10" class="edge"><title>1&#45;&gt;c_{k}</title>
<path fill="none" stroke="black" d="M490.477,-166.964C493.763,-138.433 500.405,-80.7517 504.356,-46.4425"/>
<polygon fill="gray" stroke="black" points="507.869,-46.5257 505.536,-36.1909 500.915,-45.7249 507.869,-46.5257"/>
</g>
<!-- 2&#45;&gt;3 -->
<g id="edge8" class="edge"><title>2&#45;&gt;3</title>
<path fill="none" stroke="black" d="M556.277,-166.696C559.183,-153.331 563.258,-134.587 566.598,-119.219"/>
<polygon fill="gray" stroke="black" points="570.066,-119.742 568.771,-109.227 563.226,-118.255 570.066,-119.742"/>
<text text-anchor="middle" x="619.016" y="-133" font-family="times" font-size="20.00">atrous_conv</text>
</g>
<!-- 2&#45;&gt;c_{k} -->
<g id="edge11" class="edge"><title>2&#45;&gt;c_{k}</title>
<path fill="none" stroke="black" d="M547.869,-166.964C540.055,-138.31 524.221,-80.2518 514.879,-45.9982"/>
<polygon fill="gray" stroke="black" points="518.212,-44.9177 512.204,-36.1909 511.459,-46.7595 518.212,-44.9177"/>
</g>
<!-- 3&#45;&gt;c_{k} -->
<g id="edge12" class="edge"><title>3&#45;&gt;c_{k}</title>
<path fill="none" stroke="black" d="M557.317,-72.6951C552.036,-66.7367 546.049,-60.0444 540.516,-54 537.451,-50.6525 534.2,-47.1491 530.981,-43.7067"/>
<polygon fill="gray" stroke="black" points="533.467,-41.2409 524.067,-36.3526 528.367,-46.0357 533.467,-41.2409"/>
</g>
</g>
</svg>
