<?xml version="1.0" encoding="UTF-8" standalone="no"?>
<!DOCTYPE svg PUBLIC "-//W3C//DTD SVG 1.1//EN"
 "http://www.w3.org/Graphics/SVG/1.1/DTD/svg11.dtd">
<!-- Generated by graphviz version 2.38.0 (20140413.2041)
 -->
<!-- Title: %3 Pages: 1 -->
<svg width="717pt" height="305pt"
 viewBox="0.00 0.00 716.70 305.00" xmlns="http://www.w3.org/2000/svg" xmlns:xlink="http://www.w3.org/1999/xlink">
<g id="graph0" class="graph" transform="scale(1 1) rotate(0) translate(4 301)">
<title>%3</title>
<polygon fill="white" stroke="none" points="-4,4 -4,-301 712.696,-301 712.696,4 -4,4"/>
<!-- c_{k&#45;2} -->
<g id="node1" class="node"><title>c_{k&#45;2}</title>
<polygon fill="#b4eeb4" stroke="black" stroke-width="2" points="555.196,-297 470.196,-297 470.196,-261 555.196,-261 555.196,-297"/>
<text text-anchor="middle" x="512.696" y="-274" font-family="times" font-size="20.00">c_{k&#45;2}</text>
</g>
<!-- 0 -->
<g id="node3" class="node"><title>0</title>
<polygon fill="lightblue" stroke="black" stroke-width="2" points="218.696,-203 182.696,-203 182.696,-167 218.696,-167 218.696,-203"/>
<text text-anchor="middle" x="200.696" y="-180" font-family="times" font-size="20.00">0</text>
</g>
<!-- c_{k&#45;2}&#45;&gt;0 -->
<g id="edge2" class="edge"><title>c_{k&#45;2}&#45;&gt;0</title>
<path fill="none" stroke="black" d="M469.927,-276.266C388.886,-272.542 219.428,-262.493 201.696,-243 194.503,-235.093 193.201,-223.713 194.1,-213.197"/>
<polygon fill="gray" stroke="black" points="197.588,-213.536 195.596,-203.13 190.664,-212.507 197.588,-213.536"/>
<text text-anchor="middle" x="256.196" y="-227" font-family="times" font-size="20.00">atrous_conv</text>
</g>
<!-- 1 -->
<g id="node4" class="node"><title>1</title>
<polygon fill="lightblue" stroke="black" stroke-width="2" points="386.696,-203 350.696,-203 350.696,-167 386.696,-167 386.696,-203"/>
<text text-anchor="middle" x="368.696" y="-180" font-family="times" font-size="20.00">1</text>
</g>
<!-- c_{k&#45;2}&#45;&gt;1 -->
<g id="edge4" class="edge"><title>c_{k&#45;2}&#45;&gt;1</title>
<path fill="none" stroke="black" d="M487.495,-260.803C480.199,-255.414 472.4,-249.236 465.696,-243 456.236,-234.201 457.089,-228.675 446.696,-221 430.687,-209.178 423.849,-211.155 405.696,-203 402.504,-201.566 399.163,-200.051 395.85,-198.54"/>
<polygon fill="gray" stroke="black" points="397.283,-195.347 386.734,-194.362 394.367,-201.711 397.283,-195.347"/>
<text text-anchor="middle" x="498.696" y="-227" font-family="times" font-size="20.00">identity</text>
</g>
<!-- 2 -->
<g id="node5" class="node"><title>2</title>
<polygon fill="lightblue" stroke="black" stroke-width="2" points="450.696,-203 414.696,-203 414.696,-167 450.696,-167 450.696,-203"/>
<text text-anchor="middle" x="432.696" y="-180" font-family="times" font-size="20.00">2</text>
</g>
<!-- c_{k&#45;2}&#45;&gt;2 -->
<g id="edge5" class="edge"><title>c_{k&#45;2}&#45;&gt;2</title>
<path fill="none" stroke="black" d="M527.942,-260.977C536.702,-249.053 544.396,-233.145 535.696,-221 518.834,-197.462 485.227,-189.563 460.979,-187.015"/>
<polygon fill="gray" stroke="black" points="461.163,-183.518 450.914,-186.201 460.599,-190.495 461.163,-183.518"/>
<text text-anchor="middle" x="593.196" y="-227" font-family="times" font-size="20.00">atrous_conv</text>
</g>
<!-- 3 -->
<g id="node6" class="node"><title>3</title>
<polygon fill="lightblue" stroke="black" stroke-width="2" points="470.696,-109 434.696,-109 434.696,-73 470.696,-73 470.696,-109"/>
<text text-anchor="middle" x="452.696" y="-86" font-family="times" font-size="20.00">3</text>
</g>
<!-- c_{k&#45;2}&#45;&gt;3 -->
<g id="edge7" class="edge"><title>c_{k&#45;2}&#45;&gt;3</title>
<path fill="none" stroke="black" d="M555.375,-276.864C602.193,-273.59 668.614,-261.844 651.696,-221 629.086,-166.415 607.955,-158.062 557.696,-127 533.708,-112.174 502.716,-102.845 480.634,-97.5817"/>
<polygon fill="gray" stroke="black" points="481.401,-94.1669 470.876,-95.3816 479.861,-100.995 481.401,-94.1669"/>
<text text-anchor="middle" x="675.696" y="-180" font-family="times" font-size="20.00">identity</text>
</g>
<!-- c_{k&#45;1} -->
<g id="node2" class="node"><title>c_{k&#45;1}</title>
<polygon fill="#b4eeb4" stroke="black" stroke-width="2" points="154.196,-297 69.1958,-297 69.1958,-261 154.196,-261 154.196,-297"/>
<text text-anchor="middle" x="111.696" y="-274" font-family="times" font-size="20.00">c_{k&#45;1}</text>
</g>
<!-- c_{k&#45;1}&#45;&gt;0 -->
<g id="edge1" class="edge"><title>c_{k&#45;1}&#45;&gt;0</title>
<path fill="none" stroke="black" d="M69.1075,-270.783C31.0145,-262.498 -15.7543,-246.643 5.69584,-221 26.6229,-195.982 123.568,-188.823 172.411,-186.793"/>
<polygon fill="gray" stroke="black" points="172.75,-190.283 182.614,-186.415 172.491,-183.288 172.75,-190.283"/>
<text text-anchor="middle" x="47.6958" y="-227" font-family="times" font-size="20.00">sep_conv</text>
</g>
<!-- c_{k&#45;1}&#45;&gt;1 -->
<g id="edge3" class="edge"><title>c_{k&#45;1}&#45;&gt;1</title>
<path fill="none" stroke="black" d="M106.668,-260.935C104.098,-248.359 103.232,-231.656 112.696,-221 116.47,-216.751 274.788,-197.285 340.53,-189.366"/>
<polygon fill="gray" stroke="black" points="341.096,-192.823 350.607,-188.155 340.261,-185.873 341.096,-192.823"/>
<text text-anchor="middle" x="145.696" y="-227" font-family="times" font-size="20.00">identity</text>
</g>
<!-- c_{k&#45;1}&#45;&gt;2 -->
<g id="edge6" class="edge"><title>c_{k&#45;1}&#45;&gt;2</title>
<path fill="none" stroke="black" d="M154.466,-278.603C196.763,-277.409 262.037,-270.619 310.696,-243 321.932,-236.622 318.766,-227.888 329.696,-221 355.418,-204.789 367.119,-213.382 395.696,-203 398.819,-201.865 402.042,-200.575 405.224,-199.223"/>
<polygon fill="gray" stroke="black" points="406.797,-202.354 414.501,-195.081 403.943,-195.962 406.797,-202.354"/>
<text text-anchor="middle" x="386.196" y="-227" font-family="times" font-size="20.00">shuffle_conv</text>
</g>
<!-- c_{k} -->
<g id="node7" class="node"><title>c_{k}</title>
<polygon fill="palegoldenrod" stroke="black" stroke-width="2" points="420.696,-36 354.696,-36 354.696,-0 420.696,-0 420.696,-36"/>
<text text-anchor="middle" x="387.696" y="-13" font-family="times" font-size="20.00">c_{k}</text>
</g>
<!-- 0&#45;&gt;c_{k} -->
<g id="edge9" class="edge"><title>0&#45;&gt;c_{k}</title>
<path fill="none" stroke="black" d="M218.967,-167.879C251.999,-138.732 321.808,-77.1365 360.478,-43.0158"/>
<polygon fill="gray" stroke="black" points="363.05,-45.4141 368.233,-36.1734 358.419,-40.1652 363.05,-45.4141"/>
</g>
<!-- 1&#45;&gt;c_{k} -->
<g id="edge10" class="edge"><title>1&#45;&gt;c_{k}</title>
<path fill="none" stroke="black" d="M370.658,-166.964C373.943,-138.433 380.585,-80.7517 384.536,-46.4425"/>
<polygon fill="gray" stroke="black" points="388.049,-46.5257 385.716,-36.1909 381.095,-45.7249 388.049,-46.5257"/>
</g>
<!-- 2&#45;&gt;3 -->
<g id="edge8" class="edge"><title>2&#45;&gt;3</title>
<path fill="none" stroke="black" d="M436.458,-166.696C439.363,-153.331 443.438,-134.587 446.779,-119.219"/>
<polygon fill="gray" stroke="black" points="450.247,-119.742 448.951,-109.227 443.406,-118.255 450.247,-119.742"/>
<text text-anchor="middle" x="499.196" y="-133" font-family="times" font-size="20.00">atrous_conv</text>
</g>
<!-- 2&#45;&gt;c_{k} -->
<g id="edge11" class="edge"><title>2&#45;&gt;c_{k}</title>
<path fill="none" stroke="black" d="M428.05,-166.964C420.235,-138.31 404.401,-80.2518 395.059,-45.9982"/>
<polygon fill="gray" stroke="black" points="398.392,-44.9177 392.384,-36.1909 391.639,-46.7595 398.392,-44.9177"/>
</g>
<!-- 3&#45;&gt;c_{k} -->
<g id="edge12" class="edge"><title>3&#45;&gt;c_{k}</title>
<path fill="none" stroke="black" d="M437.498,-72.6951C432.216,-66.7367 426.23,-60.0444 420.696,-54 417.631,-50.6525 414.381,-47.1491 411.161,-43.7067"/>
<polygon fill="gray" stroke="black" points="413.647,-41.2409 404.247,-36.3526 408.547,-46.0357 413.647,-41.2409"/>
</g>
</g>
</svg>
