<?xml version="1.0" encoding="UTF-8" standalone="no"?>
<!DOCTYPE svg PUBLIC "-//W3C//DTD SVG 1.1//EN"
 "http://www.w3.org/Graphics/SVG/1.1/DTD/svg11.dtd">
<!-- Generated by graphviz version 2.38.0 (20140413.2041)
 -->
<!-- Title: %3 Pages: 1 -->
<svg width="595pt" height="305pt"
 viewBox="0.00 0.00 595.22 305.00" xmlns="http://www.w3.org/2000/svg" xmlns:xlink="http://www.w3.org/1999/xlink">
<g id="graph0" class="graph" transform="scale(1 1) rotate(0) translate(4 301)">
<title>%3</title>
<polygon fill="white" stroke="none" points="-4,4 -4,-301 591.219,-301 591.219,4 -4,4"/>
<!-- c_{k&#45;2} -->
<g id="node1" class="node"><title>c_{k&#45;2}</title>
<polygon fill="#b4eeb4" stroke="black" stroke-width="2" points="197.719,-297 112.719,-297 112.719,-261 197.719,-261 197.719,-297"/>
<text text-anchor="middle" x="155.219" y="-274" font-family="times" font-size="20.00">c_{k&#45;2}</text>
</g>
<!-- 0 -->
<g id="node3" class="node"><title>0</title>
<polygon fill="lightblue" stroke="black" stroke-width="2" points="155.219,-203 119.219,-203 119.219,-167 155.219,-167 155.219,-203"/>
<text text-anchor="middle" x="137.219" y="-180" font-family="times" font-size="20.00">0</text>
</g>
<!-- c_{k&#45;2}&#45;&gt;0 -->
<g id="edge2" class="edge"><title>c_{k&#45;2}&#45;&gt;0</title>
<path fill="none" stroke="black" d="M112.534,-273.819C73.2971,-268.989 19.2963,-259.506 6.21865,-243 -22.8611,-206.298 62.1975,-192.729 108.862,-188.134"/>
<polygon fill="gray" stroke="black" points="109.351,-191.604 118.995,-187.217 108.72,-184.633 109.351,-191.604"/>
<text text-anchor="middle" x="60.7186" y="-227" font-family="times" font-size="20.00">atrous_conv</text>
</g>
<!-- 2 -->
<g id="node5" class="node"><title>2</title>
<polygon fill="lightblue" stroke="black" stroke-width="2" points="466.219,-203 430.219,-203 430.219,-167 466.219,-167 466.219,-203"/>
<text text-anchor="middle" x="448.219" y="-180" font-family="times" font-size="20.00">2</text>
</g>
<!-- c_{k&#45;2}&#45;&gt;2 -->
<g id="edge5" class="edge"><title>c_{k&#45;2}&#45;&gt;2</title>
<path fill="none" stroke="black" d="M197.725,-267.828C223.291,-261.396 256.363,-252.52 285.219,-243 310.613,-234.622 315.712,-229.028 341.219,-221 373.917,-210.708 384.16,-215.138 416.219,-203 417.653,-202.457 419.104,-201.863 420.556,-201.234"/>
<polygon fill="gray" stroke="black" points="422.478,-204.193 429.976,-196.707 419.447,-197.883 422.478,-204.193"/>
<text text-anchor="middle" x="362.219" y="-227" font-family="times" font-size="20.00">conv</text>
</g>
<!-- c_{k&#45;1} -->
<g id="node2" class="node"><title>c_{k&#45;1}</title>
<polygon fill="#b4eeb4" stroke="black" stroke-width="2" points="393.719,-297 308.719,-297 308.719,-261 393.719,-261 393.719,-297"/>
<text text-anchor="middle" x="351.219" y="-274" font-family="times" font-size="20.00">c_{k&#45;1}</text>
</g>
<!-- c_{k&#45;1}&#45;&gt;0 -->
<g id="edge1" class="edge"><title>c_{k&#45;1}&#45;&gt;0</title>
<path fill="none" stroke="black" d="M308.513,-272.4C247.945,-264.255 143.763,-249.415 138.219,-243 131.277,-234.969 129.977,-223.663 130.809,-213.235"/>
<polygon fill="gray" stroke="black" points="134.285,-213.646 132.222,-203.254 127.354,-212.665 134.285,-213.646"/>
<text text-anchor="middle" x="209.719" y="-227" font-family="times" font-size="20.00">up_atrous_conv</text>
</g>
<!-- 1 -->
<g id="node4" class="node"><title>1</title>
<polygon fill="lightblue" stroke="black" stroke-width="2" points="287.219,-109 251.219,-109 251.219,-73 287.219,-73 287.219,-109"/>
<text text-anchor="middle" x="269.219" y="-86" font-family="times" font-size="20.00">1</text>
</g>
<!-- c_{k&#45;1}&#45;&gt;1 -->
<g id="edge3" class="edge"><title>c_{k&#45;1}&#45;&gt;1</title>
<path fill="none" stroke="black" d="M326.235,-260.938C308.991,-247.5 287.552,-227.055 278.219,-203 267.714,-175.925 266.438,-142.407 267.177,-119.329"/>
<polygon fill="gray" stroke="black" points="270.679,-119.369 267.652,-109.216 263.687,-119.041 270.679,-119.369"/>
<text text-anchor="middle" x="349.719" y="-180" font-family="times" font-size="20.00">up_atrous_conv</text>
</g>
<!-- c_{k&#45;1}&#45;&gt;2 -->
<g id="edge6" class="edge"><title>c_{k&#45;1}&#45;&gt;2</title>
<path fill="none" stroke="black" d="M369.464,-260.696C384.502,-246.432 406.003,-226.039 422.741,-210.165"/>
<polygon fill="gray" stroke="black" points="425.208,-212.648 430.055,-203.227 420.391,-207.569 425.208,-212.648"/>
<text text-anchor="middle" x="449.219" y="-227" font-family="times" font-size="20.00">up_conv</text>
</g>
<!-- 3 -->
<g id="node6" class="node"><title>3</title>
<polygon fill="lightblue" stroke="black" stroke-width="2" points="396.219,-109 360.219,-109 360.219,-73 396.219,-73 396.219,-109"/>
<text text-anchor="middle" x="378.219" y="-86" font-family="times" font-size="20.00">3</text>
</g>
<!-- c_{k&#45;1}&#45;&gt;3 -->
<g id="edge7" class="edge"><title>c_{k&#45;1}&#45;&gt;3</title>
<path fill="none" stroke="black" d="M393.962,-272.817C429.708,-267.5 476.662,-257.88 488.219,-243 519.842,-202.282 518.649,-168.617 488.219,-127 469.609,-101.549 432.329,-94.1616 406.354,-92.2476"/>
<polygon fill="gray" stroke="black" points="406.506,-88.7509 396.34,-91.7353 406.148,-95.7418 406.506,-88.7509"/>
<text text-anchor="middle" x="549.219" y="-180" font-family="times" font-size="20.00">up_conv</text>
</g>
<!-- 0&#45;&gt;1 -->
<g id="edge4" class="edge"><title>0&#45;&gt;1</title>
<path fill="none" stroke="black" d="M143.687,-166.866C149.245,-154.254 158.401,-137.536 171.219,-127 191.396,-110.415 220.039,-101.399 241.151,-96.6937"/>
<polygon fill="gray" stroke="black" points="242.028,-100.087 251.129,-94.6619 240.632,-93.2277 242.028,-100.087"/>
<text text-anchor="middle" x="213.219" y="-133" font-family="times" font-size="20.00">sep_conv</text>
</g>
<!-- c_{k} -->
<g id="node7" class="node"><title>c_{k}</title>
<polygon fill="palegoldenrod" stroke="black" stroke-width="2" points="337.219,-36 271.219,-36 271.219,-0 337.219,-0 337.219,-36"/>
<text text-anchor="middle" x="304.219" y="-13" font-family="times" font-size="20.00">c_{k}</text>
</g>
<!-- 0&#45;&gt;c_{k} -->
<g id="edge9" class="edge"><title>0&#45;&gt;c_{k}</title>
<path fill="none" stroke="black" d="M138.286,-166.756C139.748,-154.728 143.181,-138.786 151.219,-127 178.88,-86.4364 227.143,-56.1492 262.08,-38.1288"/>
<polygon fill="gray" stroke="black" points="263.739,-41.2118 271.102,-33.5931 260.595,-34.9577 263.739,-41.2118"/>
</g>
<!-- 1&#45;&gt;c_{k} -->
<g id="edge10" class="edge"><title>1&#45;&gt;c_{k}</title>
<path fill="none" stroke="black" d="M277.691,-72.8129C281.775,-64.5279 286.763,-54.4103 291.306,-45.1933"/>
<polygon fill="gray" stroke="black" points="294.542,-46.5458 295.824,-36.0288 288.263,-43.4507 294.542,-46.5458"/>
</g>
<!-- 2&#45;&gt;3 -->
<g id="edge8" class="edge"><title>2&#45;&gt;3</title>
<path fill="none" stroke="black" d="M430.001,-174.178C425.512,-171.798 420.704,-169.282 416.219,-167 399.919,-158.709 389.053,-164.418 379.219,-149 373.649,-140.268 372.466,-129.15 373.013,-119.056"/>
<polygon fill="gray" stroke="black" points="376.5,-119.37 374.1,-109.05 369.541,-118.614 376.5,-119.37"/>
<text text-anchor="middle" x="433.719" y="-133" font-family="times" font-size="20.00">atrous_conv</text>
</g>
<!-- 2&#45;&gt;c_{k} -->
<g id="edge11" class="edge"><title>2&#45;&gt;c_{k}</title>
<path fill="none" stroke="black" d="M429.984,-169.712C428.411,-168.731 426.811,-167.811 425.219,-167 401.547,-154.94 388.373,-166.309 368.219,-149 336.605,-121.849 319.106,-75.4013 310.693,-45.9996"/>
<polygon fill="gray" stroke="black" points="313.981,-44.7481 307.995,-36.006 307.223,-46.5726 313.981,-44.7481"/>
</g>
<!-- 3&#45;&gt;c_{k} -->
<g id="edge12" class="edge"><title>3&#45;&gt;c_{k}</title>
<path fill="none" stroke="black" d="M360.305,-72.8129C351.034,-63.9174 339.561,-52.9094 329.412,-43.1717"/>
<polygon fill="gray" stroke="black" points="331.606,-40.4266 321.967,-36.0288 326.76,-45.4777 331.606,-40.4266"/>
</g>
</g>
</svg>
