<?xml version="1.0" encoding="UTF-8" standalone="no"?>
<!DOCTYPE svg PUBLIC "-//W3C//DTD SVG 1.1//EN"
 "http://www.w3.org/Graphics/SVG/1.1/DTD/svg11.dtd">
<!-- Generated by graphviz version 2.38.0 (20140413.2041)
 -->
<!-- Title: %3 Pages: 1 -->
<svg width="687pt" height="305pt"
 viewBox="0.00 0.00 687.02 305.00" xmlns="http://www.w3.org/2000/svg" xmlns:xlink="http://www.w3.org/1999/xlink">
<g id="graph0" class="graph" transform="scale(1 1) rotate(0) translate(4 301)">
<title>%3</title>
<polygon fill="white" stroke="none" points="-4,4 -4,-301 683.021,-301 683.021,4 -4,4"/>
<!-- c_{k&#45;2} -->
<g id="node1" class="node"><title>c_{k&#45;2}</title>
<polygon fill="#b4eeb4" stroke="black" stroke-width="2" points="183.521,-297 98.5206,-297 98.5206,-261 183.521,-261 183.521,-297"/>
<text text-anchor="middle" x="141.021" y="-274" font-family="times" font-size="20.00">c_{k&#45;2}</text>
</g>
<!-- 0 -->
<g id="node3" class="node"><title>0</title>
<polygon fill="lightblue" stroke="black" stroke-width="2" points="154.021,-203 118.021,-203 118.021,-167 154.021,-167 154.021,-203"/>
<text text-anchor="middle" x="136.021" y="-180" font-family="times" font-size="20.00">0</text>
</g>
<!-- c_{k&#45;2}&#45;&gt;0 -->
<g id="edge2" class="edge"><title>c_{k&#45;2}&#45;&gt;0</title>
<path fill="none" stroke="black" d="M98.2041,-272.623C63.0627,-267.226 17.3189,-257.601 6.02057,-243 -22.4522,-206.204 61.7743,-192.68 107.96,-188.115"/>
<polygon fill="gray" stroke="black" points="108.346,-191.594 117.989,-187.204 107.713,-184.623 108.346,-191.594"/>
<text text-anchor="middle" x="60.5206" y="-227" font-family="times" font-size="20.00">atrous_conv</text>
</g>
<!-- 2 -->
<g id="node5" class="node"><title>2</title>
<polygon fill="lightblue" stroke="black" stroke-width="2" points="465.021,-203 429.021,-203 429.021,-167 465.021,-167 465.021,-203"/>
<text text-anchor="middle" x="447.021" y="-180" font-family="times" font-size="20.00">2</text>
</g>
<!-- c_{k&#45;2}&#45;&gt;2 -->
<g id="edge5" class="edge"><title>c_{k&#45;2}&#45;&gt;2</title>
<path fill="none" stroke="black" d="M183.71,-266.021C205.741,-259.612 232.971,-251.337 257.021,-243 282.286,-234.242 287.281,-228.249 313.021,-221 357.331,-208.522 371.493,-217.982 415.021,-203 416.47,-202.501 417.934,-201.943 419.396,-201.341"/>
<polygon fill="gray" stroke="black" points="421.282,-204.323 428.852,-196.911 418.311,-197.985 421.282,-204.323"/>
<text text-anchor="middle" x="334.021" y="-227" font-family="times" font-size="20.00">conv</text>
</g>
<!-- c_{k&#45;1} -->
<g id="node2" class="node"><title>c_{k&#45;1}</title>
<polygon fill="#b4eeb4" stroke="black" stroke-width="2" points="365.521,-297 280.521,-297 280.521,-261 365.521,-261 365.521,-297"/>
<text text-anchor="middle" x="323.021" y="-274" font-family="times" font-size="20.00">c_{k&#45;1}</text>
</g>
<!-- c_{k&#45;1}&#45;&gt;0 -->
<g id="edge1" class="edge"><title>c_{k&#45;1}&#45;&gt;0</title>
<path fill="none" stroke="black" d="M280.194,-272.731C228.478,-265.939 147.23,-253.726 138.021,-243 131.103,-234.942 129.63,-223.632 130.255,-213.208"/>
<polygon fill="gray" stroke="black" points="133.735,-213.58 131.454,-203.233 126.785,-212.744 133.735,-213.58"/>
<text text-anchor="middle" x="195.521" y="-227" font-family="times" font-size="20.00">max_pooling</text>
</g>
<!-- 1 -->
<g id="node4" class="node"><title>1</title>
<polygon fill="lightblue" stroke="black" stroke-width="2" points="285.021,-109 249.021,-109 249.021,-73 285.021,-73 285.021,-109"/>
<text text-anchor="middle" x="267.021" y="-86" font-family="times" font-size="20.00">1</text>
</g>
<!-- c_{k&#45;1}&#45;&gt;1 -->
<g id="edge4" class="edge"><title>c_{k&#45;1}&#45;&gt;1</title>
<path fill="none" stroke="black" d="M296.361,-260.938C290.404,-255.875 284.753,-249.83 281.021,-243 259.786,-204.149 260.408,-151.179 263.335,-119.406"/>
<polygon fill="gray" stroke="black" points="266.853,-119.424 264.434,-109.109 259.893,-118.681 266.853,-119.424"/>
<text text-anchor="middle" x="338.021" y="-180" font-family="times" font-size="20.00">down_sep_conv</text>
</g>
<!-- c_{k&#45;1}&#45;&gt;2 -->
<g id="edge6" class="edge"><title>c_{k&#45;1}&#45;&gt;2</title>
<path fill="none" stroke="black" d="M339.476,-260.911C351.474,-248.956 368.464,-233.038 385.021,-221 391.275,-216.452 406.227,-207.989 419.88,-200.524"/>
<polygon fill="gray" stroke="black" points="421.881,-203.42 429.002,-195.576 418.543,-197.267 421.881,-203.42"/>
<text text-anchor="middle" x="436.021" y="-227" font-family="times" font-size="20.00">down_conv</text>
</g>
<!-- 3 -->
<g id="node6" class="node"><title>3</title>
<polygon fill="lightblue" stroke="black" stroke-width="2" points="395.021,-109 359.021,-109 359.021,-73 395.021,-73 395.021,-109"/>
<text text-anchor="middle" x="377.021" y="-86" font-family="times" font-size="20.00">3</text>
</g>
<!-- c_{k&#45;1}&#45;&gt;3 -->
<g id="edge7" class="edge"><title>c_{k&#45;1}&#45;&gt;3</title>
<path fill="none" stroke="black" d="M365.521,-274.879C408.922,-270.703 472.004,-261.559 487.021,-243 519.449,-202.92 517.451,-168.617 487.021,-127 468.411,-101.549 431.131,-94.1616 405.156,-92.2476"/>
<polygon fill="gray" stroke="black" points="405.308,-88.7509 395.142,-91.7353 404.95,-95.7418 405.308,-88.7509"/>
<text text-anchor="middle" x="594.521" y="-180" font-family="times" font-size="20.00">donw_atrous_conv</text>
</g>
<!-- 0&#45;&gt;1 -->
<g id="edge3" class="edge"><title>0&#45;&gt;1</title>
<path fill="none" stroke="black" d="M142.178,-166.867C147.509,-154.256 156.369,-137.538 169.021,-127 189.09,-110.283 217.747,-101.285 238.891,-96.6191"/>
<polygon fill="gray" stroke="black" points="239.773,-100.012 248.887,-94.6088 238.393,-93.1493 239.773,-100.012"/>
<text text-anchor="middle" x="211.021" y="-133" font-family="times" font-size="20.00">sep_conv</text>
</g>
<!-- c_{k} -->
<g id="node7" class="node"><title>c_{k}</title>
<polygon fill="palegoldenrod" stroke="black" stroke-width="2" points="335.021,-36 269.021,-36 269.021,-0 335.021,-0 335.021,-36"/>
<text text-anchor="middle" x="302.021" y="-13" font-family="times" font-size="20.00">c_{k}</text>
</g>
<!-- 0&#45;&gt;c_{k} -->
<g id="edge9" class="edge"><title>0&#45;&gt;c_{k}</title>
<path fill="none" stroke="black" d="M136.738,-166.768C137.966,-154.746 141.113,-138.806 149.021,-127 176.344,-86.2081 224.668,-55.9619 259.711,-38.0136"/>
<polygon fill="gray" stroke="black" points="261.377,-41.0939 268.763,-33.4978 258.252,-34.8301 261.377,-41.0939"/>
</g>
<!-- 1&#45;&gt;c_{k} -->
<g id="edge10" class="edge"><title>1&#45;&gt;c_{k}</title>
<path fill="none" stroke="black" d="M275.493,-72.8129C279.577,-64.5279 284.565,-54.4103 289.108,-45.1933"/>
<polygon fill="gray" stroke="black" points="292.344,-46.5458 293.626,-36.0288 286.065,-43.4507 292.344,-46.5458"/>
</g>
<!-- 2&#45;&gt;3 -->
<g id="edge8" class="edge"><title>2&#45;&gt;3</title>
<path fill="none" stroke="black" d="M428.803,-174.178C424.313,-171.798 419.506,-169.282 415.021,-167 398.721,-158.709 387.855,-164.418 378.021,-149 372.451,-140.268 371.268,-129.15 371.815,-119.056"/>
<polygon fill="gray" stroke="black" points="375.302,-119.37 372.901,-109.05 368.343,-118.614 375.302,-119.37"/>
<text text-anchor="middle" x="432.521" y="-133" font-family="times" font-size="20.00">atrous_conv</text>
</g>
<!-- 2&#45;&gt;c_{k} -->
<g id="edge11" class="edge"><title>2&#45;&gt;c_{k}</title>
<path fill="none" stroke="black" d="M428.694,-174.107C423.964,-171.678 418.844,-169.158 414.021,-167 393.603,-157.864 383.592,-164.024 367.021,-149 336.219,-121.075 318.14,-75.2446 309.167,-46.1249"/>
<polygon fill="gray" stroke="black" points="312.435,-44.8304 306.266,-36.2167 305.717,-46.7973 312.435,-44.8304"/>
</g>
<!-- 3&#45;&gt;c_{k} -->
<g id="edge12" class="edge"><title>3&#45;&gt;c_{k}</title>
<path fill="none" stroke="black" d="M358.865,-72.8129C349.469,-63.9174 337.84,-52.9094 327.554,-43.1717"/>
<polygon fill="gray" stroke="black" points="329.677,-40.3619 320.009,-36.0288 324.865,-45.4454 329.677,-40.3619"/>
</g>
</g>
</svg>
