<?xml version="1.0" encoding="UTF-8" standalone="no"?>
<!DOCTYPE svg PUBLIC "-//W3C//DTD SVG 1.1//EN"
 "http://www.w3.org/Graphics/SVG/1.1/DTD/svg11.dtd">
<!-- Generated by graphviz version 2.38.0 (20140413.2041)
 -->
<!-- Title: %3 Pages: 1 -->
<svg width="587pt" height="305pt"
 viewBox="0.00 0.00 587.24 305.00" xmlns="http://www.w3.org/2000/svg" xmlns:xlink="http://www.w3.org/1999/xlink">
<g id="graph0" class="graph" transform="scale(1 1) rotate(0) translate(4 301)">
<title>%3</title>
<polygon fill="white" stroke="none" points="-4,4 -4,-301 583.243,-301 583.243,4 -4,4"/>
<!-- c_{k&#45;2} -->
<g id="node1" class="node"><title>c_{k&#45;2}</title>
<polygon fill="#b4eeb4" stroke="black" stroke-width="2" points="159.743,-297 74.7428,-297 74.7428,-261 159.743,-261 159.743,-297"/>
<text text-anchor="middle" x="117.243" y="-274" font-family="times" font-size="20.00">c_{k&#45;2}</text>
</g>
<!-- 0 -->
<g id="node3" class="node"><title>0</title>
<polygon fill="lightblue" stroke="black" stroke-width="2" points="137.243,-203 101.243,-203 101.243,-167 137.243,-167 137.243,-203"/>
<text text-anchor="middle" x="119.243" y="-180" font-family="times" font-size="20.00">0</text>
</g>
<!-- c_{k&#45;2}&#45;&gt;0 -->
<g id="edge2" class="edge"><title>c_{k&#45;2}&#45;&gt;0</title>
<path fill="none" stroke="black" d="M74.5336,-272.086C34.6663,-264.7 -15.7643,-249.424 5.24281,-221 24.7964,-194.542 63.9996,-187.445 90.9242,-185.867"/>
<polygon fill="gray" stroke="black" points="91.0586,-189.365 100.923,-185.498 90.8004,-182.37 91.0586,-189.365"/>
<text text-anchor="middle" x="59.7428" y="-227" font-family="times" font-size="20.00">atrous_conv</text>
</g>
<!-- 2 -->
<g id="node5" class="node"><title>2</title>
<polygon fill="lightblue" stroke="black" stroke-width="2" points="390.243,-203 354.243,-203 354.243,-167 390.243,-167 390.243,-203"/>
<text text-anchor="middle" x="372.243" y="-180" font-family="times" font-size="20.00">2</text>
</g>
<!-- c_{k&#45;2}&#45;&gt;2 -->
<g id="edge5" class="edge"><title>c_{k&#45;2}&#45;&gt;2</title>
<path fill="none" stroke="black" d="M159.866,-265.905C179.969,-259.767 204.124,-251.759 225.243,-243 245.072,-234.776 248.144,-228.541 268.243,-221 299.125,-209.413 309.45,-214.825 340.243,-203 341.674,-202.45 343.123,-201.851 344.573,-201.217"/>
<polygon fill="gray" stroke="black" points="346.502,-204.173 353.988,-196.676 343.461,-197.868 346.502,-204.173"/>
<text text-anchor="middle" x="289.243" y="-227" font-family="times" font-size="20.00">conv</text>
</g>
<!-- c_{k&#45;1} -->
<g id="node2" class="node"><title>c_{k&#45;1}</title>
<polygon fill="#b4eeb4" stroke="black" stroke-width="2" points="326.743,-297 241.743,-297 241.743,-261 326.743,-261 326.743,-297"/>
<text text-anchor="middle" x="284.243" y="-274" font-family="times" font-size="20.00">c_{k&#45;1}</text>
</g>
<!-- c_{k&#45;1}&#45;&gt;0 -->
<g id="edge1" class="edge"><title>c_{k&#45;1}&#45;&gt;0</title>
<path fill="none" stroke="black" d="M241.696,-272.585C203.863,-266.95 152.273,-256.983 137.243,-243 128.98,-235.313 124.489,-223.871 122.057,-213.251"/>
<polygon fill="gray" stroke="black" points="125.444,-212.307 120.247,-203.075 118.552,-213.533 125.444,-212.307"/>
<text text-anchor="middle" x="179.243" y="-227" font-family="times" font-size="20.00">sep_conv</text>
</g>
<!-- 1 -->
<g id="node4" class="node"><title>1</title>
<polygon fill="lightblue" stroke="black" stroke-width="2" points="253.243,-109 217.243,-109 217.243,-73 253.243,-73 253.243,-109"/>
<text text-anchor="middle" x="235.243" y="-86" font-family="times" font-size="20.00">1</text>
</g>
<!-- c_{k&#45;1}&#45;&gt;1 -->
<g id="edge3" class="edge"><title>c_{k&#45;1}&#45;&gt;1</title>
<path fill="none" stroke="black" d="M262.734,-260.979C257.505,-255.767 252.49,-249.639 249.243,-243 229.894,-203.438 229.853,-151.106 232.15,-119.584"/>
<polygon fill="gray" stroke="black" points="235.659,-119.621 233.032,-109.357 228.685,-119.019 235.659,-119.621"/>
<text text-anchor="middle" x="285.743" y="-180" font-family="times" font-size="20.00">att_identity</text>
</g>
<!-- c_{k&#45;1}&#45;&gt;2 -->
<g id="edge6" class="edge"><title>c_{k&#45;1}&#45;&gt;2</title>
<path fill="none" stroke="black" d="M298.445,-260.867C308.212,-249.323 321.646,-233.906 334.243,-221 338.158,-216.988 342.427,-212.849 346.643,-208.884"/>
<polygon fill="gray" stroke="black" points="349.121,-211.359 354.087,-202 344.369,-206.22 349.121,-211.359"/>
<text text-anchor="middle" x="390.743" y="-227" font-family="times" font-size="20.00">shuffle_conv</text>
</g>
<!-- 3 -->
<g id="node6" class="node"><title>3</title>
<polygon fill="lightblue" stroke="black" stroke-width="2" points="355.243,-109 319.243,-109 319.243,-73 355.243,-73 355.243,-109"/>
<text text-anchor="middle" x="337.243" y="-86" font-family="times" font-size="20.00">3</text>
</g>
<!-- c_{k&#45;1}&#45;&gt;3 -->
<g id="edge7" class="edge"><title>c_{k&#45;1}&#45;&gt;3</title>
<path fill="none" stroke="black" d="M326.882,-274.802C370.008,-270.576 432.371,-261.404 447.243,-243 479.646,-202.9 477.674,-168.617 447.243,-127 428.633,-101.549 391.353,-94.1616 365.378,-92.2476"/>
<polygon fill="gray" stroke="black" points="365.53,-88.7509 355.364,-91.7353 365.172,-95.7418 365.53,-88.7509"/>
<text text-anchor="middle" x="524.743" y="-180" font-family="times" font-size="20.00">atrous_conv</text>
</g>
<!-- 0&#45;&gt;1 -->
<g id="edge4" class="edge"><title>0&#45;&gt;1</title>
<path fill="none" stroke="black" d="M120.61,-166.995C122.475,-154.451 126.874,-137.761 137.243,-127 155.664,-107.882 185.229,-99.1793 207.074,-95.2346"/>
<polygon fill="gray" stroke="black" points="207.762,-98.6695 217.095,-93.6555 206.672,-91.7549 207.762,-98.6695"/>
<text text-anchor="middle" x="179.243" y="-133" font-family="times" font-size="20.00">sep_conv</text>
</g>
<!-- c_{k} -->
<g id="node7" class="node"><title>c_{k}</title>
<polygon fill="palegoldenrod" stroke="black" stroke-width="2" points="300.243,-36 234.243,-36 234.243,-0 300.243,-0 300.243,-36"/>
<text text-anchor="middle" x="267.243" y="-13" font-family="times" font-size="20.00">c_{k}</text>
</g>
<!-- 0&#45;&gt;c_{k} -->
<g id="edge9" class="edge"><title>0&#45;&gt;c_{k}</title>
<path fill="none" stroke="black" d="M115.718,-166.822C114.171,-154.974 113.922,-139.219 120.243,-127 142.347,-84.2666 189.987,-54.2176 225.069,-36.848"/>
<polygon fill="gray" stroke="black" points="226.643,-39.975 234.146,-32.4952 223.616,-33.6632 226.643,-39.975"/>
</g>
<!-- 1&#45;&gt;c_{k} -->
<g id="edge10" class="edge"><title>1&#45;&gt;c_{k}</title>
<path fill="none" stroke="black" d="M242.989,-72.8129C246.723,-64.5279 251.283,-54.4103 255.437,-45.1933"/>
<polygon fill="gray" stroke="black" points="258.65,-46.5838 259.568,-36.0288 252.268,-43.7075 258.65,-46.5838"/>
</g>
<!-- 2&#45;&gt;3 -->
<g id="edge8" class="edge"><title>2&#45;&gt;3</title>
<path fill="none" stroke="black" d="M354.097,-170.239C347.873,-164.436 341.627,-157.135 338.243,-149 334.39,-139.739 333.431,-128.878 333.679,-119.134"/>
<polygon fill="gray" stroke="black" points="337.173,-119.338 334.341,-109.129 330.188,-118.876 337.173,-119.338"/>
<text text-anchor="middle" x="392.743" y="-133" font-family="times" font-size="20.00">atrous_conv</text>
</g>
<!-- 2&#45;&gt;c_{k} -->
<g id="edge11" class="edge"><title>2&#45;&gt;c_{k}</title>
<path fill="none" stroke="black" d="M353.92,-171.922C345.62,-165.787 336.144,-157.777 329.243,-149 304.191,-117.138 286.007,-73.5058 276.037,-45.7825"/>
<polygon fill="gray" stroke="black" points="279.341,-44.6259 272.738,-36.3397 272.732,-46.9346 279.341,-44.6259"/>
</g>
<!-- 3&#45;&gt;c_{k} -->
<g id="edge12" class="edge"><title>3&#45;&gt;c_{k}</title>
<path fill="none" stroke="black" d="M320.298,-72.8129C311.528,-63.9174 300.675,-52.9094 291.074,-43.1717"/>
<polygon fill="gray" stroke="black" points="293.545,-40.6926 284.032,-36.0288 288.56,-45.6072 293.545,-40.6926"/>
</g>
</g>
</svg>
