<?xml version="1.0" encoding="UTF-8" standalone="no"?>
<!DOCTYPE svg PUBLIC "-//W3C//DTD SVG 1.1//EN"
 "http://www.w3.org/Graphics/SVG/1.1/DTD/svg11.dtd">
<!-- Generated by graphviz version 2.38.0 (20140413.2041)
 -->
<!-- Title: %3 Pages: 1 -->
<svg width="521pt" height="305pt"
 viewBox="0.00 0.00 520.50 305.00" xmlns="http://www.w3.org/2000/svg" xmlns:xlink="http://www.w3.org/1999/xlink">
<g id="graph0" class="graph" transform="scale(1 1) rotate(0) translate(4 301)">
<title>%3</title>
<polygon fill="white" stroke="none" points="-4,4 -4,-301 516.5,-301 516.5,4 -4,4"/>
<!-- c_{k&#45;2} -->
<g id="node1" class="node"><title>c_{k&#45;2}</title>
<polygon fill="#b4eeb4" stroke="black" stroke-width="2" points="415,-297 330,-297 330,-261 415,-261 415,-297"/>
<text text-anchor="middle" x="372.5" y="-274" font-family="times" font-size="20.00">c_{k&#45;2}</text>
</g>
<!-- 0 -->
<g id="node3" class="node"><title>0</title>
<polygon fill="lightblue" stroke="black" stroke-width="2" points="214.5,-203 178.5,-203 178.5,-167 214.5,-167 214.5,-203"/>
<text text-anchor="middle" x="196.5" y="-180" font-family="times" font-size="20.00">0</text>
</g>
<!-- c_{k&#45;2}&#45;&gt;0 -->
<g id="edge2" class="edge"><title>c_{k&#45;2}&#45;&gt;0</title>
<path fill="none" stroke="black" d="M329.909,-269.932C307.371,-264.483 279.822,-255.884 257.5,-243 242.813,-234.523 228.809,-221.888 217.932,-210.667"/>
<polygon fill="gray" stroke="black" points="220.322,-208.099 210.931,-203.193 215.213,-212.884 220.322,-208.099"/>
<text text-anchor="middle" x="308" y="-227" font-family="times" font-size="20.00">att_identity</text>
</g>
<!-- 2 -->
<g id="node5" class="node"><title>2</title>
<polygon fill="lightblue" stroke="black" stroke-width="2" points="222.5,-109 186.5,-109 186.5,-73 222.5,-73 222.5,-109"/>
<text text-anchor="middle" x="204.5" y="-86" font-family="times" font-size="20.00">2</text>
</g>
<!-- c_{k&#45;2}&#45;&gt;2 -->
<g id="edge5" class="edge"><title>c_{k&#45;2}&#45;&gt;2</title>
<path fill="none" stroke="black" d="M372.588,-260.983C372.408,-225.726 370.014,-146.37 352.5,-127 348.439,-122.509 274.195,-106.481 232.442,-97.7573"/>
<polygon fill="gray" stroke="black" points="233.092,-94.3177 222.589,-95.7082 231.667,-101.171 233.092,-94.3177"/>
<text text-anchor="middle" x="402.5" y="-180" font-family="times" font-size="20.00">identity</text>
</g>
<!-- 3 -->
<g id="node6" class="node"><title>3</title>
<polygon fill="lightblue" stroke="black" stroke-width="2" points="333.5,-109 297.5,-109 297.5,-73 333.5,-73 333.5,-109"/>
<text text-anchor="middle" x="315.5" y="-86" font-family="times" font-size="20.00">3</text>
</g>
<!-- c_{k&#45;2}&#45;&gt;3 -->
<g id="edge8" class="edge"><title>c_{k&#45;2}&#45;&gt;3</title>
<path fill="none" stroke="black" d="M396.423,-260.872C423.105,-239.53 460.327,-201.641 442.5,-167 422.92,-128.952 374.786,-108.619 343.721,-99.086"/>
<polygon fill="gray" stroke="black" points="344.484,-95.6635 333.905,-96.2571 342.545,-102.39 344.484,-95.6635"/>
<text text-anchor="middle" x="479.5" y="-180" font-family="times" font-size="20.00">identity</text>
</g>
<!-- c_{k&#45;1} -->
<g id="node2" class="node"><title>c_{k&#45;1}</title>
<polygon fill="#b4eeb4" stroke="black" stroke-width="2" points="85,-297 0,-297 0,-261 85,-261 85,-297"/>
<text text-anchor="middle" x="42.5" y="-274" font-family="times" font-size="20.00">c_{k&#45;1}</text>
</g>
<!-- c_{k&#45;1}&#45;&gt;0 -->
<g id="edge1" class="edge"><title>c_{k&#45;1}&#45;&gt;0</title>
<path fill="none" stroke="black" d="M49.8682,-260.884C56.3321,-247.937 66.9745,-230.771 81.5,-221 112.82,-199.932 129.054,-215.977 164.5,-203 165.94,-202.473 167.396,-201.892 168.851,-201.272"/>
<polygon fill="gray" stroke="black" points="170.761,-204.24 178.285,-196.78 167.751,-197.92 170.761,-204.24"/>
<text text-anchor="middle" x="153.5" y="-227" font-family="times" font-size="20.00">down_sep_conv</text>
</g>
<!-- 1 -->
<g id="node4" class="node"><title>1</title>
<polygon fill="lightblue" stroke="black" stroke-width="2" points="119.5,-109 83.5,-109 83.5,-73 119.5,-73 119.5,-109"/>
<text text-anchor="middle" x="101.5" y="-86" font-family="times" font-size="20.00">1</text>
</g>
<!-- c_{k&#45;1}&#45;&gt;1 -->
<g id="edge3" class="edge"><title>c_{k&#45;1}&#45;&gt;1</title>
<path fill="none" stroke="black" d="M36.3138,-260.784C29.2827,-238.373 20.2666,-198.366 32.5,-167 41.1501,-144.822 59.7673,-125.239 75.4854,-111.65"/>
<polygon fill="gray" stroke="black" points="77.9101,-114.186 83.3726,-105.108 73.4412,-108.798 77.9101,-114.186"/>
<text text-anchor="middle" x="101" y="-180" font-family="times" font-size="20.00">down_att_conv</text>
</g>
<!-- 0&#45;&gt;1 -->
<g id="edge4" class="edge"><title>0&#45;&gt;1</title>
<path fill="none" stroke="black" d="M178.197,-173.449C173.794,-171.144 169.047,-168.845 164.5,-167 137.912,-156.212 119.931,-171.792 102.5,-149 96.1634,-140.714 94.8746,-129.59 95.5514,-119.369"/>
<polygon fill="gray" stroke="black" points="99.0549,-119.562 96.8391,-109.201 92.1104,-118.682 99.0549,-119.562"/>
<text text-anchor="middle" x="123.5" y="-133" font-family="times" font-size="20.00">conv</text>
</g>
<!-- 0&#45;&gt;2 -->
<g id="edge6" class="edge"><title>0&#45;&gt;2</title>
<path fill="none" stroke="black" d="M193.225,-166.941C191.55,-155.563 190.282,-140.308 192.5,-127 192.95,-124.301 193.582,-121.532 194.324,-118.789"/>
<polygon fill="gray" stroke="black" points="197.693,-119.743 197.358,-109.153 191.016,-117.64 197.693,-119.743"/>
<text text-anchor="middle" x="243" y="-133" font-family="times" font-size="20.00">att_identity</text>
</g>
<!-- 0&#45;&gt;3 -->
<g id="edge7" class="edge"><title>0&#45;&gt;3</title>
<path fill="none" stroke="black" d="M214.62,-182.009C236.107,-178.733 271.743,-170.282 293.5,-149 301.775,-140.906 306.992,-129.355 310.256,-118.765"/>
<polygon fill="gray" stroke="black" points="313.652,-119.613 312.822,-109.051 306.884,-117.825 313.652,-119.613"/>
<text text-anchor="middle" x="327.5" y="-133" font-family="times" font-size="20.00">conv</text>
</g>
<!-- c_{k} -->
<g id="node7" class="node"><title>c_{k}</title>
<polygon fill="palegoldenrod" stroke="black" stroke-width="2" points="208.5,-36 142.5,-36 142.5,-0 208.5,-0 208.5,-36"/>
<text text-anchor="middle" x="175.5" y="-13" font-family="times" font-size="20.00">c_{k}</text>
</g>
<!-- 0&#45;&gt;c_{k} -->
<g id="edge9" class="edge"><title>0&#45;&gt;c_{k}</title>
<path fill="none" stroke="black" d="M191.422,-166.963C189.781,-161.27 188,-154.878 186.5,-149 181.995,-131.343 179.713,-127.087 177.5,-109 174.941,-88.09 174.522,-64.249 174.7,-46.3601"/>
<polygon fill="gray" stroke="black" points="178.2,-46.3839 174.867,-36.3269 171.201,-46.2671 178.2,-46.3839"/>
</g>
<!-- 1&#45;&gt;c_{k} -->
<g id="edge10" class="edge"><title>1&#45;&gt;c_{k}</title>
<path fill="none" stroke="black" d="M119.413,-72.8129C128.685,-63.9174 140.158,-52.9094 150.307,-43.1717"/>
<polygon fill="gray" stroke="black" points="152.959,-45.4777 157.752,-36.0288 148.113,-40.4266 152.959,-45.4777"/>
</g>
<!-- 2&#45;&gt;c_{k} -->
<g id="edge11" class="edge"><title>2&#45;&gt;c_{k}</title>
<path fill="none" stroke="black" d="M197.48,-72.8129C194.132,-64.6151 190.05,-54.6231 186.318,-45.4847"/>
<polygon fill="gray" stroke="black" points="189.477,-43.9629 182.455,-36.0288 182.997,-46.6099 189.477,-43.9629"/>
</g>
<!-- 3&#45;&gt;c_{k} -->
<g id="edge12" class="edge"><title>3&#45;&gt;c_{k}</title>
<path fill="none" stroke="black" d="M297.484,-80.8633C277.467,-70.712 244.458,-53.9716 217.822,-40.4634"/>
<polygon fill="gray" stroke="black" points="219.2,-37.2378 208.698,-35.8362 216.034,-43.4808 219.2,-37.2378"/>
</g>
</g>
</svg>
