<?xml version="1.0" encoding="UTF-8" standalone="no"?>
<!DOCTYPE svg PUBLIC "-//W3C//DTD SVG 1.1//EN"
 "http://www.w3.org/Graphics/SVG/1.1/DTD/svg11.dtd">
<!-- Generated by graphviz version 2.38.0 (20140413.2041)
 -->
<!-- Title: %3 Pages: 1 -->
<svg width="661pt" height="305pt"
 viewBox="0.00 0.00 661.48 305.00" xmlns="http://www.w3.org/2000/svg" xmlns:xlink="http://www.w3.org/1999/xlink">
<g id="graph0" class="graph" transform="scale(1 1) rotate(0) translate(4 301)">
<title>%3</title>
<polygon fill="white" stroke="none" points="-4,4 -4,-301 657.485,-301 657.485,4 -4,4"/>
<!-- c_{k&#45;2} -->
<g id="node1" class="node"><title>c_{k&#45;2}</title>
<polygon fill="#b4eeb4" stroke="black" stroke-width="2" points="460.985,-297 375.985,-297 375.985,-261 460.985,-261 460.985,-297"/>
<text text-anchor="middle" x="418.485" y="-274" font-family="times" font-size="20.00">c_{k&#45;2}</text>
</g>
<!-- 0 -->
<g id="node3" class="node"><title>0</title>
<polygon fill="lightblue" stroke="black" stroke-width="2" points="372.485,-203 336.485,-203 336.485,-167 372.485,-167 372.485,-203"/>
<text text-anchor="middle" x="354.485" y="-180" font-family="times" font-size="20.00">0</text>
</g>
<!-- c_{k&#45;2}&#45;&gt;0 -->
<g id="edge2" class="edge"><title>c_{k&#45;2}&#45;&gt;0</title>
<path fill="none" stroke="black" d="M379.771,-260.848C372.671,-256.042 366.067,-250.132 361.485,-243 355.904,-234.315 353.692,-223.33 353.037,-213.327"/>
<polygon fill="gray" stroke="black" points="356.531,-212.949 352.852,-203.013 349.532,-213.075 356.531,-212.949"/>
<text text-anchor="middle" x="411.985" y="-227" font-family="times" font-size="20.00">att_identity</text>
</g>
<!-- 1 -->
<g id="node4" class="node"><title>1</title>
<polygon fill="lightblue" stroke="black" stroke-width="2" points="384.485,-109 348.485,-109 348.485,-73 384.485,-73 384.485,-109"/>
<text text-anchor="middle" x="366.485" y="-86" font-family="times" font-size="20.00">1</text>
</g>
<!-- c_{k&#45;2}&#45;&gt;1 -->
<g id="edge4" class="edge"><title>c_{k&#45;2}&#45;&gt;1</title>
<path fill="none" stroke="black" d="M447.922,-260.714C453.8,-255.785 459.177,-249.857 462.485,-243 469.009,-229.473 476.716,-154.247 454.485,-127 438.29,-107.152 422.505,-118.055 393.978,-108.189"/>
<polygon fill="gray" stroke="black" points="395.282,-104.941 384.701,-104.403 392.637,-111.422 395.282,-104.941"/>
<text text-anchor="middle" x="518.985" y="-180" font-family="times" font-size="20.00">att_identity</text>
</g>
<!-- 2 -->
<g id="node5" class="node"><title>2</title>
<polygon fill="lightblue" stroke="black" stroke-width="2" points="289.485,-203 253.485,-203 253.485,-167 289.485,-167 289.485,-203"/>
<text text-anchor="middle" x="271.485" y="-180" font-family="times" font-size="20.00">2</text>
</g>
<!-- c_{k&#45;2}&#45;&gt;2 -->
<g id="edge6" class="edge"><title>c_{k&#45;2}&#45;&gt;2</title>
<path fill="none" stroke="black" d="M375.941,-277.895C346.334,-275.489 308.08,-267.344 284.485,-243 276.855,-235.129 273.35,-223.754 271.846,-213.233"/>
<polygon fill="gray" stroke="black" points="275.321,-212.8 270.931,-203.158 268.35,-213.433 275.321,-212.8"/>
<text text-anchor="middle" x="317.485" y="-227" font-family="times" font-size="20.00">identity</text>
</g>
<!-- 3 -->
<g id="node6" class="node"><title>3</title>
<polygon fill="lightblue" stroke="black" stroke-width="2" points="438.485,-109 402.485,-109 402.485,-73 438.485,-73 438.485,-109"/>
<text text-anchor="middle" x="420.485" y="-86" font-family="times" font-size="20.00">3</text>
</g>
<!-- c_{k&#45;2}&#45;&gt;3 -->
<g id="edge8" class="edge"><title>c_{k&#45;2}&#45;&gt;3</title>
<path fill="none" stroke="black" d="M461.296,-271.421C500.125,-262.938 555.186,-244.049 581.485,-203 617.444,-146.87 503.535,-111.545 448.495,-98.1294"/>
<polygon fill="gray" stroke="black" points="449.179,-94.6948 438.643,-95.8089 447.574,-101.508 449.179,-94.6948"/>
<text text-anchor="middle" x="620.485" y="-180" font-family="times" font-size="20.00">identity</text>
</g>
<!-- c_{k&#45;1} -->
<g id="node2" class="node"><title>c_{k&#45;1}</title>
<polygon fill="#b4eeb4" stroke="black" stroke-width="2" points="112.985,-297 27.9846,-297 27.9846,-261 112.985,-261 112.985,-297"/>
<text text-anchor="middle" x="70.4846" y="-274" font-family="times" font-size="20.00">c_{k&#45;1}</text>
</g>
<!-- c_{k&#45;1}&#45;&gt;0 -->
<g id="edge1" class="edge"><title>c_{k&#45;1}&#45;&gt;0</title>
<path fill="none" stroke="black" d="M91.3651,-260.818C108.556,-247.653 134.14,-230.229 159.485,-221 218.018,-199.686 237.582,-216.093 298.485,-203 307.795,-200.999 317.794,-198.184 326.73,-195.42"/>
<polygon fill="gray" stroke="black" points="327.816,-198.747 336.274,-192.366 325.683,-192.08 327.816,-198.747"/>
<text text-anchor="middle" x="214.985" y="-227" font-family="times" font-size="20.00">up_att_conv</text>
</g>
<!-- c_{k&#45;1}&#45;&gt;2 -->
<g id="edge5" class="edge"><title>c_{k&#45;1}&#45;&gt;2</title>
<path fill="none" stroke="black" d="M27.718,-263.914C18.4963,-258.811 9.90032,-252.002 4.48462,-243 -0.555902,-234.622 -1.96436,-228.35 4.48462,-221 35.3181,-185.861 180.927,-184.264 243.164,-185.247"/>
<polygon fill="gray" stroke="black" points="243.364,-188.751 253.43,-185.445 243.5,-181.753 243.364,-188.751"/>
<text text-anchor="middle" x="59.9846" y="-227" font-family="times" font-size="20.00">up_att_conv</text>
</g>
<!-- 0&#45;&gt;1 -->
<g id="edge3" class="edge"><title>0&#45;&gt;1</title>
<path fill="none" stroke="black" d="M353.515,-166.926C353.179,-155.543 353.326,-140.286 355.485,-127 355.92,-124.322 356.514,-121.566 357.204,-118.833"/>
<polygon fill="gray" stroke="black" points="360.571,-119.788 359.998,-109.209 353.848,-117.836 360.571,-119.788"/>
<text text-anchor="middle" x="376.485" y="-133" font-family="times" font-size="20.00">conv</text>
</g>
<!-- 0&#45;&gt;3 -->
<g id="edge7" class="edge"><title>0&#45;&gt;3</title>
<path fill="none" stroke="black" d="M372.621,-172.422C381.079,-166.291 390.742,-158.14 397.485,-149 404.136,-139.983 409.2,-128.774 412.861,-118.688"/>
<polygon fill="gray" stroke="black" points="416.215,-119.692 416.06,-109.099 409.575,-117.477 416.215,-119.692"/>
<text text-anchor="middle" x="429.485" y="-133" font-family="times" font-size="20.00">conv</text>
</g>
<!-- c_{k} -->
<g id="node7" class="node"><title>c_{k}</title>
<polygon fill="palegoldenrod" stroke="black" stroke-width="2" points="370.485,-36 304.485,-36 304.485,-0 370.485,-0 370.485,-36"/>
<text text-anchor="middle" x="337.485" y="-13" font-family="times" font-size="20.00">c_{k}</text>
</g>
<!-- 0&#45;&gt;c_{k} -->
<g id="edge9" class="edge"><title>0&#45;&gt;c_{k}</title>
<path fill="none" stroke="black" d="M350.164,-166.856C346.57,-151.741 341.696,-129.062 339.485,-109 337.176,-88.0609 336.744,-64.2214 336.853,-46.3406"/>
<polygon fill="gray" stroke="black" points="340.353,-46.3542 336.973,-36.3127 333.353,-46.2698 340.353,-46.3542"/>
</g>
<!-- 1&#45;&gt;c_{k} -->
<g id="edge10" class="edge"><title>1&#45;&gt;c_{k}</title>
<path fill="none" stroke="black" d="M359.465,-72.8129C356.116,-64.6151 352.035,-54.6231 348.302,-45.4847"/>
<polygon fill="gray" stroke="black" points="351.462,-43.9629 344.44,-36.0288 344.981,-46.6099 351.462,-43.9629"/>
</g>
<!-- 2&#45;&gt;c_{k} -->
<g id="edge11" class="edge"><title>2&#45;&gt;c_{k}</title>
<path fill="none" stroke="black" d="M278.299,-166.964C289.81,-138.186 313.184,-79.7507 326.862,-45.5566"/>
<polygon fill="gray" stroke="black" points="330.144,-46.7756 330.608,-36.1909 323.645,-44.1758 330.144,-46.7756"/>
</g>
<!-- 3&#45;&gt;c_{k} -->
<g id="edge12" class="edge"><title>3&#45;&gt;c_{k}</title>
<path fill="none" stroke="black" d="M402.475,-74.5941C391.602,-65.2933 377.522,-53.2487 365.248,-42.7496"/>
<polygon fill="gray" stroke="black" points="367.37,-39.9586 357.496,-36.1178 362.82,-45.2779 367.37,-39.9586"/>
</g>
</g>
</svg>
