<?xml version="1.0" encoding="UTF-8" standalone="no"?>
<!DOCTYPE svg PUBLIC "-//W3C//DTD SVG 1.1//EN"
 "http://www.w3.org/Graphics/SVG/1.1/DTD/svg11.dtd">
<!-- Generated by graphviz version 2.38.0 (20140413.2041)
 -->
<!-- Title: %3 Pages: 1 -->
<svg width="494pt" height="305pt"
 viewBox="0.00 0.00 493.52 305.00" xmlns="http://www.w3.org/2000/svg" xmlns:xlink="http://www.w3.org/1999/xlink">
<g id="graph0" class="graph" transform="scale(1 1) rotate(0) translate(4 301)">
<title>%3</title>
<polygon fill="white" stroke="none" points="-4,4 -4,-301 489.516,-301 489.516,4 -4,4"/>
<!-- c_{k&#45;2} -->
<g id="node1" class="node"><title>c_{k&#45;2}</title>
<polygon fill="#b4eeb4" stroke="black" stroke-width="2" points="380.016,-297 295.016,-297 295.016,-261 380.016,-261 380.016,-297"/>
<text text-anchor="middle" x="337.516" y="-274" font-family="times" font-size="20.00">c_{k&#45;2}</text>
</g>
<!-- 0 -->
<g id="node3" class="node"><title>0</title>
<polygon fill="lightblue" stroke="black" stroke-width="2" points="221.516,-203 185.516,-203 185.516,-167 221.516,-167 221.516,-203"/>
<text text-anchor="middle" x="203.516" y="-180" font-family="times" font-size="20.00">0</text>
</g>
<!-- c_{k&#45;2}&#45;&gt;0 -->
<g id="edge1" class="edge"><title>c_{k&#45;2}&#45;&gt;0</title>
<path fill="none" stroke="black" d="M334.969,-260.812C332.232,-248.171 326.665,-231.441 315.516,-221 292.618,-199.554 256.739,-191.245 231.783,-188.028"/>
<polygon fill="gray" stroke="black" points="232.148,-184.547 221.826,-186.937 231.385,-191.505 232.148,-184.547"/>
<text text-anchor="middle" x="379.016" y="-227" font-family="times" font-size="20.00">att_identity</text>
</g>
<!-- 2 -->
<g id="node5" class="node"><title>2</title>
<polygon fill="lightblue" stroke="black" stroke-width="2" points="47.5161,-203 11.5161,-203 11.5161,-167 47.5161,-167 47.5161,-203"/>
<text text-anchor="middle" x="29.5161" y="-180" font-family="times" font-size="20.00">2</text>
</g>
<!-- c_{k&#45;2}&#45;&gt;2 -->
<g id="edge5" class="edge"><title>c_{k&#45;2}&#45;&gt;2</title>
<path fill="none" stroke="black" d="M294.591,-266.578C278.331,-261.031 260.213,-253.294 245.516,-243 234.934,-235.588 237.954,-227.007 226.516,-221 161.205,-186.703 132.022,-224.694 61.5161,-203 60.0505,-202.549 58.5739,-202.03 57.1016,-201.46"/>
<polygon fill="gray" stroke="black" points="58.1631,-198.097 47.6121,-197.134 55.2599,-204.467 58.1631,-198.097"/>
<text text-anchor="middle" x="278.516" y="-227" font-family="times" font-size="20.00">identity</text>
</g>
<!-- 3 -->
<g id="node6" class="node"><title>3</title>
<polygon fill="lightblue" stroke="black" stroke-width="2" points="252.516,-109 216.516,-109 216.516,-73 252.516,-73 252.516,-109"/>
<text text-anchor="middle" x="234.516" y="-86" font-family="times" font-size="20.00">3</text>
</g>
<!-- c_{k&#45;2}&#45;&gt;3 -->
<g id="edge8" class="edge"><title>c_{k&#45;2}&#45;&gt;3</title>
<path fill="none" stroke="black" d="M380.171,-273.518C399.818,-269.075 421.412,-260.296 433.516,-243 439.122,-234.989 438.185,-229.591 433.516,-221 396.777,-153.401 307.641,-115.755 262.177,-100.352"/>
<polygon fill="gray" stroke="black" points="263.246,-97.0193 252.653,-97.2359 261.069,-103.672 263.246,-97.0193"/>
<text text-anchor="middle" x="452.516" y="-180" font-family="times" font-size="20.00">identity</text>
</g>
<!-- c_{k&#45;1} -->
<g id="node2" class="node"><title>c_{k&#45;1}</title>
<polygon fill="#b4eeb4" stroke="black" stroke-width="2" points="126.016,-297 41.0161,-297 41.0161,-261 126.016,-261 126.016,-297"/>
<text text-anchor="middle" x="83.5161" y="-274" font-family="times" font-size="20.00">c_{k&#45;1}</text>
</g>
<!-- c_{k&#45;1}&#45;&gt;0 -->
<g id="edge2" class="edge"><title>c_{k&#45;1}&#45;&gt;0</title>
<path fill="none" stroke="black" d="M89.9208,-260.787C95.445,-248.134 104.587,-231.399 117.516,-221 137.229,-205.145 148.265,-212.969 171.516,-203 173.106,-202.318 174.724,-201.587 176.345,-200.824"/>
<polygon fill="gray" stroke="black" points="178.12,-203.85 185.497,-196.245 174.988,-197.59 178.12,-203.85"/>
<text text-anchor="middle" x="172.016" y="-227" font-family="times" font-size="20.00">atrous_conv</text>
</g>
<!-- 1 -->
<g id="node4" class="node"><title>1</title>
<polygon fill="lightblue" stroke="black" stroke-width="2" points="149.516,-109 113.516,-109 113.516,-73 149.516,-73 149.516,-109"/>
<text text-anchor="middle" x="131.516" y="-86" font-family="times" font-size="20.00">1</text>
</g>
<!-- c_{k&#45;1}&#45;&gt;1 -->
<g id="edge4" class="edge"><title>c_{k&#45;1}&#45;&gt;1</title>
<path fill="none" stroke="black" d="M82.8237,-260.698C82.4077,-238.534 83.2657,-199.143 92.5161,-167 97.5103,-149.646 106.714,-131.647 114.926,-117.633"/>
<polygon fill="gray" stroke="black" points="117.94,-119.413 120.125,-109.046 111.952,-115.787 117.94,-119.413"/>
<text text-anchor="middle" x="134.516" y="-180" font-family="times" font-size="20.00">sep_conv</text>
</g>
<!-- c_{k&#45;1}&#45;&gt;2 -->
<g id="edge6" class="edge"><title>c_{k&#45;1}&#45;&gt;2</title>
<path fill="none" stroke="black" d="M40.6847,-269.291C26.3992,-264.126 11.9798,-255.941 3.51607,-243 -2.90239,-233.186 0.696717,-221.529 7.01412,-211.321"/>
<polygon fill="gray" stroke="black" points="9.87156,-213.342 12.7999,-203.16 4.16103,-209.294 9.87156,-213.342"/>
<text text-anchor="middle" x="36.5161" y="-227" font-family="times" font-size="20.00">identity</text>
</g>
<!-- 0&#45;&gt;1 -->
<g id="edge3" class="edge"><title>0&#45;&gt;1</title>
<path fill="none" stroke="black" d="M185.331,-174.113C180.841,-171.735 176.025,-169.236 171.516,-167 154.413,-158.518 142.946,-164.99 132.516,-149 126.858,-140.325 125.658,-129.217 126.218,-119.116"/>
<polygon fill="gray" stroke="black" points="129.705,-119.421 127.325,-109.097 122.748,-118.652 129.705,-119.421"/>
<text text-anchor="middle" x="153.516" y="-133" font-family="times" font-size="20.00">conv</text>
</g>
<!-- 0&#45;&gt;3 -->
<g id="edge7" class="edge"><title>0&#45;&gt;3</title>
<path fill="none" stroke="black" d="M209.347,-166.696C213.893,-153.203 220.288,-134.226 225.493,-118.777"/>
<polygon fill="gray" stroke="black" points="228.835,-119.821 228.711,-109.227 222.201,-117.586 228.835,-119.821"/>
<text text-anchor="middle" x="243.516" y="-133" font-family="times" font-size="20.00">conv</text>
</g>
<!-- c_{k} -->
<g id="node7" class="node"><title>c_{k}</title>
<polygon fill="palegoldenrod" stroke="black" stroke-width="2" points="200.516,-36 134.516,-36 134.516,-0 200.516,-0 200.516,-36"/>
<text text-anchor="middle" x="167.516" y="-13" font-family="times" font-size="20.00">c_{k}</text>
</g>
<!-- 0&#45;&gt;c_{k} -->
<g id="edge9" class="edge"><title>0&#45;&gt;c_{k}</title>
<path fill="none" stroke="black" d="M199.799,-166.964C193.547,-138.31 180.88,-80.2518 173.407,-45.9982"/>
<polygon fill="gray" stroke="black" points="176.818,-45.215 171.267,-36.1909 169.979,-46.7072 176.818,-45.215"/>
</g>
<!-- 1&#45;&gt;c_{k} -->
<g id="edge10" class="edge"><title>1&#45;&gt;c_{k}</title>
<path fill="none" stroke="black" d="M140.231,-72.8129C144.432,-64.5279 149.562,-54.4103 154.235,-45.1933"/>
<polygon fill="gray" stroke="black" points="157.481,-46.5307 158.882,-36.0288 151.238,-43.365 157.481,-46.5307"/>
</g>
<!-- 2&#45;&gt;c_{k} -->
<g id="edge11" class="edge"><title>2&#45;&gt;c_{k}</title>
<path fill="none" stroke="black" d="M39.1547,-166.818C52.3275,-144.094 77.429,-103.378 104.516,-73 114.142,-62.2043 125.909,-51.5702 136.656,-42.6316"/>
<polygon fill="gray" stroke="black" points="139.073,-45.177 144.623,-36.1521 134.656,-39.7462 139.073,-45.177"/>
</g>
<!-- 3&#45;&gt;c_{k} -->
<g id="edge12" class="edge"><title>3&#45;&gt;c_{k}</title>
<path fill="none" stroke="black" d="M219.741,-72.9657C214.391,-66.9082 208.253,-60.0841 202.516,-54 199.312,-50.6023 195.892,-47.0699 192.49,-43.6132"/>
<polygon fill="gray" stroke="black" points="194.7,-40.8717 185.167,-36.2482 189.736,-45.8072 194.7,-40.8717"/>
</g>
</g>
</svg>
