<?xml version="1.0" encoding="UTF-8" standalone="no"?>
<!DOCTYPE svg PUBLIC "-//W3C//DTD SVG 1.1//EN"
 "http://www.w3.org/Graphics/SVG/1.1/DTD/svg11.dtd">
<!-- Generated by graphviz version 2.38.0 (20140413.2041)
 -->
<!-- Title: %3 Pages: 1 -->
<svg width="421pt" height="399pt"
 viewBox="0.00 0.00 420.65 399.00" xmlns="http://www.w3.org/2000/svg" xmlns:xlink="http://www.w3.org/1999/xlink">
<g id="graph0" class="graph" transform="scale(1 1) rotate(0) translate(4 395)">
<title>%3</title>
<polygon fill="white" stroke="none" points="-4,4 -4,-395 416.648,-395 416.648,4 -4,4"/>
<!-- c_{k&#45;2} -->
<g id="node1" class="node"><title>c_{k&#45;2}</title>
<polygon fill="#b4eeb4" stroke="black" stroke-width="2" points="131.148,-391 46.1476,-391 46.1476,-355 131.148,-355 131.148,-391"/>
<text text-anchor="middle" x="88.6476" y="-368" font-family="times" font-size="20.00">c_{k&#45;2}</text>
</g>
<!-- 0 -->
<g id="node3" class="node"><title>0</title>
<polygon fill="lightblue" stroke="black" stroke-width="2" points="38.6476,-297 2.64762,-297 2.64762,-261 38.6476,-261 38.6476,-297"/>
<text text-anchor="middle" x="20.6476" y="-274" font-family="times" font-size="20.00">0</text>
</g>
<!-- c_{k&#45;2}&#45;&gt;0 -->
<g id="edge2" class="edge"><title>c_{k&#45;2}&#45;&gt;0</title>
<path fill="none" stroke="black" d="M46.0536,-358.347C36.4289,-353.203 27.3732,-346.266 21.6476,-337 16.2988,-328.343 15.085,-317.446 15.5476,-307.505"/>
<polygon fill="gray" stroke="black" points="19.0614,-307.546 16.5911,-297.243 12.0973,-306.838 19.0614,-307.546"/>
<text text-anchor="middle" x="72.1476" y="-321" font-family="times" font-size="20.00">att_identity</text>
</g>
<!-- 1 -->
<g id="node4" class="node"><title>1</title>
<polygon fill="lightblue" stroke="black" stroke-width="2" points="154.648,-203 118.648,-203 118.648,-167 154.648,-167 154.648,-203"/>
<text text-anchor="middle" x="136.648" y="-180" font-family="times" font-size="20.00">1</text>
</g>
<!-- c_{k&#45;2}&#45;&gt;1 -->
<g id="edge4" class="edge"><title>c_{k&#45;2}&#45;&gt;1</title>
<path fill="none" stroke="black" d="M109.682,-354.95C114.762,-349.738 119.599,-343.617 122.648,-337 141.074,-297 141.397,-244.802 139.408,-213.426"/>
<polygon fill="gray" stroke="black" points="142.883,-212.956 138.634,-203.25 135.903,-213.487 142.883,-212.956"/>
<text text-anchor="middle" x="189.148" y="-274" font-family="times" font-size="20.00">att_identity</text>
</g>
<!-- c_{k&#45;1} -->
<g id="node2" class="node"><title>c_{k&#45;1}</title>
<polygon fill="#b4eeb4" stroke="black" stroke-width="2" points="261.148,-391 176.148,-391 176.148,-355 261.148,-355 261.148,-391"/>
<text text-anchor="middle" x="218.648" y="-368" font-family="times" font-size="20.00">c_{k&#45;1}</text>
</g>
<!-- c_{k&#45;1}&#45;&gt;0 -->
<g id="edge1" class="edge"><title>c_{k&#45;1}&#45;&gt;0</title>
<path fill="none" stroke="black" d="M194.547,-354.872C176.486,-342.59 150.823,-326.287 126.648,-315 101.144,-303.093 70.4612,-293.431 48.6844,-287.3"/>
<polygon fill="gray" stroke="black" points="49.3409,-283.85 38.7711,-284.579 47.4881,-290.601 49.3409,-283.85"/>
<text text-anchor="middle" x="221.148" y="-321" font-family="times" font-size="20.00">up_att_conv</text>
</g>
<!-- 2 -->
<g id="node5" class="node"><title>2</title>
<polygon fill="lightblue" stroke="black" stroke-width="2" points="241.648,-109 205.648,-109 205.648,-73 241.648,-73 241.648,-109"/>
<text text-anchor="middle" x="223.648" y="-86" font-family="times" font-size="20.00">2</text>
</g>
<!-- c_{k&#45;1}&#45;&gt;2 -->
<g id="edge5" class="edge"><title>c_{k&#45;1}&#45;&gt;2</title>
<path fill="none" stroke="black" d="M261.363,-355.432C268.944,-350.606 275.918,-344.539 280.648,-337 325.143,-266.077 289.98,-232.683 292.648,-149 292.959,-139.227 297.764,-135.332 292.648,-127 283.682,-112.399 266.519,-103.658 251.554,-98.5637"/>
<polygon fill="gray" stroke="black" points="252.257,-95.1203 241.673,-95.5918 250.241,-101.824 252.257,-95.1203"/>
<text text-anchor="middle" x="357.148" y="-227" font-family="times" font-size="20.00">up_att_conv</text>
</g>
<!-- 0&#45;&gt;1 -->
<g id="edge3" class="edge"><title>0&#45;&gt;1</title>
<path fill="none" stroke="black" d="M36.8972,-260.83C48.5282,-248.985 64.8604,-233.232 80.6476,-221 89.7821,-213.923 100.404,-206.993 109.927,-201.192"/>
<polygon fill="gray" stroke="black" points="111.833,-204.13 118.635,-196.007 108.252,-198.115 111.833,-204.13"/>
<text text-anchor="middle" x="101.648" y="-227" font-family="times" font-size="20.00">conv</text>
</g>
<!-- 3 -->
<g id="node6" class="node"><title>3</title>
<polygon fill="lightblue" stroke="black" stroke-width="2" points="67.6476,-109 31.6476,-109 31.6476,-73 67.6476,-73 67.6476,-109"/>
<text text-anchor="middle" x="49.6476" y="-86" font-family="times" font-size="20.00">3</text>
</g>
<!-- 0&#45;&gt;3 -->
<g id="edge7" class="edge"><title>0&#45;&gt;3</title>
<path fill="none" stroke="black" d="M22.2587,-260.68C25.0331,-232.496 31.3273,-175.026 40.6476,-127 41.1392,-124.467 41.7051,-121.845 42.3087,-119.227"/>
<polygon fill="gray" stroke="black" points="45.7474,-119.901 44.7466,-109.353 38.9515,-118.223 45.7474,-119.901"/>
<text text-anchor="middle" x="54.6476" y="-180" font-family="times" font-size="20.00">conv</text>
</g>
<!-- c_{k} -->
<g id="node7" class="node"><title>c_{k}</title>
<polygon fill="palegoldenrod" stroke="black" stroke-width="2" points="171.648,-36 105.648,-36 105.648,-0 171.648,-0 171.648,-36"/>
<text text-anchor="middle" x="138.648" y="-13" font-family="times" font-size="20.00">c_{k}</text>
</g>
<!-- 0&#45;&gt;c_{k} -->
<g id="edge9" class="edge"><title>0&#45;&gt;c_{k}</title>
<path fill="none" stroke="black" d="M15.1782,-260.881C4.3044,-223.354 -15.8303,-132.465 22.6476,-73 38.7881,-48.0561 69.7256,-34.4366 95.5934,-27.1172"/>
<polygon fill="gray" stroke="black" points="96.7811,-30.4249 105.58,-24.5236 95.0216,-23.6496 96.7811,-30.4249"/>
</g>
<!-- 1&#45;&gt;2 -->
<g id="edge6" class="edge"><title>1&#45;&gt;2</title>
<path fill="none" stroke="black" d="M154.922,-174.33C165.599,-168.076 178.855,-159.21 188.648,-149 197.325,-139.953 204.908,-128.4 210.776,-118.063"/>
<polygon fill="gray" stroke="black" points="213.989,-119.48 215.666,-109.019 207.831,-116.151 213.989,-119.48"/>
<text text-anchor="middle" x="246.648" y="-133" font-family="times" font-size="20.00">sep_conv</text>
</g>
<!-- 1&#45;&gt;3 -->
<g id="edge8" class="edge"><title>1&#45;&gt;3</title>
<path fill="none" stroke="black" d="M118.576,-182.354C98.2114,-179.43 65.9592,-171.337 50.6476,-149 44.7915,-140.457 43.5561,-129.374 44.1422,-119.254"/>
<polygon fill="gray" stroke="black" points="47.6324,-119.538 45.295,-109.205 40.678,-118.741 47.6324,-119.538"/>
<text text-anchor="middle" x="107.148" y="-133" font-family="times" font-size="20.00">shuffle_conv</text>
</g>
<!-- 1&#45;&gt;c_{k} -->
<g id="edge10" class="edge"><title>1&#45;&gt;c_{k}</title>
<path fill="none" stroke="black" d="M153.454,-166.823C157.597,-161.525 161.469,-155.392 163.648,-149 175.484,-114.279 162.843,-72.3197 151.646,-45.6446"/>
<polygon fill="gray" stroke="black" points="154.722,-43.9482 147.479,-36.2164 148.32,-46.7779 154.722,-43.9482"/>
</g>
<!-- 2&#45;&gt;c_{k} -->
<g id="edge11" class="edge"><title>2&#45;&gt;c_{k}</title>
<path fill="none" stroke="black" d="M209.838,-72.6542C204.484,-66.4345 198.094,-59.5849 191.648,-54 186.78,-49.783 181.375,-45.6684 175.93,-41.829"/>
<polygon fill="gray" stroke="black" points="177.654,-38.7687 167.415,-36.0469 173.722,-44.5599 177.654,-38.7687"/>
</g>
<!-- 3&#45;&gt;c_{k} -->
<g id="edge12" class="edge"><title>3&#45;&gt;c_{k}</title>
<path fill="none" stroke="black" d="M67.6581,-75.6321C79.5199,-66.1693 95.3297,-53.557 109.018,-42.6368"/>
<polygon fill="gray" stroke="black" points="111.579,-45.0718 117.213,-36.0994 107.213,-39.5997 111.579,-45.0718"/>
</g>
</g>
</svg>
