<?xml version="1.0" encoding="UTF-8" standalone="no"?>
<!DOCTYPE svg PUBLIC "-//W3C//DTD SVG 1.1//EN"
 "http://www.w3.org/Graphics/SVG/1.1/DTD/svg11.dtd">
<!-- Generated by graphviz version 2.38.0 (20140413.2041)
 -->
<!-- Title: %3 Pages: 1 -->
<svg width="397pt" height="399pt"
 viewBox="0.00 0.00 396.88 399.00" xmlns="http://www.w3.org/2000/svg" xmlns:xlink="http://www.w3.org/1999/xlink">
<g id="graph0" class="graph" transform="scale(1 1) rotate(0) translate(4 395)">
<title>%3</title>
<polygon fill="white" stroke="none" points="-4,4 -4,-395 392.878,-395 392.878,4 -4,4"/>
<!-- c_{k&#45;2} -->
<g id="node1" class="node"><title>c_{k&#45;2}</title>
<polygon fill="#b4eeb4" stroke="black" stroke-width="2" points="275.378,-391 190.378,-391 190.378,-355 275.378,-355 275.378,-391"/>
<text text-anchor="middle" x="232.878" y="-368" font-family="times" font-size="20.00">c_{k&#45;2}</text>
</g>
<!-- 0 -->
<g id="node3" class="node"><title>0</title>
<polygon fill="lightblue" stroke="black" stroke-width="2" points="38.8784,-297 2.87837,-297 2.87837,-261 38.8784,-261 38.8784,-297"/>
<text text-anchor="middle" x="20.8784" y="-274" font-family="times" font-size="20.00">0</text>
</g>
<!-- c_{k&#45;2}&#45;&gt;0 -->
<g id="edge2" class="edge"><title>c_{k&#45;2}&#45;&gt;0</title>
<path fill="none" stroke="black" d="M208.69,-354.944C190.241,-342.538 163.835,-326.047 138.878,-315 109.262,-301.89 73.351,-292.035 48.981,-286.176"/>
<polygon fill="gray" stroke="black" points="49.512,-282.706 38.978,-283.84 47.92,-289.523 49.512,-282.706"/>
<text text-anchor="middle" x="229.378" y="-321" font-family="times" font-size="20.00">att_identity</text>
</g>
<!-- 2 -->
<g id="node5" class="node"><title>2</title>
<polygon fill="lightblue" stroke="black" stroke-width="2" points="241.878,-109 205.878,-109 205.878,-73 241.878,-73 241.878,-109"/>
<text text-anchor="middle" x="223.878" y="-86" font-family="times" font-size="20.00">2</text>
</g>
<!-- c_{k&#45;2}&#45;&gt;2 -->
<g id="edge6" class="edge"><title>c_{k&#45;2}&#45;&gt;2</title>
<path fill="none" stroke="black" d="M267.458,-354.817C273.982,-349.966 279.975,-344.045 283.878,-337 329.143,-255.3 340.517,-206.737 291.878,-127 283.115,-112.633 266.359,-103.912 251.675,-98.7693"/>
<polygon fill="gray" stroke="black" points="252.551,-95.3766 241.963,-95.7548 250.475,-102.062 252.551,-95.3766"/>
<text text-anchor="middle" x="355.878" y="-227" font-family="times" font-size="20.00">identity</text>
</g>
<!-- c_{k&#45;1} -->
<g id="node2" class="node"><title>c_{k&#45;1}</title>
<polygon fill="#b4eeb4" stroke="black" stroke-width="2" points="139.378,-391 54.3784,-391 54.3784,-355 139.378,-355 139.378,-391"/>
<text text-anchor="middle" x="96.8784" y="-368" font-family="times" font-size="20.00">c_{k&#45;1}</text>
</g>
<!-- c_{k&#45;1}&#45;&gt;0 -->
<g id="edge1" class="edge"><title>c_{k&#45;1}&#45;&gt;0</title>
<path fill="none" stroke="black" d="M54.0179,-361.467C41.5565,-356.221 29.3118,-348.449 21.8784,-337 16.2382,-328.313 15.0421,-317.203 15.5993,-307.103"/>
<polygon fill="gray" stroke="black" points="19.0866,-307.41 16.7019,-297.087 12.1286,-306.644 19.0866,-307.41"/>
<text text-anchor="middle" x="78.3784" y="-321" font-family="times" font-size="20.00">shuffle_conv</text>
</g>
<!-- 1 -->
<g id="node4" class="node"><title>1</title>
<polygon fill="lightblue" stroke="black" stroke-width="2" points="166.878,-203 130.878,-203 130.878,-167 166.878,-167 166.878,-203"/>
<text text-anchor="middle" x="148.878" y="-180" font-family="times" font-size="20.00">1</text>
</g>
<!-- c_{k&#45;1}&#45;&gt;1 -->
<g id="edge4" class="edge"><title>c_{k&#45;1}&#45;&gt;1</title>
<path fill="none" stroke="black" d="M120.765,-354.977C126.297,-349.842 131.537,-343.753 134.878,-337 154.409,-297.527 154.393,-245.167 152.037,-213.616"/>
<polygon fill="gray" stroke="black" points="155.499,-213.032 151.134,-203.379 148.526,-213.648 155.499,-213.032"/>
<text text-anchor="middle" x="193.878" y="-274" font-family="times" font-size="20.00">sep_conv</text>
</g>
<!-- 0&#45;&gt;1 -->
<g id="edge3" class="edge"><title>0&#45;&gt;1</title>
<path fill="none" stroke="black" d="M39.0926,-262.658C53.3956,-250.838 73.9851,-234.321 92.8784,-221 102.18,-214.441 112.689,-207.706 122.07,-201.918"/>
<polygon fill="gray" stroke="black" points="123.924,-204.887 130.642,-196.695 120.281,-198.909 123.924,-204.887"/>
<text text-anchor="middle" x="113.878" y="-227" font-family="times" font-size="20.00">conv</text>
</g>
<!-- 3 -->
<g id="node6" class="node"><title>3</title>
<polygon fill="lightblue" stroke="black" stroke-width="2" points="67.8784,-109 31.8784,-109 31.8784,-73 67.8784,-73 67.8784,-109"/>
<text text-anchor="middle" x="49.8784" y="-86" font-family="times" font-size="20.00">3</text>
</g>
<!-- 0&#45;&gt;3 -->
<g id="edge7" class="edge"><title>0&#45;&gt;3</title>
<path fill="none" stroke="black" d="M22.192,-260.649C24.5233,-232.421 30.0842,-174.889 39.8784,-127 40.3991,-124.454 41.0106,-121.822 41.6703,-119.199"/>
<polygon fill="gray" stroke="black" points="45.1108,-119.885 44.363,-109.317 38.357,-118.045 45.1108,-119.885"/>
<text text-anchor="middle" x="52.8784" y="-180" font-family="times" font-size="20.00">conv</text>
</g>
<!-- c_{k} -->
<g id="node7" class="node"><title>c_{k}</title>
<polygon fill="palegoldenrod" stroke="black" stroke-width="2" points="171.878,-36 105.878,-36 105.878,-0 171.878,-0 171.878,-36"/>
<text text-anchor="middle" x="138.878" y="-13" font-family="times" font-size="20.00">c_{k}</text>
</g>
<!-- 0&#45;&gt;c_{k} -->
<g id="edge9" class="edge"><title>0&#45;&gt;c_{k}</title>
<path fill="none" stroke="black" d="M15.3494,-260.842C4.3567,-223.238 -16.0003,-132.204 22.8784,-73 39.1331,-48.2477 69.913,-34.6313 95.6834,-27.2651"/>
<polygon fill="gray" stroke="black" points="96.8529,-30.5767 105.635,-24.6506 95.0743,-23.8064 96.8529,-30.5767"/>
</g>
<!-- 1&#45;&gt;2 -->
<g id="edge5" class="edge"><title>1&#45;&gt;2</title>
<path fill="none" stroke="black" d="M167.08,-170.066C174.324,-164.033 182.448,-156.614 188.878,-149 196.852,-139.558 204.245,-128.116 210.162,-117.969"/>
<polygon fill="gray" stroke="black" points="213.295,-119.538 215.155,-109.108 207.196,-116.101 213.295,-119.538"/>
<text text-anchor="middle" x="245.878" y="-133" font-family="times" font-size="20.00">sep_conv</text>
</g>
<!-- 1&#45;&gt;3 -->
<g id="edge8" class="edge"><title>1&#45;&gt;3</title>
<path fill="none" stroke="black" d="M130.798,-183.387C107.897,-181.528 69.2114,-174.536 50.8784,-149 44.7951,-140.527 43.5511,-129.369 44.1929,-119.174"/>
<polygon fill="gray" stroke="black" points="47.6911,-119.4 45.4206,-109.051 40.7421,-118.557 47.6911,-119.4"/>
<text text-anchor="middle" x="107.378" y="-133" font-family="times" font-size="20.00">shuffle_conv</text>
</g>
<!-- 1&#45;&gt;c_{k} -->
<g id="edge10" class="edge"><title>1&#45;&gt;c_{k}</title>
<path fill="none" stroke="black" d="M157.953,-166.647C160.374,-161.154 162.655,-154.958 163.878,-149 171.181,-113.423 159.942,-72.2337 150.27,-45.9166"/>
<polygon fill="gray" stroke="black" points="153.413,-44.3402 146.548,-36.2705 146.882,-46.86 153.413,-44.3402"/>
</g>
<!-- 2&#45;&gt;c_{k} -->
<g id="edge11" class="edge"><title>2&#45;&gt;c_{k}</title>
<path fill="none" stroke="black" d="M210.069,-72.6542C204.715,-66.4345 198.325,-59.5849 191.878,-54 187.011,-49.783 181.605,-45.6684 176.161,-41.829"/>
<polygon fill="gray" stroke="black" points="177.885,-38.7687 167.645,-36.0469 173.952,-44.5599 177.885,-38.7687"/>
</g>
<!-- 3&#45;&gt;c_{k} -->
<g id="edge12" class="edge"><title>3&#45;&gt;c_{k}</title>
<path fill="none" stroke="black" d="M67.8889,-75.6321C79.7506,-66.1693 95.5605,-53.557 109.249,-42.6368"/>
<polygon fill="gray" stroke="black" points="111.809,-45.0718 117.444,-36.0994 107.444,-39.5997 111.809,-45.0718"/>
</g>
</g>
</svg>
