<?xml version="1.0" encoding="UTF-8" standalone="no"?>
<!DOCTYPE svg PUBLIC "-//W3C//DTD SVG 1.1//EN"
 "http://www.w3.org/Graphics/SVG/1.1/DTD/svg11.dtd">
<!-- Generated by graphviz version 2.38.0 (20140413.2041)
 -->
<!-- Title: %3 Pages: 1 -->
<svg width="642pt" height="399pt"
 viewBox="0.00 0.00 641.50 399.00" xmlns="http://www.w3.org/2000/svg" xmlns:xlink="http://www.w3.org/1999/xlink">
<g id="graph0" class="graph" transform="scale(1 1) rotate(0) translate(4 395)">
<title>%3</title>
<polygon fill="white" stroke="none" points="-4,4 -4,-395 637.5,-395 637.5,4 -4,4"/>
<!-- c_{k&#45;2} -->
<g id="node1" class="node"><title>c_{k&#45;2}</title>
<polygon fill="#b4eeb4" stroke="black" stroke-width="2" points="85,-391 0,-391 0,-355 85,-355 85,-391"/>
<text text-anchor="middle" x="42.5" y="-368" font-family="times" font-size="20.00">c_{k&#45;2}</text>
</g>
<!-- 0 -->
<g id="node3" class="node"><title>0</title>
<polygon fill="lightblue" stroke="black" stroke-width="2" points="184.5,-297 148.5,-297 148.5,-261 184.5,-261 184.5,-297"/>
<text text-anchor="middle" x="166.5" y="-274" font-family="times" font-size="20.00">0</text>
</g>
<!-- c_{k&#45;2}&#45;&gt;0 -->
<g id="edge2" class="edge"><title>c_{k&#45;2}&#45;&gt;0</title>
<path fill="none" stroke="black" d="M37.8214,-354.785C35.5619,-342.46 34.9325,-326.141 43.5,-315 65.462,-286.441 109.002,-280.025 137.94,-279.155"/>
<polygon fill="gray" stroke="black" points="138.274,-282.652 148.241,-279.058 138.209,-275.652 138.274,-282.652"/>
<text text-anchor="middle" x="94" y="-321" font-family="times" font-size="20.00">att_identity</text>
</g>
<!-- c_{k&#45;1} -->
<g id="node2" class="node"><title>c_{k&#45;1}</title>
<polygon fill="#b4eeb4" stroke="black" stroke-width="2" points="368,-391 283,-391 283,-355 368,-355 368,-391"/>
<text text-anchor="middle" x="325.5" y="-368" font-family="times" font-size="20.00">c_{k&#45;1}</text>
</g>
<!-- c_{k&#45;1}&#45;&gt;0 -->
<g id="edge1" class="edge"><title>c_{k&#45;1}&#45;&gt;0</title>
<path fill="none" stroke="black" d="M282.674,-368.395C240.981,-363.899 181.857,-354.567 167.5,-337 160.783,-328.781 159.518,-317.444 160.317,-307.044"/>
<polygon fill="gray" stroke="black" points="163.788,-307.49 161.677,-297.107 156.853,-306.54 163.788,-307.49"/>
<text text-anchor="middle" x="239.5" y="-321" font-family="times" font-size="20.00">down_sep_conv</text>
</g>
<!-- 1 -->
<g id="node4" class="node"><title>1</title>
<polygon fill="lightblue" stroke="black" stroke-width="2" points="343.5,-203 307.5,-203 307.5,-167 343.5,-167 343.5,-203"/>
<text text-anchor="middle" x="325.5" y="-180" font-family="times" font-size="20.00">1</text>
</g>
<!-- c_{k&#45;1}&#45;&gt;1 -->
<g id="edge3" class="edge"><title>c_{k&#45;1}&#45;&gt;1</title>
<path fill="none" stroke="black" d="M325.5,-354.835C325.5,-322.446 325.5,-252.087 325.5,-213.2"/>
<polygon fill="gray" stroke="black" points="329,-213.124 325.5,-203.124 322,-213.124 329,-213.124"/>
<text text-anchor="middle" x="394" y="-274" font-family="times" font-size="20.00">down_att_conv</text>
</g>
<!-- 2 -->
<g id="node5" class="node"><title>2</title>
<polygon fill="lightblue" stroke="black" stroke-width="2" points="404.5,-109 368.5,-109 368.5,-73 404.5,-73 404.5,-109"/>
<text text-anchor="middle" x="386.5" y="-86" font-family="times" font-size="20.00">2</text>
</g>
<!-- c_{k&#45;1}&#45;&gt;2 -->
<g id="edge5" class="edge"><title>c_{k&#45;1}&#45;&gt;2</title>
<path fill="none" stroke="black" d="M368.328,-361.999C401.544,-351.747 445.368,-332.176 466.5,-297 486.169,-264.259 512.983,-212.549 455.5,-127 446.005,-112.869 428.997,-104.151 414.244,-98.9497"/>
<polygon fill="gray" stroke="black" points="415.1,-95.55 404.511,-95.8877 412.999,-102.227 415.1,-95.55"/>
<text text-anchor="middle" x="561.5" y="-227" font-family="times" font-size="20.00">down_sep_conv</text>
</g>
<!-- 0&#45;&gt;1 -->
<g id="edge4" class="edge"><title>0&#45;&gt;1</title>
<path fill="none" stroke="black" d="M184.739,-267.446C212.654,-251.294 266.138,-220.348 298.539,-201.6"/>
<polygon fill="gray" stroke="black" points="300.571,-204.468 307.473,-196.43 297.065,-198.409 300.571,-204.468"/>
<text text-anchor="middle" x="285.5" y="-227" font-family="times" font-size="20.00">conv</text>
</g>
<!-- 3 -->
<g id="node6" class="node"><title>3</title>
<polygon fill="lightblue" stroke="black" stroke-width="2" points="230.5,-109 194.5,-109 194.5,-73 230.5,-73 230.5,-109"/>
<text text-anchor="middle" x="212.5" y="-86" font-family="times" font-size="20.00">3</text>
</g>
<!-- 0&#45;&gt;3 -->
<g id="edge7" class="edge"><title>0&#45;&gt;3</title>
<path fill="none" stroke="black" d="M170.653,-260.774C177.433,-232.72 191.34,-175.43 203.5,-127 204.165,-124.353 204.863,-121.595 205.565,-118.84"/>
<polygon fill="gray" stroke="black" points="208.974,-119.636 208.067,-109.08 202.193,-117.898 208.974,-119.636"/>
<text text-anchor="middle" x="214.5" y="-180" font-family="times" font-size="20.00">conv</text>
</g>
<!-- c_{k} -->
<g id="node7" class="node"><title>c_{k}</title>
<polygon fill="palegoldenrod" stroke="black" stroke-width="2" points="334.5,-36 268.5,-36 268.5,-0 334.5,-0 334.5,-36"/>
<text text-anchor="middle" x="301.5" y="-13" font-family="times" font-size="20.00">c_{k}</text>
</g>
<!-- 0&#45;&gt;c_{k} -->
<g id="edge9" class="edge"><title>0&#45;&gt;c_{k}</title>
<path fill="none" stroke="black" d="M162.858,-260.964C155.809,-223.211 144.376,-131.253 185.5,-73 202.522,-48.8886 233.12,-35.2593 258.619,-27.7264"/>
<polygon fill="gray" stroke="black" points="259.735,-31.0498 268.459,-25.0386 257.89,-24.2972 259.735,-31.0498"/>
</g>
<!-- 1&#45;&gt;2 -->
<g id="edge6" class="edge"><title>1&#45;&gt;2</title>
<path fill="none" stroke="black" d="M340.896,-166.68C345.489,-161.188 350.39,-154.985 354.5,-149 361.17,-139.287 367.693,-128.078 373.091,-118.183"/>
<polygon fill="gray" stroke="black" points="376.269,-119.661 377.89,-109.191 370.094,-116.365 376.269,-119.661"/>
<text text-anchor="middle" x="409.5" y="-133" font-family="times" font-size="20.00">sep_conv</text>
</g>
<!-- 1&#45;&gt;3 -->
<g id="edge8" class="edge"><title>1&#45;&gt;3</title>
<path fill="none" stroke="black" d="M307.13,-184.328C281.406,-183.671 235.357,-178.189 213.5,-149 207.248,-140.65 205.974,-129.515 206.639,-119.303"/>
<polygon fill="gray" stroke="black" points="210.141,-119.507 207.907,-109.15 203.195,-118.639 210.141,-119.507"/>
<text text-anchor="middle" x="270" y="-133" font-family="times" font-size="20.00">shuffle_conv</text>
</g>
<!-- 1&#45;&gt;c_{k} -->
<g id="edge10" class="edge"><title>1&#45;&gt;c_{k}</title>
<path fill="none" stroke="black" d="M326.086,-166.912C326.255,-161.216 326.417,-154.835 326.5,-149 326.64,-139.223 327.61,-136.715 326.5,-127 323.309,-99.0648 315.618,-67.8408 309.603,-46.1795"/>
<polygon fill="gray" stroke="black" points="312.915,-45.0304 306.811,-36.3703 306.182,-46.9464 312.915,-45.0304"/>
</g>
<!-- 2&#45;&gt;c_{k} -->
<g id="edge11" class="edge"><title>2&#45;&gt;c_{k}</title>
<path fill="none" stroke="black" d="M372.691,-72.6542C367.336,-66.4345 360.947,-59.5849 354.5,-54 349.632,-49.783 344.227,-45.6684 338.783,-41.829"/>
<polygon fill="gray" stroke="black" points="340.506,-38.7687 330.267,-36.0469 336.574,-44.5599 340.506,-38.7687"/>
</g>
<!-- 3&#45;&gt;c_{k} -->
<g id="edge12" class="edge"><title>3&#45;&gt;c_{k}</title>
<path fill="none" stroke="black" d="M230.51,-75.6321C242.372,-66.1693 258.182,-53.557 271.871,-42.6368"/>
<polygon fill="gray" stroke="black" points="274.431,-45.0718 280.065,-36.0994 270.066,-39.5997 274.431,-45.0718"/>
</g>
</g>
</svg>
