<?xml version="1.0" encoding="UTF-8" standalone="no"?>
<!DOCTYPE svg PUBLIC "-//W3C//DTD SVG 1.1//EN"
 "http://www.w3.org/Graphics/SVG/1.1/DTD/svg11.dtd">
<!-- Generated by graphviz version 2.38.0 (20140413.2041)
 -->
<!-- Title: %3 Pages: 1 -->
<svg width="639pt" height="399pt"
 viewBox="0.00 0.00 639.18 399.00" xmlns="http://www.w3.org/2000/svg" xmlns:xlink="http://www.w3.org/1999/xlink">
<g id="graph0" class="graph" transform="scale(1 1) rotate(0) translate(4 395)">
<title>%3</title>
<polygon fill="white" stroke="none" points="-4,4 -4,-395 635.182,-395 635.182,4 -4,4"/>
<!-- c_{k&#45;2} -->
<g id="node1" class="node"><title>c_{k&#45;2}</title>
<polygon fill="#b4eeb4" stroke="black" stroke-width="2" points="90.6817,-391 5.68169,-391 5.68169,-355 90.6817,-355 90.6817,-391"/>
<text text-anchor="middle" x="48.1817" y="-368" font-family="times" font-size="20.00">c_{k&#45;2}</text>
</g>
<!-- 0 -->
<g id="node3" class="node"><title>0</title>
<polygon fill="lightblue" stroke="black" stroke-width="2" points="312.182,-297 276.182,-297 276.182,-261 312.182,-261 312.182,-297"/>
<text text-anchor="middle" x="294.182" y="-274" font-family="times" font-size="20.00">0</text>
</g>
<!-- c_{k&#45;2}&#45;&gt;0 -->
<g id="edge2" class="edge"><title>c_{k&#45;2}&#45;&gt;0</title>
<path fill="none" stroke="black" d="M59.562,-354.97C69.4283,-341.707 84.9644,-324.074 103.182,-315 162.493,-285.456 186.959,-313.314 251.182,-297 256.302,-295.699 261.632,-293.944 266.725,-292.053"/>
<polygon fill="gray" stroke="black" points="268.101,-295.273 276.109,-288.336 265.523,-288.765 268.101,-295.273"/>
<text text-anchor="middle" x="157.682" y="-321" font-family="times" font-size="20.00">atrous_conv</text>
</g>
<!-- 3 -->
<g id="node6" class="node"><title>3</title>
<polygon fill="lightblue" stroke="black" stroke-width="2" points="242.182,-297 206.182,-297 206.182,-261 242.182,-261 242.182,-297"/>
<text text-anchor="middle" x="224.182" y="-274" font-family="times" font-size="20.00">3</text>
</g>
<!-- c_{k&#45;2}&#45;&gt;3 -->
<g id="edge8" class="edge"><title>c_{k&#45;2}&#45;&gt;3</title>
<path fill="none" stroke="black" d="M21.2908,-354.946C6.44633,-343.435 -6.93669,-328.027 4.18169,-315 28.4927,-286.516 141.919,-281.098 195.721,-280.148"/>
<polygon fill="gray" stroke="black" points="195.992,-283.645 205.943,-280.01 195.897,-276.646 195.992,-283.645"/>
<text text-anchor="middle" x="37.1817" y="-321" font-family="times" font-size="20.00">identity</text>
</g>
<!-- c_{k&#45;1} -->
<g id="node2" class="node"><title>c_{k&#45;1}</title>
<polygon fill="#b4eeb4" stroke="black" stroke-width="2" points="439.682,-391 354.682,-391 354.682,-355 439.682,-355 439.682,-391"/>
<text text-anchor="middle" x="397.182" y="-368" font-family="times" font-size="20.00">c_{k&#45;1}</text>
</g>
<!-- c_{k&#45;1}&#45;&gt;0 -->
<g id="edge1" class="edge"><title>c_{k&#45;1}&#45;&gt;0</title>
<path fill="none" stroke="black" d="M372.132,-354.985C364.547,-349.506 356.336,-343.233 349.182,-337 342.656,-331.315 329.25,-317.44 317.308,-304.803"/>
<polygon fill="gray" stroke="black" points="319.538,-302.065 310.136,-297.179 314.439,-306.861 319.538,-302.065"/>
<text text-anchor="middle" x="391.182" y="-321" font-family="times" font-size="20.00">sep_conv</text>
</g>
<!-- 1 -->
<g id="node4" class="node"><title>1</title>
<polygon fill="lightblue" stroke="black" stroke-width="2" points="550.182,-203 514.182,-203 514.182,-167 550.182,-167 550.182,-203"/>
<text text-anchor="middle" x="532.182" y="-180" font-family="times" font-size="20.00">1</text>
</g>
<!-- c_{k&#45;1}&#45;&gt;1 -->
<g id="edge3" class="edge"><title>c_{k&#45;1}&#45;&gt;1</title>
<path fill="none" stroke="black" d="M435.535,-354.894C475.218,-334.715 534.504,-296.945 557.182,-243 560.971,-233.986 560.166,-230.311 557.182,-221 556.179,-217.871 554.782,-214.784 553.157,-211.816"/>
<polygon fill="gray" stroke="black" points="556.087,-209.901 547.759,-203.351 550.185,-213.665 556.087,-209.901"/>
<text text-anchor="middle" x="589.182" y="-274" font-family="times" font-size="20.00">sep_conv</text>
</g>
<!-- 2 -->
<g id="node5" class="node"><title>2</title>
<polygon fill="lightblue" stroke="black" stroke-width="2" points="465.182,-109 429.182,-109 429.182,-73 465.182,-73 465.182,-109"/>
<text text-anchor="middle" x="447.182" y="-86" font-family="times" font-size="20.00">2</text>
</g>
<!-- c_{k&#45;1}&#45;&gt;2 -->
<g id="edge6" class="edge"><title>c_{k&#45;1}&#45;&gt;2</title>
<path fill="none" stroke="black" d="M419.979,-354.852C425.219,-349.719 430.141,-343.661 433.182,-337 442.031,-317.617 445.599,-178.918 446.736,-119.216"/>
<polygon fill="gray" stroke="black" points="450.239,-119.096 446.921,-109.034 443.24,-118.969 450.239,-119.096"/>
<text text-anchor="middle" x="497.682" y="-227" font-family="times" font-size="20.00">atrous_conv</text>
</g>
<!-- c_{k&#45;1}&#45;&gt;3 -->
<g id="edge7" class="edge"><title>c_{k&#45;1}&#45;&gt;3</title>
<path fill="none" stroke="black" d="M354.382,-369.505C308.058,-365.806 238.584,-357.007 222.182,-337 215.449,-328.787 214.708,-317.452 216.121,-307.051"/>
<polygon fill="gray" stroke="black" points="219.58,-307.605 218.109,-297.112 212.716,-306.232 219.58,-307.605"/>
<text text-anchor="middle" x="272.682" y="-321" font-family="times" font-size="20.00">att_identity</text>
</g>
<!-- 0&#45;&gt;1 -->
<g id="edge4" class="edge"><title>0&#45;&gt;1</title>
<path fill="none" stroke="black" d="M294.939,-260.951C296.464,-248.04 300.705,-230.891 312.182,-221 340.48,-196.611 451.357,-189.1 504.061,-186.882"/>
<polygon fill="gray" stroke="black" points="504.222,-190.379 514.079,-186.496 503.952,-183.384 504.222,-190.379"/>
<text text-anchor="middle" x="368.682" y="-227" font-family="times" font-size="20.00">shuffle_conv</text>
</g>
<!-- c_{k} -->
<g id="node7" class="node"><title>c_{k}</title>
<polygon fill="palegoldenrod" stroke="black" stroke-width="2" points="359.182,-36 293.182,-36 293.182,-0 359.182,-0 359.182,-36"/>
<text text-anchor="middle" x="326.182" y="-13" font-family="times" font-size="20.00">c_{k}</text>
</g>
<!-- 0&#45;&gt;c_{k} -->
<g id="edge9" class="edge"><title>0&#45;&gt;c_{k}</title>
<path fill="none" stroke="black" d="M293.881,-260.758C293.832,-249.436 294.049,-234.313 295.182,-221 300.545,-157.987 313.468,-84.7962 320.823,-46.1473"/>
<polygon fill="gray" stroke="black" points="324.285,-46.6809 322.74,-36.1994 317.411,-45.3569 324.285,-46.6809"/>
</g>
<!-- 1&#45;&gt;2 -->
<g id="edge5" class="edge"><title>1&#45;&gt;2</title>
<path fill="none" stroke="black" d="M513.736,-174.018C503.337,-167.774 490.587,-159.024 481.182,-149 472.67,-139.929 465.291,-128.372 459.603,-118.039"/>
<polygon fill="gray" stroke="black" points="462.61,-116.236 454.871,-109.001 456.408,-119.483 462.61,-116.236"/>
<text text-anchor="middle" x="523.182" y="-133" font-family="times" font-size="20.00">sep_conv</text>
</g>
<!-- 1&#45;&gt;c_{k} -->
<g id="edge10" class="edge"><title>1&#45;&gt;c_{k}</title>
<path fill="none" stroke="black" d="M550.283,-169.032C561.869,-157.555 573.329,-141.309 565.182,-127 525.413,-57.1571 426.861,-32.2832 369.495,-23.5701"/>
<polygon fill="gray" stroke="black" points="369.678,-20.0612 359.286,-22.1241 368.696,-26.992 369.678,-20.0612"/>
</g>
<!-- 2&#45;&gt;c_{k} -->
<g id="edge11" class="edge"><title>2&#45;&gt;c_{k}</title>
<path fill="none" stroke="black" d="M429.067,-79.3706C411.915,-69.3065 385.631,-53.8832 363.922,-41.1453"/>
<polygon fill="gray" stroke="black" points="365.642,-38.0965 355.246,-36.0543 362.1,-44.1338 365.642,-38.0965"/>
</g>
<!-- 3&#45;&gt;c_{k} -->
<g id="edge12" class="edge"><title>3&#45;&gt;c_{k}</title>
<path fill="none" stroke="black" d="M231.033,-260.604C248.489,-216.278 294.734,-98.8536 315.647,-45.7494"/>
<polygon fill="gray" stroke="black" points="318.953,-46.9072 319.361,-36.3202 312.44,-44.3421 318.953,-46.9072"/>
</g>
</g>
</svg>
