<?xml version="1.0" encoding="UTF-8" standalone="no"?>
<!DOCTYPE svg PUBLIC "-//W3C//DTD SVG 1.1//EN"
 "http://www.w3.org/Graphics/SVG/1.1/DTD/svg11.dtd">
<!-- Generated by graphviz version 2.38.0 (20140413.2041)
 -->
<!-- Title: %3 Pages: 1 -->
<svg width="880pt" height="399pt"
 viewBox="0.00 0.00 880.18 399.00" xmlns="http://www.w3.org/2000/svg" xmlns:xlink="http://www.w3.org/1999/xlink">
<g id="graph0" class="graph" transform="scale(1 1) rotate(0) translate(4 395)">
<title>%3</title>
<polygon fill="white" stroke="none" points="-4,4 -4,-395 876.182,-395 876.182,4 -4,4"/>
<!-- c_{k&#45;2} -->
<g id="node1" class="node"><title>c_{k&#45;2}</title>
<polygon fill="#b4eeb4" stroke="black" stroke-width="2" points="90.6817,-391 5.68169,-391 5.68169,-355 90.6817,-355 90.6817,-391"/>
<text text-anchor="middle" x="48.1817" y="-368" font-family="times" font-size="20.00">c_{k&#45;2}</text>
</g>
<!-- 0 -->
<g id="node3" class="node"><title>0</title>
<polygon fill="lightblue" stroke="black" stroke-width="2" points="409.182,-297 373.182,-297 373.182,-261 409.182,-261 409.182,-297"/>
<text text-anchor="middle" x="391.182" y="-274" font-family="times" font-size="20.00">0</text>
</g>
<!-- c_{k&#45;2}&#45;&gt;0 -->
<g id="edge2" class="edge"><title>c_{k&#45;2}&#45;&gt;0</title>
<path fill="none" stroke="black" d="M62.5813,-354.993C74.8521,-341.743 93.7129,-324.117 114.182,-315 117.012,-313.739 292.178,-292.147 362.463,-283.519"/>
<polygon fill="gray" stroke="black" points="363.301,-286.943 372.801,-282.251 362.449,-279.995 363.301,-286.943"/>
<text text-anchor="middle" x="168.682" y="-321" font-family="times" font-size="20.00">atrous_conv</text>
</g>
<!-- 3 -->
<g id="node6" class="node"><title>3</title>
<polygon fill="lightblue" stroke="black" stroke-width="2" points="242.182,-297 206.182,-297 206.182,-261 242.182,-261 242.182,-297"/>
<text text-anchor="middle" x="224.182" y="-274" font-family="times" font-size="20.00">3</text>
</g>
<!-- c_{k&#45;2}&#45;&gt;3 -->
<g id="edge8" class="edge"><title>c_{k&#45;2}&#45;&gt;3</title>
<path fill="none" stroke="black" d="M21.2908,-354.946C6.44633,-343.435 -6.93669,-328.027 4.18169,-315 28.4927,-286.516 141.919,-281.098 195.721,-280.148"/>
<polygon fill="gray" stroke="black" points="195.992,-283.645 205.943,-280.01 195.897,-276.646 195.992,-283.645"/>
<text text-anchor="middle" x="37.1817" y="-321" font-family="times" font-size="20.00">identity</text>
</g>
<!-- c_{k&#45;1} -->
<g id="node2" class="node"><title>c_{k&#45;1}</title>
<polygon fill="#b4eeb4" stroke="black" stroke-width="2" points="525.682,-391 440.682,-391 440.682,-355 525.682,-355 525.682,-391"/>
<text text-anchor="middle" x="483.182" y="-368" font-family="times" font-size="20.00">c_{k&#45;1}</text>
</g>
<!-- c_{k&#45;1}&#45;&gt;0 -->
<g id="edge1" class="edge"><title>c_{k&#45;1}&#45;&gt;0</title>
<path fill="none" stroke="black" d="M440.459,-366.234C422.501,-361.48 403.245,-352.81 392.182,-337 386.243,-328.514 384.993,-317.441 385.59,-307.314"/>
<polygon fill="gray" stroke="black" points="389.081,-307.589 386.762,-297.251 382.128,-306.779 389.081,-307.589"/>
<text text-anchor="middle" x="476.682" y="-321" font-family="times" font-size="20.00">donw_atrous_conv</text>
</g>
<!-- 1 -->
<g id="node4" class="node"><title>1</title>
<polygon fill="lightblue" stroke="black" stroke-width="2" points="680.182,-203 644.182,-203 644.182,-167 680.182,-167 680.182,-203"/>
<text text-anchor="middle" x="662.182" y="-180" font-family="times" font-size="20.00">1</text>
</g>
<!-- c_{k&#45;1}&#45;&gt;1 -->
<g id="edge3" class="edge"><title>c_{k&#45;1}&#45;&gt;1</title>
<path fill="none" stroke="black" d="M525.816,-365.703C587.364,-354.003 698.609,-322.427 743.182,-243 747.967,-234.473 748.552,-229.171 743.182,-221 731.522,-203.26 708.751,-194.47 690.315,-190.139"/>
<polygon fill="gray" stroke="black" points="690.844,-186.675 680.348,-188.116 689.452,-193.535 690.844,-186.675"/>
<text text-anchor="middle" x="800.182" y="-274" font-family="times" font-size="20.00">down_sep_conv</text>
</g>
<!-- 2 -->
<g id="node5" class="node"><title>2</title>
<polygon fill="lightblue" stroke="black" stroke-width="2" points="591.182,-109 555.182,-109 555.182,-73 591.182,-73 591.182,-109"/>
<text text-anchor="middle" x="573.182" y="-86" font-family="times" font-size="20.00">2</text>
</g>
<!-- c_{k&#45;1}&#45;&gt;2 -->
<g id="edge5" class="edge"><title>c_{k&#45;1}&#45;&gt;2</title>
<path fill="none" stroke="black" d="M525.861,-362.348C539.355,-357.12 552.897,-349.136 561.182,-337 567.226,-328.145 571.187,-181.575 572.602,-119.465"/>
<polygon fill="gray" stroke="black" points="576.106,-119.315 572.829,-109.239 569.108,-119.159 576.106,-119.315"/>
<text text-anchor="middle" x="653.682" y="-227" font-family="times" font-size="20.00">donw_atrous_conv</text>
</g>
<!-- c_{k&#45;1}&#45;&gt;3 -->
<g id="edge7" class="edge"><title>c_{k&#45;1}&#45;&gt;3</title>
<path fill="none" stroke="black" d="M440.611,-371.49C378.461,-369.846 267.123,-363.21 238.182,-337 229.968,-329.561 226.206,-318.156 224.596,-307.497"/>
<polygon fill="gray" stroke="black" points="228.054,-306.883 223.618,-297.262 221.085,-307.549 228.054,-306.883"/>
<text text-anchor="middle" x="310.182" y="-321" font-family="times" font-size="20.00">down_sep_conv</text>
</g>
<!-- 0&#45;&gt;1 -->
<g id="edge4" class="edge"><title>0&#45;&gt;1</title>
<path fill="none" stroke="black" d="M400.579,-260.878C408.736,-247.746 421.802,-230.338 438.182,-221 471.132,-202.216 581.421,-191.878 633.93,-187.915"/>
<polygon fill="gray" stroke="black" points="634.197,-191.405 643.915,-187.186 633.687,-184.424 634.197,-191.405"/>
<text text-anchor="middle" x="494.682" y="-227" font-family="times" font-size="20.00">shuffle_conv</text>
</g>
<!-- c_{k} -->
<g id="node7" class="node"><title>c_{k}</title>
<polygon fill="palegoldenrod" stroke="black" stroke-width="2" points="474.182,-36 408.182,-36 408.182,-0 474.182,-0 474.182,-36"/>
<text text-anchor="middle" x="441.182" y="-13" font-family="times" font-size="20.00">c_{k}</text>
</g>
<!-- 0&#45;&gt;c_{k} -->
<g id="edge9" class="edge"><title>0&#45;&gt;c_{k}</title>
<path fill="none" stroke="black" d="M394.54,-260.604C403.062,-216.462 425.578,-99.8288 435.889,-46.4152"/>
<polygon fill="gray" stroke="black" points="439.379,-46.8023 437.838,-36.3202 432.506,-45.4754 439.379,-46.8023"/>
</g>
<!-- 1&#45;&gt;2 -->
<g id="edge6" class="edge"><title>1&#45;&gt;2</title>
<path fill="none" stroke="black" d="M644.071,-175.279C632.541,-169.093 617.829,-159.959 607.182,-149 598.514,-140.078 591.11,-128.545 585.446,-118.189"/>
<polygon fill="gray" stroke="black" points="588.455,-116.388 580.747,-109.118 582.239,-119.608 588.455,-116.388"/>
<text text-anchor="middle" x="649.182" y="-133" font-family="times" font-size="20.00">sep_conv</text>
</g>
<!-- 1&#45;&gt;c_{k} -->
<g id="edge10" class="edge"><title>1&#45;&gt;c_{k}</title>
<path fill="none" stroke="black" d="M680.249,-166.818C690.002,-155.389 698.653,-140.122 691.182,-127 649.47,-53.7458 544.594,-30.1427 484.77,-22.5632"/>
<polygon fill="gray" stroke="black" points="484.843,-19.048 474.505,-21.3639 484.031,-26.0007 484.843,-19.048"/>
</g>
<!-- 2&#45;&gt;c_{k} -->
<g id="edge11" class="edge"><title>2&#45;&gt;c_{k}</title>
<path fill="none" stroke="black" d="M555.104,-80.2766C536.384,-70.2074 506.504,-54.1352 482.041,-40.9772"/>
<polygon fill="gray" stroke="black" points="483.43,-37.7502 472.965,-36.0956 480.114,-43.915 483.43,-37.7502"/>
</g>
<!-- 3&#45;&gt;c_{k} -->
<g id="edge12" class="edge"><title>3&#45;&gt;c_{k}</title>
<path fill="none" stroke="black" d="M238.757,-260.604C276.281,-215.817 376.329,-96.4044 420.14,-44.1144"/>
<polygon fill="gray" stroke="black" points="422.931,-46.2332 426.67,-36.3202 417.565,-41.7376 422.931,-46.2332"/>
</g>
</g>
</svg>
