<?xml version="1.0" encoding="UTF-8" standalone="no"?>
<!DOCTYPE svg PUBLIC "-//W3C//DTD SVG 1.1//EN"
 "http://www.w3.org/Graphics/SVG/1.1/DTD/svg11.dtd">
<!-- Generated by graphviz version 2.38.0 (20140413.2041)
 -->
<!-- Title: %3 Pages: 1 -->
<svg width="717pt" height="399pt"
 viewBox="0.00 0.00 717.18 399.00" xmlns="http://www.w3.org/2000/svg" xmlns:xlink="http://www.w3.org/1999/xlink">
<g id="graph0" class="graph" transform="scale(1 1) rotate(0) translate(4 395)">
<title>%3</title>
<polygon fill="white" stroke="none" points="-4,4 -4,-395 713.182,-395 713.182,4 -4,4"/>
<!-- c_{k&#45;2} -->
<g id="node1" class="node"><title>c_{k&#45;2}</title>
<polygon fill="#b4eeb4" stroke="black" stroke-width="2" points="90.6817,-391 5.68169,-391 5.68169,-355 90.6817,-355 90.6817,-391"/>
<text text-anchor="middle" x="48.1817" y="-368" font-family="times" font-size="20.00">c_{k&#45;2}</text>
</g>
<!-- 0 -->
<g id="node3" class="node"><title>0</title>
<polygon fill="lightblue" stroke="black" stroke-width="2" points="356.182,-297 320.182,-297 320.182,-261 356.182,-261 356.182,-297"/>
<text text-anchor="middle" x="338.182" y="-274" font-family="times" font-size="20.00">0</text>
</g>
<!-- c_{k&#45;2}&#45;&gt;0 -->
<g id="edge2" class="edge"><title>c_{k&#45;2}&#45;&gt;0</title>
<path fill="none" stroke="black" d="M61.4979,-354.996C72.9028,-341.749 90.5589,-324.123 110.182,-315 167.468,-288.366 188.813,-307.063 251.182,-297 270.935,-293.813 293.065,-289.478 310.061,-285.983"/>
<polygon fill="gray" stroke="black" points="310.836,-289.397 319.914,-283.934 309.411,-282.544 310.836,-289.397"/>
<text text-anchor="middle" x="164.682" y="-321" font-family="times" font-size="20.00">atrous_conv</text>
</g>
<!-- 3 -->
<g id="node6" class="node"><title>3</title>
<polygon fill="lightblue" stroke="black" stroke-width="2" points="242.182,-297 206.182,-297 206.182,-261 242.182,-261 242.182,-297"/>
<text text-anchor="middle" x="224.182" y="-274" font-family="times" font-size="20.00">3</text>
</g>
<!-- c_{k&#45;2}&#45;&gt;3 -->
<g id="edge8" class="edge"><title>c_{k&#45;2}&#45;&gt;3</title>
<path fill="none" stroke="black" d="M21.2908,-354.946C6.44633,-343.435 -6.93669,-328.027 4.18169,-315 28.4927,-286.516 141.919,-281.098 195.721,-280.148"/>
<polygon fill="gray" stroke="black" points="195.992,-283.645 205.943,-280.01 195.897,-276.646 195.992,-283.645"/>
<text text-anchor="middle" x="37.1817" y="-321" font-family="times" font-size="20.00">identity</text>
</g>
<!-- c_{k&#45;1} -->
<g id="node2" class="node"><title>c_{k&#45;1}</title>
<polygon fill="#b4eeb4" stroke="black" stroke-width="2" points="466.682,-391 381.682,-391 381.682,-355 466.682,-355 466.682,-391"/>
<text text-anchor="middle" x="424.182" y="-368" font-family="times" font-size="20.00">c_{k&#45;1}</text>
</g>
<!-- c_{k&#45;1}&#45;&gt;0 -->
<g id="edge1" class="edge"><title>c_{k&#45;1}&#45;&gt;0</title>
<path fill="none" stroke="black" d="M381.763,-354.943C373.453,-350.108 365.399,-344.162 359.182,-337 351.819,-328.519 346.948,-317.229 343.769,-306.936"/>
<polygon fill="gray" stroke="black" points="347.105,-305.862 341.126,-297.115 340.345,-307.681 347.105,-305.862"/>
<text text-anchor="middle" x="418.182" y="-321" font-family="times" font-size="20.00">up_sep_conv</text>
</g>
<!-- 1 -->
<g id="node4" class="node"><title>1</title>
<polygon fill="lightblue" stroke="black" stroke-width="2" points="598.182,-203 562.182,-203 562.182,-167 598.182,-167 598.182,-203"/>
<text text-anchor="middle" x="580.182" y="-180" font-family="times" font-size="20.00">1</text>
</g>
<!-- c_{k&#45;1}&#45;&gt;1 -->
<g id="edge4" class="edge"><title>c_{k&#45;1}&#45;&gt;1</title>
<path fill="none" stroke="black" d="M466.698,-357.627C512.834,-339.337 583.483,-302.736 610.182,-243 614.171,-234.073 613.574,-230.17 610.182,-221 608.785,-217.224 606.778,-213.58 604.455,-210.162"/>
<polygon fill="gray" stroke="black" points="607.124,-207.893 598.198,-202.186 601.617,-212.214 607.124,-207.893"/>
<text text-anchor="middle" x="653.682" y="-274" font-family="times" font-size="20.00">up_att_conv</text>
</g>
<!-- 2 -->
<g id="node5" class="node"><title>2</title>
<polygon fill="lightblue" stroke="black" stroke-width="2" points="509.182,-109 473.182,-109 473.182,-73 509.182,-73 509.182,-109"/>
<text text-anchor="middle" x="491.182" y="-86" font-family="times" font-size="20.00">2</text>
</g>
<!-- c_{k&#45;1}&#45;&gt;2 -->
<g id="edge5" class="edge"><title>c_{k&#45;1}&#45;&gt;2</title>
<path fill="none" stroke="black" d="M460.286,-354.807C466.967,-349.981 473.112,-344.073 477.182,-337 482.531,-327.703 488.129,-181.387 490.273,-119.405"/>
<polygon fill="gray" stroke="black" points="493.778,-119.314 490.621,-109.201 486.782,-119.075 493.778,-119.314"/>
<text text-anchor="middle" x="545.182" y="-227" font-family="times" font-size="20.00">up_sep_conv</text>
</g>
<!-- c_{k&#45;1}&#45;&gt;3 -->
<g id="edge7" class="edge"><title>c_{k&#45;1}&#45;&gt;3</title>
<path fill="none" stroke="black" d="M381.372,-369.899C331.171,-366.495 252.243,-357.899 232.182,-337 224.708,-329.214 222.116,-317.853 221.618,-307.319"/>
<polygon fill="gray" stroke="black" points="225.118,-307.256 221.714,-297.223 218.119,-307.19 225.118,-307.256"/>
<text text-anchor="middle" x="287.682" y="-321" font-family="times" font-size="20.00">up_att_conv</text>
</g>
<!-- 0&#45;&gt;1 -->
<g id="edge3" class="edge"><title>0&#45;&gt;1</title>
<path fill="none" stroke="black" d="M338.931,-260.942C340.452,-248.026 344.691,-230.876 356.182,-221 385.086,-196.158 498.445,-188.872 551.942,-186.796"/>
<polygon fill="gray" stroke="black" points="552.229,-190.288 562.099,-186.437 551.982,-183.293 552.229,-190.288"/>
<text text-anchor="middle" x="412.682" y="-227" font-family="times" font-size="20.00">shuffle_conv</text>
</g>
<!-- c_{k} -->
<g id="node7" class="node"><title>c_{k}</title>
<polygon fill="palegoldenrod" stroke="black" stroke-width="2" points="403.182,-36 337.182,-36 337.182,-0 403.182,-0 403.182,-36"/>
<text text-anchor="middle" x="370.182" y="-13" font-family="times" font-size="20.00">c_{k}</text>
</g>
<!-- 0&#45;&gt;c_{k} -->
<g id="edge9" class="edge"><title>0&#45;&gt;c_{k}</title>
<path fill="none" stroke="black" d="M337.881,-260.758C337.832,-249.436 338.049,-234.313 339.182,-221 344.545,-157.987 357.468,-84.7962 364.823,-46.1473"/>
<polygon fill="gray" stroke="black" points="368.285,-46.6809 366.74,-36.1994 361.411,-45.3569 368.285,-46.6809"/>
</g>
<!-- 1&#45;&gt;2 -->
<g id="edge6" class="edge"><title>1&#45;&gt;2</title>
<path fill="none" stroke="black" d="M562.071,-175.279C550.541,-169.093 535.829,-159.959 525.182,-149 516.514,-140.078 509.11,-128.545 503.446,-118.189"/>
<polygon fill="gray" stroke="black" points="506.455,-116.388 498.747,-109.118 500.239,-119.608 506.455,-116.388"/>
<text text-anchor="middle" x="567.182" y="-133" font-family="times" font-size="20.00">sep_conv</text>
</g>
<!-- 1&#45;&gt;c_{k} -->
<g id="edge10" class="edge"><title>1&#45;&gt;c_{k}</title>
<path fill="none" stroke="black" d="M598.249,-166.818C608.002,-155.389 616.653,-140.122 609.182,-127 569.413,-57.1571 470.861,-32.2832 413.495,-23.5701"/>
<polygon fill="gray" stroke="black" points="413.678,-20.0612 403.286,-22.1241 412.696,-26.992 413.678,-20.0612"/>
</g>
<!-- 2&#45;&gt;c_{k} -->
<g id="edge11" class="edge"><title>2&#45;&gt;c_{k}</title>
<path fill="none" stroke="black" d="M473.067,-79.3706C455.915,-69.3065 429.631,-53.8832 407.922,-41.1453"/>
<polygon fill="gray" stroke="black" points="409.642,-38.0965 399.246,-36.0543 406.1,-44.1338 409.642,-38.0965"/>
</g>
<!-- 3&#45;&gt;c_{k} -->
<g id="edge12" class="edge"><title>3&#45;&gt;c_{k}</title>
<path fill="none" stroke="black" d="M233.988,-260.604C259.079,-216.094 325.719,-97.8758 355.474,-45.0903"/>
<polygon fill="gray" stroke="black" points="358.556,-46.7502 360.418,-36.3202 352.459,-43.3127 358.556,-46.7502"/>
</g>
</g>
</svg>
