<?xml version="1.0" encoding="UTF-8" standalone="no"?>
<!DOCTYPE svg PUBLIC "-//W3C//DTD SVG 1.1//EN"
 "http://www.w3.org/Graphics/SVG/1.1/DTD/svg11.dtd">
<!-- Generated by graphviz version 2.38.0 (20140413.2041)
 -->
<!-- Title: %3 Pages: 1 -->
<svg width="660pt" height="399pt"
 viewBox="0.00 0.00 659.50 399.00" xmlns="http://www.w3.org/2000/svg" xmlns:xlink="http://www.w3.org/1999/xlink">
<g id="graph0" class="graph" transform="scale(1 1) rotate(0) translate(4 395)">
<title>%3</title>
<polygon fill="white" stroke="none" points="-4,4 -4,-395 655.5,-395 655.5,4 -4,4"/>
<!-- c_{k&#45;2} -->
<g id="node1" class="node"><title>c_{k&#45;2}</title>
<polygon fill="#b4eeb4" stroke="black" stroke-width="2" points="85,-391 0,-391 0,-355 85,-355 85,-391"/>
<text text-anchor="middle" x="42.5" y="-368" font-family="times" font-size="20.00">c_{k&#45;2}</text>
</g>
<!-- 0 -->
<g id="node3" class="node"><title>0</title>
<polygon fill="lightblue" stroke="black" stroke-width="2" points="125.5,-297 89.5,-297 89.5,-261 125.5,-261 125.5,-297"/>
<text text-anchor="middle" x="107.5" y="-274" font-family="times" font-size="20.00">0</text>
</g>
<!-- c_{k&#45;2}&#45;&gt;0 -->
<g id="edge1" class="edge"><title>c_{k&#45;2}&#45;&gt;0</title>
<path fill="none" stroke="black" d="M38.5129,-354.799C36.7023,-342.792 36.3291,-326.856 43.5,-315 51.4384,-301.875 66.1922,-293.334 79.5349,-287.979"/>
<polygon fill="gray" stroke="black" points="81.0871,-291.141 89.3269,-284.481 78.7322,-284.549 81.0871,-291.141"/>
<text text-anchor="middle" x="64.5" y="-321" font-family="times" font-size="20.00">conv</text>
</g>
<!-- c_{k&#45;1} -->
<g id="node2" class="node"><title>c_{k&#45;1}</title>
<polygon fill="#b4eeb4" stroke="black" stroke-width="2" points="334,-391 249,-391 249,-355 334,-355 334,-391"/>
<text text-anchor="middle" x="291.5" y="-368" font-family="times" font-size="20.00">c_{k&#45;1}</text>
</g>
<!-- c_{k&#45;1}&#45;&gt;0 -->
<g id="edge2" class="edge"><title>c_{k&#45;1}&#45;&gt;0</title>
<path fill="none" stroke="black" d="M248.986,-369.896C200.655,-366.517 126.154,-357.973 108.5,-337 101.664,-328.879 100.381,-317.558 101.197,-307.144"/>
<polygon fill="gray" stroke="black" points="104.671,-307.572 102.585,-297.184 97.738,-306.605 104.671,-307.572"/>
<text text-anchor="middle" x="193" y="-321" font-family="times" font-size="20.00">donw_atrous_conv</text>
</g>
<!-- 1 -->
<g id="node4" class="node"><title>1</title>
<polygon fill="lightblue" stroke="black" stroke-width="2" points="309.5,-203 273.5,-203 273.5,-167 309.5,-167 309.5,-203"/>
<text text-anchor="middle" x="291.5" y="-180" font-family="times" font-size="20.00">1</text>
</g>
<!-- c_{k&#45;1}&#45;&gt;1 -->
<g id="edge3" class="edge"><title>c_{k&#45;1}&#45;&gt;1</title>
<path fill="none" stroke="black" d="M291.5,-354.835C291.5,-322.446 291.5,-252.087 291.5,-213.2"/>
<polygon fill="gray" stroke="black" points="295,-213.124 291.5,-203.124 288,-213.124 295,-213.124"/>
<text text-anchor="middle" x="376" y="-274" font-family="times" font-size="20.00">donw_atrous_conv</text>
</g>
<!-- 2 -->
<g id="node5" class="node"><title>2</title>
<polygon fill="lightblue" stroke="black" stroke-width="2" points="356.5,-109 320.5,-109 320.5,-73 356.5,-73 356.5,-109"/>
<text text-anchor="middle" x="338.5" y="-86" font-family="times" font-size="20.00">2</text>
</g>
<!-- c_{k&#45;1}&#45;&gt;2 -->
<g id="edge5" class="edge"><title>c_{k&#45;1}&#45;&gt;2</title>
<path fill="none" stroke="black" d="M334.113,-366.742C375.366,-359.137 435.758,-340.787 464.5,-297 490.458,-257.454 496.902,-195.429 437.5,-127 419.755,-106.559 389.289,-98.0555 366.829,-94.5184"/>
<polygon fill="gray" stroke="black" points="367.218,-91.0394 356.843,-93.1839 366.291,-97.9777 367.218,-91.0394"/>
<text text-anchor="middle" x="567" y="-227" font-family="times" font-size="20.00">donw_atrous_conv</text>
</g>
<!-- 0&#45;&gt;1 -->
<g id="edge4" class="edge"><title>0&#45;&gt;1</title>
<path fill="none" stroke="black" d="M125.401,-260.841C142.459,-244.557 165.921,-222.364 168.5,-221 200.717,-203.964 213.671,-213.732 248.5,-203 253.549,-201.444 258.844,-199.565 263.924,-197.631"/>
<polygon fill="gray" stroke="black" points="265.3,-200.851 273.31,-193.916 262.723,-194.342 265.3,-200.851"/>
<text text-anchor="middle" x="223" y="-227" font-family="times" font-size="20.00">atrous_conv</text>
</g>
<!-- 3 -->
<g id="node6" class="node"><title>3</title>
<polygon fill="lightblue" stroke="black" stroke-width="2" points="182.5,-109 146.5,-109 146.5,-73 182.5,-73 182.5,-109"/>
<text text-anchor="middle" x="164.5" y="-86" font-family="times" font-size="20.00">3</text>
</g>
<!-- 0&#45;&gt;3 -->
<g id="edge7" class="edge"><title>0&#45;&gt;3</title>
<path fill="none" stroke="black" d="M112.694,-260.774C121.164,-232.722 138.512,-175.433 153.5,-127 154.319,-124.353 155.177,-121.595 156.038,-118.84"/>
<polygon fill="gray" stroke="black" points="159.446,-119.67 159.099,-109.08 152.767,-117.575 159.446,-119.67"/>
<text text-anchor="middle" x="197" y="-180" font-family="times" font-size="20.00">shuffle_conv</text>
</g>
<!-- c_{k} -->
<g id="node7" class="node"><title>c_{k}</title>
<polygon fill="palegoldenrod" stroke="black" stroke-width="2" points="286.5,-36 220.5,-36 220.5,-0 286.5,-0 286.5,-36"/>
<text text-anchor="middle" x="253.5" y="-13" font-family="times" font-size="20.00">c_{k}</text>
</g>
<!-- 0&#45;&gt;c_{k} -->
<g id="edge9" class="edge"><title>0&#45;&gt;c_{k}</title>
<path fill="none" stroke="black" d="M104.91,-260.812C100.164,-222.753 94.1904,-130.215 137.5,-73 155.195,-49.6237 185.476,-35.9979 210.663,-28.2822"/>
<polygon fill="gray" stroke="black" points="211.724,-31.6192 220.383,-25.513 209.806,-24.8871 211.724,-31.6192"/>
</g>
<!-- 1&#45;&gt;2 -->
<g id="edge6" class="edge"><title>1&#45;&gt;2</title>
<path fill="none" stroke="black" d="M300.34,-166.696C307.299,-153.074 317.113,-133.864 325.046,-118.336"/>
<polygon fill="gray" stroke="black" points="328.267,-119.724 329.699,-109.227 322.033,-116.54 328.267,-119.724"/>
<text text-anchor="middle" x="377" y="-133" font-family="times" font-size="20.00">shuffle_conv</text>
</g>
<!-- 1&#45;&gt;3 -->
<g id="edge8" class="edge"><title>1&#45;&gt;3</title>
<path fill="none" stroke="black" d="M273.319,-176.052C265.744,-172.94 256.795,-169.521 248.5,-167 212.384,-156.025 189.451,-178.174 165.5,-149 158.765,-140.796 157.497,-129.461 158.298,-119.06"/>
<polygon fill="gray" stroke="black" points="161.77,-119.502 159.663,-109.119 154.835,-118.55 161.77,-119.502"/>
<text text-anchor="middle" x="222" y="-133" font-family="times" font-size="20.00">shuffle_conv</text>
</g>
<!-- 1&#45;&gt;c_{k} -->
<g id="edge10" class="edge"><title>1&#45;&gt;c_{k}</title>
<path fill="none" stroke="black" d="M287.589,-166.786C285.016,-155.475 281.569,-140.354 278.5,-127 272.166,-99.436 264.866,-67.9296 259.796,-46.0898"/>
<polygon fill="gray" stroke="black" points="263.172,-45.1535 257.501,-36.2046 256.354,-46.7371 263.172,-45.1535"/>
</g>
<!-- 2&#45;&gt;c_{k} -->
<g id="edge11" class="edge"><title>2&#45;&gt;c_{k}</title>
<path fill="none" stroke="black" d="M324.691,-72.6542C319.336,-66.4345 312.947,-59.5849 306.5,-54 301.632,-49.783 296.227,-45.6684 290.783,-41.829"/>
<polygon fill="gray" stroke="black" points="292.506,-38.7687 282.267,-36.0469 288.574,-44.5599 292.506,-38.7687"/>
</g>
<!-- 3&#45;&gt;c_{k} -->
<g id="edge12" class="edge"><title>3&#45;&gt;c_{k}</title>
<path fill="none" stroke="black" d="M182.51,-75.6321C194.372,-66.1693 210.182,-53.557 223.871,-42.6368"/>
<polygon fill="gray" stroke="black" points="226.431,-45.0718 232.065,-36.0994 222.066,-39.5997 226.431,-45.0718"/>
</g>
</g>
</svg>
