<?xml version="1.0" encoding="UTF-8" standalone="no"?>
<!DOCTYPE svg PUBLIC "-//W3C//DTD SVG 1.1//EN"
 "http://www.w3.org/Graphics/SVG/1.1/DTD/svg11.dtd">
<!-- Generated by graphviz version 2.38.0 (20140413.2041)
 -->
<!-- Title: %3 Pages: 1 -->
<svg width="547pt" height="399pt"
 viewBox="0.00 0.00 546.61 399.00" xmlns="http://www.w3.org/2000/svg" xmlns:xlink="http://www.w3.org/1999/xlink">
<g id="graph0" class="graph" transform="scale(1 1) rotate(0) translate(4 395)">
<title>%3</title>
<polygon fill="white" stroke="none" points="-4,4 -4,-395 542.614,-395 542.614,4 -4,4"/>
<!-- c_{k&#45;2} -->
<g id="node1" class="node"><title>c_{k&#45;2}</title>
<polygon fill="#b4eeb4" stroke="black" stroke-width="2" points="140.114,-391 55.1137,-391 55.1137,-355 140.114,-355 140.114,-391"/>
<text text-anchor="middle" x="97.6137" y="-368" font-family="times" font-size="20.00">c_{k&#45;2}</text>
</g>
<!-- 0 -->
<g id="node3" class="node"><title>0</title>
<polygon fill="lightblue" stroke="black" stroke-width="2" points="272.614,-297 236.614,-297 236.614,-261 272.614,-261 272.614,-297"/>
<text text-anchor="middle" x="254.614" y="-274" font-family="times" font-size="20.00">0</text>
</g>
<!-- c_{k&#45;2}&#45;&gt;0 -->
<g id="edge2" class="edge"><title>c_{k&#45;2}&#45;&gt;0</title>
<path fill="none" stroke="black" d="M126.776,-354.911C155.617,-338.011 199.401,-312.354 227.506,-295.885"/>
<polygon fill="gray" stroke="black" points="229.533,-298.754 236.392,-290.678 225.994,-292.714 229.533,-298.754"/>
<text text-anchor="middle" x="215.614" y="-321" font-family="times" font-size="20.00">conv</text>
</g>
<!-- 1 -->
<g id="node4" class="node"><title>1</title>
<polygon fill="lightblue" stroke="black" stroke-width="2" points="131.614,-203 95.6137,-203 95.6137,-167 131.614,-167 131.614,-203"/>
<text text-anchor="middle" x="113.614" y="-180" font-family="times" font-size="20.00">1</text>
</g>
<!-- c_{k&#45;2}&#45;&gt;1 -->
<g id="edge4" class="edge"><title>c_{k&#45;2}&#45;&gt;1</title>
<path fill="none" stroke="black" d="M99.0903,-354.835C101.876,-322.446 107.929,-252.087 111.274,-213.2"/>
<polygon fill="gray" stroke="black" points="114.771,-213.387 112.141,-203.124 107.796,-212.787 114.771,-213.387"/>
<text text-anchor="middle" x="163.114" y="-274" font-family="times" font-size="20.00">shuffle_conv</text>
</g>
<!-- 2 -->
<g id="node5" class="node"><title>2</title>
<polygon fill="lightblue" stroke="black" stroke-width="2" points="106.614,-109 70.6137,-109 70.6137,-73 106.614,-73 106.614,-109"/>
<text text-anchor="middle" x="88.6137" y="-86" font-family="times" font-size="20.00">2</text>
</g>
<!-- c_{k&#45;2}&#45;&gt;2 -->
<g id="edge6" class="edge"><title>c_{k&#45;2}&#45;&gt;2</title>
<path fill="none" stroke="black" d="M79.455,-354.884C56.6052,-331.965 18.5457,-288.847 3.61374,-243 -12.5496,-193.372 32.2362,-141.657 62.7823,-113.478"/>
<polygon fill="gray" stroke="black" points="65.4568,-115.782 70.5764,-106.506 60.7898,-110.564 65.4568,-115.782"/>
<text text-anchor="middle" x="54.1137" y="-227" font-family="times" font-size="20.00">att_identity</text>
</g>
<!-- c_{k&#45;1} -->
<g id="node2" class="node"><title>c_{k&#45;1}</title>
<polygon fill="#b4eeb4" stroke="black" stroke-width="2" points="385.114,-391 300.114,-391 300.114,-355 385.114,-355 385.114,-391"/>
<text text-anchor="middle" x="342.614" y="-368" font-family="times" font-size="20.00">c_{k&#45;1}</text>
</g>
<!-- c_{k&#45;1}&#45;&gt;0 -->
<g id="edge1" class="edge"><title>c_{k&#45;1}&#45;&gt;0</title>
<path fill="none" stroke="black" d="M311.058,-354.984C303.177,-349.85 295.125,-343.758 288.614,-337 279.983,-328.042 272.586,-316.503 266.916,-306.153"/>
<polygon fill="gray" stroke="black" points="269.924,-304.351 262.209,-297.09 263.712,-307.578 269.924,-304.351"/>
<text text-anchor="middle" x="345.114" y="-321" font-family="times" font-size="20.00">shuffle_conv</text>
</g>
<!-- 3 -->
<g id="node6" class="node"><title>3</title>
<polygon fill="lightblue" stroke="black" stroke-width="2" points="318.614,-203 282.614,-203 282.614,-167 318.614,-167 318.614,-203"/>
<text text-anchor="middle" x="300.614" y="-180" font-family="times" font-size="20.00">3</text>
</g>
<!-- c_{k&#45;1}&#45;&gt;3 -->
<g id="edge7" class="edge"><title>c_{k&#45;1}&#45;&gt;3</title>
<path fill="none" stroke="black" d="M384.258,-354.892C391.207,-350.144 397.488,-344.244 401.614,-337 414.497,-314.378 451.798,-293.158 399.614,-221 383.494,-198.711 351.983,-190.537 328.825,-187.583"/>
<polygon fill="gray" stroke="black" points="329.162,-184.099 318.857,-186.561 328.448,-191.063 329.162,-184.099"/>
<text text-anchor="middle" x="482.114" y="-274" font-family="times" font-size="20.00">shuffle_conv</text>
</g>
<!-- 0&#45;&gt;1 -->
<g id="edge3" class="edge"><title>0&#45;&gt;1</title>
<path fill="none" stroke="black" d="M236.567,-269.477C229.789,-266.503 221.949,-263.331 214.614,-261 178.64,-249.567 159.508,-268.431 131.614,-243 123.187,-235.317 118.678,-223.728 116.276,-213.002"/>
<polygon fill="gray" stroke="black" points="119.722,-212.39 114.56,-203.138 112.826,-213.59 119.722,-212.39"/>
<text text-anchor="middle" x="186.114" y="-227" font-family="times" font-size="20.00">atrous_conv</text>
</g>
<!-- 0&#45;&gt;3 -->
<g id="edge8" class="edge"><title>0&#45;&gt;3</title>
<path fill="none" stroke="black" d="M263.266,-260.696C270.077,-247.074 279.682,-227.864 287.446,-212.336"/>
<polygon fill="gray" stroke="black" points="290.659,-213.736 292,-203.227 284.398,-210.606 290.659,-213.736"/>
<text text-anchor="middle" x="339.114" y="-227" font-family="times" font-size="20.00">shuffle_conv</text>
</g>
<!-- c_{k} -->
<g id="node7" class="node"><title>c_{k}</title>
<polygon fill="palegoldenrod" stroke="black" stroke-width="2" points="268.614,-36 202.614,-36 202.614,-0 268.614,-0 268.614,-36"/>
<text text-anchor="middle" x="235.614" y="-13" font-family="times" font-size="20.00">c_{k}</text>
</g>
<!-- 0&#45;&gt;c_{k} -->
<g id="edge9" class="edge"><title>0&#45;&gt;c_{k}</title>
<path fill="none" stroke="black" d="M254.006,-260.819C252.574,-223.239 248.501,-130.942 240.614,-54 240.351,-51.4354 240.04,-48.7703 239.703,-46.1066"/>
<polygon fill="gray" stroke="black" points="243.151,-45.4895 238.327,-36.0564 236.216,-46.4387 243.151,-45.4895"/>
</g>
<!-- 1&#45;&gt;2 -->
<g id="edge5" class="edge"><title>1&#45;&gt;2</title>
<path fill="none" stroke="black" d="M98.9731,-166.903C95.1977,-161.517 91.6322,-155.316 89.6137,-149 86.6149,-139.616 85.7969,-128.912 85.9172,-119.333"/>
<polygon fill="gray" stroke="black" points="89.4234,-119.276 86.3855,-109.126 82.4307,-118.956 89.4234,-119.276"/>
<text text-anchor="middle" x="146.114" y="-133" font-family="times" font-size="20.00">shuffle_conv</text>
</g>
<!-- 1&#45;&gt;c_{k} -->
<g id="edge10" class="edge"><title>1&#45;&gt;c_{k}</title>
<path fill="none" stroke="black" d="M131.758,-181.793C151.993,-178.359 184.282,-169.803 202.614,-149 227.732,-120.497 234.237,-75.5211 235.652,-46.6472"/>
<polygon fill="gray" stroke="black" points="239.157,-46.5424 235.973,-36.4373 232.16,-46.3223 239.157,-46.5424"/>
</g>
<!-- 2&#45;&gt;c_{k} -->
<g id="edge11" class="edge"><title>2&#45;&gt;c_{k}</title>
<path fill="none" stroke="black" d="M106.639,-81.294C128.154,-70.9025 164.83,-53.188 193.584,-39.2999"/>
<polygon fill="gray" stroke="black" points="195.13,-42.4402 202.613,-34.9393 192.086,-36.1369 195.13,-42.4402"/>
</g>
<!-- 3&#45;&gt;c_{k} -->
<g id="edge12" class="edge"><title>3&#45;&gt;c_{k}</title>
<path fill="none" stroke="black" d="M299.164,-166.577C296.4,-140.635 288.734,-90.9467 268.614,-54 266.692,-50.4703 264.326,-47.0309 261.751,-43.7724"/>
<polygon fill="gray" stroke="black" points="264.267,-41.3316 255.055,-36.0973 258.992,-45.9336 264.267,-41.3316"/>
</g>
</g>
</svg>
