<?xml version="1.0" encoding="UTF-8" standalone="no"?>
<!DOCTYPE svg PUBLIC "-//W3C//DTD SVG 1.1//EN"
 "http://www.w3.org/Graphics/SVG/1.1/DTD/svg11.dtd">
<!-- Generated by graphviz version 2.38.0 (20140413.2041)
 -->
<!-- Title: %3 Pages: 1 -->
<svg width="598pt" height="399pt"
 viewBox="0.00 0.00 597.50 399.00" xmlns="http://www.w3.org/2000/svg" xmlns:xlink="http://www.w3.org/1999/xlink">
<g id="graph0" class="graph" transform="scale(1 1) rotate(0) translate(4 395)">
<title>%3</title>
<polygon fill="white" stroke="none" points="-4,4 -4,-395 593.5,-395 593.5,4 -4,4"/>
<!-- c_{k&#45;2} -->
<g id="node1" class="node"><title>c_{k&#45;2}</title>
<polygon fill="#b4eeb4" stroke="black" stroke-width="2" points="85,-391 0,-391 0,-355 85,-355 85,-391"/>
<text text-anchor="middle" x="42.5" y="-368" font-family="times" font-size="20.00">c_{k&#45;2}</text>
</g>
<!-- 0 -->
<g id="node3" class="node"><title>0</title>
<polygon fill="lightblue" stroke="black" stroke-width="2" points="176.5,-297 140.5,-297 140.5,-261 176.5,-261 176.5,-297"/>
<text text-anchor="middle" x="158.5" y="-274" font-family="times" font-size="20.00">0</text>
</g>
<!-- c_{k&#45;2}&#45;&gt;0 -->
<g id="edge2" class="edge"><title>c_{k&#45;2}&#45;&gt;0</title>
<path fill="none" stroke="black" d="M37.6632,-354.881C35.2599,-342.443 34.5195,-325.939 43.5,-315 67.4509,-285.826 91.0543,-309.977 126.5,-297 127.94,-296.473 129.396,-295.892 130.851,-295.272"/>
<polygon fill="gray" stroke="black" points="132.761,-298.24 140.285,-290.78 129.751,-291.92 132.761,-298.24"/>
<text text-anchor="middle" x="64.5" y="-321" font-family="times" font-size="20.00">conv</text>
</g>
<!-- 1 -->
<g id="node4" class="node"><title>1</title>
<polygon fill="lightblue" stroke="black" stroke-width="2" points="487.5,-297 451.5,-297 451.5,-261 487.5,-261 487.5,-297"/>
<text text-anchor="middle" x="469.5" y="-274" font-family="times" font-size="20.00">1</text>
</g>
<!-- c_{k&#45;2}&#45;&gt;1 -->
<g id="edge3" class="edge"><title>c_{k&#45;2}&#45;&gt;1</title>
<path fill="none" stroke="black" d="M85.279,-369.165C132.963,-365.195 211.986,-356.189 277.5,-337 300.41,-330.29 303.924,-322.759 326.5,-315 365.465,-301.609 412.06,-291.204 441.226,-285.335"/>
<polygon fill="gray" stroke="black" points="442.002,-288.749 451.136,-283.38 440.647,-281.882 442.002,-288.749"/>
<text text-anchor="middle" x="383" y="-321" font-family="times" font-size="20.00">shuffle_conv</text>
</g>
<!-- 2 -->
<g id="node5" class="node"><title>2</title>
<polygon fill="lightblue" stroke="black" stroke-width="2" points="176.5,-203 140.5,-203 140.5,-167 176.5,-167 176.5,-203"/>
<text text-anchor="middle" x="158.5" y="-180" font-family="times" font-size="20.00">2</text>
</g>
<!-- c_{k&#45;2}&#45;&gt;2 -->
<g id="edge5" class="edge"><title>c_{k&#45;2}&#45;&gt;2</title>
<path fill="none" stroke="black" d="M31.7112,-354.978C18.7027,-332.072 0.674348,-290.772 18.5,-261 42.6567,-220.654 96.7599,-200.779 130.189,-192.005"/>
<polygon fill="gray" stroke="black" points="131.375,-195.318 140.252,-189.535 129.706,-188.52 131.375,-195.318"/>
<text text-anchor="middle" x="75" y="-274" font-family="times" font-size="20.00">shuffle_conv</text>
</g>
<!-- c_{k&#45;1} -->
<g id="node2" class="node"><title>c_{k&#45;1}</title>
<polygon fill="#b4eeb4" stroke="black" stroke-width="2" points="470,-391 385,-391 385,-355 470,-355 470,-391"/>
<text text-anchor="middle" x="427.5" y="-368" font-family="times" font-size="20.00">c_{k&#45;1}</text>
</g>
<!-- c_{k&#45;1}&#45;&gt;0 -->
<g id="edge1" class="edge"><title>c_{k&#45;1}&#45;&gt;0</title>
<path fill="none" stroke="black" d="M384.883,-370.43C302.228,-366.946 126.628,-357.226 108.5,-337 95.6645,-322.679 113.763,-306.14 131.668,-294.579"/>
<polygon fill="gray" stroke="black" points="133.575,-297.516 140.306,-289.334 129.942,-291.532 133.575,-297.516"/>
<text text-anchor="middle" x="193" y="-321" font-family="times" font-size="20.00">donw_atrous_conv</text>
</g>
<!-- c_{k&#45;1}&#45;&gt;1 -->
<g id="edge4" class="edge"><title>c_{k&#45;1}&#45;&gt;1</title>
<path fill="none" stroke="black" d="M435.4,-354.696C441.618,-341.074 450.388,-321.864 457.477,-306.336"/>
<polygon fill="gray" stroke="black" points="460.666,-307.777 461.636,-297.227 454.299,-304.87 460.666,-307.777"/>
<text text-anchor="middle" x="521" y="-321" font-family="times" font-size="20.00">down_att_conv</text>
</g>
<!-- 3 -->
<g id="node6" class="node"><title>3</title>
<polygon fill="lightblue" stroke="black" stroke-width="2" points="383.5,-109 347.5,-109 347.5,-73 383.5,-73 383.5,-109"/>
<text text-anchor="middle" x="365.5" y="-86" font-family="times" font-size="20.00">3</text>
</g>
<!-- c_{k&#45;1}&#45;&gt;3 -->
<g id="edge7" class="edge"><title>c_{k&#45;1}&#45;&gt;3</title>
<path fill="none" stroke="black" d="M423.715,-354.906C413.317,-307.946 384.245,-176.654 371.554,-119.343"/>
<polygon fill="gray" stroke="black" points="374.894,-118.233 369.314,-109.226 368.059,-119.746 374.894,-118.233"/>
<text text-anchor="middle" x="449.5" y="-227" font-family="times" font-size="20.00">down_conv</text>
</g>
<!-- 0&#45;&gt;2 -->
<g id="edge6" class="edge"><title>0&#45;&gt;2</title>
<path fill="none" stroke="black" d="M158.5,-260.696C158.5,-247.46 158.5,-228.947 158.5,-213.663"/>
<polygon fill="gray" stroke="black" points="162,-213.227 158.5,-203.227 155,-213.227 162,-213.227"/>
<text text-anchor="middle" x="200.5" y="-227" font-family="times" font-size="20.00">sep_conv</text>
</g>
<!-- c_{k} -->
<g id="node7" class="node"><title>c_{k}</title>
<polygon fill="palegoldenrod" stroke="black" stroke-width="2" points="370.5,-36 304.5,-36 304.5,-0 370.5,-0 370.5,-36"/>
<text text-anchor="middle" x="337.5" y="-13" font-family="times" font-size="20.00">c_{k}</text>
</g>
<!-- 0&#45;&gt;c_{k} -->
<g id="edge9" class="edge"><title>0&#45;&gt;c_{k}</title>
<path fill="none" stroke="black" d="M176.749,-274.289C195.861,-269.65 225.906,-260.15 246.5,-243 307.545,-192.162 328.066,-94.0654 334.617,-46.3709"/>
<polygon fill="gray" stroke="black" points="338.122,-46.5495 335.906,-36.1891 331.178,-45.6703 338.122,-46.5495"/>
</g>
<!-- 1&#45;&gt;c_{k} -->
<g id="edge10" class="edge"><title>1&#45;&gt;c_{k}</title>
<path fill="none" stroke="black" d="M487.507,-265.029C494.164,-259.143 500.948,-251.574 504.5,-243 508.242,-233.967 507.612,-230.269 504.5,-221 478.757,-144.324 408.249,-76.739 367.552,-42.5878"/>
<polygon fill="gray" stroke="black" points="369.53,-39.6815 359.59,-36.0135 365.073,-45.0794 369.53,-39.6815"/>
</g>
<!-- 2&#45;&gt;3 -->
<g id="edge8" class="edge"><title>2&#45;&gt;3</title>
<path fill="none" stroke="black" d="M176.508,-175.997C212.827,-159.855 295.054,-123.31 338.084,-104.185"/>
<polygon fill="gray" stroke="black" points="339.67,-107.31 347.386,-100.05 336.827,-100.914 339.67,-107.31"/>
<text text-anchor="middle" x="343" y="-133" font-family="times" font-size="20.00">shuffle_conv</text>
</g>
<!-- 2&#45;&gt;c_{k} -->
<g id="edge11" class="edge"><title>2&#45;&gt;c_{k}</title>
<path fill="none" stroke="black" d="M176.649,-167.271C208.595,-137.823 274.96,-76.6485 311.674,-42.8057"/>
<polygon fill="gray" stroke="black" points="314.055,-45.3714 319.036,-36.0202 309.311,-40.2244 314.055,-45.3714"/>
</g>
<!-- 3&#45;&gt;c_{k} -->
<g id="edge12" class="edge"><title>3&#45;&gt;c_{k}</title>
<path fill="none" stroke="black" d="M358.722,-72.8129C355.489,-64.6151 351.549,-54.6231 347.945,-45.4847"/>
<polygon fill="gray" stroke="black" points="351.14,-44.0475 344.216,-36.0288 344.628,-46.6156 351.14,-44.0475"/>
</g>
</g>
</svg>
