<?xml version="1.0" encoding="UTF-8" standalone="no"?>
<!DOCTYPE svg PUBLIC "-//W3C//DTD SVG 1.1//EN"
 "http://www.w3.org/Graphics/SVG/1.1/DTD/svg11.dtd">
<!-- Generated by graphviz version 2.38.0 (20140413.2041)
 -->
<!-- Title: %3 Pages: 1 -->
<svg width="632pt" height="493pt"
 viewBox="0.00 0.00 631.50 493.00" xmlns="http://www.w3.org/2000/svg" xmlns:xlink="http://www.w3.org/1999/xlink">
<g id="graph0" class="graph" transform="scale(1 1) rotate(0) translate(4 489)">
<title>%3</title>
<polygon fill="white" stroke="none" points="-4,4 -4,-489 627.5,-489 627.5,4 -4,4"/>
<!-- c_{k&#45;2} -->
<g id="node1" class="node"><title>c_{k&#45;2}</title>
<polygon fill="#b4eeb4" stroke="black" stroke-width="2" points="85,-485 0,-485 0,-449 85,-449 85,-485"/>
<text text-anchor="middle" x="42.5" y="-462" font-family="times" font-size="20.00">c_{k&#45;2}</text>
</g>
<!-- 0 -->
<g id="node3" class="node"><title>0</title>
<polygon fill="lightblue" stroke="black" stroke-width="2" points="176.5,-391 140.5,-391 140.5,-355 176.5,-355 176.5,-391"/>
<text text-anchor="middle" x="158.5" y="-368" font-family="times" font-size="20.00">0</text>
</g>
<!-- c_{k&#45;2}&#45;&gt;0 -->
<g id="edge2" class="edge"><title>c_{k&#45;2}&#45;&gt;0</title>
<path fill="none" stroke="black" d="M37.882,-448.831C35.6526,-436.529 35.0343,-420.218 43.5,-409 63.4759,-382.528 102.962,-375.435 130.041,-373.861"/>
<polygon fill="gray" stroke="black" points="130.229,-377.357 140.094,-373.494 129.973,-370.362 130.229,-377.357"/>
<text text-anchor="middle" x="94" y="-415" font-family="times" font-size="20.00">att_identity</text>
</g>
<!-- c_{k&#45;1} -->
<g id="node2" class="node"><title>c_{k&#45;1}</title>
<polygon fill="#b4eeb4" stroke="black" stroke-width="2" points="326,-485 241,-485 241,-449 326,-449 326,-485"/>
<text text-anchor="middle" x="283.5" y="-462" font-family="times" font-size="20.00">c_{k&#45;1}</text>
</g>
<!-- c_{k&#45;1}&#45;&gt;0 -->
<g id="edge1" class="edge"><title>c_{k&#45;1}&#45;&gt;0</title>
<path fill="none" stroke="black" d="M240.779,-464.01C215.792,-460.513 185.681,-451.848 167.5,-431 160.511,-422.986 157.771,-411.82 156.957,-401.493"/>
<polygon fill="gray" stroke="black" points="160.449,-401.115 156.709,-391.202 153.451,-401.283 160.449,-401.115"/>
<text text-anchor="middle" x="218.5" y="-415" font-family="times" font-size="20.00">down_conv</text>
</g>
<!-- 1 -->
<g id="node4" class="node"><title>1</title>
<polygon fill="lightblue" stroke="black" stroke-width="2" points="267.5,-297 231.5,-297 231.5,-261 267.5,-261 267.5,-297"/>
<text text-anchor="middle" x="249.5" y="-274" font-family="times" font-size="20.00">1</text>
</g>
<!-- c_{k&#45;1}&#45;&gt;1 -->
<g id="edge4" class="edge"><title>c_{k&#45;1}&#45;&gt;1</title>
<path fill="none" stroke="black" d="M284.239,-448.779C284.953,-420.25 284.243,-361.698 269.5,-315 268.561,-312.026 267.343,-309.027 265.971,-306.101"/>
<polygon fill="gray" stroke="black" points="268.993,-304.329 261.221,-297.129 262.807,-307.604 268.993,-304.329"/>
<text text-anchor="middle" x="351" y="-368" font-family="times" font-size="20.00">down_att_conv</text>
</g>
<!-- 2 -->
<g id="node5" class="node"><title>2</title>
<polygon fill="lightblue" stroke="black" stroke-width="2" points="418.5,-203 382.5,-203 382.5,-167 418.5,-167 418.5,-203"/>
<text text-anchor="middle" x="400.5" y="-180" font-family="times" font-size="20.00">2</text>
</g>
<!-- c_{k&#45;1}&#45;&gt;2 -->
<g id="edge6" class="edge"><title>c_{k&#45;1}&#45;&gt;2</title>
<path fill="none" stroke="black" d="M326.01,-455.269C358.521,-444.666 401.403,-424.98 423.5,-391 464.776,-327.527 462.967,-291.158 434.5,-221 432.481,-216.025 429.379,-211.368 425.852,-207.177"/>
<polygon fill="gray" stroke="black" points="428.166,-204.533 418.722,-199.73 423.109,-209.374 428.166,-204.533"/>
<text text-anchor="middle" x="539" y="-321" font-family="times" font-size="20.00">donw_atrous_conv</text>
</g>
<!-- 0&#45;&gt;1 -->
<g id="edge3" class="edge"><title>0&#45;&gt;1</title>
<path fill="none" stroke="black" d="M163.446,-354.885C167.689,-342.61 174.829,-326.309 185.5,-315 195.512,-304.389 209.474,-296.24 221.803,-290.486"/>
<polygon fill="gray" stroke="black" points="223.46,-293.582 231.234,-286.384 220.668,-287.163 223.46,-293.582"/>
<text text-anchor="middle" x="227.5" y="-321" font-family="times" font-size="20.00">sep_conv</text>
</g>
<!-- c_{k} -->
<g id="node7" class="node"><title>c_{k}</title>
<polygon fill="palegoldenrod" stroke="black" stroke-width="2" points="254.5,-36 188.5,-36 188.5,-0 254.5,-0 254.5,-36"/>
<text text-anchor="middle" x="221.5" y="-13" font-family="times" font-size="20.00">c_{k}</text>
</g>
<!-- 0&#45;&gt;c_{k} -->
<g id="edge9" class="edge"><title>0&#45;&gt;c_{k}</title>
<path fill="none" stroke="black" d="M156.4,-354.734C154.338,-336.268 151.5,-306.11 151.5,-280 151.5,-280 151.5,-280 151.5,-90 151.5,-70.2479 165.408,-53.9978 180.825,-42.0522"/>
<polygon fill="gray" stroke="black" points="182.884,-44.8824 188.959,-36.2021 178.797,-39.1995 182.884,-44.8824"/>
</g>
<!-- 1&#45;&gt;2 -->
<g id="edge5" class="edge"><title>1&#45;&gt;2</title>
<path fill="none" stroke="black" d="M267.792,-262.579C282.733,-250.41 304.706,-233.466 325.5,-221 329.975,-218.317 353.511,-207.414 373.041,-198.48"/>
<polygon fill="gray" stroke="black" points="374.561,-201.634 382.205,-194.298 371.655,-195.266 374.561,-201.634"/>
<text text-anchor="middle" x="380" y="-227" font-family="times" font-size="20.00">atrous_conv</text>
</g>
<!-- 3 -->
<g id="node6" class="node"><title>3</title>
<polygon fill="lightblue" stroke="black" stroke-width="2" points="267.5,-109 231.5,-109 231.5,-73 267.5,-73 267.5,-109"/>
<text text-anchor="middle" x="249.5" y="-86" font-family="times" font-size="20.00">3</text>
</g>
<!-- 1&#45;&gt;3 -->
<g id="edge7" class="edge"><title>1&#45;&gt;3</title>
<path fill="none" stroke="black" d="M249.5,-260.835C249.5,-228.446 249.5,-158.087 249.5,-119.2"/>
<polygon fill="gray" stroke="black" points="253,-119.124 249.5,-109.124 246,-119.124 253,-119.124"/>
<text text-anchor="middle" x="304" y="-180" font-family="times" font-size="20.00">atrous_conv</text>
</g>
<!-- 1&#45;&gt;c_{k} -->
<g id="edge10" class="edge"><title>1&#45;&gt;c_{k}</title>
<path fill="none" stroke="black" d="M245.897,-260.83C239.705,-230.404 227.255,-164.955 222.5,-109 220.717,-88.0135 220.534,-64.1766 220.761,-46.3087"/>
<polygon fill="gray" stroke="black" points="224.261,-46.3502 220.939,-36.2897 217.262,-46.2261 224.261,-46.3502"/>
</g>
<!-- 2&#45;&gt;3 -->
<g id="edge8" class="edge"><title>2&#45;&gt;3</title>
<path fill="none" stroke="black" d="M382.235,-174.955C376.07,-172.138 369.081,-169.198 362.5,-167 328.344,-155.592 312.63,-170.172 283.5,-149 272.975,-141.35 265.12,-129.359 259.627,-118.344"/>
<polygon fill="gray" stroke="black" points="262.726,-116.704 255.4,-109.05 256.354,-119.601 262.726,-116.704"/>
<text text-anchor="middle" x="338" y="-133" font-family="times" font-size="20.00">atrous_conv</text>
</g>
<!-- 2&#45;&gt;c_{k} -->
<g id="edge11" class="edge"><title>2&#45;&gt;c_{k}</title>
<path fill="none" stroke="black" d="M401.735,-166.992C401.795,-154.925 400.144,-138.836 392.5,-127 362.406,-80.4042 304.337,-50.1896 264.278,-33.8826"/>
<polygon fill="gray" stroke="black" points="265.35,-30.5428 254.763,-30.1312 262.782,-37.055 265.35,-30.5428"/>
</g>
<!-- 3&#45;&gt;c_{k} -->
<g id="edge12" class="edge"><title>3&#45;&gt;c_{k}</title>
<path fill="none" stroke="black" d="M242.722,-72.8129C239.489,-64.6151 235.549,-54.6231 231.945,-45.4847"/>
<polygon fill="gray" stroke="black" points="235.14,-44.0475 228.216,-36.0288 228.628,-46.6156 235.14,-44.0475"/>
</g>
</g>
</svg>
