<?xml version="1.0" encoding="UTF-8" standalone="no"?>
<!DOCTYPE svg PUBLIC "-//W3C//DTD SVG 1.1//EN"
 "http://www.w3.org/Graphics/SVG/1.1/DTD/svg11.dtd">
<!-- Generated by graphviz version 2.38.0 (20140413.2041)
 -->
<!-- Title: %3 Pages: 1 -->
<svg width="427pt" height="493pt"
 viewBox="0.00 0.00 427.18 493.00" xmlns="http://www.w3.org/2000/svg" xmlns:xlink="http://www.w3.org/1999/xlink">
<g id="graph0" class="graph" transform="scale(1 1) rotate(0) translate(4 489)">
<title>%3</title>
<polygon fill="white" stroke="none" points="-4,4 -4,-489 423.178,-489 423.178,4 -4,4"/>
<!-- c_{k&#45;2} -->
<g id="node1" class="node"><title>c_{k&#45;2}</title>
<polygon fill="#b4eeb4" stroke="black" stroke-width="2" points="85,-485 0,-485 0,-449 85,-449 85,-485"/>
<text text-anchor="middle" x="42.5" y="-462" font-family="times" font-size="20.00">c_{k&#45;2}</text>
</g>
<!-- 0 -->
<g id="node3" class="node"><title>0</title>
<polygon fill="lightblue" stroke="black" stroke-width="2" points="155.5,-391 119.5,-391 119.5,-355 155.5,-355 155.5,-391"/>
<text text-anchor="middle" x="137.5" y="-368" font-family="times" font-size="20.00">0</text>
</g>
<!-- c_{k&#45;2}&#45;&gt;0 -->
<g id="edge2" class="edge"><title>c_{k&#45;2}&#45;&gt;0</title>
<path fill="none" stroke="black" d="M39.1898,-448.895C37.8087,-436.624 38.1233,-420.325 46.5,-409 61.1385,-389.209 88.5128,-380.608 109.429,-376.871"/>
<polygon fill="gray" stroke="black" points="110.021,-380.322 119.384,-375.363 108.973,-373.401 110.021,-380.322"/>
<text text-anchor="middle" x="97" y="-415" font-family="times" font-size="20.00">att_identity</text>
</g>
<!-- c_{k&#45;1} -->
<g id="node2" class="node"><title>c_{k&#45;1}</title>
<polygon fill="#b4eeb4" stroke="black" stroke-width="2" points="271,-485 186,-485 186,-449 271,-449 271,-485"/>
<text text-anchor="middle" x="228.5" y="-462" font-family="times" font-size="20.00">c_{k&#45;1}</text>
</g>
<!-- c_{k&#45;1}&#45;&gt;0 -->
<g id="edge1" class="edge"><title>c_{k&#45;1}&#45;&gt;0</title>
<path fill="none" stroke="black" d="M190.944,-448.9C182.567,-443.935 174.195,-437.944 167.5,-431 159.147,-422.337 152.516,-410.886 147.635,-400.521"/>
<polygon fill="gray" stroke="black" points="150.704,-398.804 143.492,-391.042 144.29,-401.607 150.704,-398.804"/>
<text text-anchor="middle" x="222" y="-415" font-family="times" font-size="20.00">atrous_conv</text>
</g>
<!-- 1 -->
<g id="node4" class="node"><title>1</title>
<polygon fill="lightblue" stroke="black" stroke-width="2" points="308.5,-297 272.5,-297 272.5,-261 308.5,-261 308.5,-297"/>
<text text-anchor="middle" x="290.5" y="-274" font-family="times" font-size="20.00">1</text>
</g>
<!-- c_{k&#45;1}&#45;&gt;1 -->
<g id="edge4" class="edge"><title>c_{k&#45;1}&#45;&gt;1</title>
<path fill="none" stroke="black" d="M260.084,-448.913C266.518,-443.976 272.527,-437.995 276.5,-431 298.369,-392.502 297.547,-339.421 294.409,-307.53"/>
<polygon fill="gray" stroke="black" points="297.842,-306.734 293.236,-297.193 290.886,-307.523 297.842,-306.734"/>
<text text-anchor="middle" x="352" y="-368" font-family="times" font-size="20.00">shuffle_conv</text>
</g>
<!-- 0&#45;&gt;1 -->
<g id="edge3" class="edge"><title>0&#45;&gt;1</title>
<path fill="none" stroke="black" d="M149.925,-354.954C160.05,-342.22 175.427,-325.301 192.5,-315 217.068,-300.176 227.665,-307.158 254.5,-297 257.381,-295.91 260.349,-294.684 263.288,-293.402"/>
<polygon fill="gray" stroke="black" points="264.792,-296.563 272.428,-289.22 261.879,-290.198 264.792,-296.563"/>
<text text-anchor="middle" x="234.5" y="-321" font-family="times" font-size="20.00">sep_conv</text>
</g>
<!-- 2 -->
<g id="node5" class="node"><title>2</title>
<polygon fill="lightblue" stroke="black" stroke-width="2" points="172.5,-203 136.5,-203 136.5,-167 172.5,-167 172.5,-203"/>
<text text-anchor="middle" x="154.5" y="-180" font-family="times" font-size="20.00">2</text>
</g>
<!-- 0&#45;&gt;2 -->
<g id="edge6" class="edge"><title>0&#45;&gt;2</title>
<path fill="none" stroke="black" d="M139.069,-354.835C142.029,-322.446 148.46,-252.087 152.014,-213.2"/>
<polygon fill="gray" stroke="black" points="155.51,-213.401 152.935,-203.124 148.539,-212.763 155.51,-213.401"/>
<text text-anchor="middle" x="203" y="-274" font-family="times" font-size="20.00">shuffle_conv</text>
</g>
<!-- c_{k} -->
<g id="node7" class="node"><title>c_{k}</title>
<polygon fill="palegoldenrod" stroke="black" stroke-width="2" points="188.5,-36 122.5,-36 122.5,-0 188.5,-0 188.5,-36"/>
<text text-anchor="middle" x="155.5" y="-13" font-family="times" font-size="20.00">c_{k}</text>
</g>
<!-- 0&#45;&gt;c_{k} -->
<g id="edge9" class="edge"><title>0&#45;&gt;c_{k}</title>
<path fill="none" stroke="black" d="M122.945,-354.944C109.469,-337.366 91.5,-308.572 91.5,-280 91.5,-280 91.5,-280 91.5,-90 91.5,-70.8171 104.549,-54.4819 118.862,-42.3338"/>
<polygon fill="gray" stroke="black" points="121.181,-44.9625 126.869,-36.0241 116.849,-39.4644 121.181,-44.9625"/>
</g>
<!-- 1&#45;&gt;2 -->
<g id="edge5" class="edge"><title>1&#45;&gt;2</title>
<path fill="none" stroke="black" d="M272.15,-268.349C266.588,-265.695 260.39,-263 254.5,-261 218.758,-248.863 199.189,-268.653 171.5,-243 163.262,-235.368 158.955,-223.934 156.726,-213.305"/>
<polygon fill="gray" stroke="black" points="160.135,-212.45 155.122,-203.116 153.22,-213.539 160.135,-212.45"/>
<text text-anchor="middle" x="226" y="-227" font-family="times" font-size="20.00">atrous_conv</text>
</g>
<!-- 3 -->
<g id="node6" class="node"><title>3</title>
<polygon fill="lightblue" stroke="black" stroke-width="2" points="201.5,-109 165.5,-109 165.5,-73 201.5,-73 201.5,-109"/>
<text text-anchor="middle" x="183.5" y="-86" font-family="times" font-size="20.00">3</text>
</g>
<!-- 1&#45;&gt;3 -->
<g id="edge7" class="edge"><title>1&#45;&gt;3</title>
<path fill="none" stroke="black" d="M294.941,-260.537C301.583,-230.069 310.365,-166.67 280.5,-127 264.418,-105.639 234.087,-97.2896 211.606,-94.0401"/>
<polygon fill="gray" stroke="black" points="211.947,-90.5561 201.603,-92.8486 211.119,-97.507 211.947,-90.5561"/>
<text text-anchor="middle" x="355" y="-180" font-family="times" font-size="20.00">atrous_conv</text>
</g>
<!-- 1&#45;&gt;c_{k} -->
<g id="edge10" class="edge"><title>1&#45;&gt;c_{k}</title>
<path fill="none" stroke="black" d="M308.8,-271.869C349.665,-257.124 442.55,-217.154 413.5,-167 367.137,-86.9546 259.329,-46.4644 198.77,-29.3662"/>
<polygon fill="gray" stroke="black" points="199.324,-25.8894 188.755,-26.6305 197.479,-32.642 199.324,-25.8894"/>
</g>
<!-- 2&#45;&gt;3 -->
<g id="edge8" class="edge"><title>2&#45;&gt;3</title>
<path fill="none" stroke="black" d="M159.379,-166.985C162.685,-155.625 167.215,-140.374 171.5,-127 172.382,-124.247 173.325,-121.381 174.28,-118.526"/>
<polygon fill="gray" stroke="black" points="177.598,-119.638 177.502,-109.044 170.97,-117.386 177.598,-119.638"/>
<text text-anchor="middle" x="226" y="-133" font-family="times" font-size="20.00">atrous_conv</text>
</g>
<!-- 2&#45;&gt;c_{k} -->
<g id="edge11" class="edge"><title>2&#45;&gt;c_{k}</title>
<path fill="none" stroke="black" d="M154.603,-166.964C154.776,-138.433 155.126,-80.7517 155.334,-46.4425"/>
<polygon fill="gray" stroke="black" points="158.835,-46.212 155.396,-36.1909 151.835,-46.1695 158.835,-46.212"/>
</g>
<!-- 3&#45;&gt;c_{k} -->
<g id="edge12" class="edge"><title>3&#45;&gt;c_{k}</title>
<path fill="none" stroke="black" d="M176.722,-72.8129C173.489,-64.6151 169.549,-54.6231 165.945,-45.4847"/>
<polygon fill="gray" stroke="black" points="169.14,-44.0475 162.216,-36.0288 162.628,-46.6156 169.14,-44.0475"/>
</g>
</g>
</svg>
