<?xml version="1.0" encoding="UTF-8" standalone="no"?>
<!DOCTYPE svg PUBLIC "-//W3C//DTD SVG 1.1//EN"
 "http://www.w3.org/Graphics/SVG/1.1/DTD/svg11.dtd">
<!-- Generated by graphviz version 2.38.0 (20140413.2041)
 -->
<!-- Title: %3 Pages: 1 -->
<svg width="679pt" height="399pt"
 viewBox="0.00 0.00 679.16 399.00" xmlns="http://www.w3.org/2000/svg" xmlns:xlink="http://www.w3.org/1999/xlink">
<g id="graph0" class="graph" transform="scale(1 1) rotate(0) translate(4 395)">
<title>%3</title>
<polygon fill="white" stroke="none" points="-4,4 -4,-395 675.155,-395 675.155,4 -4,4"/>
<!-- c_{k&#45;2} -->
<g id="node1" class="node"><title>c_{k&#45;2}</title>
<polygon fill="#b4eeb4" stroke="black" stroke-width="2" points="90.6553,-391 5.65528,-391 5.65528,-355 90.6553,-355 90.6553,-391"/>
<text text-anchor="middle" x="48.1553" y="-368" font-family="times" font-size="20.00">c_{k&#45;2}</text>
</g>
<!-- 0 -->
<g id="node3" class="node"><title>0</title>
<polygon fill="lightblue" stroke="black" stroke-width="2" points="380.155,-297 344.155,-297 344.155,-261 380.155,-261 380.155,-297"/>
<text text-anchor="middle" x="362.155" y="-274" font-family="times" font-size="20.00">0</text>
</g>
<!-- c_{k&#45;2}&#45;&gt;0 -->
<g id="edge2" class="edge"><title>c_{k&#45;2}&#45;&gt;0</title>
<path fill="none" stroke="black" d="M61.4424,-354.761C72.6458,-341.564 89.9012,-324.124 109.155,-315 163.458,-289.268 183.634,-305.249 243.155,-297 274.168,-292.702 309.7,-287.603 333.804,-284.118"/>
<polygon fill="gray" stroke="black" points="334.622,-287.536 344.017,-282.639 333.619,-280.609 334.622,-287.536"/>
<text text-anchor="middle" x="159.655" y="-321" font-family="times" font-size="20.00">att_identity</text>
</g>
<!-- 2 -->
<g id="node5" class="node"><title>2</title>
<polygon fill="lightblue" stroke="black" stroke-width="2" points="234.155,-297 198.155,-297 198.155,-261 234.155,-261 234.155,-297"/>
<text text-anchor="middle" x="216.155" y="-274" font-family="times" font-size="20.00">2</text>
</g>
<!-- c_{k&#45;2}&#45;&gt;2 -->
<g id="edge6" class="edge"><title>c_{k&#45;2}&#45;&gt;2</title>
<path fill="none" stroke="black" d="M21.2891,-354.967C6.45538,-343.466 -6.92495,-328.06 4.15528,-315 27.3626,-287.647 135.349,-281.639 187.636,-280.342"/>
<polygon fill="gray" stroke="black" points="187.972,-283.836 197.898,-280.131 187.828,-276.838 187.972,-283.836"/>
<text text-anchor="middle" x="37.1553" y="-321" font-family="times" font-size="20.00">identity</text>
</g>
<!-- c_{k&#45;1} -->
<g id="node2" class="node"><title>c_{k&#45;1}</title>
<polygon fill="#b4eeb4" stroke="black" stroke-width="2" points="425.655,-391 340.655,-391 340.655,-355 425.655,-355 425.655,-391"/>
<text text-anchor="middle" x="383.155" y="-368" font-family="times" font-size="20.00">c_{k&#45;1}</text>
</g>
<!-- c_{k&#45;1}&#45;&gt;0 -->
<g id="edge1" class="edge"><title>c_{k&#45;1}&#45;&gt;0</title>
<path fill="none" stroke="black" d="M379.205,-354.696C376.155,-341.331 371.876,-322.587 368.368,-307.219"/>
<polygon fill="gray" stroke="black" points="371.725,-306.197 366.088,-297.227 364.901,-307.755 371.725,-306.197"/>
<text text-anchor="middle" x="446.155" y="-321" font-family="times" font-size="20.00">down_sep_conv</text>
</g>
<!-- 1 -->
<g id="node4" class="node"><title>1</title>
<polygon fill="lightblue" stroke="black" stroke-width="2" points="499.155,-203 463.155,-203 463.155,-167 499.155,-167 499.155,-203"/>
<text text-anchor="middle" x="481.155" y="-180" font-family="times" font-size="20.00">1</text>
</g>
<!-- c_{k&#45;1}&#45;&gt;1 -->
<g id="edge3" class="edge"><title>c_{k&#45;1}&#45;&gt;1</title>
<path fill="none" stroke="black" d="M425.807,-367.007C462.156,-361.771 510.338,-352.162 522.155,-337 551.004,-299.986 522.245,-244.163 500.492,-211.773"/>
<polygon fill="gray" stroke="black" points="503.179,-209.506 494.596,-203.294 497.431,-213.502 503.179,-209.506"/>
<text text-anchor="middle" x="602.655" y="-274" font-family="times" font-size="20.00">down_att_conv</text>
</g>
<!-- c_{k&#45;1}&#45;&gt;2 -->
<g id="edge5" class="edge"><title>c_{k&#45;1}&#45;&gt;2</title>
<path fill="none" stroke="black" d="M340.621,-368.33C298.358,-363.744 237.668,-354.306 222.155,-337 214.982,-328.998 212.794,-317.603 212.66,-307.102"/>
<polygon fill="gray" stroke="black" points="216.159,-307.202 213.104,-297.057 209.166,-306.893 216.159,-307.202"/>
<text text-anchor="middle" x="294.155" y="-321" font-family="times" font-size="20.00">down_sep_conv</text>
</g>
<!-- 0&#45;&gt;1 -->
<g id="edge4" class="edge"><title>0&#45;&gt;1</title>
<path fill="none" stroke="black" d="M380.229,-264.027C400.062,-248.694 432.085,-223.936 454.735,-206.426"/>
<polygon fill="gray" stroke="black" points="457.141,-208.99 462.912,-200.104 452.86,-203.452 457.141,-208.99"/>
<text text-anchor="middle" x="456.155" y="-227" font-family="times" font-size="20.00">conv</text>
</g>
<!-- 3 -->
<g id="node6" class="node"><title>3</title>
<polygon fill="lightblue" stroke="black" stroke-width="2" points="380.155,-109 344.155,-109 344.155,-73 380.155,-73 380.155,-109"/>
<text text-anchor="middle" x="362.155" y="-86" font-family="times" font-size="20.00">3</text>
</g>
<!-- 0&#45;&gt;3 -->
<g id="edge7" class="edge"><title>0&#45;&gt;3</title>
<path fill="none" stroke="black" d="M362.155,-260.835C362.155,-228.446 362.155,-158.087 362.155,-119.2"/>
<polygon fill="gray" stroke="black" points="365.655,-119.124 362.155,-109.124 358.655,-119.124 365.655,-119.124"/>
<text text-anchor="middle" x="383.155" y="-180" font-family="times" font-size="20.00">conv</text>
</g>
<!-- c_{k} -->
<g id="node7" class="node"><title>c_{k}</title>
<polygon fill="palegoldenrod" stroke="black" stroke-width="2" points="367.155,-36 301.155,-36 301.155,-0 367.155,-0 367.155,-36"/>
<text text-anchor="middle" x="334.155" y="-13" font-family="times" font-size="20.00">c_{k}</text>
</g>
<!-- 0&#45;&gt;c_{k} -->
<g id="edge9" class="edge"><title>0&#45;&gt;c_{k}</title>
<path fill="none" stroke="black" d="M358.552,-260.83C352.361,-230.404 339.91,-164.955 335.155,-109 333.372,-88.0135 333.189,-64.1766 333.416,-46.3087"/>
<polygon fill="gray" stroke="black" points="336.916,-46.3502 333.594,-36.2897 329.917,-46.2261 336.916,-46.3502"/>
</g>
<!-- 1&#45;&gt;3 -->
<g id="edge8" class="edge"><title>1&#45;&gt;3</title>
<path fill="none" stroke="black" d="M463.109,-180.139C444.57,-175.417 415.732,-165.887 396.155,-149 386.505,-140.676 378.847,-128.905 373.261,-118.219"/>
<polygon fill="gray" stroke="black" points="376.408,-116.686 368.888,-109.222 370.112,-119.746 376.408,-116.686"/>
<text text-anchor="middle" x="452.655" y="-133" font-family="times" font-size="20.00">shuffle_conv</text>
</g>
<!-- 1&#45;&gt;c_{k} -->
<g id="edge10" class="edge"><title>1&#45;&gt;c_{k}</title>
<path fill="none" stroke="black" d="M498.66,-166.8C508.102,-155.363 516.461,-140.094 509.155,-127 481.074,-76.672 418.824,-46.8718 376.663,-31.7224"/>
<polygon fill="gray" stroke="black" points="377.796,-28.4111 367.201,-28.4461 375.505,-35.0257 377.796,-28.4111"/>
</g>
<!-- 2&#45;&gt;c_{k} -->
<g id="edge11" class="edge"><title>2&#45;&gt;c_{k}</title>
<path fill="none" stroke="black" d="M224.081,-260.604C244.276,-216.278 297.774,-98.8536 321.968,-45.7494"/>
<polygon fill="gray" stroke="black" points="325.303,-46.8713 326.264,-36.3202 318.933,-43.9691 325.303,-46.8713"/>
</g>
<!-- 3&#45;&gt;c_{k} -->
<g id="edge12" class="edge"><title>3&#45;&gt;c_{k}</title>
<path fill="none" stroke="black" d="M355.377,-72.8129C352.144,-64.6151 348.204,-54.6231 344.6,-45.4847"/>
<polygon fill="gray" stroke="black" points="347.796,-44.0475 340.871,-36.0288 341.284,-46.6156 347.796,-44.0475"/>
</g>
</g>
</svg>
