<?xml version="1.0" encoding="UTF-8" standalone="no"?>
<!DOCTYPE svg PUBLIC "-//W3C//DTD SVG 1.1//EN"
 "http://www.w3.org/Graphics/SVG/1.1/DTD/svg11.dtd">
<!-- Generated by graphviz version 2.38.0 (20140413.2041)
 -->
<!-- Title: %3 Pages: 1 -->
<svg width="586pt" height="399pt"
 viewBox="0.00 0.00 586.48 399.00" xmlns="http://www.w3.org/2000/svg" xmlns:xlink="http://www.w3.org/1999/xlink">
<g id="graph0" class="graph" transform="scale(1 1) rotate(0) translate(4 395)">
<title>%3</title>
<polygon fill="white" stroke="none" points="-4,4 -4,-395 582.485,-395 582.485,4 -4,4"/>
<!-- c_{k&#45;2} -->
<g id="node1" class="node"><title>c_{k&#45;2}</title>
<polygon fill="#b4eeb4" stroke="black" stroke-width="2" points="402.985,-391 317.985,-391 317.985,-355 402.985,-355 402.985,-391"/>
<text text-anchor="middle" x="360.485" y="-368" font-family="times" font-size="20.00">c_{k&#45;2}</text>
</g>
<!-- 0 -->
<g id="node3" class="node"><title>0</title>
<polygon fill="lightblue" stroke="black" stroke-width="2" points="376.485,-297 340.485,-297 340.485,-261 376.485,-261 376.485,-297"/>
<text text-anchor="middle" x="358.485" y="-274" font-family="times" font-size="20.00">0</text>
</g>
<!-- c_{k&#45;2}&#45;&gt;0 -->
<g id="edge2" class="edge"><title>c_{k&#45;2}&#45;&gt;0</title>
<path fill="none" stroke="black" d="M360.108,-354.696C359.821,-341.46 359.418,-322.947 359.086,-307.663"/>
<polygon fill="gray" stroke="black" points="362.576,-307.148 358.859,-297.227 355.577,-307.301 362.576,-307.148"/>
<text text-anchor="middle" x="410.985" y="-321" font-family="times" font-size="20.00">att_identity</text>
</g>
<!-- 1 -->
<g id="node4" class="node"><title>1</title>
<polygon fill="lightblue" stroke="black" stroke-width="2" points="474.485,-203 438.485,-203 438.485,-167 474.485,-167 474.485,-203"/>
<text text-anchor="middle" x="456.485" y="-180" font-family="times" font-size="20.00">1</text>
</g>
<!-- c_{k&#45;2}&#45;&gt;1 -->
<g id="edge4" class="edge"><title>c_{k&#45;2}&#45;&gt;1</title>
<path fill="none" stroke="black" d="M403.114,-368.749C424.641,-364.695 448.993,-355.893 462.485,-337 488.487,-300.587 477.182,-245.676 466.737,-213.073"/>
<polygon fill="gray" stroke="black" points="469.955,-211.665 463.424,-203.323 463.327,-213.917 469.955,-211.665"/>
<text text-anchor="middle" x="527.985" y="-274" font-family="times" font-size="20.00">att_identity</text>
</g>
<!-- 2 -->
<g id="node5" class="node"><title>2</title>
<polygon fill="lightblue" stroke="black" stroke-width="2" points="289.485,-297 253.485,-297 253.485,-261 289.485,-261 289.485,-297"/>
<text text-anchor="middle" x="271.485" y="-274" font-family="times" font-size="20.00">2</text>
</g>
<!-- c_{k&#45;2}&#45;&gt;2 -->
<g id="edge6" class="edge"><title>c_{k&#45;2}&#45;&gt;2</title>
<path fill="none" stroke="black" d="M317.953,-357.878C307.476,-352.7 297.093,-345.864 289.485,-337 282.286,-328.614 277.962,-317.34 275.366,-307.033"/>
<polygon fill="gray" stroke="black" points="278.78,-306.261 273.304,-297.191 271.929,-307.696 278.78,-306.261"/>
<text text-anchor="middle" x="322.485" y="-321" font-family="times" font-size="20.00">identity</text>
</g>
<!-- c_{k&#45;1} -->
<g id="node2" class="node"><title>c_{k&#45;1}</title>
<polygon fill="#b4eeb4" stroke="black" stroke-width="2" points="112.985,-391 27.9846,-391 27.9846,-355 112.985,-355 112.985,-391"/>
<text text-anchor="middle" x="70.4846" y="-368" font-family="times" font-size="20.00">c_{k&#45;1}</text>
</g>
<!-- c_{k&#45;1}&#45;&gt;0 -->
<g id="edge1" class="edge"><title>c_{k&#45;1}&#45;&gt;0</title>
<path fill="none" stroke="black" d="M92.4399,-354.865C110.481,-341.727 137.252,-324.315 163.485,-315 220.526,-294.745 239.213,-309.282 298.485,-297 309.028,-294.815 320.435,-291.762 330.443,-288.845"/>
<polygon fill="gray" stroke="black" points="331.699,-292.123 340.272,-285.897 329.688,-285.418 331.699,-292.123"/>
<text text-anchor="middle" x="218.985" y="-321" font-family="times" font-size="20.00">up_att_conv</text>
</g>
<!-- c_{k&#45;1}&#45;&gt;2 -->
<g id="edge5" class="edge"><title>c_{k&#45;1}&#45;&gt;2</title>
<path fill="none" stroke="black" d="M27.718,-357.914C18.4963,-352.811 9.90032,-346.002 4.48462,-337 -0.555902,-328.622 -1.96436,-322.35 4.48462,-315 35.3181,-279.861 180.927,-278.264 243.164,-279.247"/>
<polygon fill="gray" stroke="black" points="243.364,-282.751 253.43,-279.445 243.5,-275.753 243.364,-282.751"/>
<text text-anchor="middle" x="59.9846" y="-321" font-family="times" font-size="20.00">up_att_conv</text>
</g>
<!-- 0&#45;&gt;1 -->
<g id="edge3" class="edge"><title>0&#45;&gt;1</title>
<path fill="none" stroke="black" d="M376.918,-260.696C392.208,-246.342 414.109,-225.781 431.065,-209.864"/>
<polygon fill="gray" stroke="black" points="433.57,-212.312 438.465,-202.916 428.779,-207.209 433.57,-212.312"/>
<text text-anchor="middle" x="439.485" y="-227" font-family="times" font-size="20.00">conv</text>
</g>
<!-- 3 -->
<g id="node6" class="node"><title>3</title>
<polygon fill="lightblue" stroke="black" stroke-width="2" points="376.485,-109 340.485,-109 340.485,-73 376.485,-73 376.485,-109"/>
<text text-anchor="middle" x="358.485" y="-86" font-family="times" font-size="20.00">3</text>
</g>
<!-- 0&#45;&gt;3 -->
<g id="edge7" class="edge"><title>0&#45;&gt;3</title>
<path fill="none" stroke="black" d="M358.485,-260.835C358.485,-228.446 358.485,-158.087 358.485,-119.2"/>
<polygon fill="gray" stroke="black" points="361.985,-119.124 358.485,-109.124 354.985,-119.124 361.985,-119.124"/>
<text text-anchor="middle" x="379.485" y="-180" font-family="times" font-size="20.00">conv</text>
</g>
<!-- c_{k} -->
<g id="node7" class="node"><title>c_{k}</title>
<polygon fill="palegoldenrod" stroke="black" stroke-width="2" points="363.485,-36 297.485,-36 297.485,-0 363.485,-0 363.485,-36"/>
<text text-anchor="middle" x="330.485" y="-13" font-family="times" font-size="20.00">c_{k}</text>
</g>
<!-- 0&#45;&gt;c_{k} -->
<g id="edge9" class="edge"><title>0&#45;&gt;c_{k}</title>
<path fill="none" stroke="black" d="M354.881,-260.83C348.69,-230.404 336.239,-164.955 331.485,-109 329.701,-88.0135 329.519,-64.1766 329.746,-46.3087"/>
<polygon fill="gray" stroke="black" points="333.245,-46.3502 329.923,-36.2897 326.246,-46.2261 333.245,-46.3502"/>
</g>
<!-- 1&#45;&gt;3 -->
<g id="edge8" class="edge"><title>1&#45;&gt;3</title>
<path fill="none" stroke="black" d="M438.281,-177.151C424.485,-171.276 405.71,-161.74 392.485,-149 383.462,-140.309 375.971,-128.72 370.338,-118.261"/>
<polygon fill="gray" stroke="black" points="373.335,-116.432 365.696,-109.09 367.089,-119.593 373.335,-116.432"/>
<text text-anchor="middle" x="448.985" y="-133" font-family="times" font-size="20.00">shuffle_conv</text>
</g>
<!-- 1&#45;&gt;c_{k} -->
<g id="edge10" class="edge"><title>1&#45;&gt;c_{k}</title>
<path fill="none" stroke="black" d="M474.896,-176.216C485.95,-170.462 499.075,-161.456 505.485,-149 509.959,-140.306 510.249,-135.539 505.485,-127 477.404,-76.672 415.154,-46.8718 372.992,-31.7224"/>
<polygon fill="gray" stroke="black" points="374.125,-28.4111 363.531,-28.4461 371.835,-35.0257 374.125,-28.4111"/>
</g>
<!-- 2&#45;&gt;c_{k} -->
<g id="edge11" class="edge"><title>2&#45;&gt;c_{k}</title>
<path fill="none" stroke="black" d="M275.447,-260.604C285.524,-216.37 312.183,-99.3415 324.315,-46.0815"/>
<polygon fill="gray" stroke="black" points="327.731,-46.8478 326.539,-36.3202 320.905,-45.293 327.731,-46.8478"/>
</g>
<!-- 3&#45;&gt;c_{k} -->
<g id="edge12" class="edge"><title>3&#45;&gt;c_{k}</title>
<path fill="none" stroke="black" d="M351.707,-72.8129C348.474,-64.6151 344.533,-54.6231 340.929,-45.4847"/>
<polygon fill="gray" stroke="black" points="344.125,-44.0475 337.2,-36.0288 337.613,-46.6156 344.125,-44.0475"/>
</g>
</g>
</svg>
