<?xml version="1.0" encoding="UTF-8" standalone="no"?>
<!DOCTYPE svg PUBLIC "-//W3C//DTD SVG 1.1//EN"
 "http://www.w3.org/Graphics/SVG/1.1/DTD/svg11.dtd">
<!-- Generated by graphviz version 2.38.0 (20140413.2041)
 -->
<!-- Title: %3 Pages: 1 -->
<svg width="463pt" height="305pt"
 viewBox="0.00 0.00 462.50 305.00" xmlns="http://www.w3.org/2000/svg" xmlns:xlink="http://www.w3.org/1999/xlink">
<g id="graph0" class="graph" transform="scale(1 1) rotate(0) translate(4 301)">
<title>%3</title>
<polygon fill="white" stroke="none" points="-4,4 -4,-301 458.5,-301 458.5,4 -4,4"/>
<!-- c_{k&#45;2} -->
<g id="node1" class="node"><title>c_{k&#45;2}</title>
<polygon fill="#b4eeb4" stroke="black" stroke-width="2" points="85,-297 0,-297 0,-261 85,-261 85,-297"/>
<text text-anchor="middle" x="42.5" y="-274" font-family="times" font-size="20.00">c_{k&#45;2}</text>
</g>
<!-- 0 -->
<g id="node3" class="node"><title>0</title>
<polygon fill="lightblue" stroke="black" stroke-width="2" points="199.5,-203 163.5,-203 163.5,-167 199.5,-167 199.5,-203"/>
<text text-anchor="middle" x="181.5" y="-180" font-family="times" font-size="20.00">0</text>
</g>
<!-- c_{k&#45;2}&#45;&gt;0 -->
<g id="edge2" class="edge"><title>c_{k&#45;2}&#45;&gt;0</title>
<path fill="none" stroke="black" d="M37.7754,-260.971C35.4292,-248.579 34.7113,-232.094 43.5,-221 50.3569,-212.345 114.884,-198.719 153.227,-191.279"/>
<polygon fill="gray" stroke="black" points="154.115,-194.673 163.278,-189.354 152.798,-187.798 154.115,-194.673"/>
<text text-anchor="middle" x="78" y="-227" font-family="times" font-size="20.00">cweight</text>
</g>
<!-- 1 -->
<g id="node4" class="node"><title>1</title>
<polygon fill="lightblue" stroke="black" stroke-width="2" points="317.5,-203 281.5,-203 281.5,-167 317.5,-167 317.5,-203"/>
<text text-anchor="middle" x="299.5" y="-180" font-family="times" font-size="20.00">1</text>
</g>
<!-- c_{k&#45;2}&#45;&gt;1 -->
<g id="edge3" class="edge"><title>c_{k&#45;2}&#45;&gt;1</title>
<path fill="none" stroke="black" d="M78.0109,-260.87C89.1407,-255.334 101.411,-249.059 112.5,-243 129.289,-233.827 131.753,-228.147 149.5,-221 171.343,-212.204 234.124,-198.946 271.178,-191.528"/>
<polygon fill="gray" stroke="black" points="272.208,-194.892 281.335,-189.512 270.845,-188.026 272.208,-194.892"/>
<text text-anchor="middle" x="170.5" y="-227" font-family="times" font-size="20.00">conv</text>
</g>
<!-- 2 -->
<g id="node5" class="node"><title>2</title>
<polygon fill="lightblue" stroke="black" stroke-width="2" points="169.5,-109 133.5,-109 133.5,-73 169.5,-73 169.5,-109"/>
<text text-anchor="middle" x="151.5" y="-86" font-family="times" font-size="20.00">2</text>
</g>
<!-- c_{k&#45;2}&#45;&gt;2 -->
<g id="edge6" class="edge"><title>c_{k&#45;2}&#45;&gt;2</title>
<path fill="none" stroke="black" d="M34.3038,-260.831C29.953,-249.271 26.4474,-233.85 31.5,-221 50.2448,-173.328 95.8182,-132.823 125.097,-110.509"/>
<polygon fill="gray" stroke="black" points="127.316,-113.22 133.25,-104.443 123.138,-107.604 127.316,-113.22"/>
<text text-anchor="middle" x="99" y="-180" font-family="times" font-size="20.00">cweight</text>
</g>
<!-- c_{k&#45;1} -->
<g id="node2" class="node"><title>c_{k&#45;1}</title>
<polygon fill="#b4eeb4" stroke="black" stroke-width="2" points="351,-297 266,-297 266,-261 351,-261 351,-297"/>
<text text-anchor="middle" x="308.5" y="-274" font-family="times" font-size="20.00">c_{k&#45;1}</text>
</g>
<!-- c_{k&#45;1}&#45;&gt;0 -->
<g id="edge1" class="edge"><title>c_{k&#45;1}&#45;&gt;0</title>
<path fill="none" stroke="black" d="M265.835,-269.546C247.809,-264.288 227.553,-255.968 212.5,-243 203.091,-234.894 196.037,-223.198 191.054,-212.508"/>
<polygon fill="gray" stroke="black" points="194.189,-210.935 187.052,-203.105 187.748,-213.677 194.189,-210.935"/>
<text text-anchor="middle" x="255.5" y="-227" font-family="times" font-size="20.00">dep_conv</text>
</g>
<!-- c_{k&#45;1}&#45;&gt;1 -->
<g id="edge4" class="edge"><title>c_{k&#45;1}&#45;&gt;1</title>
<path fill="none" stroke="black" d="M306.807,-260.696C305.5,-247.331 303.666,-228.587 302.163,-213.219"/>
<polygon fill="gray" stroke="black" points="305.642,-212.839 301.185,-203.227 298.676,-213.52 305.642,-212.839"/>
<text text-anchor="middle" x="339" y="-227" font-family="times" font-size="20.00">cweight</text>
</g>
<!-- 3 -->
<g id="node6" class="node"><title>3</title>
<polygon fill="lightblue" stroke="black" stroke-width="2" points="341.5,-109 305.5,-109 305.5,-73 341.5,-73 341.5,-109"/>
<text text-anchor="middle" x="323.5" y="-86" font-family="times" font-size="20.00">3</text>
</g>
<!-- c_{k&#45;1}&#45;&gt;3 -->
<g id="edge8" class="edge"><title>c_{k&#45;1}&#45;&gt;3</title>
<path fill="none" stroke="black" d="M351.014,-265.399C361.457,-260.19 371.385,-252.958 377.5,-243 392.389,-218.752 398.435,-199.238 359.5,-127 356.76,-121.916 353.027,-117.12 348.999,-112.802"/>
<polygon fill="gray" stroke="black" points="351.19,-110.051 341.58,-105.59 346.31,-115.07 351.19,-110.051"/>
<text text-anchor="middle" x="421.5" y="-180" font-family="times" font-size="20.00">identity</text>
</g>
<!-- 0&#45;&gt;2 -->
<g id="edge5" class="edge"><title>0&#45;&gt;2</title>
<path fill="none" stroke="black" d="M163.541,-166.977C159.093,-161.683 154.912,-155.512 152.5,-149 149.053,-139.694 148.153,-128.934 148.333,-119.286"/>
<polygon fill="gray" stroke="black" points="151.844,-119.186 148.918,-109.003 144.856,-118.788 151.844,-119.186"/>
<text text-anchor="middle" x="189" y="-133" font-family="times" font-size="20.00">dil_conv</text>
</g>
<!-- c_{k} -->
<g id="node7" class="node"><title>c_{k}</title>
<polygon fill="palegoldenrod" stroke="black" stroke-width="2" points="291.5,-36 225.5,-36 225.5,-0 291.5,-0 291.5,-36"/>
<text text-anchor="middle" x="258.5" y="-13" font-family="times" font-size="20.00">c_{k}</text>
</g>
<!-- 0&#45;&gt;c_{k} -->
<g id="edge9" class="edge"><title>0&#45;&gt;c_{k}</title>
<path fill="none" stroke="black" d="M199.733,-173.491C208.741,-167.419 219.037,-159.002 225.5,-149 245.806,-117.577 253.622,-74.3893 256.627,-46.5821"/>
<polygon fill="gray" stroke="black" points="260.135,-46.6692 257.588,-36.3851 253.165,-46.0128 260.135,-46.6692"/>
</g>
<!-- 1&#45;&gt;3 -->
<g id="edge7" class="edge"><title>1&#45;&gt;3</title>
<path fill="none" stroke="black" d="M304.014,-166.696C307.501,-153.331 312.39,-134.587 316.399,-119.219"/>
<polygon fill="gray" stroke="black" points="319.868,-119.787 319.006,-109.227 313.095,-118.02 319.868,-119.787"/>
<text text-anchor="middle" x="334.5" y="-133" font-family="times" font-size="20.00">conv</text>
</g>
<!-- 1&#45;&gt;c_{k} -->
<g id="edge10" class="edge"><title>1&#45;&gt;c_{k}</title>
<path fill="none" stroke="black" d="M295.267,-166.964C288.147,-138.31 273.72,-80.2518 265.209,-45.9982"/>
<polygon fill="gray" stroke="black" points="268.58,-45.0518 262.772,-36.1909 261.787,-46.7399 268.58,-45.0518"/>
</g>
<!-- 2&#45;&gt;c_{k} -->
<g id="edge11" class="edge"><title>2&#45;&gt;c_{k}</title>
<path fill="none" stroke="black" d="M169.651,-77.9558C184.511,-68.0958 205.955,-53.8662 224.054,-41.8569"/>
<polygon fill="gray" stroke="black" points="226.229,-44.6142 232.626,-36.1687 222.358,-38.7814 226.229,-44.6142"/>
</g>
<!-- 3&#45;&gt;c_{k} -->
<g id="edge12" class="edge"><title>3&#45;&gt;c_{k}</title>
<path fill="none" stroke="black" d="M308.302,-72.6951C303.02,-66.7367 297.034,-60.0444 291.5,-54 288.435,-50.6525 285.185,-47.1491 281.965,-43.7067"/>
<polygon fill="gray" stroke="black" points="284.451,-41.2409 275.051,-36.3526 279.351,-46.0357 284.451,-41.2409"/>
</g>
</g>
</svg>
