<?xml version="1.0" encoding="UTF-8" standalone="no"?>
<!DOCTYPE svg PUBLIC "-//W3C//DTD SVG 1.1//EN"
 "http://www.w3.org/Graphics/SVG/1.1/DTD/svg11.dtd">
<!-- Generated by graphviz version 2.38.0 (20140413.2041)
 -->
<!-- Title: %3 Pages: 1 -->
<svg width="573pt" height="305pt"
 viewBox="0.00 0.00 572.50 305.00" xmlns="http://www.w3.org/2000/svg" xmlns:xlink="http://www.w3.org/1999/xlink">
<g id="graph0" class="graph" transform="scale(1 1) rotate(0) translate(4 301)">
<title>%3</title>
<polygon fill="white" stroke="none" points="-4,4 -4,-301 568.5,-301 568.5,4 -4,4"/>
<!-- c_{k&#45;2} -->
<g id="node1" class="node"><title>c_{k&#45;2}</title>
<polygon fill="#b4eeb4" stroke="black" stroke-width="2" points="85,-297 0,-297 0,-261 85,-261 85,-297"/>
<text text-anchor="middle" x="42.5" y="-274" font-family="times" font-size="20.00">c_{k&#45;2}</text>
</g>
<!-- 0 -->
<g id="node3" class="node"><title>0</title>
<polygon fill="lightblue" stroke="black" stroke-width="2" points="206.5,-203 170.5,-203 170.5,-167 206.5,-167 206.5,-203"/>
<text text-anchor="middle" x="188.5" y="-180" font-family="times" font-size="20.00">0</text>
</g>
<!-- c_{k&#45;2}&#45;&gt;0 -->
<g id="edge2" class="edge"><title>c_{k&#45;2}&#45;&gt;0</title>
<path fill="none" stroke="black" d="M37.738,-260.942C35.3728,-248.534 34.6475,-232.043 43.5,-221 50.8416,-211.842 120.509,-198.101 160.541,-190.862"/>
<polygon fill="gray" stroke="black" points="161.269,-194.288 170.498,-189.085 160.039,-187.396 161.269,-194.288"/>
<text text-anchor="middle" x="78" y="-227" font-family="times" font-size="20.00">cweight</text>
</g>
<!-- 1 -->
<g id="node4" class="node"><title>1</title>
<polygon fill="lightblue" stroke="black" stroke-width="2" points="345.5,-203 309.5,-203 309.5,-167 345.5,-167 345.5,-203"/>
<text text-anchor="middle" x="327.5" y="-180" font-family="times" font-size="20.00">1</text>
</g>
<!-- c_{k&#45;2}&#45;&gt;1 -->
<g id="edge3" class="edge"><title>c_{k&#45;2}&#45;&gt;1</title>
<path fill="none" stroke="black" d="M77.1364,-260.929C88.4448,-255.289 101.039,-248.938 112.5,-243 130.861,-233.486 134.042,-228.003 153.5,-221 203.29,-203.079 264.582,-193.451 299.537,-189.055"/>
<polygon fill="gray" stroke="black" points="299.989,-192.526 309.498,-187.855 299.151,-185.576 299.989,-192.526"/>
<text text-anchor="middle" x="174.5" y="-227" font-family="times" font-size="20.00">conv</text>
</g>
<!-- 2 -->
<g id="node5" class="node"><title>2</title>
<polygon fill="lightblue" stroke="black" stroke-width="2" points="184.5,-109 148.5,-109 148.5,-73 184.5,-73 184.5,-109"/>
<text text-anchor="middle" x="166.5" y="-86" font-family="times" font-size="20.00">2</text>
</g>
<!-- c_{k&#45;2}&#45;&gt;2 -->
<g id="edge6" class="edge"><title>c_{k&#45;2}&#45;&gt;2</title>
<path fill="none" stroke="black" d="M34.1579,-260.984C29.6556,-249.353 26.0319,-233.788 31.5,-221 53.4016,-169.779 106.73,-129.197 139.425,-108.05"/>
<polygon fill="gray" stroke="black" points="141.464,-110.903 148.057,-102.609 137.731,-104.981 141.464,-110.903"/>
<text text-anchor="middle" x="101" y="-180" font-family="times" font-size="20.00">cweight</text>
</g>
<!-- c_{k&#45;1} -->
<g id="node2" class="node"><title>c_{k&#45;1}</title>
<polygon fill="#b4eeb4" stroke="black" stroke-width="2" points="372,-297 287,-297 287,-261 372,-261 372,-297"/>
<text text-anchor="middle" x="329.5" y="-274" font-family="times" font-size="20.00">c_{k&#45;1}</text>
</g>
<!-- c_{k&#45;1}&#45;&gt;0 -->
<g id="edge1" class="edge"><title>c_{k&#45;1}&#45;&gt;0</title>
<path fill="none" stroke="black" d="M286.893,-273.098C263.852,-268.556 236.17,-259.814 216.5,-243 207.26,-235.102 200.786,-223.435 196.408,-212.71"/>
<polygon fill="gray" stroke="black" points="199.676,-211.454 192.959,-203.26 193.1,-213.854 199.676,-211.454"/>
<text text-anchor="middle" x="270" y="-227" font-family="times" font-size="20.00">up_dil_conv</text>
</g>
<!-- c_{k&#45;1}&#45;&gt;1 -->
<g id="edge4" class="edge"><title>c_{k&#45;1}&#45;&gt;1</title>
<path fill="none" stroke="black" d="M329.124,-260.696C328.836,-247.46 328.434,-228.947 328.101,-213.663"/>
<polygon fill="gray" stroke="black" points="331.591,-213.148 327.874,-203.227 324.593,-213.301 331.591,-213.148"/>
<text text-anchor="middle" x="388.5" y="-227" font-family="times" font-size="20.00">up_dep_conv</text>
</g>
<!-- 3 -->
<g id="node6" class="node"><title>3</title>
<polygon fill="lightblue" stroke="black" stroke-width="2" points="356.5,-109 320.5,-109 320.5,-73 356.5,-73 356.5,-109"/>
<text text-anchor="middle" x="338.5" y="-86" font-family="times" font-size="20.00">3</text>
</g>
<!-- c_{k&#45;1}&#45;&gt;3 -->
<g id="edge8" class="edge"><title>c_{k&#45;1}&#45;&gt;3</title>
<path fill="none" stroke="black" d="M372.257,-277.838C399.354,-275.226 432.563,-266.86 450.5,-243 487.487,-193.798 409.2,-135.143 365.404,-107.663"/>
<polygon fill="gray" stroke="black" points="366.991,-104.53 356.636,-102.287 363.332,-110.498 366.991,-104.53"/>
<text text-anchor="middle" x="511" y="-180" font-family="times" font-size="20.00">up_dil_conv</text>
</g>
<!-- 0&#45;&gt;2 -->
<g id="edge5" class="edge"><title>0&#45;&gt;2</title>
<path fill="none" stroke="black" d="M175.677,-166.67C172.373,-161.277 169.256,-155.131 167.5,-149 164.807,-139.598 164.044,-128.962 164.122,-119.446"/>
<polygon fill="gray" stroke="black" points="167.625,-119.428 164.51,-109.302 160.63,-119.161 167.625,-119.428"/>
<text text-anchor="middle" x="204" y="-133" font-family="times" font-size="20.00">dil_conv</text>
</g>
<!-- c_{k} -->
<g id="node7" class="node"><title>c_{k}</title>
<polygon fill="palegoldenrod" stroke="black" stroke-width="2" points="306.5,-36 240.5,-36 240.5,-0 306.5,-0 306.5,-36"/>
<text text-anchor="middle" x="273.5" y="-13" font-family="times" font-size="20.00">c_{k}</text>
</g>
<!-- 0&#45;&gt;c_{k} -->
<g id="edge9" class="edge"><title>0&#45;&gt;c_{k}</title>
<path fill="none" stroke="black" d="M206.701,-175.985C218.044,-170.088 232.042,-161.012 240.5,-149 262.158,-118.241 269.623,-74.5317 272.183,-46.4668"/>
<polygon fill="gray" stroke="black" points="275.696,-46.4211 272.965,-36.1845 268.716,-45.8902 275.696,-46.4211"/>
</g>
<!-- 1&#45;&gt;3 -->
<g id="edge7" class="edge"><title>1&#45;&gt;3</title>
<path fill="none" stroke="black" d="M329.569,-166.696C331.167,-153.331 333.408,-134.587 335.246,-119.219"/>
<polygon fill="gray" stroke="black" points="338.728,-119.572 336.44,-109.227 331.778,-118.741 338.728,-119.572"/>
<text text-anchor="middle" x="354.5" y="-133" font-family="times" font-size="20.00">conv</text>
</g>
<!-- 1&#45;&gt;c_{k} -->
<g id="edge10" class="edge"><title>1&#45;&gt;c_{k}</title>
<path fill="none" stroke="black" d="M321.924,-166.964C312.547,-138.31 293.546,-80.2518 282.336,-45.9982"/>
<polygon fill="gray" stroke="black" points="285.563,-44.6063 279.126,-36.1909 278.91,-46.7836 285.563,-44.6063"/>
</g>
<!-- 2&#45;&gt;c_{k} -->
<g id="edge11" class="edge"><title>2&#45;&gt;c_{k}</title>
<path fill="none" stroke="black" d="M184.651,-77.9558C199.511,-68.0958 220.955,-53.8662 239.054,-41.8569"/>
<polygon fill="gray" stroke="black" points="241.229,-44.6142 247.626,-36.1687 237.358,-38.7814 241.229,-44.6142"/>
</g>
<!-- 3&#45;&gt;c_{k} -->
<g id="edge12" class="edge"><title>3&#45;&gt;c_{k}</title>
<path fill="none" stroke="black" d="M323.302,-72.6951C318.02,-66.7367 312.034,-60.0444 306.5,-54 303.435,-50.6525 300.185,-47.1491 296.965,-43.7067"/>
<polygon fill="gray" stroke="black" points="299.451,-41.2409 290.051,-36.3526 294.351,-46.0357 299.451,-41.2409"/>
</g>
</g>
</svg>
