<?xml version="1.0" encoding="UTF-8" standalone="no"?>
<!DOCTYPE svg PUBLIC "-//W3C//DTD SVG 1.1//EN"
 "http://www.w3.org/Graphics/SVG/1.1/DTD/svg11.dtd">
<!-- Generated by graphviz version 2.38.0 (20140413.2041)
 -->
<!-- Title: %3 Pages: 1 -->
<svg width="559pt" height="305pt"
 viewBox="0.00 0.00 558.50 305.00" xmlns="http://www.w3.org/2000/svg" xmlns:xlink="http://www.w3.org/1999/xlink">
<g id="graph0" class="graph" transform="scale(1 1) rotate(0) translate(4 301)">
<title>%3</title>
<polygon fill="white" stroke="none" points="-4,4 -4,-301 554.5,-301 554.5,4 -4,4"/>
<!-- c_{k&#45;2} -->
<g id="node1" class="node"><title>c_{k&#45;2}</title>
<polygon fill="#b4eeb4" stroke="black" stroke-width="2" points="85,-297 0,-297 0,-261 85,-261 85,-297"/>
<text text-anchor="middle" x="42.5" y="-274" font-family="times" font-size="20.00">c_{k&#45;2}</text>
</g>
<!-- 0 -->
<g id="node3" class="node"><title>0</title>
<polygon fill="lightblue" stroke="black" stroke-width="2" points="214.5,-203 178.5,-203 178.5,-167 214.5,-167 214.5,-203"/>
<text text-anchor="middle" x="196.5" y="-180" font-family="times" font-size="20.00">0</text>
</g>
<!-- c_{k&#45;2}&#45;&gt;0 -->
<g id="edge2" class="edge"><title>c_{k&#45;2}&#45;&gt;0</title>
<path fill="none" stroke="black" d="M37.6995,-260.911C35.3147,-248.487 34.5816,-231.99 43.5,-221 51.3749,-211.296 126.534,-197.526 168.5,-190.501"/>
<polygon fill="gray" stroke="black" points="169.097,-193.95 178.393,-188.867 167.956,-187.044 169.097,-193.95"/>
<text text-anchor="middle" x="78" y="-227" font-family="times" font-size="20.00">cweight</text>
</g>
<!-- 1 -->
<g id="node4" class="node"><title>1</title>
<polygon fill="lightblue" stroke="black" stroke-width="2" points="339.5,-203 303.5,-203 303.5,-167 339.5,-167 339.5,-203"/>
<text text-anchor="middle" x="321.5" y="-180" font-family="times" font-size="20.00">1</text>
</g>
<!-- c_{k&#45;2}&#45;&gt;1 -->
<g id="edge3" class="edge"><title>c_{k&#45;2}&#45;&gt;1</title>
<path fill="none" stroke="black" d="M76.7669,-260.889C109.883,-244.371 155.369,-221.742 157.5,-221 182.296,-212.362 253.571,-198.52 293.516,-191.096"/>
<polygon fill="gray" stroke="black" points="294.22,-194.526 303.418,-189.268 292.949,-187.642 294.22,-194.526"/>
<text text-anchor="middle" x="178.5" y="-227" font-family="times" font-size="20.00">conv</text>
</g>
<!-- 2 -->
<g id="node5" class="node"><title>2</title>
<polygon fill="lightblue" stroke="black" stroke-width="2" points="195.5,-109 159.5,-109 159.5,-73 195.5,-73 195.5,-109"/>
<text text-anchor="middle" x="177.5" y="-86" font-family="times" font-size="20.00">2</text>
</g>
<!-- c_{k&#45;2}&#45;&gt;2 -->
<g id="edge6" class="edge"><title>c_{k&#45;2}&#45;&gt;2</title>
<path fill="none" stroke="black" d="M33.9996,-260.915C29.4266,-249.252 25.7835,-233.679 31.5,-221 55.9388,-166.795 115.658,-126.206 150.681,-106.092"/>
<polygon fill="gray" stroke="black" points="152.417,-109.131 159.436,-101.195 149,-103.022 152.417,-109.131"/>
<text text-anchor="middle" x="102" y="-180" font-family="times" font-size="20.00">cweight</text>
</g>
<!-- c_{k&#45;1} -->
<g id="node2" class="node"><title>c_{k&#45;1}</title>
<polygon fill="#b4eeb4" stroke="black" stroke-width="2" points="367,-297 282,-297 282,-261 367,-261 367,-297"/>
<text text-anchor="middle" x="324.5" y="-274" font-family="times" font-size="20.00">c_{k&#45;1}</text>
</g>
<!-- c_{k&#45;1}&#45;&gt;0 -->
<g id="edge1" class="edge"><title>c_{k&#45;1}&#45;&gt;0</title>
<path fill="none" stroke="black" d="M281.919,-273.297C259.874,-268.818 233.989,-260.073 216.5,-243 208.395,-235.088 203.569,-223.707 200.698,-213.192"/>
<polygon fill="gray" stroke="black" points="204.043,-212.112 198.43,-203.126 197.214,-213.651 204.043,-212.112"/>
<text text-anchor="middle" x="267.5" y="-227" font-family="times" font-size="20.00">down_conv</text>
</g>
<!-- c_{k&#45;1}&#45;&gt;1 -->
<g id="edge4" class="edge"><title>c_{k&#45;1}&#45;&gt;1</title>
<path fill="none" stroke="black" d="M323.936,-260.696C323.504,-247.46 322.9,-228.947 322.402,-213.663"/>
<polygon fill="gray" stroke="black" points="325.886,-213.107 322.062,-203.227 318.89,-213.336 325.886,-213.107"/>
<text text-anchor="middle" x="363.5" y="-227" font-family="times" font-size="20.00">avg_pool</text>
</g>
<!-- 3 -->
<g id="node6" class="node"><title>3</title>
<polygon fill="lightblue" stroke="black" stroke-width="2" points="367.5,-109 331.5,-109 331.5,-73 367.5,-73 367.5,-109"/>
<text text-anchor="middle" x="349.5" y="-86" font-family="times" font-size="20.00">3</text>
</g>
<!-- c_{k&#45;1}&#45;&gt;3 -->
<g id="edge8" class="edge"><title>c_{k&#45;1}&#45;&gt;3</title>
<path fill="none" stroke="black" d="M367.153,-270.259C382.529,-265.187 398.334,-256.812 407.5,-243 424.255,-217.751 425.211,-199.326 384.5,-127 381.88,-122.345 378.469,-117.888 374.806,-113.806"/>
<polygon fill="gray" stroke="black" points="377.097,-111.144 367.591,-106.466 372.105,-116.051 377.097,-111.144"/>
<text text-anchor="middle" x="484" y="-180" font-family="times" font-size="20.00">down_dil_conv</text>
</g>
<!-- 0&#45;&gt;2 -->
<g id="edge5" class="edge"><title>0&#45;&gt;2</title>
<path fill="none" stroke="black" d="M185.69,-166.818C182.788,-161.331 180.033,-155.097 178.5,-149 176.116,-139.515 175.423,-128.86 175.471,-119.352"/>
<polygon fill="gray" stroke="black" points="178.974,-119.332 175.79,-109.226 171.977,-119.111 178.974,-119.332"/>
<text text-anchor="middle" x="215" y="-133" font-family="times" font-size="20.00">dil_conv</text>
</g>
<!-- c_{k} -->
<g id="node7" class="node"><title>c_{k}</title>
<polygon fill="palegoldenrod" stroke="black" stroke-width="2" points="317.5,-36 251.5,-36 251.5,-0 317.5,-0 317.5,-36"/>
<text text-anchor="middle" x="284.5" y="-13" font-family="times" font-size="20.00">c_{k}</text>
</g>
<!-- 0&#45;&gt;c_{k} -->
<g id="edge9" class="edge"><title>0&#45;&gt;c_{k}</title>
<path fill="none" stroke="black" d="M214.685,-176.737C226.856,-170.969 242.278,-161.746 251.5,-149 273.551,-118.522 280.913,-74.7389 283.343,-46.5815"/>
<polygon fill="gray" stroke="black" points="286.859,-46.4842 284.073,-36.2621 279.876,-45.9901 286.859,-46.4842"/>
</g>
<!-- 1&#45;&gt;3 -->
<g id="edge7" class="edge"><title>1&#45;&gt;3</title>
<path fill="none" stroke="black" d="M326.767,-166.696C330.834,-153.331 336.539,-134.587 341.216,-119.219"/>
<polygon fill="gray" stroke="black" points="344.694,-119.813 344.257,-109.227 337.997,-117.775 344.694,-119.813"/>
<text text-anchor="middle" x="359.5" y="-133" font-family="times" font-size="20.00">conv</text>
</g>
<!-- 1&#45;&gt;c_{k} -->
<g id="edge10" class="edge"><title>1&#45;&gt;c_{k}</title>
<path fill="none" stroke="black" d="M317.68,-166.964C311.254,-138.31 298.235,-80.2518 290.554,-45.9982"/>
<polygon fill="gray" stroke="black" points="293.958,-45.1828 288.355,-36.1909 287.128,-46.7145 293.958,-45.1828"/>
</g>
<!-- 2&#45;&gt;c_{k} -->
<g id="edge11" class="edge"><title>2&#45;&gt;c_{k}</title>
<path fill="none" stroke="black" d="M195.651,-77.9558C210.511,-68.0958 231.955,-53.8662 250.054,-41.8569"/>
<polygon fill="gray" stroke="black" points="252.229,-44.6142 258.626,-36.1687 248.358,-38.7814 252.229,-44.6142"/>
</g>
<!-- 3&#45;&gt;c_{k} -->
<g id="edge12" class="edge"><title>3&#45;&gt;c_{k}</title>
<path fill="none" stroke="black" d="M334.302,-72.6951C329.02,-66.7367 323.034,-60.0444 317.5,-54 314.435,-50.6525 311.185,-47.1491 307.965,-43.7067"/>
<polygon fill="gray" stroke="black" points="310.451,-41.2409 301.051,-36.3526 305.351,-46.0357 310.451,-41.2409"/>
</g>
</g>
</svg>
