<?xml version="1.0" encoding="UTF-8" standalone="no"?>
<!DOCTYPE svg PUBLIC "-//W3C//DTD SVG 1.1//EN"
 "http://www.w3.org/Graphics/SVG/1.1/DTD/svg11.dtd">
<!-- Generated by graphviz version 2.38.0 (20140413.2041)
 -->
<!-- Title: %3 Pages: 1 -->
<svg width="761pt" height="399pt"
 viewBox="0.00 0.00 760.50 399.00" xmlns="http://www.w3.org/2000/svg" xmlns:xlink="http://www.w3.org/1999/xlink">
<g id="graph0" class="graph" transform="scale(1 1) rotate(0) translate(4 395)">
<title>%3</title>
<polygon fill="white" stroke="none" points="-4,4 -4,-395 756.5,-395 756.5,4 -4,4"/>
<!-- c_{k&#45;2} -->
<g id="node1" class="node"><title>c_{k&#45;2}</title>
<polygon fill="#b4eeb4" stroke="black" stroke-width="2" points="85,-391 0,-391 0,-355 85,-355 85,-391"/>
<text text-anchor="middle" x="42.5" y="-368" font-family="times" font-size="20.00">c_{k&#45;2}</text>
</g>
<!-- 0 -->
<g id="node3" class="node"><title>0</title>
<polygon fill="lightblue" stroke="black" stroke-width="2" points="84.5,-297 48.5,-297 48.5,-261 84.5,-261 84.5,-297"/>
<text text-anchor="middle" x="66.5" y="-274" font-family="times" font-size="20.00">0</text>
</g>
<!-- c_{k&#45;2}&#45;&gt;0 -->
<g id="edge2" class="edge"><title>c_{k&#45;2}&#45;&gt;0</title>
<path fill="none" stroke="black" d="M40.3357,-354.646C39.4951,-343.144 39.5291,-327.861 43.5,-315 44.4351,-311.971 45.7186,-308.959 47.2049,-306.046"/>
<polygon fill="gray" stroke="black" points="50.3741,-307.563 52.4645,-297.177 44.3532,-303.993 50.3741,-307.563"/>
<text text-anchor="middle" x="85.5" y="-321" font-family="times" font-size="20.00">sep_conv</text>
</g>
<!-- c_{k&#45;1} -->
<g id="node2" class="node"><title>c_{k&#45;1}</title>
<polygon fill="#b4eeb4" stroke="black" stroke-width="2" points="446,-391 361,-391 361,-355 446,-355 446,-391"/>
<text text-anchor="middle" x="403.5" y="-368" font-family="times" font-size="20.00">c_{k&#45;1}</text>
</g>
<!-- c_{k&#45;1}&#45;&gt;0 -->
<g id="edge1" class="edge"><title>c_{k&#45;1}&#45;&gt;0</title>
<path fill="none" stroke="black" d="M360.896,-369.283C298.759,-364.787 186.729,-354.515 150.5,-337 137.765,-330.843 138.829,-323.471 127.5,-315 116.987,-307.139 104.546,-299.708 93.6508,-293.732"/>
<polygon fill="gray" stroke="black" points="95.031,-290.502 84.5609,-288.881 91.7351,-296.677 95.031,-290.502"/>
<text text-anchor="middle" x="219" y="-321" font-family="times" font-size="20.00">down_att_conv</text>
</g>
<!-- 1 -->
<g id="node4" class="node"><title>1</title>
<polygon fill="lightblue" stroke="black" stroke-width="2" points="297.5,-203 261.5,-203 261.5,-167 297.5,-167 297.5,-203"/>
<text text-anchor="middle" x="279.5" y="-180" font-family="times" font-size="20.00">1</text>
</g>
<!-- c_{k&#45;1}&#45;&gt;1 -->
<g id="edge4" class="edge"><title>c_{k&#45;1}&#45;&gt;1</title>
<path fill="none" stroke="black" d="M428.116,-354.849C456.604,-332.845 496.905,-293.622 474.5,-261 436.559,-205.756 351.808,-191.188 307.58,-187.357"/>
<polygon fill="gray" stroke="black" points="307.746,-183.86 297.515,-186.612 307.229,-190.841 307.746,-183.86"/>
<text text-anchor="middle" x="552.5" y="-274" font-family="times" font-size="20.00">down_sep_conv</text>
</g>
<!-- 2 -->
<g id="node5" class="node"><title>2</title>
<polygon fill="lightblue" stroke="black" stroke-width="2" points="231.5,-203 195.5,-203 195.5,-167 231.5,-167 231.5,-203"/>
<text text-anchor="middle" x="213.5" y="-180" font-family="times" font-size="20.00">2</text>
</g>
<!-- c_{k&#45;1}&#45;&gt;2 -->
<g id="edge6" class="edge"><title>c_{k&#45;1}&#45;&gt;2</title>
<path fill="none" stroke="black" d="M368.23,-354.993C345.57,-342.207 317.482,-322.522 301.5,-297 283.271,-267.89 308.438,-248.226 287.5,-221 285.892,-218.909 261.254,-207.469 240.843,-198.229"/>
<polygon fill="gray" stroke="black" points="242.127,-194.968 231.572,-194.05 239.25,-201.35 242.127,-194.968"/>
<text text-anchor="middle" x="386" y="-274" font-family="times" font-size="20.00">donw_atrous_conv</text>
</g>
<!-- 3 -->
<g id="node6" class="node"><title>3</title>
<polygon fill="lightblue" stroke="black" stroke-width="2" points="315.5,-109 279.5,-109 279.5,-73 315.5,-73 315.5,-109"/>
<text text-anchor="middle" x="297.5" y="-86" font-family="times" font-size="20.00">3</text>
</g>
<!-- c_{k&#45;1}&#45;&gt;3 -->
<g id="edge7" class="edge"><title>c_{k&#45;1}&#45;&gt;3</title>
<path fill="none" stroke="black" d="M446.053,-368.352C522.072,-359.94 669.589,-333.965 628.5,-261 564.189,-146.797 393.533,-107.425 325.79,-96.034"/>
<polygon fill="gray" stroke="black" points="326.262,-92.5649 315.834,-94.4389 325.154,-99.4768 326.262,-92.5649"/>
<text text-anchor="middle" x="684" y="-227" font-family="times" font-size="20.00">down_att_conv</text>
</g>
<!-- 0&#45;&gt;1 -->
<g id="edge3" class="edge"><title>0&#45;&gt;1</title>
<path fill="none" stroke="black" d="M84.8016,-270.639C102.058,-263.657 128.616,-252.804 151.5,-243 186.396,-228.049 226.315,-210.144 252.164,-198.442"/>
<polygon fill="gray" stroke="black" points="253.68,-201.598 261.342,-194.281 250.789,-195.223 253.68,-201.598"/>
<text text-anchor="middle" x="257" y="-227" font-family="times" font-size="20.00">shuffle_conv</text>
</g>
<!-- 0&#45;&gt;2 -->
<g id="edge5" class="edge"><title>0&#45;&gt;2</title>
<path fill="none" stroke="black" d="M61.733,-260.938C59.3652,-248.528 58.6388,-232.036 67.5,-221 82.0439,-202.887 147.112,-193.029 185.299,-188.712"/>
<polygon fill="gray" stroke="black" points="185.723,-192.187 195.292,-187.639 184.975,-185.227 185.723,-192.187"/>
<text text-anchor="middle" x="109.5" y="-227" font-family="times" font-size="20.00">sep_conv</text>
</g>
<!-- c_{k} -->
<g id="node7" class="node"><title>c_{k}</title>
<polygon fill="palegoldenrod" stroke="black" stroke-width="2" points="265.5,-36 199.5,-36 199.5,-0 265.5,-0 265.5,-36"/>
<text text-anchor="middle" x="232.5" y="-13" font-family="times" font-size="20.00">c_{k}</text>
</g>
<!-- 0&#45;&gt;c_{k} -->
<g id="edge9" class="edge"><title>0&#45;&gt;c_{k}</title>
<path fill="none" stroke="black" d="M58.4281,-260.878C54.1311,-249.339 50.639,-233.923 55.5,-221 84.6632,-143.466 158.592,-76.2626 201.109,-42.3914"/>
<polygon fill="gray" stroke="black" points="203.463,-44.9937 209.171,-36.0684 199.143,-39.4856 203.463,-44.9937"/>
</g>
<!-- 1&#45;&gt;3 -->
<g id="edge8" class="edge"><title>1&#45;&gt;3</title>
<path fill="none" stroke="black" d="M282.886,-166.696C285.5,-153.331 289.168,-134.587 292.175,-119.219"/>
<polygon fill="gray" stroke="black" points="295.644,-119.713 294.13,-109.227 288.774,-118.369 295.644,-119.713"/>
<text text-anchor="middle" x="347" y="-133" font-family="times" font-size="20.00">shuffle_conv</text>
</g>
<!-- 1&#45;&gt;c_{k} -->
<g id="edge10" class="edge"><title>1&#45;&gt;c_{k}</title>
<path fill="none" stroke="black" d="M274.647,-166.964C266.485,-138.31 249.947,-80.2518 240.19,-45.9982"/>
<polygon fill="gray" stroke="black" points="243.503,-44.8495 237.397,-36.1909 236.77,-46.7672 243.503,-44.8495"/>
</g>
<!-- 2&#45;&gt;c_{k} -->
<g id="edge11" class="edge"><title>2&#45;&gt;c_{k}</title>
<path fill="none" stroke="black" d="M215.462,-166.964C218.747,-138.433 225.389,-80.7517 229.34,-46.4425"/>
<polygon fill="gray" stroke="black" points="232.853,-46.5257 230.52,-36.1909 225.899,-45.7249 232.853,-46.5257"/>
</g>
<!-- 3&#45;&gt;c_{k} -->
<g id="edge12" class="edge"><title>3&#45;&gt;c_{k}</title>
<path fill="none" stroke="black" d="M282.302,-72.6951C277.02,-66.7367 271.034,-60.0444 265.5,-54 262.435,-50.6525 259.185,-47.1491 255.965,-43.7067"/>
<polygon fill="gray" stroke="black" points="258.451,-41.2409 249.051,-36.3526 253.351,-46.0357 258.451,-41.2409"/>
</g>
</g>
</svg>
