<?xml version="1.0" encoding="UTF-8" standalone="no"?>
<!DOCTYPE svg PUBLIC "-//W3C//DTD SVG 1.1//EN"
 "http://www.w3.org/Graphics/SVG/1.1/DTD/svg11.dtd">
<!-- Generated by graphviz version 2.38.0 (20140413.2041)
 -->
<!-- Title: %3 Pages: 1 -->
<svg width="400pt" height="493pt"
 viewBox="0.00 0.00 399.50 493.00" xmlns="http://www.w3.org/2000/svg" xmlns:xlink="http://www.w3.org/1999/xlink">
<g id="graph0" class="graph" transform="scale(1 1) rotate(0) translate(4 489)">
<title>%3</title>
<polygon fill="white" stroke="none" points="-4,4 -4,-489 395.5,-489 395.5,4 -4,4"/>
<!-- c_{k&#45;2} -->
<g id="node1" class="node"><title>c_{k&#45;2}</title>
<polygon fill="#b4eeb4" stroke="black" stroke-width="2" points="85,-485 0,-485 0,-449 85,-449 85,-485"/>
<text text-anchor="middle" x="42.5" y="-462" font-family="times" font-size="20.00">c_{k&#45;2}</text>
</g>
<!-- 0 -->
<g id="node3" class="node"><title>0</title>
<polygon fill="lightblue" stroke="black" stroke-width="2" points="132.5,-391 96.5,-391 96.5,-355 132.5,-355 132.5,-391"/>
<text text-anchor="middle" x="114.5" y="-368" font-family="times" font-size="20.00">0</text>
</g>
<!-- c_{k&#45;2}&#45;&gt;0 -->
<g id="edge1" class="edge"><title>c_{k&#45;2}&#45;&gt;0</title>
<path fill="none" stroke="black" d="M38.3995,-448.962C36.4818,-436.88 36.0261,-420.785 43.5,-409 53.0393,-393.958 71.1185,-385.176 86.6452,-380.17"/>
<polygon fill="gray" stroke="black" points="87.7076,-383.507 96.3644,-377.399 85.7879,-376.775 87.7076,-383.507"/>
<text text-anchor="middle" x="85.5" y="-415" font-family="times" font-size="20.00">sep_conv</text>
</g>
<!-- c_{k&#45;1} -->
<g id="node2" class="node"><title>c_{k&#45;1}</title>
<polygon fill="#b4eeb4" stroke="black" stroke-width="2" points="255,-485 170,-485 170,-449 255,-449 255,-485"/>
<text text-anchor="middle" x="212.5" y="-462" font-family="times" font-size="20.00">c_{k&#45;1}</text>
</g>
<!-- c_{k&#45;1}&#45;&gt;0 -->
<g id="edge2" class="edge"><title>c_{k&#45;1}&#45;&gt;0</title>
<path fill="none" stroke="black" d="M175.36,-448.971C166.622,-443.941 157.752,-437.903 150.5,-431 141.189,-422.138 133.241,-410.388 127.2,-399.86"/>
<polygon fill="gray" stroke="black" points="130.249,-398.139 122.397,-391.026 124.099,-401.483 130.249,-398.139"/>
<text text-anchor="middle" x="206" y="-415" font-family="times" font-size="20.00">up_att_conv</text>
</g>
<!-- 1 -->
<g id="node4" class="node"><title>1</title>
<polygon fill="lightblue" stroke="black" stroke-width="2" points="293.5,-297 257.5,-297 257.5,-261 293.5,-261 293.5,-297"/>
<text text-anchor="middle" x="275.5" y="-274" font-family="times" font-size="20.00">1</text>
</g>
<!-- c_{k&#45;1}&#45;&gt;1 -->
<g id="edge4" class="edge"><title>c_{k&#45;1}&#45;&gt;1</title>
<path fill="none" stroke="black" d="M244.986,-448.832C251.459,-443.927 257.49,-437.98 261.5,-431 283.557,-392.61 282.676,-339.495 279.476,-307.568"/>
<polygon fill="gray" stroke="black" points="282.905,-306.751 278.281,-297.218 275.951,-307.553 282.905,-306.751"/>
<text text-anchor="middle" x="336" y="-368" font-family="times" font-size="20.00">up_att_conv</text>
</g>
<!-- 0&#45;&gt;1 -->
<g id="edge3" class="edge"><title>0&#45;&gt;1</title>
<path fill="none" stroke="black" d="M120.637,-354.854C126.066,-342.066 135.209,-325.124 148.5,-315 156.414,-308.972 212.241,-294.969 247.193,-286.617"/>
<polygon fill="gray" stroke="black" points="248.371,-289.935 257.294,-284.222 246.756,-283.124 248.371,-289.935"/>
<text text-anchor="middle" x="205" y="-321" font-family="times" font-size="20.00">shuffle_conv</text>
</g>
<!-- 2 -->
<g id="node5" class="node"><title>2</title>
<polygon fill="lightblue" stroke="black" stroke-width="2" points="165.5,-203 129.5,-203 129.5,-167 165.5,-167 165.5,-203"/>
<text text-anchor="middle" x="147.5" y="-180" font-family="times" font-size="20.00">2</text>
</g>
<!-- 0&#45;&gt;2 -->
<g id="edge5" class="edge"><title>0&#45;&gt;2</title>
<path fill="none" stroke="black" d="M116.119,-354.624C118.956,-326.36 125.585,-268.779 136.5,-221 137.104,-218.355 137.812,-215.622 138.572,-212.902"/>
<polygon fill="gray" stroke="black" points="141.932,-213.881 141.462,-203.296 135.229,-211.864 141.932,-213.881"/>
<text text-anchor="middle" x="169.5" y="-274" font-family="times" font-size="20.00">sep_conv</text>
</g>
<!-- c_{k} -->
<g id="node7" class="node"><title>c_{k}</title>
<polygon fill="palegoldenrod" stroke="black" stroke-width="2" points="198.5,-36 132.5,-36 132.5,-0 198.5,-0 198.5,-36"/>
<text text-anchor="middle" x="165.5" y="-13" font-family="times" font-size="20.00">c_{k}</text>
</g>
<!-- 0&#45;&gt;c_{k} -->
<g id="edge9" class="edge"><title>0&#45;&gt;c_{k}</title>
<path fill="none" stroke="black" d="M99.9453,-354.944C86.4688,-337.366 68.5,-308.572 68.5,-280 68.5,-280 68.5,-280 68.5,-90 68.5,-61.0974 96.8885,-42.6874 122.95,-31.876"/>
<polygon fill="gray" stroke="black" points="124.321,-35.0984 132.389,-28.2313 121.8,-28.5683 124.321,-35.0984"/>
</g>
<!-- 1&#45;&gt;2 -->
<g id="edge6" class="edge"><title>1&#45;&gt;2</title>
<path fill="none" stroke="black" d="M257.359,-273.607C223.08,-265.223 151.899,-247.382 148.5,-243 142.107,-234.758 140.808,-223.641 141.493,-213.414"/>
<polygon fill="gray" stroke="black" points="144.998,-213.599 142.794,-203.236 138.054,-212.712 144.998,-213.599"/>
<text text-anchor="middle" x="205" y="-227" font-family="times" font-size="20.00">shuffle_conv</text>
</g>
<!-- 3 -->
<g id="node6" class="node"><title>3</title>
<polygon fill="lightblue" stroke="black" stroke-width="2" points="211.5,-109 175.5,-109 175.5,-73 211.5,-73 211.5,-109"/>
<text text-anchor="middle" x="193.5" y="-86" font-family="times" font-size="20.00">3</text>
</g>
<!-- 1&#45;&gt;3 -->
<g id="edge7" class="edge"><title>1&#45;&gt;3</title>
<path fill="none" stroke="black" d="M272.043,-260.835C269.558,-249.413 265.88,-234.148 261.5,-221 247.149,-177.925 244.786,-165.977 221.5,-127 219.549,-123.735 217.323,-120.441 214.997,-117.248"/>
<polygon fill="gray" stroke="black" points="217.608,-114.903 208.73,-109.121 212.065,-119.178 217.608,-114.903"/>
<text text-anchor="middle" x="312" y="-180" font-family="times" font-size="20.00">shuffle_conv</text>
</g>
<!-- 1&#45;&gt;c_{k} -->
<g id="edge10" class="edge"><title>1&#45;&gt;c_{k}</title>
<path fill="none" stroke="black" d="M293.546,-269.524C327.446,-252.342 395.267,-211.265 372.5,-167 338.046,-100.012 257.657,-56.6024 207.808,-35.0798"/>
<polygon fill="gray" stroke="black" points="209.146,-31.8454 198.571,-31.1907 206.43,-38.2969 209.146,-31.8454"/>
</g>
<!-- 2&#45;&gt;3 -->
<g id="edge8" class="edge"><title>2&#45;&gt;3</title>
<path fill="none" stroke="black" d="M156.152,-166.696C162.963,-153.074 172.568,-133.864 180.332,-118.336"/>
<polygon fill="gray" stroke="black" points="183.545,-119.736 184.887,-109.227 177.284,-116.606 183.545,-119.736"/>
<text text-anchor="middle" x="196.5" y="-133" font-family="times" font-size="20.00">conv</text>
</g>
<!-- 2&#45;&gt;c_{k} -->
<g id="edge11" class="edge"><title>2&#45;&gt;c_{k}</title>
<path fill="none" stroke="black" d="M149.359,-166.964C152.471,-138.433 158.763,-80.7517 162.506,-46.4425"/>
<polygon fill="gray" stroke="black" points="166.019,-46.5116 163.625,-36.1909 159.061,-45.7524 166.019,-46.5116"/>
</g>
<!-- 3&#45;&gt;c_{k} -->
<g id="edge12" class="edge"><title>3&#45;&gt;c_{k}</title>
<path fill="none" stroke="black" d="M186.722,-72.8129C183.489,-64.6151 179.549,-54.6231 175.945,-45.4847"/>
<polygon fill="gray" stroke="black" points="179.14,-44.0475 172.216,-36.0288 172.628,-46.6156 179.14,-44.0475"/>
</g>
</g>
</svg>
