<?xml version="1.0" encoding="UTF-8" standalone="no"?>
<!DOCTYPE svg PUBLIC "-//W3C//DTD SVG 1.1//EN"
 "http://www.w3.org/Graphics/SVG/1.1/DTD/svg11.dtd">
<!-- Generated by graphviz version 2.38.0 (20140413.2041)
 -->
<!-- Title: %3 Pages: 1 -->
<svg width="308pt" height="493pt"
 viewBox="0.00 0.00 307.50 493.00" xmlns="http://www.w3.org/2000/svg" xmlns:xlink="http://www.w3.org/1999/xlink">
<g id="graph0" class="graph" transform="scale(1 1) rotate(0) translate(4 489)">
<title>%3</title>
<polygon fill="white" stroke="none" points="-4,4 -4,-489 303.5,-489 303.5,4 -4,4"/>
<!-- c_{k&#45;2} -->
<g id="node1" class="node"><title>c_{k&#45;2}</title>
<polygon fill="#b4eeb4" stroke="black" stroke-width="2" points="85,-485 0,-485 0,-449 85,-449 85,-485"/>
<text text-anchor="middle" x="42.5" y="-462" font-family="times" font-size="20.00">c_{k&#45;2}</text>
</g>
<!-- 0 -->
<g id="node3" class="node"><title>0</title>
<polygon fill="lightblue" stroke="black" stroke-width="2" points="199.5,-391 163.5,-391 163.5,-355 199.5,-355 199.5,-391"/>
<text text-anchor="middle" x="181.5" y="-368" font-family="times" font-size="20.00">0</text>
</g>
<!-- c_{k&#45;2}&#45;&gt;0 -->
<g id="edge2" class="edge"><title>c_{k&#45;2}&#45;&gt;0</title>
<path fill="none" stroke="black" d="M54.4389,-448.843C63.8439,-436.385 77.9331,-419.874 93.5,-409 111.839,-396.19 135.541,-387.11 153.725,-381.414"/>
<polygon fill="gray" stroke="black" points="154.864,-384.727 163.451,-378.522 152.868,-378.017 154.864,-384.727"/>
<text text-anchor="middle" x="135.5" y="-415" font-family="times" font-size="20.00">sep_conv</text>
</g>
<!-- 1 -->
<g id="node4" class="node"><title>1</title>
<polygon fill="lightblue" stroke="black" stroke-width="2" points="44.5,-297 8.5,-297 8.5,-261 44.5,-261 44.5,-297"/>
<text text-anchor="middle" x="26.5" y="-274" font-family="times" font-size="20.00">1</text>
</g>
<!-- c_{k&#45;2}&#45;&gt;1 -->
<g id="edge4" class="edge"><title>c_{k&#45;2}&#45;&gt;1</title>
<path fill="none" stroke="black" d="M41.0234,-448.835C38.2373,-416.446 32.1849,-346.087 28.8398,-307.2"/>
<polygon fill="gray" stroke="black" points="32.3173,-306.787 27.973,-297.124 25.343,-307.387 32.3173,-306.787"/>
<text text-anchor="middle" x="69.5" y="-368" font-family="times" font-size="20.00">identity</text>
</g>
<!-- c_{k&#45;1} -->
<g id="node2" class="node"><title>c_{k&#45;1}</title>
<polygon fill="#b4eeb4" stroke="black" stroke-width="2" points="224,-485 139,-485 139,-449 224,-449 224,-485"/>
<text text-anchor="middle" x="181.5" y="-462" font-family="times" font-size="20.00">c_{k&#45;1}</text>
</g>
<!-- c_{k&#45;1}&#45;&gt;0 -->
<g id="edge1" class="edge"><title>c_{k&#45;1}&#45;&gt;0</title>
<path fill="none" stroke="black" d="M181.5,-448.696C181.5,-435.46 181.5,-416.947 181.5,-401.663"/>
<polygon fill="gray" stroke="black" points="185,-401.227 181.5,-391.227 178,-401.227 185,-401.227"/>
<text text-anchor="middle" x="223.5" y="-415" font-family="times" font-size="20.00">sep_conv</text>
</g>
<!-- 0&#45;&gt;1 -->
<g id="edge3" class="edge"><title>0&#45;&gt;1</title>
<path fill="none" stroke="black" d="M163.395,-368.465C133.79,-362.409 76.6869,-349.492 60.5,-337 50.2698,-329.105 42.4778,-317.188 36.9511,-306.288"/>
<polygon fill="gray" stroke="black" points="40.0664,-304.687 32.673,-297.098 33.7203,-307.641 40.0664,-304.687"/>
<text text-anchor="middle" x="117" y="-321" font-family="times" font-size="20.00">shuffle_conv</text>
</g>
<!-- 2 -->
<g id="node5" class="node"><title>2</title>
<polygon fill="lightblue" stroke="black" stroke-width="2" points="193.5,-203 157.5,-203 157.5,-167 193.5,-167 193.5,-203"/>
<text text-anchor="middle" x="175.5" y="-180" font-family="times" font-size="20.00">2</text>
</g>
<!-- 0&#45;&gt;2 -->
<g id="edge5" class="edge"><title>0&#45;&gt;2</title>
<path fill="none" stroke="black" d="M180.946,-354.835C179.901,-322.446 177.632,-252.087 176.377,-213.2"/>
<polygon fill="gray" stroke="black" points="179.873,-213.005 176.052,-203.124 172.877,-213.231 179.873,-213.005"/>
<text text-anchor="middle" x="220.5" y="-274" font-family="times" font-size="20.00">sep_conv</text>
</g>
<!-- c_{k} -->
<g id="node7" class="node"><title>c_{k}</title>
<polygon fill="palegoldenrod" stroke="black" stroke-width="2" points="187.5,-36 121.5,-36 121.5,-0 187.5,-0 187.5,-36"/>
<text text-anchor="middle" x="154.5" y="-13" font-family="times" font-size="20.00">c_{k}</text>
</g>
<!-- 0&#45;&gt;c_{k} -->
<g id="edge9" class="edge"><title>0&#45;&gt;c_{k}</title>
<path fill="none" stroke="black" d="M199.679,-367.057C232.779,-356.827 299.5,-330.005 299.5,-280 299.5,-280 299.5,-280 299.5,-90 299.5,-44.2964 240.675,-28.0095 197.961,-22.2076"/>
<polygon fill="gray" stroke="black" points="198.114,-18.7007 187.766,-20.9757 197.274,-25.6501 198.114,-18.7007"/>
</g>
<!-- 1&#45;&gt;2 -->
<g id="edge6" class="edge"><title>1&#45;&gt;2</title>
<path fill="none" stroke="black" d="M32.3715,-260.911C37.7023,-247.978 46.8401,-230.819 60.5,-221 91.1493,-198.968 108.054,-215.977 143.5,-203 144.94,-202.473 146.396,-201.892 147.851,-201.272"/>
<polygon fill="gray" stroke="black" points="149.761,-204.24 157.285,-196.78 146.751,-197.92 149.761,-204.24"/>
<text text-anchor="middle" x="117" y="-227" font-family="times" font-size="20.00">shuffle_conv</text>
</g>
<!-- 3 -->
<g id="node6" class="node"><title>3</title>
<polygon fill="lightblue" stroke="black" stroke-width="2" points="136.5,-109 100.5,-109 100.5,-73 136.5,-73 136.5,-109"/>
<text text-anchor="middle" x="118.5" y="-86" font-family="times" font-size="20.00">3</text>
</g>
<!-- 1&#45;&gt;3 -->
<g id="edge7" class="edge"><title>1&#45;&gt;3</title>
<path fill="none" stroke="black" d="M24.1357,-260.807C21.8188,-238.07 20.5263,-197.341 35.5,-167 47.8727,-141.929 72.5753,-121.339 91.8289,-108.118"/>
<polygon fill="gray" stroke="black" points="93.8114,-111.003 100.228,-102.572 89.9543,-105.161 93.8114,-111.003"/>
<text text-anchor="middle" x="92" y="-180" font-family="times" font-size="20.00">shuffle_conv</text>
</g>
<!-- 1&#45;&gt;c_{k} -->
<g id="edge10" class="edge"><title>1&#45;&gt;c_{k}</title>
<path fill="none" stroke="black" d="M22.4576,-260.705C18.0128,-238.548 12.6007,-199.164 21.5,-167 36.4465,-112.98 85.8717,-67.9848 120.067,-42.2738"/>
<polygon fill="gray" stroke="black" points="122.41,-44.896 128.403,-36.1588 118.269,-39.2519 122.41,-44.896"/>
</g>
<!-- 2&#45;&gt;3 -->
<g id="edge8" class="edge"><title>2&#45;&gt;3</title>
<path fill="none" stroke="black" d="M157.25,-173.761C141.755,-164.882 121.688,-152.867 119.5,-149 114.489,-140.143 113.342,-129.207 113.763,-119.29"/>
<polygon fill="gray" stroke="black" points="117.272,-119.36 114.727,-109.075 110.303,-118.702 117.272,-119.36"/>
<text text-anchor="middle" x="140.5" y="-133" font-family="times" font-size="20.00">conv</text>
</g>
<!-- 2&#45;&gt;c_{k} -->
<g id="edge11" class="edge"><title>2&#45;&gt;c_{k}</title>
<path fill="none" stroke="black" d="M173.332,-166.964C169.701,-138.433 162.359,-80.7517 157.993,-46.4425"/>
<polygon fill="gray" stroke="black" points="161.423,-45.669 156.688,-36.1909 154.479,-46.5528 161.423,-45.669"/>
</g>
<!-- 3&#45;&gt;c_{k} -->
<g id="edge12" class="edge"><title>3&#45;&gt;c_{k}</title>
<path fill="none" stroke="black" d="M127.215,-72.8129C131.415,-64.5279 136.545,-54.4103 141.219,-45.1933"/>
<polygon fill="gray" stroke="black" points="144.465,-46.5307 145.866,-36.0288 138.222,-43.365 144.465,-46.5307"/>
</g>
</g>
</svg>
