<?xml version="1.0" encoding="UTF-8" standalone="no"?>
<!DOCTYPE svg PUBLIC "-//W3C//DTD SVG 1.1//EN"
 "http://www.w3.org/Graphics/SVG/1.1/DTD/svg11.dtd">
<!-- Generated by graphviz version 2.38.0 (20140413.2041)
 -->
<!-- Title: %3 Pages: 1 -->
<svg width="312pt" height="493pt"
 viewBox="0.00 0.00 311.50 493.00" xmlns="http://www.w3.org/2000/svg" xmlns:xlink="http://www.w3.org/1999/xlink">
<g id="graph0" class="graph" transform="scale(1 1) rotate(0) translate(4 489)">
<title>%3</title>
<polygon fill="white" stroke="none" points="-4,4 -4,-489 307.5,-489 307.5,4 -4,4"/>
<!-- c_{k&#45;2} -->
<g id="node1" class="node"><title>c_{k&#45;2}</title>
<polygon fill="#b4eeb4" stroke="black" stroke-width="2" points="85,-485 0,-485 0,-449 85,-449 85,-485"/>
<text text-anchor="middle" x="42.5" y="-462" font-family="times" font-size="20.00">c_{k&#45;2}</text>
</g>
<!-- 0 -->
<g id="node3" class="node"><title>0</title>
<polygon fill="lightblue" stroke="black" stroke-width="2" points="194.5,-391 158.5,-391 158.5,-355 194.5,-355 194.5,-391"/>
<text text-anchor="middle" x="176.5" y="-368" font-family="times" font-size="20.00">0</text>
</g>
<!-- c_{k&#45;2}&#45;&gt;0 -->
<g id="edge2" class="edge"><title>c_{k&#45;2}&#45;&gt;0</title>
<path fill="none" stroke="black" d="M52.9194,-448.793C61.2242,-436.31 73.8621,-419.789 88.5,-409 106.507,-395.728 130.23,-386.677 148.507,-381.109"/>
<polygon fill="gray" stroke="black" points="149.646,-384.424 158.291,-378.299 147.714,-377.696 149.646,-384.424"/>
<text text-anchor="middle" x="130.5" y="-415" font-family="times" font-size="20.00">sep_conv</text>
</g>
<!-- 1 -->
<g id="node4" class="node"><title>1</title>
<polygon fill="lightblue" stroke="black" stroke-width="2" points="64.5,-297 28.5,-297 28.5,-261 64.5,-261 64.5,-297"/>
<text text-anchor="middle" x="46.5" y="-274" font-family="times" font-size="20.00">1</text>
</g>
<!-- c_{k&#45;2}&#45;&gt;1 -->
<g id="edge4" class="edge"><title>c_{k&#45;2}&#45;&gt;1</title>
<path fill="none" stroke="black" d="M40.4924,-448.723C37.5717,-420.598 33.0605,-363.209 38.5,-315 38.7874,-312.453 39.1889,-309.821 39.6605,-307.197"/>
<polygon fill="gray" stroke="black" points="43.1059,-307.82 41.7329,-297.314 36.2549,-306.383 43.1059,-307.82"/>
<text text-anchor="middle" x="78.5" y="-368" font-family="times" font-size="20.00">sep_conv</text>
</g>
<!-- c_{k&#45;1} -->
<g id="node2" class="node"><title>c_{k&#45;1}</title>
<polygon fill="#b4eeb4" stroke="black" stroke-width="2" points="219,-485 134,-485 134,-449 219,-449 219,-485"/>
<text text-anchor="middle" x="176.5" y="-462" font-family="times" font-size="20.00">c_{k&#45;1}</text>
</g>
<!-- c_{k&#45;1}&#45;&gt;0 -->
<g id="edge1" class="edge"><title>c_{k&#45;1}&#45;&gt;0</title>
<path fill="none" stroke="black" d="M176.5,-448.696C176.5,-435.46 176.5,-416.947 176.5,-401.663"/>
<polygon fill="gray" stroke="black" points="180,-401.227 176.5,-391.227 173,-401.227 180,-401.227"/>
<text text-anchor="middle" x="218.5" y="-415" font-family="times" font-size="20.00">sep_conv</text>
</g>
<!-- 0&#45;&gt;1 -->
<g id="edge3" class="edge"><title>0&#45;&gt;1</title>
<path fill="none" stroke="black" d="M158.372,-367.596C124.117,-359.193 52.9754,-341.322 49.5,-337 42.9095,-328.804 41.2679,-317.607 41.6046,-307.305"/>
<polygon fill="gray" stroke="black" points="45.1164,-307.337 42.5471,-297.058 38.1459,-306.696 45.1164,-307.337"/>
<text text-anchor="middle" x="106" y="-321" font-family="times" font-size="20.00">shuffle_conv</text>
</g>
<!-- 2 -->
<g id="node5" class="node"><title>2</title>
<polygon fill="lightblue" stroke="black" stroke-width="2" points="167.5,-203 131.5,-203 131.5,-167 167.5,-167 167.5,-203"/>
<text text-anchor="middle" x="149.5" y="-180" font-family="times" font-size="20.00">2</text>
</g>
<!-- 0&#45;&gt;2 -->
<g id="edge6" class="edge"><title>0&#45;&gt;2</title>
<path fill="none" stroke="black" d="M176.364,-354.557C175.814,-326.199 173.321,-268.489 162.5,-221 161.887,-218.308 161.117,-215.543 160.261,-212.804"/>
<polygon fill="gray" stroke="black" points="163.5,-211.462 156.903,-203.172 156.89,-213.766 163.5,-211.462"/>
<text text-anchor="middle" x="193.5" y="-274" font-family="times" font-size="20.00">conv</text>
</g>
<!-- 3 -->
<g id="node6" class="node"><title>3</title>
<polygon fill="lightblue" stroke="black" stroke-width="2" points="196.5,-109 160.5,-109 160.5,-73 196.5,-73 196.5,-109"/>
<text text-anchor="middle" x="178.5" y="-86" font-family="times" font-size="20.00">3</text>
</g>
<!-- 0&#45;&gt;3 -->
<g id="edge7" class="edge"><title>0&#45;&gt;3</title>
<path fill="none" stroke="black" d="M188.908,-354.771C198.736,-340.151 211.878,-318.227 218.5,-297 238.177,-233.927 229.385,-214.998 232.5,-149 232.961,-139.233 237.169,-135.591 232.5,-127 226.7,-116.328 216.087,-108.408 205.795,-102.828"/>
<polygon fill="gray" stroke="black" points="207.105,-99.5728 196.581,-98.3483 204.044,-105.868 207.105,-99.5728"/>
<text text-anchor="middle" x="252.5" y="-227" font-family="times" font-size="20.00">conv</text>
</g>
<!-- c_{k} -->
<g id="node7" class="node"><title>c_{k}</title>
<polygon fill="palegoldenrod" stroke="black" stroke-width="2" points="183.5,-36 117.5,-36 117.5,-0 183.5,-0 183.5,-36"/>
<text text-anchor="middle" x="150.5" y="-13" font-family="times" font-size="20.00">c_{k}</text>
</g>
<!-- 0&#45;&gt;c_{k} -->
<g id="edge9" class="edge"><title>0&#45;&gt;c_{k}</title>
<path fill="none" stroke="black" d="M194.696,-367.862C229.813,-358.681 303.5,-333.091 303.5,-280 303.5,-280 303.5,-280 303.5,-90 303.5,-41.371 239.118,-25.9556 193.882,-21.1261"/>
<polygon fill="gray" stroke="black" points="193.98,-17.6202 183.699,-20.1796 193.332,-24.5902 193.98,-17.6202"/>
</g>
<!-- 1&#45;&gt;2 -->
<g id="edge5" class="edge"><title>1&#45;&gt;2</title>
<path fill="none" stroke="black" d="M52.9273,-260.752C58.2375,-248.411 66.8039,-232.086 78.5,-221 90.6998,-209.437 107.45,-200.933 121.617,-195.205"/>
<polygon fill="gray" stroke="black" points="123.255,-198.328 131.374,-191.521 120.782,-191.779 123.255,-198.328"/>
<text text-anchor="middle" x="120.5" y="-227" font-family="times" font-size="20.00">sep_conv</text>
</g>
<!-- 1&#45;&gt;c_{k} -->
<g id="edge10" class="edge"><title>1&#45;&gt;c_{k}</title>
<path fill="none" stroke="black" d="M49.1085,-260.781C51.0887,-249.336 54.2072,-234.066 58.5,-221 79.9755,-155.634 116.246,-83.1885 136.228,-45.3338"/>
<polygon fill="gray" stroke="black" points="139.564,-46.5159 141.173,-36.044 133.385,-43.227 139.564,-46.5159"/>
</g>
<!-- 2&#45;&gt;3 -->
<g id="edge8" class="edge"><title>2&#45;&gt;3</title>
<path fill="none" stroke="black" d="M154.379,-166.985C157.685,-155.625 162.215,-140.374 166.5,-127 167.382,-124.247 168.325,-121.381 169.28,-118.526"/>
<polygon fill="gray" stroke="black" points="172.598,-119.638 172.502,-109.044 165.97,-117.386 172.598,-119.638"/>
<text text-anchor="middle" x="199.5" y="-133" font-family="times" font-size="20.00">identity</text>
</g>
<!-- 2&#45;&gt;c_{k} -->
<g id="edge11" class="edge"><title>2&#45;&gt;c_{k}</title>
<path fill="none" stroke="black" d="M149.603,-166.964C149.776,-138.433 150.126,-80.7517 150.334,-46.4425"/>
<polygon fill="gray" stroke="black" points="153.835,-46.212 150.396,-36.1909 146.835,-46.1695 153.835,-46.212"/>
</g>
<!-- 3&#45;&gt;c_{k} -->
<g id="edge12" class="edge"><title>3&#45;&gt;c_{k}</title>
<path fill="none" stroke="black" d="M171.722,-72.8129C168.489,-64.6151 164.549,-54.6231 160.945,-45.4847"/>
<polygon fill="gray" stroke="black" points="164.14,-44.0475 157.216,-36.0288 157.628,-46.6156 164.14,-44.0475"/>
</g>
</g>
</svg>
