<?xml version="1.0" encoding="UTF-8" standalone="no"?>
<!DOCTYPE svg PUBLIC "-//W3C//DTD SVG 1.1//EN"
 "http://www.w3.org/Graphics/SVG/1.1/DTD/svg11.dtd">
<!-- Generated by graphviz version 2.38.0 (20140413.2041)
 -->
<!-- Title: %3 Pages: 1 -->
<svg width="713pt" height="399pt"
 viewBox="0.00 0.00 712.50 399.00" xmlns="http://www.w3.org/2000/svg" xmlns:xlink="http://www.w3.org/1999/xlink">
<g id="graph0" class="graph" transform="scale(1 1) rotate(0) translate(4 395)">
<title>%3</title>
<polygon fill="white" stroke="none" points="-4,4 -4,-395 708.5,-395 708.5,4 -4,4"/>
<!-- c_{k&#45;2} -->
<g id="node1" class="node"><title>c_{k&#45;2}</title>
<polygon fill="#b4eeb4" stroke="black" stroke-width="2" points="85,-391 0,-391 0,-355 85,-355 85,-391"/>
<text text-anchor="middle" x="42.5" y="-368" font-family="times" font-size="20.00">c_{k&#45;2}</text>
</g>
<!-- 0 -->
<g id="node3" class="node"><title>0</title>
<polygon fill="lightblue" stroke="black" stroke-width="2" points="178.5,-297 142.5,-297 142.5,-261 178.5,-261 178.5,-297"/>
<text text-anchor="middle" x="160.5" y="-274" font-family="times" font-size="20.00">0</text>
</g>
<!-- c_{k&#45;2}&#45;&gt;0 -->
<g id="edge2" class="edge"><title>c_{k&#45;2}&#45;&gt;0</title>
<path fill="none" stroke="black" d="M37.8661,-354.819C35.6288,-342.511 35.0076,-326.198 43.5,-315 63.9712,-288.006 104.47,-281.074 132.019,-279.677"/>
<polygon fill="gray" stroke="black" points="132.335,-283.169 142.228,-279.379 132.131,-276.172 132.335,-283.169"/>
<text text-anchor="middle" x="85.5" y="-321" font-family="times" font-size="20.00">sep_conv</text>
</g>
<!-- c_{k&#45;1} -->
<g id="node2" class="node"><title>c_{k&#45;1}</title>
<polygon fill="#b4eeb4" stroke="black" stroke-width="2" points="429,-391 344,-391 344,-355 429,-355 429,-391"/>
<text text-anchor="middle" x="386.5" y="-368" font-family="times" font-size="20.00">c_{k&#45;1}</text>
</g>
<!-- c_{k&#45;1}&#45;&gt;0 -->
<g id="edge1" class="edge"><title>c_{k&#45;1}&#45;&gt;0</title>
<path fill="none" stroke="black" d="M343.905,-372.057C282.821,-371.127 174.985,-365.384 150.5,-337 143.388,-328.756 144.089,-317.278 147.263,-306.78"/>
<polygon fill="gray" stroke="black" points="150.639,-307.746 150.89,-297.154 144.089,-305.278 150.639,-307.746"/>
<text text-anchor="middle" x="235" y="-321" font-family="times" font-size="20.00">donw_atrous_conv</text>
</g>
<!-- 1 -->
<g id="node4" class="node"><title>1</title>
<polygon fill="lightblue" stroke="black" stroke-width="2" points="338.5,-203 302.5,-203 302.5,-167 338.5,-167 338.5,-203"/>
<text text-anchor="middle" x="320.5" y="-180" font-family="times" font-size="20.00">1</text>
</g>
<!-- c_{k&#45;1}&#45;&gt;1 -->
<g id="edge4" class="edge"><title>c_{k&#45;1}&#45;&gt;1</title>
<path fill="none" stroke="black" d="M371.378,-354.837C359.578,-340.429 343.835,-318.763 335.5,-297 325.053,-269.722 321.702,-236.239 320.716,-213.225"/>
<polygon fill="gray" stroke="black" points="324.211,-213.032 320.406,-203.144 317.215,-213.247 324.211,-213.032"/>
<text text-anchor="middle" x="386.5" y="-274" font-family="times" font-size="20.00">down_conv</text>
</g>
<!-- 2 -->
<g id="node5" class="node"><title>2</title>
<polygon fill="lightblue" stroke="black" stroke-width="2" points="383.5,-109 347.5,-109 347.5,-73 383.5,-73 383.5,-109"/>
<text text-anchor="middle" x="365.5" y="-86" font-family="times" font-size="20.00">2</text>
</g>
<!-- c_{k&#45;1}&#45;&gt;2 -->
<g id="edge6" class="edge"><title>c_{k&#45;1}&#45;&gt;2</title>
<path fill="none" stroke="black" d="M402.661,-354.82C414.886,-340.568 430.691,-319.123 437.5,-297 443.269,-278.257 457.247,-160.082 436.5,-127 431.417,-118.896 410.865,-109.255 393.172,-102.146"/>
<polygon fill="gray" stroke="black" points="394.341,-98.8452 383.753,-98.4824 391.804,-105.369 394.341,-98.8452"/>
<text text-anchor="middle" x="497.5" y="-227" font-family="times" font-size="20.00">down_conv</text>
</g>
<!-- 3 -->
<g id="node6" class="node"><title>3</title>
<polygon fill="lightblue" stroke="black" stroke-width="2" points="594.5,-203 558.5,-203 558.5,-167 594.5,-167 594.5,-203"/>
<text text-anchor="middle" x="576.5" y="-180" font-family="times" font-size="20.00">3</text>
</g>
<!-- c_{k&#45;1}&#45;&gt;3 -->
<g id="edge7" class="edge"><title>c_{k&#45;1}&#45;&gt;3</title>
<path fill="none" stroke="black" d="M429.156,-362.413C484.018,-347.495 576.831,-312.867 615.5,-243 620.235,-234.445 619.484,-229.929 615.5,-221 612.611,-214.525 607.866,-208.748 602.663,-203.845"/>
<polygon fill="gray" stroke="black" points="604.785,-201.057 594.876,-197.307 600.284,-206.418 604.785,-201.057"/>
<text text-anchor="middle" x="653.5" y="-274" font-family="times" font-size="20.00">down_conv</text>
</g>
<!-- 0&#45;&gt;1 -->
<g id="edge3" class="edge"><title>0&#45;&gt;1</title>
<path fill="none" stroke="black" d="M166.643,-260.862C172.075,-248.077 181.219,-231.137 194.5,-221 223.178,-199.111 264.801,-190.91 292.25,-187.839"/>
<polygon fill="gray" stroke="black" points="292.748,-191.307 302.368,-186.867 292.079,-184.339 292.748,-191.307"/>
<text text-anchor="middle" x="251" y="-227" font-family="times" font-size="20.00">shuffle_conv</text>
</g>
<!-- 0&#45;&gt;3 -->
<g id="edge8" class="edge"><title>0&#45;&gt;3</title>
<path fill="none" stroke="black" d="M178.904,-275.444C205.484,-271.823 256.183,-265.175 299.5,-261 327.773,-258.275 531.657,-259.882 554.5,-243 564.101,-235.904 569.512,-224.031 572.562,-212.952"/>
<polygon fill="gray" stroke="black" points="575.985,-213.683 574.751,-203.161 569.153,-212.156 575.985,-213.683"/>
<text text-anchor="middle" x="590.5" y="-227" font-family="times" font-size="20.00">conv</text>
</g>
<!-- c_{k} -->
<g id="node7" class="node"><title>c_{k}</title>
<polygon fill="palegoldenrod" stroke="black" stroke-width="2" points="370.5,-36 304.5,-36 304.5,-0 370.5,-0 370.5,-36"/>
<text text-anchor="middle" x="337.5" y="-13" font-family="times" font-size="20.00">c_{k}</text>
</g>
<!-- 0&#45;&gt;c_{k} -->
<g id="edge9" class="edge"><title>0&#45;&gt;c_{k}</title>
<path fill="none" stroke="black" d="M162.703,-260.865C164.678,-249.18 168.258,-233.601 174.5,-221 210.353,-148.617 275.912,-78.5634 312,-43.0644"/>
<polygon fill="gray" stroke="black" points="314.507,-45.5083 319.232,-36.0254 309.625,-40.4921 314.507,-45.5083"/>
</g>
<!-- 1&#45;&gt;2 -->
<g id="edge5" class="edge"><title>1&#45;&gt;2</title>
<path fill="none" stroke="black" d="M328.964,-166.696C335.627,-153.074 345.023,-133.864 352.618,-118.336"/>
<polygon fill="gray" stroke="black" points="355.824,-119.748 357.074,-109.227 349.536,-116.672 355.824,-119.748"/>
<text text-anchor="middle" x="390.5" y="-133" font-family="times" font-size="20.00">sep_conv</text>
</g>
<!-- 1&#45;&gt;c_{k} -->
<g id="edge10" class="edge"><title>1&#45;&gt;c_{k}</title>
<path fill="none" stroke="black" d="M322.255,-166.964C325.195,-138.433 331.138,-80.7517 334.673,-46.4425"/>
<polygon fill="gray" stroke="black" points="338.185,-46.497 335.729,-36.1909 331.222,-45.7796 338.185,-46.497"/>
</g>
<!-- 2&#45;&gt;c_{k} -->
<g id="edge11" class="edge"><title>2&#45;&gt;c_{k}</title>
<path fill="none" stroke="black" d="M358.722,-72.8129C355.489,-64.6151 351.549,-54.6231 347.945,-45.4847"/>
<polygon fill="gray" stroke="black" points="351.14,-44.0475 344.216,-36.0288 344.628,-46.6156 351.14,-44.0475"/>
</g>
<!-- 3&#45;&gt;c_{k} -->
<g id="edge12" class="edge"><title>3&#45;&gt;c_{k}</title>
<path fill="none" stroke="black" d="M558.143,-171.327C517.948,-143.577 421.675,-77.1126 370.61,-41.8587"/>
<polygon fill="gray" stroke="black" points="372.439,-38.8683 362.222,-36.0672 368.462,-44.6288 372.439,-38.8683"/>
</g>
</g>
</svg>
