<?xml version="1.0" encoding="UTF-8" standalone="no"?>
<!DOCTYPE svg PUBLIC "-//W3C//DTD SVG 1.1//EN"
 "http://www.w3.org/Graphics/SVG/1.1/DTD/svg11.dtd">
<!-- Generated by graphviz version 2.38.0 (20140413.2041)
 -->
<!-- Title: %3 Pages: 1 -->
<svg width="694pt" height="399pt"
 viewBox="0.00 0.00 693.50 399.00" xmlns="http://www.w3.org/2000/svg" xmlns:xlink="http://www.w3.org/1999/xlink">
<g id="graph0" class="graph" transform="scale(1 1) rotate(0) translate(4 395)">
<title>%3</title>
<polygon fill="white" stroke="none" points="-4,4 -4,-395 689.5,-395 689.5,4 -4,4"/>
<!-- c_{k&#45;2} -->
<g id="node1" class="node"><title>c_{k&#45;2}</title>
<polygon fill="#b4eeb4" stroke="black" stroke-width="2" points="85,-391 0,-391 0,-355 85,-355 85,-391"/>
<text text-anchor="middle" x="42.5" y="-368" font-family="times" font-size="20.00">c_{k&#45;2}</text>
</g>
<!-- 0 -->
<g id="node3" class="node"><title>0</title>
<polygon fill="lightblue" stroke="black" stroke-width="2" points="130.5,-297 94.5,-297 94.5,-261 130.5,-261 130.5,-297"/>
<text text-anchor="middle" x="112.5" y="-274" font-family="times" font-size="20.00">0</text>
</g>
<!-- c_{k&#45;2}&#45;&gt;0 -->
<g id="edge2" class="edge"><title>c_{k&#45;2}&#45;&gt;0</title>
<path fill="none" stroke="black" d="M38.4403,-354.987C36.5424,-342.918 36.0936,-326.828 43.5,-315 52.5357,-300.57 69.5387,-291.849 84.4044,-286.722"/>
<polygon fill="gray" stroke="black" points="85.6895,-289.989 94.2305,-283.72 83.6442,-283.294 85.6895,-289.989"/>
<text text-anchor="middle" x="85.5" y="-321" font-family="times" font-size="20.00">sep_conv</text>
</g>
<!-- c_{k&#45;1} -->
<g id="node2" class="node"><title>c_{k&#45;1}</title>
<polygon fill="#b4eeb4" stroke="black" stroke-width="2" points="352,-391 267,-391 267,-355 352,-355 352,-391"/>
<text text-anchor="middle" x="309.5" y="-368" font-family="times" font-size="20.00">c_{k&#45;1}</text>
</g>
<!-- c_{k&#45;1}&#45;&gt;0 -->
<g id="edge1" class="edge"><title>c_{k&#45;1}&#45;&gt;0</title>
<path fill="none" stroke="black" d="M266.919,-371.175C232.779,-368.62 185.032,-360.611 150.5,-337 139.302,-329.343 130.538,-317.194 124.264,-306.075"/>
<polygon fill="gray" stroke="black" points="127.309,-304.345 119.579,-297.099 121.103,-307.584 127.309,-304.345"/>
<text text-anchor="middle" x="188.5" y="-321" font-family="times" font-size="20.00">up_conv</text>
</g>
<!-- 1 -->
<g id="node4" class="node"><title>1</title>
<polygon fill="lightblue" stroke="black" stroke-width="2" points="258.5,-203 222.5,-203 222.5,-167 258.5,-167 258.5,-203"/>
<text text-anchor="middle" x="240.5" y="-180" font-family="times" font-size="20.00">1</text>
</g>
<!-- c_{k&#45;1}&#45;&gt;1 -->
<g id="edge4" class="edge"><title>c_{k&#45;1}&#45;&gt;1</title>
<path fill="none" stroke="black" d="M292.856,-354.781C280.115,-340.507 263.284,-319.05 254.5,-297 243.702,-269.895 240.756,-236.383 240.165,-213.314"/>
<polygon fill="gray" stroke="black" points="243.663,-213.162 240.039,-203.206 236.664,-213.249 243.663,-213.162"/>
<text text-anchor="middle" x="310" y="-274" font-family="times" font-size="20.00">up_att_conv</text>
</g>
<!-- 2 -->
<g id="node5" class="node"><title>2</title>
<polygon fill="lightblue" stroke="black" stroke-width="2" points="304.5,-109 268.5,-109 268.5,-73 304.5,-73 304.5,-109"/>
<text text-anchor="middle" x="286.5" y="-86" font-family="times" font-size="20.00">2</text>
</g>
<!-- c_{k&#45;1}&#45;&gt;2 -->
<g id="edge6" class="edge"><title>c_{k&#45;1}&#45;&gt;2</title>
<path fill="none" stroke="black" d="M327.49,-354.829C340.859,-340.744 358.022,-319.516 365.5,-297 372.16,-276.95 376.522,-155.644 357.5,-127 347.709,-112.256 329.799,-103.489 314.418,-98.416"/>
<polygon fill="gray" stroke="black" points="315.368,-95.047 304.787,-95.5905 313.397,-101.764 315.368,-95.047"/>
<text text-anchor="middle" x="430.5" y="-227" font-family="times" font-size="20.00">up_sep_conv</text>
</g>
<!-- 3 -->
<g id="node6" class="node"><title>3</title>
<polygon fill="lightblue" stroke="black" stroke-width="2" points="536.5,-203 500.5,-203 500.5,-167 536.5,-167 536.5,-203"/>
<text text-anchor="middle" x="518.5" y="-180" font-family="times" font-size="20.00">3</text>
</g>
<!-- c_{k&#45;1}&#45;&gt;3 -->
<g id="edge8" class="edge"><title>c_{k&#45;1}&#45;&gt;3</title>
<path fill="none" stroke="black" d="M352.477,-364.188C411.209,-350.914 514.189,-317.745 557.5,-243 562.402,-234.54 561.484,-229.929 557.5,-221 554.611,-214.525 549.866,-208.748 544.663,-203.845"/>
<polygon fill="gray" stroke="black" points="546.785,-201.057 536.876,-197.307 542.284,-206.418 546.785,-201.057"/>
<text text-anchor="middle" x="614" y="-274" font-family="times" font-size="20.00">up_atrous_conv</text>
</g>
<!-- 0&#45;&gt;1 -->
<g id="edge3" class="edge"><title>0&#45;&gt;1</title>
<path fill="none" stroke="black" d="M107.794,-260.764C105.521,-248.428 104.886,-232.105 113.5,-221 125.547,-205.468 178.677,-195.014 212.285,-189.821"/>
<polygon fill="gray" stroke="black" points="213.054,-193.246 222.435,-188.321 212.03,-186.321 213.054,-193.246"/>
<text text-anchor="middle" x="170" y="-227" font-family="times" font-size="20.00">shuffle_conv</text>
</g>
<!-- 0&#45;&gt;3 -->
<g id="edge7" class="edge"><title>0&#45;&gt;3</title>
<path fill="none" stroke="black" d="M130.812,-274.524C151.885,-270.65 187.569,-264.474 218.5,-261 249.26,-257.545 471.554,-261.325 496.5,-243 506.121,-235.932 511.535,-224.062 514.581,-212.978"/>
<polygon fill="gray" stroke="black" points="518.006,-213.702 516.766,-203.18 511.173,-212.179 518.006,-213.702"/>
<text text-anchor="middle" x="532.5" y="-227" font-family="times" font-size="20.00">conv</text>
</g>
<!-- c_{k} -->
<g id="node7" class="node"><title>c_{k}</title>
<polygon fill="palegoldenrod" stroke="black" stroke-width="2" points="291.5,-36 225.5,-36 225.5,-0 291.5,-0 291.5,-36"/>
<text text-anchor="middle" x="258.5" y="-13" font-family="times" font-size="20.00">c_{k}</text>
</g>
<!-- 0&#45;&gt;c_{k} -->
<g id="edge9" class="edge"><title>0&#45;&gt;c_{k}</title>
<path fill="none" stroke="black" d="M105.06,-260.693C101.186,-249.211 98.0878,-233.932 102.5,-221 127.947,-146.417 193.329,-77.9692 230.876,-43.1293"/>
<polygon fill="gray" stroke="black" points="233.422,-45.5448 238.442,-36.2149 228.699,-40.3778 233.422,-45.5448"/>
</g>
<!-- 1&#45;&gt;2 -->
<g id="edge5" class="edge"><title>1&#45;&gt;2</title>
<path fill="none" stroke="black" d="M249.152,-166.696C255.963,-153.074 265.568,-133.864 273.332,-118.336"/>
<polygon fill="gray" stroke="black" points="276.545,-119.736 277.887,-109.227 270.284,-116.606 276.545,-119.736"/>
<text text-anchor="middle" x="311.5" y="-133" font-family="times" font-size="20.00">sep_conv</text>
</g>
<!-- 1&#45;&gt;c_{k} -->
<g id="edge10" class="edge"><title>1&#45;&gt;c_{k}</title>
<path fill="none" stroke="black" d="M242.359,-166.964C245.471,-138.433 251.763,-80.7517 255.506,-46.4425"/>
<polygon fill="gray" stroke="black" points="259.019,-46.5116 256.625,-36.1909 252.061,-45.7524 259.019,-46.5116"/>
</g>
<!-- 2&#45;&gt;c_{k} -->
<g id="edge11" class="edge"><title>2&#45;&gt;c_{k}</title>
<path fill="none" stroke="black" d="M279.722,-72.8129C276.489,-64.6151 272.549,-54.6231 268.945,-45.4847"/>
<polygon fill="gray" stroke="black" points="272.14,-44.0475 265.216,-36.0288 265.628,-46.6156 272.14,-44.0475"/>
</g>
<!-- 3&#45;&gt;c_{k} -->
<g id="edge12" class="edge"><title>3&#45;&gt;c_{k}</title>
<path fill="none" stroke="black" d="M500.217,-172.398C457.427,-145.242 350.149,-77.1617 294.007,-41.5334"/>
<polygon fill="gray" stroke="black" points="295.772,-38.5083 285.454,-36.1052 292.022,-44.4186 295.772,-38.5083"/>
</g>
</g>
</svg>
