<?xml version="1.0" encoding="UTF-8" standalone="no"?>
<!DOCTYPE svg PUBLIC "-//W3C//DTD SVG 1.1//EN"
 "http://www.w3.org/Graphics/SVG/1.1/DTD/svg11.dtd">
<!-- Generated by graphviz version 2.38.0 (20140413.2041)
 -->
<!-- Title: %3 Pages: 1 -->
<svg width="442pt" height="493pt"
 viewBox="0.00 0.00 441.50 493.00" xmlns="http://www.w3.org/2000/svg" xmlns:xlink="http://www.w3.org/1999/xlink">
<g id="graph0" class="graph" transform="scale(1 1) rotate(0) translate(4 489)">
<title>%3</title>
<polygon fill="white" stroke="none" points="-4,4 -4,-489 437.5,-489 437.5,4 -4,4"/>
<!-- c_{k&#45;2} -->
<g id="node1" class="node"><title>c_{k&#45;2}</title>
<polygon fill="#b4eeb4" stroke="black" stroke-width="2" points="309,-485 224,-485 224,-449 309,-449 309,-485"/>
<text text-anchor="middle" x="266.5" y="-462" font-family="times" font-size="20.00">c_{k&#45;2}</text>
</g>
<!-- 0 -->
<g id="node3" class="node"><title>0</title>
<polygon fill="lightblue" stroke="black" stroke-width="2" points="163.5,-391 127.5,-391 127.5,-355 163.5,-355 163.5,-391"/>
<text text-anchor="middle" x="145.5" y="-368" font-family="times" font-size="20.00">0</text>
</g>
<!-- c_{k&#45;2}&#45;&gt;0 -->
<g id="edge1" class="edge"><title>c_{k&#45;2}&#45;&gt;0</title>
<path fill="none" stroke="black" d="M223.838,-452.281C211.02,-446.906 197.464,-439.863 186.5,-431 175.909,-422.439 166.754,-410.494 159.798,-399.75"/>
<polygon fill="gray" stroke="black" points="162.706,-397.797 154.489,-391.108 156.741,-401.461 162.706,-397.797"/>
<text text-anchor="middle" x="219.5" y="-415" font-family="times" font-size="20.00">identity</text>
</g>
<!-- 1 -->
<g id="node4" class="node"><title>1</title>
<polygon fill="lightblue" stroke="black" stroke-width="2" points="278.5,-297 242.5,-297 242.5,-261 278.5,-261 278.5,-297"/>
<text text-anchor="middle" x="260.5" y="-274" font-family="times" font-size="20.00">1</text>
</g>
<!-- c_{k&#45;2}&#45;&gt;1 -->
<g id="edge3" class="edge"><title>c_{k&#45;2}&#45;&gt;1</title>
<path fill="none" stroke="black" d="M265.946,-448.835C264.901,-416.446 262.632,-346.087 261.377,-307.2"/>
<polygon fill="gray" stroke="black" points="264.873,-307.005 261.052,-297.124 257.877,-307.231 264.873,-307.005"/>
<text text-anchor="middle" x="296.5" y="-368" font-family="times" font-size="20.00">identity</text>
</g>
<!-- 3 -->
<g id="node6" class="node"><title>3</title>
<polygon fill="lightblue" stroke="black" stroke-width="2" points="216.5,-109 180.5,-109 180.5,-73 216.5,-73 216.5,-109"/>
<text text-anchor="middle" x="198.5" y="-86" font-family="times" font-size="20.00">3</text>
</g>
<!-- c_{k&#45;2}&#45;&gt;3 -->
<g id="edge7" class="edge"><title>c_{k&#45;2}&#45;&gt;3</title>
<path fill="none" stroke="black" d="M302.306,-448.895C328.87,-433.436 360.5,-407.91 360.5,-374 360.5,-374 360.5,-374 360.5,-184 360.5,-123.237 273.257,-102.11 226.817,-95.1691"/>
<polygon fill="gray" stroke="black" points="227.151,-91.6822 216.769,-93.7932 226.201,-98.6175 227.151,-91.6822"/>
<text text-anchor="middle" x="397" y="-274" font-family="times" font-size="20.00">dil_conv</text>
</g>
<!-- c_{k&#45;1} -->
<g id="node2" class="node"><title>c_{k&#45;1}</title>
<polygon fill="#b4eeb4" stroke="black" stroke-width="2" points="85,-485 0,-485 0,-449 85,-449 85,-485"/>
<text text-anchor="middle" x="42.5" y="-462" font-family="times" font-size="20.00">c_{k&#45;1}</text>
</g>
<!-- c_{k&#45;1}&#45;&gt;0 -->
<g id="edge2" class="edge"><title>c_{k&#45;1}&#45;&gt;0</title>
<path fill="none" stroke="black" d="M37.9999,-448.918C35.8291,-436.66 35.2326,-420.365 43.5,-409 60.2133,-386.024 92.9557,-377.989 116.85,-375.255"/>
<polygon fill="gray" stroke="black" points="117.467,-378.714 127.116,-374.337 116.844,-371.741 117.467,-378.714"/>
<text text-anchor="middle" x="103.5" y="-415" font-family="times" font-size="20.00">up_dep_conv</text>
</g>
<!-- 0&#45;&gt;1 -->
<g id="edge4" class="edge"><title>0&#45;&gt;1</title>
<path fill="none" stroke="black" d="M152.251,-354.799C157.904,-342.319 167.055,-325.799 179.5,-315 195.148,-301.422 203.487,-305.231 222.5,-297 225.953,-295.505 229.573,-293.915 233.15,-292.331"/>
<polygon fill="gray" stroke="black" points="234.663,-295.488 242.37,-288.218 231.812,-289.095 234.663,-295.488"/>
<text text-anchor="middle" x="216" y="-321" font-family="times" font-size="20.00">dil_conv</text>
</g>
<!-- 2 -->
<g id="node5" class="node"><title>2</title>
<polygon fill="lightblue" stroke="black" stroke-width="2" points="183.5,-203 147.5,-203 147.5,-167 183.5,-167 183.5,-203"/>
<text text-anchor="middle" x="165.5" y="-180" font-family="times" font-size="20.00">2</text>
</g>
<!-- 0&#45;&gt;2 -->
<g id="edge6" class="edge"><title>0&#45;&gt;2</title>
<path fill="none" stroke="black" d="M147.346,-354.835C150.828,-322.446 158.394,-252.087 162.575,-213.2"/>
<polygon fill="gray" stroke="black" points="166.07,-213.44 163.659,-203.124 159.11,-212.692 166.07,-213.44"/>
<text text-anchor="middle" x="193" y="-274" font-family="times" font-size="20.00">dil_conv</text>
</g>
<!-- c_{k} -->
<g id="node7" class="node"><title>c_{k}</title>
<polygon fill="palegoldenrod" stroke="black" stroke-width="2" points="203.5,-36 137.5,-36 137.5,-0 203.5,-0 203.5,-36"/>
<text text-anchor="middle" x="170.5" y="-13" font-family="times" font-size="20.00">c_{k}</text>
</g>
<!-- 0&#45;&gt;c_{k} -->
<g id="edge9" class="edge"><title>0&#45;&gt;c_{k}</title>
<path fill="none" stroke="black" d="M130.945,-354.944C117.469,-337.366 99.5,-308.572 99.5,-280 99.5,-280 99.5,-280 99.5,-90 99.5,-70.1083 113.607,-53.8431 129.244,-41.9236"/>
<polygon fill="gray" stroke="black" points="131.35,-44.7213 137.494,-36.0904 127.308,-39.0056 131.35,-44.7213"/>
</g>
<!-- 1&#45;&gt;2 -->
<g id="edge5" class="edge"><title>1&#45;&gt;2</title>
<path fill="none" stroke="black" d="M242.37,-269.782C236.092,-266.965 229,-263.814 222.5,-261 203.487,-252.769 192.967,-258.744 179.5,-243 172.47,-234.782 168.863,-223.58 167.049,-213.282"/>
<polygon fill="gray" stroke="black" points="170.479,-212.516 165.739,-203.041 163.536,-213.404 170.479,-212.516"/>
<text text-anchor="middle" x="216" y="-227" font-family="times" font-size="20.00">dil_conv</text>
</g>
<!-- 1&#45;&gt;c_{k} -->
<g id="edge10" class="edge"><title>1&#45;&gt;c_{k}</title>
<path fill="none" stroke="black" d="M261.83,-260.893C263.544,-232.529 264.972,-174.209 252.5,-127 245.646,-101.057 241.289,-94.6957 225.5,-73 217.749,-62.3494 207.827,-51.9053 198.549,-43.0836"/>
<polygon fill="gray" stroke="black" points="200.691,-40.2976 190.969,-36.0861 195.943,-45.441 200.691,-40.2976"/>
</g>
<!-- 2&#45;&gt;3 -->
<g id="edge8" class="edge"><title>2&#45;&gt;3</title>
<path fill="none" stroke="black" d="M171.707,-166.696C176.547,-153.203 183.354,-134.226 188.895,-118.777"/>
<polygon fill="gray" stroke="black" points="192.239,-119.821 192.321,-109.227 185.65,-117.458 192.239,-119.821"/>
<text text-anchor="middle" x="218.5" y="-133" font-family="times" font-size="20.00">identity</text>
</g>
<!-- 2&#45;&gt;c_{k} -->
<g id="edge11" class="edge"><title>2&#45;&gt;c_{k}</title>
<path fill="none" stroke="black" d="M166.016,-166.964C166.881,-138.433 168.629,-80.7517 169.668,-46.4425"/>
<polygon fill="gray" stroke="black" points="173.174,-46.2924 169.979,-36.1909 166.178,-46.0803 173.174,-46.2924"/>
</g>
<!-- 3&#45;&gt;c_{k} -->
<g id="edge12" class="edge"><title>3&#45;&gt;c_{k}</title>
<path fill="none" stroke="black" d="M191.722,-72.8129C188.489,-64.6151 184.549,-54.6231 180.945,-45.4847"/>
<polygon fill="gray" stroke="black" points="184.14,-44.0475 177.216,-36.0288 177.628,-46.6156 184.14,-44.0475"/>
</g>
</g>
</svg>
