<?xml version="1.0" encoding="UTF-8" standalone="no"?>
<!DOCTYPE svg PUBLIC "-//W3C//DTD SVG 1.1//EN"
 "http://www.w3.org/Graphics/SVG/1.1/DTD/svg11.dtd">
<!-- Generated by graphviz version 2.38.0 (20140413.2041)
 -->
<!-- Title: %3 Pages: 1 -->
<svg width="391pt" height="493pt"
 viewBox="0.00 0.00 390.50 493.00" xmlns="http://www.w3.org/2000/svg" xmlns:xlink="http://www.w3.org/1999/xlink">
<g id="graph0" class="graph" transform="scale(1 1) rotate(0) translate(4 489)">
<title>%3</title>
<polygon fill="white" stroke="none" points="-4,4 -4,-489 386.5,-489 386.5,4 -4,4"/>
<!-- c_{k&#45;2} -->
<g id="node1" class="node"><title>c_{k&#45;2}</title>
<polygon fill="#b4eeb4" stroke="black" stroke-width="2" points="258,-485 173,-485 173,-449 258,-449 258,-485"/>
<text text-anchor="middle" x="215.5" y="-462" font-family="times" font-size="20.00">c_{k&#45;2}</text>
</g>
<!-- 0 -->
<g id="node3" class="node"><title>0</title>
<polygon fill="lightblue" stroke="black" stroke-width="2" points="112.5,-391 76.5,-391 76.5,-355 112.5,-355 112.5,-391"/>
<text text-anchor="middle" x="94.5" y="-368" font-family="times" font-size="20.00">0</text>
</g>
<!-- c_{k&#45;2}&#45;&gt;0 -->
<g id="edge1" class="edge"><title>c_{k&#45;2}&#45;&gt;0</title>
<path fill="none" stroke="black" d="M172.838,-452.281C160.02,-446.906 146.464,-439.863 135.5,-431 124.909,-422.439 115.754,-410.494 108.798,-399.75"/>
<polygon fill="gray" stroke="black" points="111.706,-397.797 103.489,-391.108 105.741,-401.461 111.706,-397.797"/>
<text text-anchor="middle" x="168.5" y="-415" font-family="times" font-size="20.00">identity</text>
</g>
<!-- 1 -->
<g id="node4" class="node"><title>1</title>
<polygon fill="lightblue" stroke="black" stroke-width="2" points="227.5,-297 191.5,-297 191.5,-261 227.5,-261 227.5,-297"/>
<text text-anchor="middle" x="209.5" y="-274" font-family="times" font-size="20.00">1</text>
</g>
<!-- c_{k&#45;2}&#45;&gt;1 -->
<g id="edge3" class="edge"><title>c_{k&#45;2}&#45;&gt;1</title>
<path fill="none" stroke="black" d="M214.946,-448.835C213.901,-416.446 211.632,-346.087 210.377,-307.2"/>
<polygon fill="gray" stroke="black" points="213.873,-307.005 210.052,-297.124 206.877,-307.231 213.873,-307.005"/>
<text text-anchor="middle" x="245.5" y="-368" font-family="times" font-size="20.00">identity</text>
</g>
<!-- 3 -->
<g id="node6" class="node"><title>3</title>
<polygon fill="lightblue" stroke="black" stroke-width="2" points="165.5,-109 129.5,-109 129.5,-73 165.5,-73 165.5,-109"/>
<text text-anchor="middle" x="147.5" y="-86" font-family="times" font-size="20.00">3</text>
</g>
<!-- c_{k&#45;2}&#45;&gt;3 -->
<g id="edge7" class="edge"><title>c_{k&#45;2}&#45;&gt;3</title>
<path fill="none" stroke="black" d="M251.306,-448.895C277.87,-433.436 309.5,-407.91 309.5,-374 309.5,-374 309.5,-374 309.5,-184 309.5,-123.237 222.257,-102.11 175.817,-95.1691"/>
<polygon fill="gray" stroke="black" points="176.151,-91.6822 165.769,-93.7932 175.201,-98.6175 176.151,-91.6822"/>
<text text-anchor="middle" x="346" y="-274" font-family="times" font-size="20.00">dil_conv</text>
</g>
<!-- c_{k&#45;1} -->
<g id="node2" class="node"><title>c_{k&#45;1}</title>
<polygon fill="#b4eeb4" stroke="black" stroke-width="2" points="85,-485 0,-485 0,-449 85,-449 85,-485"/>
<text text-anchor="middle" x="42.5" y="-462" font-family="times" font-size="20.00">c_{k&#45;1}</text>
</g>
<!-- c_{k&#45;1}&#45;&gt;0 -->
<g id="edge2" class="edge"><title>c_{k&#45;1}&#45;&gt;0</title>
<path fill="none" stroke="black" d="M38.8524,-448.757C37.2489,-436.879 36.9837,-421.116 43.5,-409 48.7645,-399.211 58.1084,-391.617 67.3726,-386.042"/>
<polygon fill="gray" stroke="black" points="69.3219,-388.967 76.4563,-381.134 65.9945,-382.809 69.3219,-388.967"/>
<text text-anchor="middle" x="78" y="-415" font-family="times" font-size="20.00">cweight</text>
</g>
<!-- 0&#45;&gt;1 -->
<g id="edge4" class="edge"><title>0&#45;&gt;1</title>
<path fill="none" stroke="black" d="M101.251,-354.799C106.904,-342.319 116.055,-325.799 128.5,-315 144.148,-301.422 152.487,-305.231 171.5,-297 174.953,-295.505 178.573,-293.915 182.15,-292.331"/>
<polygon fill="gray" stroke="black" points="183.663,-295.488 191.37,-288.218 180.812,-289.095 183.663,-295.488"/>
<text text-anchor="middle" x="165" y="-321" font-family="times" font-size="20.00">dil_conv</text>
</g>
<!-- 2 -->
<g id="node5" class="node"><title>2</title>
<polygon fill="lightblue" stroke="black" stroke-width="2" points="132.5,-203 96.5,-203 96.5,-167 132.5,-167 132.5,-203"/>
<text text-anchor="middle" x="114.5" y="-180" font-family="times" font-size="20.00">2</text>
</g>
<!-- 0&#45;&gt;2 -->
<g id="edge6" class="edge"><title>0&#45;&gt;2</title>
<path fill="none" stroke="black" d="M96.3457,-354.835C99.8284,-322.446 107.394,-252.087 111.575,-213.2"/>
<polygon fill="gray" stroke="black" points="115.07,-213.44 112.659,-203.124 108.11,-212.692 115.07,-213.44"/>
<text text-anchor="middle" x="142" y="-274" font-family="times" font-size="20.00">dil_conv</text>
</g>
<!-- c_{k} -->
<g id="node7" class="node"><title>c_{k}</title>
<polygon fill="palegoldenrod" stroke="black" stroke-width="2" points="152.5,-36 86.5,-36 86.5,-0 152.5,-0 152.5,-36"/>
<text text-anchor="middle" x="119.5" y="-13" font-family="times" font-size="20.00">c_{k}</text>
</g>
<!-- 0&#45;&gt;c_{k} -->
<g id="edge9" class="edge"><title>0&#45;&gt;c_{k}</title>
<path fill="none" stroke="black" d="M79.9453,-354.944C66.4688,-337.366 48.5,-308.572 48.5,-280 48.5,-280 48.5,-280 48.5,-90 48.5,-70.1083 62.6066,-53.8431 78.244,-41.9236"/>
<polygon fill="gray" stroke="black" points="80.3496,-44.7213 86.4943,-36.0904 76.3084,-39.0056 80.3496,-44.7213"/>
</g>
<!-- 1&#45;&gt;2 -->
<g id="edge5" class="edge"><title>1&#45;&gt;2</title>
<path fill="none" stroke="black" d="M191.37,-269.782C185.092,-266.965 178,-263.814 171.5,-261 152.487,-252.769 141.967,-258.744 128.5,-243 121.47,-234.782 117.863,-223.58 116.049,-213.282"/>
<polygon fill="gray" stroke="black" points="119.479,-212.516 114.739,-203.041 112.536,-213.404 119.479,-212.516"/>
<text text-anchor="middle" x="165" y="-227" font-family="times" font-size="20.00">dil_conv</text>
</g>
<!-- 1&#45;&gt;c_{k} -->
<g id="edge10" class="edge"><title>1&#45;&gt;c_{k}</title>
<path fill="none" stroke="black" d="M210.83,-260.893C212.544,-232.529 213.972,-174.209 201.5,-127 194.646,-101.057 190.289,-94.6957 174.5,-73 166.749,-62.3494 156.827,-51.9053 147.549,-43.0836"/>
<polygon fill="gray" stroke="black" points="149.691,-40.2976 139.969,-36.0861 144.943,-45.441 149.691,-40.2976"/>
</g>
<!-- 2&#45;&gt;3 -->
<g id="edge8" class="edge"><title>2&#45;&gt;3</title>
<path fill="none" stroke="black" d="M120.707,-166.696C125.547,-153.203 132.354,-134.226 137.895,-118.777"/>
<polygon fill="gray" stroke="black" points="141.239,-119.821 141.321,-109.227 134.65,-117.458 141.239,-119.821"/>
<text text-anchor="middle" x="167.5" y="-133" font-family="times" font-size="20.00">identity</text>
</g>
<!-- 2&#45;&gt;c_{k} -->
<g id="edge11" class="edge"><title>2&#45;&gt;c_{k}</title>
<path fill="none" stroke="black" d="M115.016,-166.964C115.881,-138.433 117.629,-80.7517 118.668,-46.4425"/>
<polygon fill="gray" stroke="black" points="122.174,-46.2924 118.979,-36.1909 115.178,-46.0803 122.174,-46.2924"/>
</g>
<!-- 3&#45;&gt;c_{k} -->
<g id="edge12" class="edge"><title>3&#45;&gt;c_{k}</title>
<path fill="none" stroke="black" d="M140.722,-72.8129C137.489,-64.6151 133.549,-54.6231 129.945,-45.4847"/>
<polygon fill="gray" stroke="black" points="133.14,-44.0475 126.216,-36.0288 126.628,-46.6156 133.14,-44.0475"/>
</g>
</g>
</svg>
