<?xml version="1.0" encoding="UTF-8" standalone="no"?>
<!DOCTYPE svg PUBLIC "-//W3C//DTD SVG 1.1//EN"
 "http://www.w3.org/Graphics/SVG/1.1/DTD/svg11.dtd">
<!-- Generated by graphviz version 2.38.0 (20140413.2041)
 -->
<!-- Title: %3 Pages: 1 -->
<svg width="827pt" height="305pt"
 viewBox="0.00 0.00 827.22 305.00" xmlns="http://www.w3.org/2000/svg" xmlns:xlink="http://www.w3.org/1999/xlink">
<g id="graph0" class="graph" transform="scale(1 1) rotate(0) translate(4 301)">
<title>%3</title>
<polygon fill="white" stroke="none" points="-4,4 -4,-301 823.22,-301 823.22,4 -4,4"/>
<!-- c_{k&#45;2} -->
<g id="node1" class="node"><title>c_{k&#45;2}</title>
<polygon fill="#b4eeb4" stroke="black" stroke-width="2" points="142.72,-297 57.7199,-297 57.7199,-261 142.72,-261 142.72,-297"/>
<text text-anchor="middle" x="100.22" y="-274" font-family="times" font-size="20.00">c_{k&#45;2}</text>
</g>
<!-- 0 -->
<g id="node3" class="node"><title>0</title>
<polygon fill="lightblue" stroke="black" stroke-width="2" points="379.22,-203 343.22,-203 343.22,-167 379.22,-167 379.22,-203"/>
<text text-anchor="middle" x="361.22" y="-180" font-family="times" font-size="20.00">0</text>
</g>
<!-- c_{k&#45;2}&#45;&gt;0 -->
<g id="edge1" class="edge"><title>c_{k&#45;2}&#45;&gt;0</title>
<path fill="none" stroke="black" d="M95.1858,-260.929C92.6126,-248.351 91.7446,-231.646 101.22,-221 105.056,-216.689 265.846,-197.259 332.615,-189.358"/>
<polygon fill="gray" stroke="black" points="333.328,-192.798 342.848,-188.15 332.507,-185.846 333.328,-192.798"/>
<text text-anchor="middle" x="134.22" y="-227" font-family="times" font-size="20.00">identity</text>
</g>
<!-- 1 -->
<g id="node4" class="node"><title>1</title>
<polygon fill="lightblue" stroke="black" stroke-width="2" points="445.22,-203 409.22,-203 409.22,-167 445.22,-167 445.22,-203"/>
<text text-anchor="middle" x="427.22" y="-180" font-family="times" font-size="20.00">1</text>
</g>
<!-- c_{k&#45;2}&#45;&gt;1 -->
<g id="edge3" class="edge"><title>c_{k&#45;2}&#45;&gt;1</title>
<path fill="none" stroke="black" d="M143.105,-275.217C201.869,-270.803 303.828,-260.815 336.22,-243 347.54,-236.774 344.978,-228.875 355.22,-221 362.727,-215.228 382.64,-205.685 399.626,-198.021"/>
<polygon fill="gray" stroke="black" points="401.463,-201.034 409.173,-193.768 398.614,-194.64 401.463,-201.034"/>
<text text-anchor="middle" x="388.22" y="-227" font-family="times" font-size="20.00">identity</text>
</g>
<!-- 3 -->
<g id="node6" class="node"><title>3</title>
<polygon fill="lightblue" stroke="black" stroke-width="2" points="207.22,-203 171.22,-203 171.22,-167 207.22,-167 207.22,-203"/>
<text text-anchor="middle" x="189.22" y="-180" font-family="times" font-size="20.00">3</text>
</g>
<!-- c_{k&#45;2}&#45;&gt;3 -->
<g id="edge8" class="edge"><title>c_{k&#45;2}&#45;&gt;3</title>
<path fill="none" stroke="black" d="M57.6726,-268.842C24.3003,-259.706 -13.6055,-243.744 5.2199,-221 24.6477,-197.528 114.234,-189.665 160.85,-187.136"/>
<polygon fill="gray" stroke="black" points="161.094,-190.629 170.908,-186.638 160.747,-183.637 161.094,-190.629"/>
<text text-anchor="middle" x="41.7199" y="-227" font-family="times" font-size="20.00">dil_conv</text>
</g>
<!-- c_{k&#45;1} -->
<g id="node2" class="node"><title>c_{k&#45;1}</title>
<polygon fill="#b4eeb4" stroke="black" stroke-width="2" points="565.72,-297 480.72,-297 480.72,-261 565.72,-261 565.72,-297"/>
<text text-anchor="middle" x="523.22" y="-274" font-family="times" font-size="20.00">c_{k&#45;1}</text>
</g>
<!-- c_{k&#45;1}&#45;&gt;0 -->
<g id="edge2" class="edge"><title>c_{k&#45;1}&#45;&gt;0</title>
<path fill="none" stroke="black" d="M480.33,-263.076C468.051,-257.75 455.067,-251.038 444.22,-243 433.84,-235.308 435.27,-229.118 425.22,-221 414.104,-212.021 400.353,-204.158 388.45,-198.171"/>
<polygon fill="gray" stroke="black" points="389.912,-194.99 379.386,-193.786 386.864,-201.292 389.912,-194.99"/>
<text text-anchor="middle" x="508.72" y="-227" font-family="times" font-size="20.00">down_cweight</text>
</g>
<!-- c_{k&#45;1}&#45;&gt;1 -->
<g id="edge4" class="edge"><title>c_{k&#45;1}&#45;&gt;1</title>
<path fill="none" stroke="black" d="M560.581,-260.9C567.261,-256.09 573.325,-250.166 577.22,-243 581.889,-234.409 583.298,-228.659 577.22,-221 562.298,-202.196 494.528,-192.552 455.377,-188.469"/>
<polygon fill="gray" stroke="black" points="455.688,-184.983 445.392,-187.484 455,-191.949 455.688,-184.983"/>
<text text-anchor="middle" x="654.22" y="-227" font-family="times" font-size="20.00">down_dep_conv</text>
</g>
<!-- 2 -->
<g id="node5" class="node"><title>2</title>
<polygon fill="lightblue" stroke="black" stroke-width="2" points="463.22,-109 427.22,-109 427.22,-73 463.22,-73 463.22,-109"/>
<text text-anchor="middle" x="445.22" y="-86" font-family="times" font-size="20.00">2</text>
</g>
<!-- c_{k&#45;1}&#45;&gt;2 -->
<g id="edge6" class="edge"><title>c_{k&#45;1}&#45;&gt;2</title>
<path fill="none" stroke="black" d="M565.831,-277.072C620.415,-274.879 710.469,-267.534 731.22,-243 737.534,-235.534 736.525,-229.213 731.22,-221 672.79,-130.546 534.044,-102.867 473.875,-94.9504"/>
<polygon fill="gray" stroke="black" points="473.943,-91.4326 463.592,-93.6915 473.093,-98.3808 473.943,-91.4326"/>
<text text-anchor="middle" x="768.22" y="-180" font-family="times" font-size="20.00">down_conv</text>
</g>
<!-- c_{k&#45;1}&#45;&gt;3 -->
<g id="edge7" class="edge"><title>c_{k&#45;1}&#45;&gt;3</title>
<path fill="none" stroke="black" d="M480.533,-276.697C394.245,-273.621 205.593,-264.489 186.22,-243 179.054,-235.051 178.468,-223.664 180.186,-213.155"/>
<polygon fill="gray" stroke="black" points="183.668,-213.63 182.513,-203.098 176.849,-212.052 183.668,-213.63"/>
<text text-anchor="middle" x="259.22" y="-227" font-family="times" font-size="20.00">down_dep_conv</text>
</g>
<!-- c_{k} -->
<g id="node7" class="node"><title>c_{k}</title>
<polygon fill="palegoldenrod" stroke="black" stroke-width="2" points="413.22,-36 347.22,-36 347.22,-0 413.22,-0 413.22,-36"/>
<text text-anchor="middle" x="380.22" y="-13" font-family="times" font-size="20.00">c_{k}</text>
</g>
<!-- 0&#45;&gt;c_{k} -->
<g id="edge9" class="edge"><title>0&#45;&gt;c_{k}</title>
<path fill="none" stroke="black" d="M363.182,-166.964C366.467,-138.433 373.109,-80.7517 377.06,-46.4425"/>
<polygon fill="gray" stroke="black" points="380.573,-46.5257 378.24,-36.1909 373.619,-45.7249 380.573,-46.5257"/>
</g>
<!-- 1&#45;&gt;2 -->
<g id="edge5" class="edge"><title>1&#45;&gt;2</title>
<path fill="none" stroke="black" d="M430.606,-166.696C433.22,-153.331 436.888,-134.587 439.894,-119.219"/>
<polygon fill="gray" stroke="black" points="443.364,-119.713 441.849,-109.227 436.494,-118.369 443.364,-119.713"/>
<text text-anchor="middle" x="474.72" y="-133" font-family="times" font-size="20.00">dil_conv</text>
</g>
<!-- 1&#45;&gt;c_{k} -->
<g id="edge10" class="edge"><title>1&#45;&gt;c_{k}</title>
<path fill="none" stroke="black" d="M422.367,-166.964C414.205,-138.31 397.667,-80.2518 387.91,-45.9982"/>
<polygon fill="gray" stroke="black" points="391.222,-44.8495 385.117,-36.1909 384.49,-46.7672 391.222,-44.8495"/>
</g>
<!-- 2&#45;&gt;c_{k} -->
<g id="edge11" class="edge"><title>2&#45;&gt;c_{k}</title>
<path fill="none" stroke="black" d="M430.022,-72.6951C424.74,-66.7367 418.754,-60.0444 413.22,-54 410.155,-50.6525 406.905,-47.1491 403.685,-43.7067"/>
<polygon fill="gray" stroke="black" points="406.171,-41.2409 396.771,-36.3526 401.071,-46.0357 406.171,-41.2409"/>
</g>
<!-- 3&#45;&gt;c_{k} -->
<g id="edge12" class="edge"><title>3&#45;&gt;c_{k}</title>
<path fill="none" stroke="black" d="M207.534,-168.179C241.181,-139.112 313.011,-77.0596 352.606,-42.8547"/>
<polygon fill="gray" stroke="black" points="355.261,-45.1861 360.541,-36.0003 350.685,-39.889 355.261,-45.1861"/>
</g>
</g>
</svg>
