<?xml version="1.0" encoding="UTF-8" standalone="no"?>
<!DOCTYPE svg PUBLIC "-//W3C//DTD SVG 1.1//EN"
 "http://www.w3.org/Graphics/SVG/1.1/DTD/svg11.dtd">
<!-- Generated by graphviz version 2.38.0 (20140413.2041)
 -->
<!-- Title: %3 Pages: 1 -->
<svg width="970pt" height="211pt"
 viewBox="0.00 0.00 970.15 211.00" xmlns="http://www.w3.org/2000/svg" xmlns:xlink="http://www.w3.org/1999/xlink">
<g id="graph0" class="graph" transform="scale(1 1) rotate(0) translate(4 207)">
<title>%3</title>
<polygon fill="white" stroke="none" points="-4,4 -4,-207 966.15,-207 966.15,4 -4,4"/>
<!-- c_{k&#45;2} -->
<g id="node1" class="node"><title>c_{k&#45;2}</title>
<polygon fill="#b4eeb4" stroke="black" stroke-width="2" points="220.65,-203 135.65,-203 135.65,-167 220.65,-167 220.65,-203"/>
<text text-anchor="middle" x="178.15" y="-180" font-family="times" font-size="20.00">c_{k&#45;2}</text>
</g>
<!-- 0 -->
<g id="node3" class="node"><title>0</title>
<polygon fill="lightblue" stroke="black" stroke-width="2" points="372.15,-109 336.15,-109 336.15,-73 372.15,-73 372.15,-109"/>
<text text-anchor="middle" x="354.15" y="-86" font-family="times" font-size="20.00">0</text>
</g>
<!-- c_{k&#45;2}&#45;&gt;0 -->
<g id="edge1" class="edge"><title>c_{k&#45;2}&#45;&gt;0</title>
<path fill="none" stroke="black" d="M220.772,-170.038C234.829,-164.513 250.175,-157.443 263.15,-149 275.006,-141.285 274.383,-134.852 286.15,-127 302.704,-115.954 309.57,-118.327 327.15,-109 327.242,-108.951 327.333,-108.902 327.425,-108.853"/>
<polygon fill="gray" stroke="black" points="329.134,-111.908 336.067,-103.897 325.651,-105.836 329.134,-111.908"/>
<text text-anchor="middle" x="340.65" y="-133" font-family="times" font-size="20.00">atrous_conv</text>
</g>
<!-- 1 -->
<g id="node4" class="node"><title>1</title>
<polygon fill="lightblue" stroke="black" stroke-width="2" points="318.15,-109 282.15,-109 282.15,-73 318.15,-73 318.15,-109"/>
<text text-anchor="middle" x="300.15" y="-86" font-family="times" font-size="20.00">1</text>
</g>
<!-- c_{k&#45;2}&#45;&gt;1 -->
<g id="edge4" class="edge"><title>c_{k&#45;2}&#45;&gt;1</title>
<path fill="none" stroke="black" d="M135.425,-176.668C97.2267,-168.293 50.3773,-152.37 72.1498,-127 72.5563,-126.526 210.823,-105.531 271.813,-96.2899"/>
<polygon fill="gray" stroke="black" points="272.553,-99.7178 281.916,-94.7595 271.505,-92.7967 272.553,-99.7178"/>
<text text-anchor="middle" x="105.15" y="-133" font-family="times" font-size="20.00">identity</text>
</g>
<!-- 2 -->
<g id="node5" class="node"><title>2</title>
<polygon fill="lightblue" stroke="black" stroke-width="2" points="178.15,-109 142.15,-109 142.15,-73 178.15,-73 178.15,-109"/>
<text text-anchor="middle" x="160.15" y="-86" font-family="times" font-size="20.00">2</text>
</g>
<!-- c_{k&#45;2}&#45;&gt;2 -->
<g id="edge5" class="edge"><title>c_{k&#45;2}&#45;&gt;2</title>
<path fill="none" stroke="black" d="M135.502,-181.289C90.2315,-177.418 23.0518,-168.486 7.14981,-149 -27.7247,-106.264 78.8227,-95.5635 131.944,-92.8888"/>
<polygon fill="gray" stroke="black" points="132.262,-96.3783 142.099,-92.4425 131.955,-89.3851 132.262,-96.3783"/>
<text text-anchor="middle" x="28.1498" y="-133" font-family="times" font-size="20.00">conv</text>
</g>
<!-- 3 -->
<g id="node6" class="node"><title>3</title>
<polygon fill="lightblue" stroke="black" stroke-width="2" points="602.15,-109 566.15,-109 566.15,-73 602.15,-73 602.15,-109"/>
<text text-anchor="middle" x="584.15" y="-86" font-family="times" font-size="20.00">3</text>
</g>
<!-- c_{k&#45;2}&#45;&gt;3 -->
<g id="edge8" class="edge"><title>c_{k&#45;2}&#45;&gt;3</title>
<path fill="none" stroke="black" d="M220.693,-182.629C314.99,-179.236 535.37,-169.218 562.15,-149 571.678,-141.807 577.08,-129.921 580.143,-118.86"/>
<polygon fill="gray" stroke="black" points="583.56,-119.617 582.349,-109.091 576.732,-118.074 583.56,-119.617"/>
<text text-anchor="middle" x="609.15" y="-133" font-family="times" font-size="20.00">identity</text>
</g>
<!-- c_{k&#45;1} -->
<g id="node2" class="node"><title>c_{k&#45;1}</title>
<polygon fill="#b4eeb4" stroke="black" stroke-width="2" points="587.65,-203 502.65,-203 502.65,-167 587.65,-167 587.65,-203"/>
<text text-anchor="middle" x="545.15" y="-180" font-family="times" font-size="20.00">c_{k&#45;1}</text>
</g>
<!-- c_{k&#45;1}&#45;&gt;0 -->
<g id="edge2" class="edge"><title>c_{k&#45;1}&#45;&gt;0</title>
<path fill="none" stroke="black" d="M587.701,-176.585C626.109,-168.104 673.433,-152.063 651.15,-127 642.27,-117.012 455.495,-100.445 382.772,-94.3468"/>
<polygon fill="gray" stroke="black" points="382.769,-90.8346 372.514,-93.4927 382.189,-97.8104 382.769,-90.8346"/>
<text text-anchor="middle" x="713.65" y="-133" font-family="times" font-size="20.00">max_pooling</text>
</g>
<!-- c_{k&#45;1}&#45;&gt;1 -->
<g id="edge3" class="edge"><title>c_{k&#45;1}&#45;&gt;1</title>
<path fill="none" stroke="black" d="M502.521,-177.689C476.854,-172.602 444.209,-163.784 418.15,-149 405.846,-142.02 407.489,-133.918 395.15,-127 370.33,-113.085 358.108,-119.92 327.85,-108.448"/>
<polygon fill="gray" stroke="black" points="328.91,-105.097 318.333,-104.477 326.215,-111.558 328.91,-105.097"/>
<text text-anchor="middle" x="490.15" y="-133" font-family="times" font-size="20.00">down_sep_conv</text>
</g>
<!-- c_{k&#45;1}&#45;&gt;2 -->
<g id="edge6" class="edge"><title>c_{k&#45;1}&#45;&gt;2</title>
<path fill="none" stroke="black" d="M502.545,-181.688C404.168,-176.146 168.685,-161.622 157.15,-149 149.855,-141.017 149.324,-129.483 151.117,-118.875"/>
<polygon fill="gray" stroke="black" points="154.525,-119.671 153.402,-109.135 147.71,-118.072 154.525,-119.671"/>
<text text-anchor="middle" x="208.15" y="-133" font-family="times" font-size="20.00">down_conv</text>
</g>
<!-- c_{k&#45;1}&#45;&gt;3 -->
<g id="edge7" class="edge"><title>c_{k&#45;1}&#45;&gt;3</title>
<path fill="none" stroke="black" d="M587.874,-184.296C650.769,-183.717 763.608,-178.468 789.15,-149 795.554,-141.612 795.455,-134.473 789.15,-127 766.869,-100.593 663.326,-94.1082 612.477,-92.5168"/>
<polygon fill="gray" stroke="black" points="612.566,-89.018 602.475,-92.2461 612.376,-96.0154 612.566,-89.018"/>
<text text-anchor="middle" x="877.65" y="-133" font-family="times" font-size="20.00">donw_atrous_conv</text>
</g>
<!-- c_{k} -->
<g id="node7" class="node"><title>c_{k}</title>
<polygon fill="palegoldenrod" stroke="black" stroke-width="2" points="359.15,-36 293.15,-36 293.15,-0 359.15,-0 359.15,-36"/>
<text text-anchor="middle" x="326.15" y="-13" font-family="times" font-size="20.00">c_{k}</text>
</g>
<!-- 0&#45;&gt;c_{k} -->
<g id="edge9" class="edge"><title>0&#45;&gt;c_{k}</title>
<path fill="none" stroke="black" d="M347.372,-72.8129C344.139,-64.6151 340.198,-54.6231 336.594,-45.4847"/>
<polygon fill="gray" stroke="black" points="339.79,-44.0475 332.865,-36.0288 333.278,-46.6156 339.79,-44.0475"/>
</g>
<!-- 1&#45;&gt;c_{k} -->
<g id="edge10" class="edge"><title>1&#45;&gt;c_{k}</title>
<path fill="none" stroke="black" d="M306.444,-72.8129C309.446,-64.6151 313.105,-54.6231 316.451,-45.4847"/>
<polygon fill="gray" stroke="black" points="319.762,-46.6226 319.914,-36.0288 313.189,-44.2155 319.762,-46.6226"/>
</g>
<!-- 2&#45;&gt;c_{k} -->
<g id="edge11" class="edge"><title>2&#45;&gt;c_{k}</title>
<path fill="none" stroke="black" d="M178.231,-82.2666C203.347,-71.524 249.55,-51.7625 283.66,-37.1735"/>
<polygon fill="gray" stroke="black" points="285.114,-40.3582 292.932,-33.2076 282.361,-33.9221 285.114,-40.3582"/>
</g>
<!-- 3&#45;&gt;c_{k} -->
<g id="edge12" class="edge"><title>3&#45;&gt;c_{k}</title>
<path fill="none" stroke="black" d="M566.008,-85.0074C525.432,-73.8411 426.42,-46.5937 369.094,-30.818"/>
<polygon fill="gray" stroke="black" points="369.811,-27.3852 359.241,-28.1064 367.954,-34.1343 369.811,-27.3852"/>
</g>
</g>
</svg>
